<svg xmlns="http://www.w3.org/2000/svg" width="64" height="84" viewBox="0 0 64 84"><g><g><g><path fill="#fdb813" d="M47.547 62.424l-11.12 10.762-11.122-10.762c-3.057-3.178-3.057-8.424 0-11.554 2.695-2.777 7.087-2.404 9.883.214 1.275 1.2 1.2 1.2 2.476 0 2.796-2.618 7.212-2.991 9.883-.214 3.057 3.13 3.057 8.376 0 11.554zM17.804 16.448V49L11.55 38.853C9.898 36.179 6.366 35.343 3.7 37 1 38.647.196 42.19 1.848 44.868L15.305 67.11c2.313 3.813 2.499 3.89 2.499 8.395v3.748c0 2.058 1.68 3.747 3.732 3.747h29.603c2.057 0 3.737-1.69 3.737-3.747v-3.748C54.569 62.075 62 65.248 62 54.603v-29.76c0-2.753-2.243-5.007-5-5.007-2.738 0-5 2.254-5 5.008V11.917C52 8.77 49.45 6.2 46.314 6.2s-5.7 2.571-5.7 5.717v-4.2C40.614 4.57 38 2 34.909 2c-3.136 0-5.7 2.571-5.7 5.717v8.731c0-3.145-2.569-5.721-5.705-5.721s-5.7 2.576-5.7 5.721z"/></g><g><path fill="#d50032" d="M25.308 50.903c-3.077 3.097-3.077 8.294 0 11.441L36.5 73l11.192-10.656c3.077-3.147 3.077-8.344 0-11.441-2.692-2.75-7.132-2.38-9.946.212-1.283 1.188-1.209 1.188-2.492 0-2.814-2.592-7.254-2.961-9.946-.212z"/></g><g><path fill="#1c1c20" d="M26.078 61.198c-2.43-2.601-2.424-6.814.019-9.406 2.125-2.255 5.575-1.61 7.55.277l.105.1c.736.708 1.318 1.268 2.248 1.268.93 0 1.511-.56 2.248-1.268l.101-.098c1.978-1.89 5.429-2.534 7.554-.28 2.443 2.593 2.449 6.806.019 9.407L36 71zM36 75c.41 0 .819-.157 1.136-.47l11.08-10.945.041-.042c3.657-3.88 3.657-10.196 0-14.077-1.587-1.684-3.763-2.557-6.12-2.466-2.214.1-4.352 1-6.023 2.626l-.114.102-.117-.105A9.205 9.205 0 0 0 29.863 47c-2.358-.091-4.533.782-6.12 2.467-3.657 3.88-3.657 10.195 0 14.076l.041.043 11.08 10.945c.317.312.726.469 1.136.469z"/></g><g><path fill="#1c1c20" d="M40.5 40c-.828 0-1.5-.666-1.5-1.494v-.008A1.499 1.499 0 1 1 40.5 40z"/></g><g><g><path fill="#1c1c20" d="M57.395 17.774c-1.215 0-2.395.333-3.332.91v-7.161c0-4.046-3.28-7.338-7.314-7.338a7.249 7.249 0 0 0-4.257 1.38C41.699 2.372 38.818 0 35.395 0c-4.03 0-7.31 3.292-7.31 7.338v2.588A7.284 7.284 0 0 0 24 8.696c-4 0-7.269 3.304-7.269 7.304v26.704l-3.202-5.203C11.407 34.063 6.892 33 3.466 35.12A7.287 7.287 0 0 0 .2 39.677a7.304 7.304 0 0 0 .884 5.534l13.398 22.166.271.447c1.978 3.258 1.978 3.258 1.978 7.067v3.734c0 2.964 2.4 5.375 5.35 5.375H23c.933 0 1.665-.735 1.665-1.64 0-.907-.732-1.641-1.665-1.641h-.919A2.09 2.09 0 0 1 20 78.625V74.89c0-4.577-.243-5.13-2.456-8.775L3.871 43.497a4.043 4.043 0 0 1-.49-3.066c.25-1.06.89-1.954 1.803-2.52a4.043 4.043 0 0 1 5.565 1.317L17 49.343c.352.657 1.103.907 1.792.72A1.656 1.656 0 0 0 20 48.48V16c0-2.2 1.813-4 4-4 2.271 0 4.086 1.8 4.086 4v22.124c0 .876.732 1.64 1.634 1.64.903 0 1.635-.764 1.635-1.64V7.338c0-2.237 1.812-4.057 4.04-4.057 2.23 0 4.045 1.82 4.045 4.057v23.42c0 .905.732 1.64 1.635 1.64.925 0 1.634-.735 1.634-1.64V11.522c0-2.237 1.813-4.056 4.04-4.056 2.251 0 4.046 1.82 4.046 4.056v26.6c0 .877.731 1.641 1.634 1.641.903 0 1.634-.764 1.634-1.64V24.405c0-1.847 1.495-3.35 3.332-3.35a3.347 3.347 0 0 1 3.336 3.35V54.06c0 4.367-1.293 5.939-2.93 7.939-2.032 2.408-4.335 5.183-4.162 12.91v3.715a2.092 2.092 0 0 1-2.086 2.094H37.707c-.903 0-1.635.734-1.635 1.64 0 .907.732 1.641 1.635 1.641h13.846c2.953 0 5.355-2.411 5.355-5.375v-3.734-.038c-.15-6.51 1.577-8.591 3.405-10.794C62 62 64 59.615 64 54.06V24.405c0-3.656-3-6.63-6.605-6.63z"/></g><g><path fill="#1c1c20" d="M30.364 80.72c-.902 0-1.634.734-1.634 1.64 0 .907.732 1.64 1.634 1.64h.01A1.63 1.63 0 0 0 32 82.36c0-.906-.733-1.64-1.636-1.64z"/></g></g></g></g></svg>