<svg xmlns="http://www.w3.org/2000/svg" width="32" height="22" viewBox="0 0 32 22"><g><g><g><path fill="#f1f1f1" d="M29.39 20.69H2.665A1.875 1.875 0 0 1 .79 18.815V2.585C.79 1.55 1.63.71 2.665.71H29.39c1.036 0 1.875.84 1.875 1.875v16.23c0 1.036-.839 1.875-1.875 1.875z"/></g><g><path fill="#d50032" d="M5.07 4.41h8.733V14H5.07z"/></g><g><path fill="#ffdd69" d="M26.355 14.051H23.94a.88.88 0 0 1-.88-.88v-2.33c0-.487.394-.841.88-.841h2.415c.486 0 .88.354.88.84v2.331a.88.88 0 0 1-.88.88z"/></g><g><path fill="#fdb813" d="M9.439 9.327a1.939 1.939 0 1 0 0-3.877 1.939 1.939 0 0 0 0 3.877z"/></g><g><path fill="#fdb813" d="M11 9.32H7.857c-1.28 0-2.425.843-2.76 2.079a3.77 3.77 0 0 0-.027.106V14h8.733v-2.495a3.915 3.915 0 0 0-.027-.106C13.442 10.163 12.297 9.32 11 9.32z"/></g><g><path fill="#8e5aa9" d="M6.948 17.67H.79v1.14c0 1.035.84 1.875 1.875 1.875H29.39c1.036 0 1.875-.84 1.875-1.875v-1.14H12.396z"/></g><g><path fill="#1c1c20" d="M2.665 1.329H29.39c.692 0 1.255.563 1.255 1.255v14.472h-18.25a.62.62 0 0 0-.618.619c0 .325.277.62.619.62h18.25v.52c0 .692-.564 1.255-1.256 1.255H2.665a1.275 1.275 0 0 1-1.256-1.256v-.52h5.539a.63.63 0 0 0 .619-.619.62.62 0 0 0-.62-.62H1.41V2.585c0-.693.591-1.256 1.256-1.256zM29.39.09H2.665A2.497 2.497 0 0 0 .17 2.584v16.23a2.497 2.497 0 0 0 2.494 2.495H29.39a2.497 2.497 0 0 0 2.494-2.494V2.585A2.497 2.497 0 0 0 29.39.09z"/></g><g><path fill="#1c1c20" d="M17.52 5.219h3.344a.62.62 0 0 0 .619-.62c0-.342-.277-.599-.62-.599H17.52a.603.603 0 0 0-.619.6c0 .342.277.619.62.619z"/></g><g><path fill="#1c1c20" d="M23.56 5.219H27c.34 0 .617-.277.617-.62C27.617 4.257 27.34 4 27 4h-3.44a.603.603 0 0 0-.62.6c0 .342.277.619.62.619z"/></g><g><path fill="#1c1c20" d="M17.52 7.869H27a.619.619 0 0 0 0-1.24h-9.48a.62.62 0 0 0 0 1.24z"/></g><g><path fill="#1c1c20" d="M17.52 10.579h2.848c.342 0 .632-.277.632-.579a.64.64 0 0 0-.632-.66H17.52c-.342 0-.619.277-.619.66 0 .302.277.579.62.579z"/></g><g><path fill="#1c1c20" d="M26.615 13.17c0 .144-.117.261-.26.261h-2.416a.261.261 0 0 1-.26-.26v-2.332a.26.26 0 0 1 .26-.26h2.416a.26.26 0 0 1 .26.26zM23.94 9.34c-.826 0-1.499.66-1.499 1.5v2.33c0 .83.673 1.5 1.5 1.5h2.415a1.5 1.5 0 0 0 1.5-1.5v-2.33c0-.84-.673-1.5-1.5-1.5z"/></g><g><path fill="#1c1c20" d="M17.52 13.319h2.848c.342 0 .632-.319.632-.62a.63.63 0 0 0-.632-.619H17.52a.62.62 0 0 0-.619.62c0 .3.277.619.62.619z"/></g><g><path fill="#1c1c20" d="M8.435 5c-.914.42-1.557 1.327-1.557 2.383 0 .503.122.971.398 1.367a3.506 3.506 0 0 0-1.587.7V5zm4.748 4.45a3.506 3.506 0 0 0-1.586-.7c.25-.396.403-.865.403-1.367 0-1.056-.648-1.964-1.563-2.383h2.746v4.45zM8.117 7.383a1.32 1.32 0 0 1 2.638 0 1.32 1.32 0 0 1-1.319 1.32 1.32 1.32 0 0 1-1.32-1.32zm5.066 5.98H5.69v-1.78l.005-.021C6 10.608 6.842 9.941 7.856 9.941H11c1 0 1.92.667 2.178 1.621l.005.021zm.62 1.238c.342 0 .62-.277.62-.601V4.41a.62.62 0 0 0-.62-.62H5.069a.62.62 0 0 0-.619.62V14c0 .324.277.601.62.601z"/></g><g><path fill="#1c1c20" d="M10.063 17.152c-.467-.311-1.063.14-.94.68.07.254.302.44.566.453a.586.586 0 0 0 .608-.395.623.623 0 0 0-.234-.738z"/></g></g></g></svg>