<svg xmlns="http://www.w3.org/2000/svg" width="78" height="80" viewBox="0 0 78 80"><g><g><g><g><path fill="#d50032" d="M7 34.306l32-25.04 31.888 25.04a3.39 3.39 0 0 0 4.756-.585c1.152-1.475.89-3.604-.585-4.721L41.102 2.332a3.39 3.39 0 0 0-4.227-.044L2.863 29c-1.475 1.117-1.737 3.246-.585 4.72C3.43 35.197 5.56 35.458 7 34.307z"/></g><g><path fill="#fdb813" d="M45.766 30.211c.234-2.211 2.086-3.855 4.32-3.855a4.35 4.35 0 0 1 3.434 7.018c.573.737.915 1.626.915 2.626 0 2.445-1.947 4.392-4.349 4.392-2.235 0-4.086-1.686-4.32-3.855H32.168a4.35 4.35 0 0 1-4.321 3.855c-2.402 0-4.349-1.947-4.349-4.392 0-1 .341-1.89.915-2.626a4.35 4.35 0 0 1 3.434-7.018 4.316 4.316 0 0 1 4.321 3.855zM39 9.27L7 34.31V75c0 1.912 1.57 3.442 3.441 3.442H22V61.16c0-9.353 7.613-17.006 17-17.006 9.32 0 17 7.653 17 17.006v17.282h11.492c1.87 0 3.401-1.53 3.401-3.442V34.31z"/></g><g><path fill="#ffdd69" d="M45.767 30.205H32.17a4.321 4.321 0 0 0-4.321-3.855 4.35 4.35 0 0 0-3.434 7.018A4.236 4.236 0 0 0 23.5 36c0 2.439 1.947 4.386 4.349 4.386a4.35 4.35 0 0 0 4.321-3.855h13.597c.233 2.169 2.087 3.855 4.321 3.855 2.402 0 4.349-1.947 4.349-4.386 0-1-.342-1.896-.915-2.632a4.35 4.35 0 0 0-3.434-7.018c-2.235 0-4.088 1.65-4.32 3.855z"/></g><g><path fill="#8e5aa9" d="M56 61.156c0-9.353-7.68-17.006-17-17.006-9.387 0-17 7.653-17 17.006v17.282h34z"/></g></g><g><path fill="#1c1c20" d="M67.489 76.875h-9.957V76c0-.816-.7-1.516-1.532-1.516-.893 0-1.592.7-1.592 1.516v.875H23.52v-15.72c0-8.516 6.928-15.444 15.48-15.444 8.48 0 15.408 6.928 15.408 15.444v2.392c0 .863.7 1.563 1.592 1.563.833 0 1.532-.7 1.532-1.563v-2.392c0-10.238-8.33-18.568-18.532-18.568-10.275 0-18.605 8.33-18.605 18.568v15.72H10.44c-1.014 0-1.84-.825-1.84-1.875V35.065L39 11.251l30.328 23.814V75c0 1.05-.825 1.875-1.84 1.875zM77.889 31A4.85 4.85 0 0 0 76 27.735L42.08 1.11a4.925 4.925 0 0 0-6.166-.051L15.862 16.787A1.584 1.584 0 0 0 15.596 19a1.578 1.578 0 0 0 2.194.245L37.84 3.519a1.828 1.828 0 0 1 2.277.023l.024.019L74.1 30.196c.384.3.628.732.688 1.216.059.484-.074.963-.374 1.347s-.732.63-1.216.688a1.811 1.811 0 0 1-1.345-.37L39.928 8A1.67 1.67 0 0 0 38 8L6.076 33.074c-.385.3-.864.433-1.347.374a1.816 1.816 0 0 1-1.217-.689 1.813 1.813 0 0 1-.373-1.347c.06-.484.304-.916.69-1.218L8 27c.634-.574.752-1.556.22-2.235C7.687 24.086 6.706 24 6 24.5l-4.096 3.233A5.124 5.124 0 0 0 0 31a5.361 5.361 0 0 0 1 3.683c.864 1.041 2 1.704 3.347 1.866.38.046.757.048 1.128.01V75c0 2.773 2.227 5 4.964 5h57.05c2.737 0 4.964-2.227 4.964-5V36.557c.17.018.341.03.547.03.17 0 .375-.013.58-.038a4.92 4.92 0 0 0 3.298-1.866A4.956 4.956 0 0 0 77.89 31z"/></g><g><path fill="#1c1c20" d="M52.282 34.33c.383.492.585 1.083.585 1.67 0 1.575-1.25 2.825-2.786 2.825-1.42 0-2.61-1.06-2.769-2.468-.089-.79-.757-1.357-1.553-1.357H32.162c-.795 0-1.463.567-1.552 1.357a2.782 2.782 0 0 1-2.769 2.468c-1.537 0-2.787-1.25-2.787-2.825 0-.587.203-1.178.586-1.67.44-.565.44-1.33 0-1.92a2.756 2.756 0 0 1-.586-1.709 2.79 2.79 0 0 1 2.787-2.787c1.42 0 2.61 1.086 2.769 2.469.089.79.757 1.386 1.552 1.386h13.597c.796 0 1.464-.597 1.553-1.386a2.802 2.802 0 0 1 2.769-2.469 2.79 2.79 0 0 1 2.2 4.496c-.439.59-.439 1.355 0 1.92zm-7.746-5.686h-11.15a5.907 5.907 0 0 0-5.545-3.854 5.918 5.918 0 0 0-5.277 8.58A5.816 5.816 0 0 0 21.93 36c0 3.298 2.652 6 5.911 6 2.523 0 4.705-1.633 5.545-3.905h11.15c.84 2.272 3.021 3.905 5.545 3.905C53.34 42 56 39.298 56 36c0-.904-.225-1.81-.642-2.63.417-.82.642-1.726.642-2.669 0-3.26-2.66-5.911-5.92-5.911a5.907 5.907 0 0 0-5.544 3.854z"/></g><g><path fill="#1c1c20" d="M11.913 23.435c.375 0 .751-.134 1.087-.435.602-.552.65-1.54.069-2.179a1.563 1.563 0 1 0-1.156 2.614z"/></g><g><path fill="#1c1c20" d="M56 68.23c-.89 0-1.59.7-1.59 1.562 0 .864.7 1.563 1.59 1.563.835 0 1.534-.7 1.534-1.563s-.7-1.562-1.534-1.562z"/></g></g></g></svg>