<svg xmlns="http://www.w3.org/2000/svg" width="80" height="80" viewBox="0 0 80 80"><g><g><g><path fill="#d50032" d="M40.117 78.075c21.229 0 38.438-17.209 38.438-38.438C78.555 18.41 61.345 1.2 40.117 1.2S1.68 18.41 1.68 39.637c0 21.229 17.209 38.438 38.437 38.438z"/></g><g><g><g><path fill="#8e5aa9" d="M31.467 23.455a16.846 16.846 0 0 1 17.035-.018l3.39-8.512c-6.568-6.567-17.215-6.567-23.782 0z"/></g><g><g><path fill="#8e5aa9" d="M28.075 14.926c-6.567 6.567-6.567 17.214 0 23.781L55.88 66.511l7.712-7.712L35.787 31c-5.217-5.222-6.29-13-3.217-19.29z"/></g><g><path fill="#511c6c" d="M51.895 14.926c6.567 6.567 6.567 17.214 0 23.781L24.092 66.511l-7.712-7.712L44.184 31c5.217-5.222 6.29-13 3.217-19.29z"/></g></g></g></g><g><g><g><g><path d="M55.91 64.304L42.208 50.6 47.71 45.1l13.704 13.703zm-31.826 0l-5.502-5.502 26.7-26.699a18.386 18.386 0 0 0 5.047-16.5c.153.14.306.282.454.397 5.947 6 5.947 15.658 0 21.605zm5.128-26.699C23.265 31.658 23.265 22 29.212 16c.148-.115.3-.257.454-.398a18.386 18.386 0 0 0 5.048 16.501l3.074 3.074-5.502 5.502zm13.86-7.712L40 33l-3.076-3.107a15.232 15.232 0 0 1-3.583-5.667 15.248 15.248 0 0 1 13.313 0 15.23 15.23 0 0 1-3.582 5.667zm3.15-16.996a15.221 15.221 0 0 1 1.182 8.234 18.378 18.378 0 0 0-14.813 0 15.224 15.224 0 0 1 1.183-8.234 15.331 15.331 0 0 1 12.447 0zm18.505 44.8L49.92 42.889 53 39.815c7.159-7.166 7.159-18.815 0-25.99-7.173-7.167-18.832-7.166-26 0a18.265 18.265 0 0 0-5.38 12.995c0 4.909 1.91 9.524 5.38 12.995l3.076 3.074-14.808 14.808c-.61.61-.61 1.6 0 2.21L23 67.619c.284.305.684.457 1.084.457s.8-.152 1.105-.457L29 63.82l11-11.01 14.806 14.808c.293.293.69.457 1.105.457A1.5 1.5 0 0 0 57 67.62l7.727-7.712c.61-.61.61-1.6 0-2.21z"/></g></g></g><g><g><path d="M40 80c-10.684 0-20.73-4.16-28.284-11.716C4.16 60.73 0 50.684 0 40c0-10.684 4.16-20.73 11.716-28.284C19.27 4.16 29.316 0 40 0c8.142 0 16 2.432 22.658 7 .71.521.89 1.494.4 2.205-.489.71-1.462.89-2.172.4-6.158-4.239-13.38-6.48-20.886-6.48C19.667 3.125 3.125 19.667 3.125 40S19.667 76.875 40 76.875 76.875 60.333 76.875 40c0-7.508-2.242-14.731-6.483-20.89-.49-.71-.31-1.683.4-2.173s1.684-.31 2.208.4C77.568 24 80 31.858 80 40c0 10.684-4.16 20.73-11.716 28.284C60.73 75.84 50.684 80 40 80z"/></g></g><g><g><g><path d="M67.183 14.385c-.411 0-.815-.167-1.105-.458a1.56 1.56 0 0 1 1.105-2.667 1.56 1.56 0 0 1 1.105 2.667c-.288.29-.695.458-1.106.458z"/></g></g></g></g></g></g></svg>