<svg xmlns="http://www.w3.org/2000/svg" width="85" height="70" viewBox="0 0 85 70"><g><g><g><g><path fill="#fc4848" d="M10.777 18.57c7.488-2.973 18.917-4.873 31.723-4.873 12.806 0 24.235 1.9 31.723 4.873 5.7-1.783 9.117-4.058 9.117-6.57 0-5.695-18.285-10.34-40.84-10.34C19.945 1.66 1.66 6.305 1.66 12c0 2.512 3.416 4.786 9.117 6.57z"/></g><g><path fill="#d50032" d="M35.86 22.289C29.327 22 22.7 21.355 16.36 20a58.015 58.015 0 0 1-5.583-1.425C5.077 16.79 1.66 14.517 1.66 12v17.659c0 5.156 14.802 9.433 34.2 10.24z"/></g><g><path fill="#ffdd69" d="M35.86 22.281v17.61C38 40 40.24 40 42.5 40h.003c2.26 0 4.497 0 6.638-.11V22.28c-2.235.089-4.455.128-6.64.128-2.192 0-4.411-.039-6.641-.127z"/></g><g><g><path fill="#d50032" d="M49.14 22.279v17.61C53 39.732 56.591 39.44 60 39c9.08-1.473 9.417-17-.622-17.5-3.378.396-6.839.644-10.238.779z"/></g><g><path fill="#d50032" d="M59.38 21.508C69.42 22 69.082 37.535 60 39c1-.084 2-.218 3-.361 12.153-1.796 20.341-5.145 20.341-8.98V12c0 2.517-3.416 4.791-9.117 6.575-1.629.51-3.445.98-5.421 1.425a108.68 108.68 0 0 1-9.423 1.508z"/></g></g><g><path fill="#fdb813" d="M54.122 56.441c0 6.418-5.203 11.621-11.621 11.621S30.88 62.86 30.88 56.442A11.607 11.607 0 0 1 42.501 44.82c6.412 0 11.611 5.18 11.621 11.603v.018zm-11.621 3.32a3.32 3.32 0 1 0 0-6.64 3.32 3.32 0 0 0 0 6.64z"/></g><g><path fill="#8e5aa9" d="M42.5 59.76a3.32 3.32 0 1 0 0-6.64 3.32 3.32 0 0 0 0 6.64z"/></g></g><g><path fill="#1c1c20" d="M74.265 16.807C66.293 13.772 54.768 12 42.5 12c-12.273 0-23.802 1.774-31.775 4.811C5 14.934 3.32 13 3.32 12c0-1.081 2.256-3.544 10.68-5.692C21.615 4.381 31.725 3.32 42.5 3.32c10.775 0 20.885 1.061 28.5 2.988C79.424 8.456 81.68 10.92 81.68 12c0 1.301-2.357 3.143-7.415 4.807zM66.73 36.32c1.27-2.056 1.925-4.59 1.76-7.144-.161-2.514-1.154-5.07-3.035-6.871a78.604 78.604 0 0 0 3.694-.708 59.229 59.229 0 0 0 5.534-1.433l.051-.016c2.616-.822 5.085-1.845 6.946-3.148v12.655c0 1.639-4.067 4.594-14.95 6.665zm-24.223-4.514a1.66 1.66 0 0 0-1.66 1.66l-.004 4.895a159.565 159.565 0 0 1-3.324-.067V24c1.623 0 3.28.071 4.98.071 1.692 0 3.351-.071 4.981-.071v14.291c-1.099.035-2.205.058-3.316.07l.003-4.894a1.66 1.66 0 0 0-1.66-1.661zm9.81 22.961H50.9a1.67 1.67 0 0 0-1.66 1.66c0 .917.759 1.66 1.66 1.66h1.422a9.983 9.983 0 0 1-8.163 8.178V61.14a4.988 4.988 0 0 0 3.32-4.695 4.986 4.986 0 0 0-4.98-4.98 4.986 4.986 0 0 0-4.98 4.98 4.989 4.989 0 0 0 3.32 4.695v5.125a9.983 9.983 0 0 1-8.16-8.16H34.1a1.67 1.67 0 0 0 1.66-1.66 1.67 1.67 0 0 0-1.66-1.66H32.68c.793-4.704 4.892-8.3 9.818-8.3h.003c4.92 0 9.015 3.586 9.816 8.282zM42.5 58.105H42.5c-.916 0-1.66-.745-1.66-1.66 0-.915.745-1.66 1.66-1.66.915 0 1.66.745 1.66 1.66 0 .915-.744 1.66-1.66 1.66zm16.773-38.264c-.132 0-.274.014-.384.043-5.054.575-10.532.867-16.39.867-9.84 0-18.277-.751-25.795-2.367a3.003 3.003 0 0 0-.028-.006c7.145-1.94 16.228-3.021 25.823-3.021 9.594 0 18.675 1.08 25.82 3.02-2.833.623-5.854 1.09-9.046 1.464zm5.903 9.548c.224 3.478-1.57 7.332-5.426 8-2.854.342-5.859.611-8.95.762V23.866c2.977-.15 5.842-.382 8.586-.697 3.983.231 5.613 3.347 5.79 6.22zm-61.857.266V24.34c3.118 1.448 6.598 2.66 10.382 3.742a1.66 1.66 0 0 0 2.04-1.162c.258-.92-.277-1.797-1.16-2.04-4.19-1.15-7.972-2.57-11.262-4.228V17c1.853 1.298 4.309 2.318 6.918 3.14l.073.022A64.287 64.287 0 0 0 16 21.632c5.55 1.172 11.552 1.912 18.199 2.24v14.282c-7.6-.4-14.572-1.35-20.199-2.772-8.424-2.148-10.68-4.61-10.68-5.727zM71.787 3.09C63.943 1.098 53.542 0 42.5 0 31.457 0 21.056 1.097 13.213 3.09 4.446 5.318 0 8.327 0 12v17.655c0 3.708 4.446 6.718 13.213 8.945 7.45 1.893 17.207 2.977 27.629 3.082l-.001 1.59c-5.999.728-10.763 5.515-11.515 11.513H29c-.899 0-1.642.743-1.642 1.66 0 .917.743 1.66 1.642 1.66h.326c.82 6.542 6.413 11.621 13.174 11.621 6.767 0 12.364-5.088 13.176-11.639H56c.9 0 1.643-.743 1.643-1.66 0-.917-.744-1.66-1.643-1.66h-.328c-.76-5.989-5.52-10.767-11.51-11.496v-1.59c1.671-.017 3.333-.06 4.976-.127h.003l.022-.001a142.323 142.323 0 0 0 11.08-.88h.007c1.007-.122 1.999-.254 2.966-.396C71.352 39.077 85 36.1 85 29.655V12c0-3.673-4.446-6.682-13.213-8.91z"/></g><g><path fill="#1c1c20" d="M19.23 26h-.04a1.648 1.648 0 0 0-1.956 1.287c-.234.898.398 1.776 1.296 1.961A1.665 1.665 0 0 0 20.503 28a1.678 1.678 0 0 0-1.273-2z"/></g></g></g></svg>