<?xml version="1.0" encoding="UTF-8"?>
<svg width="85px" height="85px" viewBox="0 0 85 85" version="1.1" xmlns="http://www.w3.org/2000/svg" xmlns:xlink="http://www.w3.org/1999/xlink">
    <title>startup</title>
    <g id="About-Us" stroke="none" stroke-width="1" fill="none" fill-rule="evenodd">
        <g id="Careers" transform="translate(-314.000000, -1461.000000)" fill-rule="nonzero">
            <g id="Group-2" transform="translate(0.000000, 1379.000000)">
                <g id="startup" transform="translate(314.001375, 82.000000)">
                    <path d="M83.298326,1.66033619 C83.298326,1.66033619 82.9779163,10.5969447 79.264152,21.1040587 L63.8546034,5.69451018 C74.3617175,1.98074589 83.298326,1.66033619 83.298326,1.66033619 Z" id="Path" fill="#D50032"></path>
                    <path d="M63.8546034,5.69451018 L79.264152,21.1040587 C76.8502882,27.9405725 72.997071,35.4411479 66.8644625,41.5737564 C61.2131325,47.2250863 54.4144703,51.7488397 47.3061893,54.8848704 L30.0737918,37.6524729 C32.1722263,32.8961319 35.1007378,27.8210414 38.9705565,23.0148959 C40.3252421,21.33316 41.7944783,19.6846271 43.3849058,18.0941997 C49.5175143,11.9615912 57.0180896,8.10837396 63.8546034,5.69451018 Z" id="Path" fill="#FDB813"></path>
                    <path d="M64.5153447,20.4433175 C67.1085051,23.0364779 67.1085051,27.2416477 64.5153447,29.8348081 C61.9221843,32.4279685 57.7186746,32.4279685 55.123854,29.8348081 C52.5306936,27.2399876 52.5306936,23.0364779 55.123854,20.4433175 C57.7170144,17.8501571 61.9221843,17.8501571 64.5153447,20.4433175 Z" id="Path" fill="#8E5AA9"></path>
                    <g id="Group" transform="translate(17.559552, 20.352803)" fill="#D50032">
                        <path d="M44.6083354,25.9158686 C53.1647687,38.7505184 37.1476038,47.0463075 28.1744719,47.0463075 C32.8693872,42.3513922 31.4981,36.2835297 31.4981,36.2835297 L29.7466377,34.5320673 C34.5029786,32.4336328 39.5780691,29.5051213 44.3842147,25.6353026 L44.6083354,25.9158686 Z" id="Path"></path>
                        <path d="M10.5851413,29.458637 L10.3161964,29.1896921 C9.5226428,28.3944784 9.13250663,27.2423315 9.41141249,26.1532706 C10.1036967,23.4571806 11.1263515,20.4489818 12.5142401,17.2996698 L29.7466377,34.5320673 C26.5973257,35.919956 23.5891268,36.9426108 20.8930369,37.634895 C19.8039759,37.9138008 18.6518291,37.5236647 17.8566154,36.7301111 L17.5876705,36.4611662 L10.5851413,29.458637 Z" id="Path"></path>
                        <path d="M21.1304389,2.43797204 L21.4110049,2.66209282 C17.5411862,7.46823838 14.6126747,12.5433289 12.5142401,17.2996698 L10.7627778,15.5482074 C10.7627778,15.5482074 4.69491524,14.1769203 0,18.8718356 C0,9.89870369 8.29578906,-6.11846118 21.1304389,2.43797204 Z" id="Path"></path>
                    </g>
                    <path d="M28.1446929,49.8114401 L35.1472221,56.8139692 C34.6441955,58.8044938 33.4505448,60.899608 31.6459575,62.7041953 C27.7562169,66.5939359 17.5595516,67.3991105 17.5595516,67.3991105 C17.5595516,67.3991105 18.3647263,57.2024452 22.2544669,53.3127046 C24.0590542,51.5081174 26.1541684,50.3144667 28.1446929,49.8114401 Z" id="Path" fill="#FFDD69"></path>
                    <path d="M44.6017986,42.7474852 C45.2492586,42.098365 45.2492586,41.0474876 44.6017986,40.4000276 C43.9526784,39.7509074 42.901801,39.7509074 42.2526808,40.4000276 C41.6052208,41.0474876 41.6052208,42.098365 42.2526808,42.7474852 C42.901801,43.3949452 43.9526784,43.3949452 44.6017986,42.7474852 Z" id="Path" fill="#1C1C20"></path>
                    <path d="M65.7307434,31.0087029 C68.9743521,27.7650942 68.9750161,22.5135294 65.7307434,19.2694226 C62.4868026,16.0256479 57.2354038,16.0254819 53.991297,19.2694226 C50.7558231,22.5048966 50.7556571,27.7709048 53.9917951,31.009035 C57.2284311,34.2436788 62.4944393,34.245007 65.7307434,31.0087029 Z M56.3392527,21.6172123 C58.2854511,19.6710139 61.4364232,19.6706818 63.3829537,21.6172123 C65.3291521,23.5632447 65.3294842,26.7143828 63.3829537,28.6607473 C61.4417357,30.6021313 58.2817988,30.6021313 56.3395847,28.6610793 C54.3980347,26.7183672 54.3978687,23.5584303 56.3392527,21.6172123 Z" id="Shape" fill="#1C1C20"></path>
                    <path d="M16.9655486,40.7582888 C17.1709096,40.8434547 17.3867296,40.8847925 17.6005574,40.8847925 C18.0326955,40.8847925 18.4571968,40.7159549 18.7747843,40.3985334 C22.1088714,37.0644463 26.2212386,37.2729617 27.5646351,37.4496021 L28.146021,38.0309879 C27.001843,40.7536404 26.0801255,43.4610193 25.4041109,46.0941895 C25.1600682,47.0471178 25.2424119,48.0554953 25.6051555,48.9778768 C24.0067593,49.7144871 22.4646423,50.7960773 21.1219099,52.1388098 C16.8485077,56.412378 15.9807453,66.8271875 15.945882,67.2684564 C15.9076985,67.7527233 16.0833428,68.2295195 16.4268286,68.5730054 C16.7394356,68.8854463 17.1622768,69.0592644 17.6005574,69.0592644 C17.6440535,69.0592644 17.6877155,69.0576043 17.7313775,69.054118 C18.1726465,69.0194207 28.587788,68.1516583 32.8611902,63.8782561 C34.2034246,62.5360217 35.2848488,60.9940708 36.0214591,59.3960066 C36.9979617,59.7800002 38.0030188,59.8273146 38.9068066,59.5957231 C41.5388146,58.9198745 44.2458616,57.998489 46.968846,56.854145 L47.5502319,57.4355309 C47.7267063,58.7790934 47.9352216,62.8914606 44.6013005,66.2252157 C44.1266625,66.7000197 43.9845534,67.4140519 44.2415452,68.0342854 C44.498371,68.6546849 45.1036631,69.0592644 45.7751954,69.0592644 C52.3460845,69.0592644 61.5325462,65.1459497 64.9159398,58.8239176 C66.385342,56.0785211 67.3857508,51.7352264 64.195267,46.3149899 C65.5477944,45.1718079 66.8505172,43.9764971 68.0793631,42.7476512 C73.5611913,37.265823 77.8646422,30.1698272 80.8705169,21.657222 C84.625785,11.032569 84.9848763,2.09496448 84.9983236,1.7197697 C85.0149251,1.25907699 84.8391148,0.812329576 84.5132266,0.486275349 C84.1871724,0.160387137 83.7422511,-0.0162532384 83.2797322,0.00117837762 C82.9043714,0.0146256243 73.9669329,0.373882929 63.342778,4.12898505 C54.8295087,7.13485971 47.7335129,11.4384767 42.2518507,16.9203049 C41.0235029,18.1486527 39.828192,19.4512095 38.684512,20.8044009 C33.2644415,17.6139172 28.9211469,18.6143259 26.1754184,20.0837281 C19.8533863,23.4671218 15.9402375,32.6537494 15.9402375,39.2246386 C15.9402375,39.8960048 16.3453151,40.501463 16.9655486,40.7582888 Z M30.5134005,61.5303005 C28.2306889,63.8130121 22.8758625,65.0169557 19.4913067,65.5085273 C19.9830443,62.1238055 21.1871539,56.7691451 23.4696995,54.4865995 C24.748018,53.208281 26.2302034,52.2390831 27.7200255,51.6932245 L33.3067755,57.2799744 C32.7609169,58.7697965 31.791885,60.251982 30.5134005,61.5303005 Z M38.0820422,56.3793409 C37.6015936,56.5023583 37.04511,56.3217336 36.6313997,55.9086873 C28.5728466,47.8503003 38.9174316,58.1948853 29.0923088,48.3695964 C28.6782664,47.9547239 28.4976416,47.3984064 28.620327,46.9187879 C29.1520743,44.8479119 29.8475128,42.7232469 30.6931952,40.5781621 L44.4218379,54.3068048 C42.276421,55.1526532 40.1520881,55.8479257 38.0820422,56.3793409 Z M61.9889225,57.2572303 C59.8137888,61.3211211 54.3372731,64.3167028 49.3465184,65.3478244 C50.937776,62.3534048 51.2885665,58.5415254 50.7071806,56.2300931 C50.5722101,55.6931993 50.2219176,55.4232583 50.2023278,55.3915494 C54.2253787,53.4430267 58.0352659,51.105364 61.5720578,48.4164127 C63.29978,51.5730294 63.4420552,54.5418826 61.9889225,57.2572303 Z M78.5766822,18.0271295 L66.9728705,6.42331774 C73.2949026,4.45968771 78.7948265,3.72440554 81.540057,3.46010904 C81.2755944,6.20583758 80.5401463,11.7057615 78.5766822,18.0271295 Z M44.6003044,19.2680945 C49.5185104,14.3497226 55.8659428,10.4354117 63.4714399,7.61779848 L77.3822015,21.5285601 C74.5649203,29.1338911 70.6506094,35.4813236 65.7319055,40.3998616 C64.2359408,41.8956602 62.6250934,43.3408242 60.9440216,44.6950117 C56.902875,47.9489134 52.4549906,50.7051009 47.7096067,52.8991603 L32.1008397,37.2907253 C34.2948991,32.5450094 37.0510866,28.097125 40.3046562,24.0564764 C41.6600059,22.3742425 43.1050038,20.7632291 44.6003044,19.2680945 Z M27.7427697,23.0110775 C30.4586154,21.5577788 33.4271366,21.70022 36.5834212,23.4279422 C33.89447,26.964402 31.5568072,30.7744552 29.6082846,34.7978382 C29.5835483,34.7825648 29.2847206,34.406872 28.7295651,34.2816964 C28.501294,34.2300656 24.1086928,33.285272 19.6520096,35.6538136 C20.6832972,30.6628929 23.6787129,25.1862112 27.7427697,23.0110775 Z" id="Shape" fill="#1C1C20"></path>
                    <path d="M35.210474,75.6168724 L39.9053892,70.920297 C40.5535133,70.2718409 40.5533473,69.2206314 39.9050572,68.5725073 C39.256435,67.9242172 38.2052256,67.9245492 37.5571015,68.5728393 L32.8621863,73.2694147 C32.2140622,73.9178709 32.2142282,74.9690803 32.8625183,75.6172044 C33.5111404,76.2653285 34.5623499,76.2653285 35.210474,75.6168724 Z" id="Path" fill="#1C1C20"></path>
                    <path d="M11.7305852,52.1376477 L16.4271606,47.4427325 C17.0756168,46.7946084 17.0757828,45.7433989 16.4276587,45.0949428 C15.7795346,44.4464867 14.7284912,44.4464867 14.079869,45.0946108 L9.38329363,49.789526 C8.73483752,50.4376501 8.7346715,51.4888596 9.38279559,52.1373157 C10.0307537,52.7854398 11.0817971,52.7861038 11.7305852,52.1376477 Z" id="Path" fill="#1C1C20"></path>
                    <path d="M25.8186513,70.9216251 L14.5727687,82.1658475 C13.9243126,82.8141376 13.9243126,83.865347 14.5726027,84.5136371 C15.2205608,85.1619272 16.2719362,85.1622593 16.9203924,84.5138032 L28.1662749,73.2695808 C28.814731,72.6212907 28.814731,71.5700812 28.1664409,70.9217911 C27.5184829,70.273501 26.4671074,70.273501 25.8186513,70.9216251 Z" id="Path" fill="#1C1C20"></path>
                    <path d="M12.53742,70.9216251 L1.29153748,82.1658475 C0.643081369,82.8141376 0.643081369,83.865347 1.29137147,84.5136371 C1.93932954,85.1619272 2.99070501,85.1622593 3.63916112,84.5138032 L14.8850437,73.2695808 C15.5334998,72.6212907 15.5334998,71.5700812 14.8852097,70.9217911 C14.2370856,70.273501 13.1857101,70.273501 12.53742,70.9216251 Z" id="Path" fill="#1C1C20"></path>
                    <path d="M2.83415249,70.4272313 L14.0783749,59.1813487 C14.726665,58.5328926 14.726665,57.4818491 14.0782089,56.833393 C13.4300848,56.1852689 12.3787093,56.1852689 11.7304192,56.833559 L0.486196825,68.0794416 C-0.162093275,68.7278977 -0.162093275,69.7789412 0.48636284,70.4273973 C1.13465294,71.0756874 2.18586239,71.0756874 2.83415249,70.4272313 Z" id="Path" fill="#1C1C20"></path>
                    <path d="M49.2968798,38.0510758 L51.6443375,35.7036182 C52.2926276,35.0553281 52.2926276,34.0041186 51.6443375,33.3556625 C50.9958813,32.7073724 49.9450039,32.7073724 49.2963818,33.3556625 L46.9489242,35.7031201 C46.3006341,36.3514102 46.3006341,37.4026197 46.9489242,38.0510758 C47.5973803,38.6993659 48.6484237,38.6993659 49.2968798,38.0510758 Z" id="Path" fill="#1C1C20"></path>
                </g>
            </g>
        </g>
    </g>
</svg>