<svg xmlns="http://www.w3.org/2000/svg" width="82" height="76" viewBox="0 0 82 76"><g><g><g><g><path fill="#d50032" d="M48.652 68.943l-4.153 3.28c-1.159.879-2.083 1.54-2.694 1.934-.51.328-1.157.33-1.668.002C35.514 71.199 13 53 6.147 41.254 2.799 35.542 1.6 30.424 1.6 24.45 1.6 9.685 11.943 1.6 23.682 1.6 29.866 1.6 34 3.698 36.718 6.116c2.412 2.149 6.086 2.145 8.496-.007C47.92 3.694 52 1.6 58.224 1.6 70 1.6 80.289 9.685 80.289 24.45c0 5.974-1.206 11.092-4.556 16.804-2.474 4.22-7.006 9.314-12 14.235l-4.136 4.004"/></g><g><g><path fill="#fdb813" d="M61.571 31.758c0-5.998-4.879-10.877-10.876-10.877-.149 0-.297.003-.444.01-1.909-3.145-5.366-5.251-9.305-5.251-3.946 0-7.397 2.105-9.305 5.25a11.167 11.167 0 0 0-.444-.009c-5.998 0-10.877 4.88-10.877 10.877 0 3.665 1.822 6.912 4.608 8.883a13.386 13.386 0 0 0-.375 3.147c0 7.37 5.997 13.367 13.367 13.367H44c7.342 0 13.338-5.997 13.338-13.367 0-1.076-.129-2.13-.338-3.147a10.935 10.935 0 0 0 4.571-8.883z"/></g><g><path fill="#8e5aa9" d="M30.49 34.24c1.51 0 2.81-1.24 2.81-2.81 0-1.552-1.3-2.81-2.81-2.81a2.81 2.81 0 0 0-2.81 2.81c0 1.57 1.258 2.81 2.81 2.81z"/></g><g><path fill="#8e5aa9" d="M51.4 34.24c1.6 0 2.81-1.24 2.81-2.81 0-1.552-1.21-2.81-2.81-2.81a2.81 2.81 0 0 0-2.81 2.81c0 1.57 1.258 2.81 2.81 2.81z"/></g></g><g><path fill="#8e5aa9" d="M35.53 39.297a5.482 5.482 0 0 1 10.829 0 5.482 5.482 0 0 1-2.17 10.514H37.7a5.48 5.48 0 0 1-2.17-10.514z"/></g><g transform="rotate(-45 -200 -1546)"><path fill="#8e5aa9" d="M41.057 28.521a2.81 2.81 0 1 0 0-5.62 2.81 2.81 0 0 0 0 5.62z"/></g></g><g><g><path fill="#1c1c20" d="M74.763 6.331C70.488 2.25 64.614 0 58.223 0c-5.685 0-10.421 1.654-14.075 4.916a4.781 4.781 0 0 1-6.367.005C34.115 1.656 29.37 0 23.68 0 17.29 0 11.413 2.248 7.134 6.33 2.467 10.783 0 17 0 24.45c0 6.646 1.426 11.914 4.767 17.613C11.871 54.178 34.72 72.59 39.274 75.505A3.17 3.17 0 0 0 41 76c.562 0 1.154-.166 1.671-.499.657-.423 1.624-1.116 2.794-2.004.008-.006.017-.012.025-.02l4.153-3.28c.693-.547.811-1.553.263-2.197a1.564 1.564 0 0 0-2.246-.313L43.52 71c-1.358 1-2.134 1.522-2.52 1.793-5.058-3.235-27-21.235-33.473-32.348-3.034-5.174-4.328-9.958-4.328-15.996C3.199 9.85 13.817 3.2 23.68 3.2c4.882 0 8.91 1.383 11.972 4.11a7.994 7.994 0 0 0 10.625-.007c3.05-2.723 7.07-4.103 11.946-4.103 9.856 0 20.465 6.65 20.465 21.25 0 6.028-1.296 10.812-4.336 15.996-2.149 3.664-6.1 8.343-11.732 13.894l-4.136 4.004c-.635.657-.652 1.657-.037 2.262a1.6 1.6 0 0 0 2.261.037l4.147-4.014C70.7 50.869 74.823 46 77.113 42.063c3.347-5.71 4.775-10.977 4.775-17.614 0-7.449-2.464-13.666-7.125-18.118z"/></g><g><path d="M55.624 63.587a1.644 1.644 0 0 0-1.52-.987 1.61 1.61 0 0 0-1.479 1.11c-.204.636.018 1.349.548 1.757.527.405 1.27.436 1.827.08.65-.409.92-1.252.624-1.96z"/></g><g><path fill="#1c1c20" d="M21.919 31.767c0-5.115 4.162-9.277 9.277-9.277.127 0 .252.002.378.008A1.575 1.575 0 0 0 33 21.729c1.71-2.805 4.677-4.48 7.945-4.48 3.268 0 6.235 1.675 7.938 4.48.303.498.85.795 1.434.769.125-.006.25-.008.377-.008 5.116 0 9.306 4.162 9.306 9.277 0 3.003-1.498 5.835-4 7.578-.495.379-.745 1.045-.591 1.655.218.93.33 1.863.33 2.797 0 6.489-5.28 11.767-11.739 11.767h-6.08c-6.489 0-11.768-5.278-11.768-11.767 0-.934.111-1.866.33-2.797a1.576 1.576 0 0 0-.63-1.655 9.302 9.302 0 0 1-3.933-7.578zM44 58.763c8.223 0 14.937-6.763 14.937-14.966 0-.797-.07-1.67-.208-2.492a12.503 12.503 0 0 0 4.441-9.538c0-6.767-5.372-12.248-12.06-12.469C48.768 16 45 14 40.946 14c-4.086 0-7.822 2-10.166 5.298-6.687.22-12.059 5.702-12.059 12.47 0 3.683 1.643 7.175 4.442 9.537C23 42.127 23 43 23 43.797 23 52 29.667 58.763 37.92 58.763z"/></g><g><path fill="#1c1c20" d="M30.49 30.219c.667 0 1.21.543 1.21 1.21 0 .668-.543 1.21-1.21 1.21-.668 0-1.211-.542-1.211-1.21 0-.667.543-1.21 1.21-1.21zm0 5.62a4.414 4.414 0 0 0 4.409-4.41C34.899 29 32.92 27 30.489 27c-2.431 0-4.409 2-4.409 4.43a4.414 4.414 0 0 0 4.41 4.409z"/></g><g><path fill="#1c1c20" d="M51.4 30.219c.667 0 1.21.543 1.21 1.21 0 .668-.543 1.21-1.21 1.21-.668 0-1.211-.542-1.211-1.21 0-.667.543-1.21 1.21-1.21zm0 5.62a4.414 4.414 0 0 0 4.409-4.41C55.809 29 53.83 27 51.399 27 49 27 47 29 47 31.43c0 2.43 2 4.409 4.4 4.409z"/></g><g><path fill="#1c1c20" d="M37.11 39.543c.292-1.867 1.94-3.274 3.834-3.274 1.894 0 3.542 1.407 3.834 3.274a1.6 1.6 0 0 0 .947 1.222 3.88 3.88 0 0 1-1.536 7.446h-6.49a3.88 3.88 0 1 1-1.536-7.446c.505-.218.837-.68.947-1.222zm.59 11.867h6.489a7.088 7.088 0 0 0 7.08-7.08 7.077 7.077 0 0 0-3.512-6.116 7.038 7.038 0 0 0-6.813-5.144c-3.222 0-5.944 2.118-6.813 5.144C32 39.472 30.62 41.79 30.62 44.33a7.088 7.088 0 0 0 7.08 7.08z"/></g><g><path fill="#1c1c20" d="M40.94 24.599c.667 0 1.21.543 1.21 1.21 0 .668-.543 1.191-1.21 1.191-.668 0-1.211-.523-1.211-1.19 0-.668.543-1.211 1.21-1.211zm0 5.62a4.414 4.414 0 0 0 4.409-4.41 4.414 4.414 0 0 0-4.41-4.409 4.414 4.414 0 0 0-4.409 4.41 4.414 4.414 0 0 0 4.41 4.409z"/></g></g></g></g></svg>