<svg xmlns="http://www.w3.org/2000/svg" width="32" height="33" viewBox="0 0 32 33"><g><g><g><g><path fill="#fdb813" d="M16.563 25.74l4.283-4.284-9.636-9.636-4.284 4.283c.074-.855-.334-1.732-1.163-2.262-.763-.508-1.872-.496-2.658.026a2.48 2.48 0 0 0-.403 3.833c.8.8 1.767.73 1.907.72l-3.456 3.457a1.239 1.239 0 0 0 0 1.752l2.783 2.783a2.483 2.483 0 0 1 1.163-2.262c.796-.508 1.901-.496 2.66.026 1.355.9 1.488 2.746.401 3.824a2.446 2.446 0 0 1-1.906.73L9 31.513c.52.487 1.305.487 1.789 0l3.456-3.457a2.483 2.483 0 0 0 1.164 2.262 2.482 2.482 0 0 0 2.658-.026 2.481 2.481 0 0 0 .403-3.833 2.473 2.473 0 0 0-1.907-.72z"/></g><g><path fill="#d50032" d="M30.903 9.647a1.239 1.239 0 0 1 0 1.752l-3.457 3.456A2.505 2.505 0 0 1 29.71 16c.507.814.495 1.89-.026 2.677-.9 1.323-2.746 1.49-3.834.403a2.474 2.474 0 0 1-.72-1.907l-4.283 4.283-3.66-3.66A2.456 2.456 0 0 1 16 20.059c-.772.509-1.849.496-2.636-.058-1.364-.867-1.49-2.713-.364-3.8.485-.524 1.184-.764 1.869-.721l-3.659-3.66 4.283-4.283a2.476 2.476 0 0 0 .72 1.908C17.302 10.53 19.148 10.397 20 9c.568-.745.58-1.822.073-2.618A2.484 2.484 0 0 0 17.81 5.22l3.456-3.456c.484-.484 1.268-.484 1.733 0l2.802 2.783c-.053-.855.334-1.733 1.198-2.262.761-.508 1.838-.496 2.624.026 1.376.9 1.49 2.746.376 3.833a2.38 2.38 0 0 1-1.88.72z"/></g></g><g><g><path fill="#1c1c20" d="M25 14.698a.665.665 0 0 0 0-.877.647.647 0 0 0-.898 0 .62.62 0 0 0 0 .877.647.647 0 0 0 .898 0z"/></g><g><path fill="#1c1c20" d="M1.59 22.314L5 18.858a.565.565 0 0 0 .17-.693.622.622 0 0 0-.605-.363 1.86 1.86 0 0 1-1.118-3.42C4 14 4.843 14 5.429 14.362c.571.38.921 1.015.879 1.701a.62.62 0 0 0 1.056.477l3.845-3.845 2.373 2.373a3.098 3.098 0 0 0-1.06.693A3.11 3.11 0 0 0 13 20.547c1 .66 2.354.673 3.355.033a3.128 3.128 0 0 0 1.244-1.495L20 21.455 16.124 25.3a.618.618 0 1 0 .477 1.056 1.752 1.752 0 0 1 1.399.54 1.838 1.838 0 0 1-.276 2.88 1.867 1.867 0 0 1-1.983.02 1.863 1.863 0 0 1-.879-1.702.62.62 0 0 0-1.056-.477l-3.456 3.457a.615.615 0 0 1-.876 0L7.54 29.139a2.887 2.887 0 0 0 1.059-.693C10 27.06 9.758 24.76 8.1 23.659 7.107 23 5.767 23 4.765 23.627a3.14 3.14 0 0 0-1.243 1.495L1.59 23.19a.615.615 0 0 1 0-.876zM15.081 8.823c.209.525.519.884.694 1.058 1.378 1.378 3.682 1.119 4.786-.498.66-.992.673-2.332.033-3.383-.37-.532-.893-1-1.495-1.194L21.704 2.2a.683.683 0 0 1 .438-.2c.165 0 .32.083.438.2L25.363 5a.645.645 0 0 0 .693.11.623.623 0 0 0 .363-.603 1.863 1.863 0 0 1 .88-1.702 1.86 1.86 0 1 1 .86 3.44.62.62 0 0 0-.478 1.056l2.783 2.783a.615.615 0 0 1 .181.438c0 .166-.064.321-.181.478L27 14.417a.63.63 0 0 0-.12.692.63.63 0 0 0 .604.364 1.864 1.864 0 0 1 1.702.879 1.86 1.86 0 1 1-3.44.86.664.664 0 0 0-.363-.604.62.62 0 0 0-.693.126l-3.845 3.845-3.221-3.221a.62.62 0 0 0-1.056.477 1.862 1.862 0 0 1-.88 1.7 1.86 1.86 0 1 1-.859-3.44c.258.017.498-.095.604-.362.106-.235.055-.51-.127-.733l-3.22-3.18zM3.497 26.849c.182.151.503.233.693.151.235-.13.38-.37.364-.627a1.863 1.863 0 0 1 .878-1.701c.568-.375 1.401-.366 1.983.02a1.86 1.86 0 0 1-1.123 3.419.59.59 0 0 0-.603.363.615.615 0 0 0 .126.693L8.598 32c.351.301.818.494 1.314.494.496 0 .963-.193 1.314-.494l2.605-2.655a3.099 3.099 0 0 0 4.578 1.463A3.12 3.12 0 0 0 18.907 26a3.37 3.37 0 0 0-1.059-.672l6.87-6.87a3.09 3.09 0 0 0 5.48.542c.658-1 .671-2.314.032-3.315a3.13 3.13 0 0 0-1.496-1.244l2.606-2.605c.35-.351.544-.836.544-1.314 0-.522-.193-.963-.544-1.314l-1.935-1.935a3.098 3.098 0 0 0 1.059-.693A3.118 3.118 0 0 0 30 1.794c-1-.66-2.367-.673-3.369-.033a3.13 3.13 0 0 0-1.243 1.495l-1.932-1.932C23.105 1 22.638.78 22.142.78c-.496 0-.963.22-1.314.544l-3.456 3.457c-.182.219-.233.458-.127.692.106.235.346.38.603.364a1.865 1.865 0 0 1 1.702.878 1.867 1.867 0 0 1-.02 1.983A1.856 1.856 0 0 1 16.65 9a1.842 1.842 0 0 1-.54-1.426c.016-.257-.11-.497-.363-.574a.568.568 0 0 0-.693.098c-.054.009-7.696 7.696-7.715 7.715a3.13 3.13 0 0 0-1.243-1.494 3.095 3.095 0 0 0-3.334.031 3.1 3.1 0 0 0-.499 4.787c.343.342.737.559 1.059.694L.714 21.438c-.35.351-.544.818-.544 1.314 0 .496.193.963.544 1.314z"/></g><g><path fill="#1c1c20" d="M26.727 12.947L28.715 11a.801.801 0 0 0 .182-.478.62.62 0 0 0-.182-.438L27 8.33c-.28-.242-.671-.242-.913 0s-.242.669 0 .876l1.314 1.315-1.55 1.549a.62.62 0 0 0 .876.876z"/></g></g></g></g></svg>