<svg xmlns="http://www.w3.org/2000/svg" width="66" height="85" viewBox="0 0 66 85"><g><g><g><g/><g><path fill="#fdb813" d="M40.816 78l5.483-12.53c1.092-2.47.18-5.419-2.14-6.85l-4.517-2.79H8.766l-4.517 2.79C1.93 60.051 1 63 2.11 65.47L7.592 78z"/></g><g><path fill="#fdb813" d="M34.15 25.59l3.794 12.817a45.443 45.443 0 0 1-2.837 33.04l-2.598 5.256H16.075l-2.598-5.255a45.444 45.444 0 0 1-2.837-33.041l3.794-12.817z"/></g></g><g><path fill="#fc4848" d="M37.94 38.408l-2.102-7.098c-2.838 5.041-8.1 8.513-14.218 8.772a17.03 17.03 0 0 0 8.817 2.444c2.918 0 5.665-.73 8.068-2.019a45.389 45.389 0 0 0-.565-2.099z"/></g><g><path fill="#fc4848" d="M24 49.086c-6-.251-11.12-3.536-14-8.346a46.245 46.245 0 0 0-1.22 9.557 17.059 17.059 0 0 0 6.387 1.234c3.226 0 6.242-.894 8.833-2.445z"/></g><g><path fill="#fdb813" d="M36.254 14.51l-.001-.004c-.316-.776-.7-1.506-1.143-2.205a15.424 15.424 0 0 0 .597-9.422 1.61 1.61 0 0 0-2.297-1.04 11.588 11.588 0 0 0-5.046 5.03 13.598 13.598 0 0 0-1.847-.539 11.872 11.872 0 0 0-4.82-.001l-.017.004c-.68.136-1.252.318-1.851.54a11.587 11.587 0 0 0-5.047-5.035 1.61 1.61 0 0 0-2.297 1.04 15.424 15.424 0 0 0 .597 9.423 13.841 13.841 0 0 0-1.145 2.209c-1.806 4.437-.154 9.49 3.913 12.064l4.67 2.908a6.765 6.765 0 0 0 7.152 0l4.67-2.908C36.409 24 38.06 18.948 36.254 14.51z"/></g><g><path fill="#ffdd69" d="M34.212 75.32H37c2.2 0 4 1.763 4 3.937V82H7.45v-2.743a3.937 3.937 0 0 1 3.937-3.937H14.2z"/></g><g><path fill="#ffdd69" d="M32.733 83.34H24.1v-3.846c0-1.494 1.25-2.794 2.793-2.794h3.046c1.543 0 2.794 1.3 2.794 2.794z"/></g><g><path fill="#ffdd69" d="M24.093 83.34H15.46v-3.846c0-1.494 1.25-2.794 2.794-2.794h3.045c1.543 0 2.794 1.3 2.794 2.794z"/></g><g><path fill="#1c1c20" d="M39.303 80.352H34.39v-.859c0-.701-.164-1.365-.454-1.956.064-.034.064-.066.064-.102l.223-.435H37c1.282 0 2.303 1 2.303 2.253zM31.07 81.68h-5.313v-2.187c0-.625.509-1.133 1.134-1.133h3.045c.625 0 1.134.508 1.134 1.133zm-13.945-2.187c0-.625.508-1.133 1.133-1.133h3.046c.625 0 1.133.508 1.133 1.133v2.187h-5.312zm-8.015-.24A2.26 2.26 0 0 1 11.387 77h2.967l.102.175c-.456.676-.652 1.47-.652 2.318v.86H9.11zm-1.448-20.79c.143.926.338 1.849.511 2.765.013.098.034.194.063.288A46.59 46.59 0 0 0 12 72.18l.717 1.476h-1.33A5.57 5.57 0 0 0 8 74.801l-4.367-9.997A3.875 3.875 0 0 1 5.124 60zm7.506-8.59c-1.605 0-3.168-.247-4.685-.728.073-1.48.222-2.954.444-4.417a18.688 18.688 0 0 0 7.221 4.856c-.977.191-1.975.289-2.98.289zm.212-21.636l4.264 2.655a8.366 8.366 0 0 0 8.906 0L33.141 28 34 31.085c-2.655 4.388-7.275 7.115-12.447 7.334-.732.03-1.358.581-1.553 1.248-.167.71.139 1.454.766 1.832a18.682 18.682 0 0 0 9.674 2.683c2.36 0 4.707-.45 6.891-1.31.383 1.951.669 3.927.747 5.915-2.078 3.48-5.615 5.65-9.642 5.821a1.66 1.66 0 1 0 .14 3.317c3.598-.152 6.921-1.548 9.487-3.925a44.052 44.052 0 0 1-4.445 16.709l-2.258 4.565c-.447-.151-.926-.274-1.424-.274H26.89c-.391 0-.771.09-1.133.186V61.758c0-.916-.757-1.66-1.66-1.66a1.66 1.66 0 0 0-1.66 1.66v13.428c-.362-.095-.742-.186-1.134-.186h-3.045c-.375 0-.74.087-1.088.174L15 70.71c-1.125-2.2-2-4.496-2.726-6.851a18.649 18.649 0 0 0 4.952.86c.884 0 1.62-.718 1.657-1.59a1.66 1.66 0 0 0-1.588-1.729 15.258 15.258 0 0 1-6.006-1.497 44.423 44.423 0 0 1-.84-7.309c1.551.407 3.112.6 4.719.6 3.415 0 6.76-.927 9.674-2.682a1.66 1.66 0 0 0 .751-1.833c-.181-.678-.806-1.217-1.538-1.248a15.4 15.4 0 0 1-12.261-6.973c.135-.53.28-1.057.435-1.582zm-.899-15.04a1.66 1.66 0 0 0 .147-1.502 13.858 13.858 0 0 1-.547-8.35 9.987 9.987 0 0 1 4.272 4.286 1.66 1.66 0 0 0 2.053.8A8.016 8.016 0 0 1 22 8a8.602 8.602 0 0 1 4.167 0c.543.071 1.09.231 1.623.428a1.66 1.66 0 0 0 2.052-.799 9.988 9.988 0 0 1 4.271-4.284c.684 2.752.49 5.715-.546 8.349a1.66 1.66 0 0 0 .146 1.503c.392.612.73 1.264 1 1.927l.001.004a8.163 8.163 0 0 1-3.249 10.038l-4.67 2.908a5.072 5.072 0 0 1-5.396 0l-4.67-2.908c-3.39-2.112-4.729-6.329-3.253-10.028.275-.674.613-1.327 1.005-1.94zm20.75 21.892l1.12 3.786c.071.241.14.483.207.725a15.506 15.506 0 0 1-9.107.97 18.681 18.681 0 0 0 3.404-1.68 18.453 18.453 0 0 0 4.375-3.8zM43.288 60a3.875 3.875 0 0 1 1.492 4.804L40.413 74.8A5.586 5.586 0 0 0 37 73.656h-1.136l.73-1.476a47.328 47.328 0 0 0 4.31-13.622zm20.304-18.938a1.66 1.66 0 0 0 1.66-1.66v-5.8a5.478 5.478 0 0 0-5.472-5.472 5.478 5.478 0 0 0-5.472 5.472v24.117c0 4.228-2.84 7.804-6.71 8.927l.224-.513C49.237 62.898 48 59.06 45 57.205l-3.67-2.287a46.57 46.57 0 0 0 .142-3.613c0-4.53-.652-9.03-1.937-13.373l-3.63-12.257c2.725-3.195 3.547-7.675 1.888-11.79l-.001-.003a15.323 15.323 0 0 0-.85-1.756 17.078 17.078 0 0 0 .376-9.653 3.257 3.257 0 0 0-1.819-2.18 3.261 3.261 0 0 0-2.84.067C30.62 1.397 28.863 3 27.604 4.887c-.245-.066-.49-.126-.736-.179a12.989 12.989 0 0 0-5.52-.001l-.017.004c-.247.053-.494.113-.74.18C19.332 3 17.575 1.396 15.536.36a3.26 3.26 0 0 0-2.84-.066 3.257 3.257 0 0 0-1.82 2.179 17.231 17.231 0 0 0 .377 9.653 15.28 15.28 0 0 0-.852 1.76A11.47 11.47 0 0 0 12.58 26L9 37.932c-.189.796-.403 1.596-.596 2.401v.004a47.08 47.08 0 0 0-1.295 10.967c0 1.173.045 2.346.134 3.516L3.38 57.205C.376 59.06-.823 62.898.59 66.133l5.293 12.113c-.06.326-.093.663-.093 1.007V82c0 .928.744 1.672 1.66 1.672h6.388A1.668 1.668 0 0 0 15.465 85H32.73a1.66 1.66 0 0 0 1.627-1.328H41c.88 0 1.624-.744 1.624-1.672v-2.747c0-.344-.033-.68-.093-1.007L43.086 77h3.242c10.436 0 18.926-8.514 18.926-18.95v-3.707a1.66 1.66 0 0 0-3.32 0v3.708c0 8.604-7.001 15.605-15.606 15.605h-1.791L46 70.293c6.5-.51 11.63-5.953 11.63-12.575V33.602c0-1.187.965-2.152 2.152-2.152 1.218 0 2.152.965 2.152 2.152v5.8c0 .917.742 1.66 1.66 1.66z"/></g><g><path fill="#1c1c20" d="M22.63 23.524c.37.476.9.688 1.468.688h.001c.569 0 1.104-.212 1.47-.688l.748-.899a1.92 1.92 0 0 0 .262-2.034 1.92 1.92 0 0 0-1.731-1.101H23.35a1.92 1.92 0 0 0-1.732 1.101 1.919 1.919 0 0 0 .263 2.035z"/></g><g><path fill="#1c1c20" d="M19 17.75c.417 0 .845-.177 1.154-.486.308-.264.486-.737.486-1.174A1.663 1.663 0 0 0 19 14.43c-.456 0-.885.178-1.194.486a1.674 1.674 0 0 0-.486 1.174c0 .437.178.91.486 1.174.31.309.736.486 1.194.486z"/></g><g><path fill="#1c1c20" d="M29.21 17.75c.437 0 .863-.177 1.174-.486.308-.264.486-.737.486-1.174 0-.436-.177-.865-.486-1.174a1.673 1.673 0 0 0-1.174-.486c-.438 0-.865.178-1.21.486-.272.31-.45.738-.45 1.174 0 .437.178.91.45 1.174.345.309.773.486 1.21.486z"/></g><g><path fill="#1c1c20" d="M63.59 48.53c-.437 0-.865-.176-1.174-.53-.308-.265-.486-.693-.486-1.13a1.663 1.663 0 0 1 1.66-1.66c.41 0 .865.177 1.174.486.308.304.486.737.486 1.174 0 .438-.177.865-.486 1.13-.309.354-.764.53-1.174.53z"/></g></g></g></svg>