<?xml version="1.0" encoding="UTF-8"?>
<svg width="85px" height="85px" viewBox="0 0 85 85" version="1.1" xmlns="http://www.w3.org/2000/svg" xmlns:xlink="http://www.w3.org/1999/xlink">
    <title>star</title>
    <g id="About-Us" stroke="none" stroke-width="1" fill="none" fill-rule="evenodd">
        <g id="Careers" transform="translate(-1041.000000, -1461.000000)" fill-rule="nonzero">
            <g id="Group-2" transform="translate(0.000000, 1379.000000)">
                <g id="star" transform="translate(1041.000000, 82.000098)">
                    <polygon id="Path" fill="#FC4848" points="12.6171875 54.1210938 72.3828125 54.1210938 72.3828125 68.7304688 12.6171875 68.7304688"></polygon>
                    <polygon id="Path" fill="#8E5AA9" points="25.8984375 39.5117188 59.1015625 39.5117188 59.1015625 54.1210938 25.8984375 54.1210938"></polygon>
                    <polygon id="Path" fill="#D50032" points="1.66015625 68.7304688 83.3398438 68.7304688 83.3398438 83.3398438 1.66015625 83.3398438"></polygon>
                    <path d="M43.5142517,2.29438773 L47.6873398,10.7436753 C47.8533554,11.0795974 48.1737136,11.3124084 48.5440063,11.3662339 L57.8707124,12.7190017 C58.8039016,12.8538894 59.1767883,14.0010835 58.5017014,14.6593093 L51.7553711,21.2389756 C51.4868926,21.500969 51.3649751,21.8770981 51.4285278,22.2467422 L53.0238342,31.5345383 C53.1833648,32.4638367 52.208023,33.1726455 51.3734055,32.7342605 L43.0304717,28.351059 C42.6990891,28.1766128 42.3035049,28.1772613 41.9721221,28.351059 L33.6317825,32.7388 C32.797165,33.1778335 31.8211746,32.4696731 31.9807053,31.5397263 L33.5708237,22.2512817 C33.6343765,21.8822861 33.5118103,21.5055083 33.243332,21.2441636 L26.4937592,14.6677398 C25.8180237,14.0101624 26.1902618,12.8629685 27.1234512,12.7267837 L36.4488601,11.3694763 C36.8198013,11.3156509 37.1401596,11.0828399 37.3055268,10.7469177 L41.4740752,2.29503636 C41.8910598,1.44874564 43.0966187,1.44874564 43.5142517,2.29438773 L43.5142517,2.29438773 Z" id="Path" fill="#FDB813"></path>
                    <path d="M31.88797,22.2415542 L30.343895,31.2595749 C30.1629639,32.3166275 30.5896758,33.3652496 31.4580154,33.9955903 C31.9482803,34.3516159 32.521553,34.5325469 33.0987168,34.5325469 C33.5435867,34.5325469 33.9910508,34.4248962 34.4041443,34.2076492 L42.5012969,29.9483108 L50.6010437,34.2031098 C51.5504456,34.7024536 52.6794815,34.6207427 53.5471726,33.9897537 C54.4148635,33.3587646 54.8415757,32.3101426 54.6593476,31.2530899 L53.1107329,22.2357178 L59.6605683,15.8480073 C60.4283906,15.0983428 60.6994629,13.9991379 60.3680801,12.9790498 C60.0360488,11.9589614 59.1703033,11.2294006 58.1087112,11.0757065 L49.0537261,9.76249703 L45.0032043,1.55899048 C44.527855,0.597267109 43.56678,0 42.4941636,0 C42.4941636,0 42.4941636,0 42.4935151,0 C41.4208984,0.000648498535 40.4598237,0.598564189 39.9851226,1.56028756 L35.9384917,9.76573948 L26.8841553,11.084137 C25.8225632,11.2384795 24.9574661,11.9680405 24.6260835,12.9887771 C24.2947007,14.0095139 24.5664214,15.1080703 25.3348923,15.8564377 L31.88797,22.2415542 Z M36.6881562,13.0121231 C37.5992966,12.8791809 38.3865737,12.3072051 38.7944795,11.4810181 L42.494812,3.97853855 L46.1990356,11.4790725 C46.6069412,12.3052597 47.3948669,12.8772354 48.3060073,13.0088806 L56.5847397,14.2098999 L50.5965042,20.0502778 C49.9369812,20.6935883 49.6360779,21.6189956 49.792366,22.527542 L51.2080383,30.771904 L43.803482,26.8815613 C42.9876709,26.4529038 42.0142746,26.4529038 41.1984634,26.8815613 L33.7952041,30.7764434 L35.2069854,22.5314331 C35.362625,21.6235352 35.0617217,20.6974792 34.4021987,20.0548172 L28.4100723,14.2170334 L36.6881562,13.0121231 Z" id="Shape" fill="#1C1C20"></path>
                    <path d="M67.5981904,17.2643281 C67.5981904,18.1813049 68.3413696,18.9244843 69.2583466,18.9244843 L74.375,18.9244843 C75.291977,18.9244843 76.0351562,18.1813049 76.0351562,17.2643281 C76.0351562,16.3473511 75.291977,15.6041718 74.375,15.6041718 L69.2583466,15.6041718 C68.3413696,15.6041718 67.5981904,16.3473511 67.5981904,17.2643281 Z" id="Path" fill="#1C1C20"></path>
                    <path d="M69.0897369,28.3854294 C69.4139863,28.7090302 69.8387527,28.8711548 70.2635193,28.8711548 C70.6889343,28.8711548 71.1137009,28.7090302 71.4379502,28.3854294 C72.0858003,27.7369309 72.0858003,26.6857148 71.4379502,26.0372163 L67.8348923,22.4348069 C67.1870422,21.7869568 66.1358262,21.7869568 65.4873276,22.4348069 C64.8388291,23.0833054 64.8388291,24.1345215 65.4873276,24.78302 L69.0897369,28.3854294 Z" id="Path" fill="#1C1C20"></path>
                    <path d="M66.6611099,12.5795747 C67.0858765,12.5795747 67.5112915,12.41745 67.8348923,12.0938491 L71.4340591,8.49403373 C72.0825576,7.84618382 72.0825576,6.79496773 71.4340591,6.1464692 C70.786209,5.49797066 69.7349929,5.49797066 69.0864944,6.1464692 L65.4873276,9.74563599 C64.8388291,10.3941345 64.8388291,11.4453506 65.4873276,12.0938491 C65.8115769,12.4180984 66.2363433,12.5795747 66.6611099,12.5795747 Z" id="Path" fill="#1C1C20"></path>
                    <path d="M10.6133271,18.9244843 L15.7299805,18.9244843 C16.6469575,18.9244843 17.3901367,18.1813049 17.3901367,17.2643281 C17.3901367,16.3473511 16.6469575,15.6041718 15.7299805,15.6041718 L10.6133271,15.6041718 C9.6963501,15.6041718 8.95317086,16.3473511 8.95317086,17.2643281 C8.95317086,18.1813049 9.6963501,18.9244843 10.6133271,18.9244843 Z" id="Path" fill="#1C1C20"></path>
                    <path d="M17.1527862,22.4348069 L13.5503769,26.0372163 C12.9018784,26.6857148 12.9018784,27.7369309 13.5503769,28.3854294 C13.8746262,28.7096787 14.2993926,28.8718032 14.7241592,28.8718032 C15.1489258,28.8718032 15.5743408,28.7096787 15.8979416,28.3854294 L19.500351,24.78302 C20.1488496,24.1345215 20.1488496,23.0833054 19.500351,22.4348069 C18.852501,21.7869568 17.8012847,21.7869568 17.1527862,22.4348069 Z" id="Path" fill="#1C1C20"></path>
                    <path d="M17.1527862,12.0938491 C17.4770356,12.4180984 17.901802,12.5802231 18.3265686,12.5802231 C18.7513352,12.5802231 19.1767502,12.4180984 19.500351,12.0938491 C20.1488496,11.4453506 20.1488496,10.3941345 19.500351,9.74563599 L15.9011841,6.1464692 C15.253334,5.49861912 14.2021179,5.49861912 13.5536194,6.1464692 C12.9051208,6.79496773 12.9051208,7.84618382 13.5536194,8.49468235 L17.1527862,12.0938491 Z" id="Path" fill="#1C1C20"></path>
                    <path d="M58.8460542,67.0703125 C58.4089661,67.0703125 57.980957,67.248001 57.6722717,67.5566865 C57.3635864,67.8653716 57.1858979,68.2940293 57.1858979,68.7304688 C57.1858979,69.1669082 57.3635864,69.5955659 57.6722717,69.904251 C57.980957,70.2129365 58.4089661,70.390625 58.8460542,70.390625 C59.2824936,70.390625 59.7111511,70.2129365 60.0198364,69.904251 C60.3298188,69.5955659 60.5062104,69.1669082 60.5062104,68.7304688 C60.5062104,68.2940293 60.3298188,67.8653716 60.0198364,67.5566865 C59.7111511,67.248001 59.2824936,67.0703125 58.8460542,67.0703125 Z" id="Path" fill="#1C1C20"></path>
                    <path d="M83.3398438,67.0703125 L74.0429688,67.0703125 L74.0429688,54.1210938 C74.0429688,53.2041167 73.2997895,52.4609375 72.3828125,52.4609375 L60.7617188,52.4609375 L60.7617188,39.5117188 C60.7617188,38.5947417 60.0185395,37.8515625 59.1015625,37.8515625 L25.8984375,37.8515625 C24.9814605,37.8515625 24.2382812,38.5947417 24.2382812,39.5117188 L24.2382812,52.4609375 L12.6171875,52.4609375 C11.7002105,52.4609375 10.9570312,53.2041167 10.9570312,54.1210938 L10.9570312,67.0703125 L1.66015625,67.0703125 C0.743179238,67.0703125 0,67.8134917 0,68.7304688 L0,83.3398438 C0,84.2568208 0.743179238,85 1.66015625,85 L83.3398438,85 C84.2568208,85 85,84.2568208 85,83.3398438 L85,68.7304688 C85,67.8134917 84.2568208,67.0703125 83.3398438,67.0703125 Z M27.5585938,41.171875 L57.4414062,41.171875 L57.4414062,52.4609375 L27.5585938,52.4609375 L27.5585938,41.171875 Z M81.6796875,81.6796875 L3.3203125,81.6796875 L3.3203125,70.390625 L51.9628906,70.390625 C52.8798676,70.390625 53.6230469,69.6474458 53.6230469,68.7304688 C53.6230469,67.8134917 52.8798676,67.0703125 51.9628906,67.0703125 L14.2773437,67.0703125 L14.2773437,63.0859375 L28.3886719,63.0859375 C29.3056489,63.0859375 30.0488281,62.3427583 30.0488281,61.4257812 C30.0488281,60.5088042 29.3056489,59.765625 28.3886719,59.765625 L14.2773437,59.765625 L14.2773437,55.78125 L70.7226562,55.78125 L70.7226562,67.0703125 L65.4652786,67.0703125 C64.5483017,67.0703125 63.8051223,67.8134917 63.8051223,68.7304688 C63.8051223,69.6474458 64.5483017,70.390625 65.4652786,70.390625 L81.6796875,70.390625 L81.6796875,81.6796875 Z" id="Shape" fill="#1C1C20"></path>
                    <path d="M35.859375,59.765625 C35.4229355,59.765625 34.9942779,59.9433135 34.6855927,60.251999 C34.3769073,60.5606841 34.1992188,60.9893418 34.1992188,61.4257812 C34.1992188,61.8622207 34.3769073,62.2908784 34.6855927,62.5995635 C34.9942779,62.908249 35.4229355,63.0859375 35.859375,63.0859375 C36.2958145,63.0859375 36.7244721,62.908249 37.0331573,62.5995635 C37.3418427,62.2908784 37.5195312,61.8622207 37.5195312,61.4257812 C37.5195312,60.9893418 37.3418427,60.5606841 37.0331573,60.251999 C36.7244721,59.9433135 36.2958145,59.765625 35.859375,59.765625 Z" id="Path" fill="#1C1C20"></path>
                </g>
            </g>
        </g>
    </g>
</svg>