<svg xmlns="http://www.w3.org/2000/svg" width="83" height="85" viewBox="0 0 83 85"><g><g><g><path fill="#fdb813" d="M14.57 70.599v5.76L11 77.489C9.44 78 8.354 79.49 8.354 81.172v2.167h8.44a6.432 6.432 0 0 0 6.408-5.868l1.853-17.704 13.01 16.863-3.633.96c-1.697.41-2.88 1.983-2.88 3.738v2.011h16.729C57.289 83.339 64.592 76 64.592 67v-1c0-5.41-2.592-10.543-6.94-13.808L43.418 39.377A10.83 10.83 0 0 1 40.472 35L31.9 11.93V1.66L26.051 8h-6.126c-1.31 0-2.555.576-3.422 1.558l-.73.827a4.563 4.563 0 0 1-3.422 1.544H6.729a4.378 4.378 0 0 0-3.238 7.326l4.615 5.07L16.696 26l.84 9.853S14.57 40.113 14.57 49v21.599z"/></g><g><path fill="#8e5aa9" d="M1.67 27L42.782 9.75 37.7 27.563 17.536 35.85z"/></g><g><path fill="#fdb813" d="M78.428 68.102A13.505 13.505 0 0 1 72 73.086c-1.557.563-3.146.84-4.72.84-1.339 0-2.668-.2-3.95-.597A16.295 16.295 0 0 0 64.59 67v-1l-.003-.27a5.963 5.963 0 0 0 4.519.368 6 6 0 0 0 3.318-2.593 5.97 5.97 0 0 0 .667-4.74A5.588 5.588 0 0 0 72 56.668a3.83 3.83 0 0 1-.227-4.201A3.709 3.709 0 0 1 75 50.57c1.114 0 2.198.43 2.946 1.43 3.535 4.484 4.054 11 .482 16.102z"/></g><g><path fill="#d50032" d="M22.224 44.64a6.504 6.504 0 0 1-6.505 6.504c-.391 0-.776-.035-1.149-.144v-2c0-5.132.987-8.715 1.821-10.83a6.502 6.502 0 0 1 5.833 6.47z"/></g><g><path fill="#d50032" d="M54.885 49.7a4.478 4.478 0 0 1-7.07 2.01c-.617-.505-1.458-.636-2.216-.39a9.256 9.256 0 0 1-3.211.444c-4.836-.181-8.76-4.13-8.913-8.966-.136-4.281 2.631-7.937 6.525-9.148l.47 1.35a10.844 10.844 0 0 0 2.946 4.375z"/></g><g><path fill="#1c1c20" d="M21.528 13.081a1.674 1.674 0 0 0-2.166-.898 1.675 1.675 0 0 0-.898 2.168 1.674 1.674 0 0 0 2.168.899 1.675 1.675 0 0 0 .896-2.169z"/></g><g><path fill="#1c1c20" d="M71.405 71.527c-1.342.473-2.732.738-4.133.738-.591 0-1.18-.045-1.763-.133.4-1.353.638-2.758.71-4.132 1.118.123 2.267 0 3.375-.318 1.769-.554 3.274-1.682 4.238-3.311 1.168-1.833 1.423-3.982.85-6.054-.274-.98-.682-1.879-1.343-2.67-.509-.647-.56-1.647-.128-2.363A2.05 2.05 0 0 1 75 52.23c.396 0 1.099.102 1.633.771 3.245 4.14 3.367 9.826.422 14.157a11.883 11.883 0 0 1-5.65 4.37zM48.858 50.428a3.935 3.935 0 0 0-2.501-.888c-.426 0-.857.067-1.278.204a8.064 8.064 0 0 1-2.636.364c-3.977-.108-7.19-3.382-7.316-7.36C35 39.88 36.575 37.235 39 35.864a12.719 12.719 0 0 0 3.298 4.747l10.5 9.453a2.823 2.823 0 0 1-3.94.364zM19 33.457l-.659-7.614A1.66 1.66 0 0 0 17 24.354l-3.257-.63 17.959-7.53 3.874 10.445zm1.555 11.179a4.851 4.851 0 0 1-4.333 4.817c0-2.453.178-4.92.706-7.333.148-.676.32-1.347.528-2.008 1.832.7 3.1 2.469 3.1 4.524zM8.221 26l6.918 1.376.468 5.503-10.16-5.675zM4.71 18.138A2.688 2.688 0 0 1 4 16.308a2.722 2.722 0 0 1 2.72-2.718h5.622A6.197 6.197 0 0 0 17 11.484l.739-.828c.55-.656 1.344-.982 2.177-.982H26c.506 0 .949-.194 1.263-.536l2.967-3.223v6.014c0 .197.035.393.104.578l.212.572-22.032 9.238zm35.519-5.518l-2.744 9.617-2.718-7.327zM75 48.91c-1.92 0-3.723 1.09-4.678 2.738-1.103 1.946-.946 4.352.4 6.043.349.447.606.959.76 1.516A4.317 4.317 0 0 1 71 62.64a4.324 4.324 0 0 1-2.4 1.873c-.798.251-1.6.268-2.416.06-.425-5.375-3.184-10.398-7.485-13.665L44.52 38.144A9.603 9.603 0 0 1 42 34.463l-2.564-6.965 4.933-17.29a1.66 1.66 0 0 0-.495-1.697c-.477-.424-1.155-.511-1.744-.29l-8.52 3.573-.06-.162V1.66c0-.66-.42-1.298-1.056-1.546-.638-.249-1.362-.114-1.825.422l-5.356 5.818h-5.398a6.227 6.227 0 0 0-4.666 2.105l-.73.828c-.519.624-1.345.982-2.177.982H6.719C3.39 10.27.681 13 .681 16.308c0 1.507.558 2.95 1.573 4.065l3.01 3.306L1 25.46c-.567.246-1 .804-1 1.438 0 .635.296 1.233.85 1.543l14.441 8.066c-.135.29-.291.621-.426.992-.586 1.33-.95 2.796-1.248 4.215a31.91 31.91 0 0 0-.617 4.63c-.07.878-.1 1.76-.1 2.657v7c0 .928.744 1.671 1.661 1.671s1.66-.743 1.66-1.671v-3.217a8.15 8.15 0 0 0 7.655-8.147 8.138 8.138 0 0 0-5.014-7.537l17.87-7.345 1.102 2.972c-3.749 1.886-6.163 5.832-6.026 10.127.192 5.715 4.798 10.359 10.51 10.573a10.924 10.924 0 0 0 3.786-.524c.236-.077.486-.04.65.098a6.142 6.142 0 0 0 8.51-.715l1.269 1.14c.037.034.076.067.116.097 3.924 2.933 6.268 7.605 6.274 12.478 0 .698.012 1.373-.035 2a14.658 14.658 0 0 1-.743 3.74c-1.966 5.774-7.442 9.938-13.873 9.938l-.053.001h-.127a8.595 8.595 0 0 0 1.84-5.32 1.66 1.66 0 1 0-3.32 0 5.327 5.327 0 0 1-5.32 5.32h-8.089v-.35c0-1.002.676-1.879 1.644-2.135l3.633-.959C39.514 78 40 76.74 39.498 75.807L37.311 72A7.857 7.857 0 0 1 40 61.405c2.402-1.54 5.488-1.617 8-.2l7.248 4.066c.752.45 1.811.166 2.26-.634.492-.8.166-1.812-.634-2.26l-7.239-4.068a11.188 11.188 0 0 0-11.448.286C35 60.58 33.203 63.868 33 67.325l-6.64-8.572a1.688 1.688 0 0 0-1.768-.583 1.66 1.66 0 0 0-1.198 1.424l-1.853 17.704c0 .01-.002.018-.003.027a4.747 4.747 0 0 1-4.754 4.354H10v-.507c0-.963.621-1.808 1.539-2.102l3.528-1.13a1.66 1.66 0 0 0 1.154-1.58v-5.761a1.66 1.66 0 0 0-3.32 0v4.548l-2.375.761a5.51 5.51 0 0 0-3.841 5.264v2.167c0 .917.743 1.661 1.66 1.661h8.44a8.053 8.053 0 0 0 8.06-7.369l1.42-13.566 8.948 11.6c-.767.202-1.56.335-2.274.72-1.133.615-2.051 1.525-2.57 2.68-.369.71-.486 1.485-.486 2.264v2.01c0 .918.743 1.661 1.66 1.661h16.784c6.916 0 12.925-4 15.91-9.727.998.206 2.013.313 3.035.313 1.79 0 3.565-.317 5.272-.94C75.452 73.584 78 71.595 79.786 69a15.042 15.042 0 0 0-.542-18c-1.024-1.344-2.561-2.09-4.244-2.09z"/></g><g><path fill="#1c1c20" d="M13.924 64.749c.652.251 1.431.088 1.893-.448A1.67 1.67 0 0 0 16 62.399c-.756-1.344-2.856-.95-3.082.601-.111.72.312 1.46 1.006 1.749z"/></g></g></g></svg>