<svg xmlns="http://www.w3.org/2000/svg" width="37" height="30" viewBox="0 0 37 30"><g><g><g><g><path fill="#fff" d="M16.75 6.358c0 .97.787 1.758 1.758 1.758 2.329-.116 2.328-3.43 0-3.516-.971 0-1.758.787-1.758 1.758z"/></g><g><path fill="#d50032" d="M23.434 6.362c0 1.93-1.614 4.203-3.16 6.06-.638.766-1.274 1.461-1.762 2.032a72.976 72.976 0 0 1-1.762-2.032c-1.547-1.857-3.16-4.13-3.16-6.06a4.922 4.922 0 1 1 9.844 0zm-3.164 0C20.184 4 16.84 4 16.754 6.362a1.758 1.758 0 0 0 3.516 0z"/></g><g><path fill="#8e5aa9" d="M18.508 14.451a79.654 79.654 0 0 1-1.762-2.03c-6.58 1.213-4.388 5.673 1.762 5.645 6.151.028 8.343-4.432 1.762-5.646-.638.766-1.27 1.461-1.762 2.031z"/></g><g><g><path fill="#fdb813" d="M4.335 10.257c1.996 0 3.615-.809 3.615-1.807-.136-2.387-7.096-2.386-7.23 0 0 .998 1.618 1.807 3.615 1.807z"/></g><g><path fill="#fdb813" d="M12.871 26.739c0-1.198-1.942-2.169-4.338-2.169-5.751.111-5.75 4.227 0 4.338 2.396 0 4.338-.971 4.338-2.169z"/></g><g><path fill="#fdb813" d="M26.71 23.158c0 1.098 1.78 1.988 3.976 1.988C36 25 36 21.271 30.686 21.17c-2.196 0-3.976.89-3.976 1.988z"/></g><g><path fill="#fdb813" d="M29.79 5.057c0 .943 1.457 1.626 3.21 1.626 4.357-.083 4.356-3.17 0-3.253-1.753 0-3.21.728-3.21 1.627z"/></g></g></g><g><g><path fill="#1c1c20" d="M17.47 6.36c0-.57.464-1.034 1.034-1.034 1.371.052 1.371 2.018 0 2.07-.57 0-1.034-.465-1.034-1.035zm3.53 0c0-1.36-1.128-2.48-2.495-2.48-3.287.12-3.286 4.837 0 4.962C19.872 8.842 21 7.729 21 6.36z"/></g><g><path fill="#1c1c20" d="M33 4.144c1.684 0 2.57.641 2.57.856 0 .31-.886 1-2.57 1-1.603 0-2.49-.69-2.49-1 0-.215.887-.856 2.49-.856zm-16.537 9.058c.37.436.732.798 1.063 1.222.154.175.3.34.474.498.236.327.781.327 1.053 0l.438-.498c.33-.424.692-.786 1.063-1.222 5.326 1.244 2.836 4.085-2.046 4.137-4.882-.052-7.37-2.894-2.045-4.137zm6.244-6.847c0 2.185-2.58 5.16-4.199 6.996-1.618-1.836-4.199-4.81-4.199-6.996a4.178 4.178 0 0 1 4.2-4.199 4.178 4.178 0 0 1 4.198 4.199zM33.94 23.156c0 .504-1.298 1.266-3.254 1.266s-3.253-.762-3.253-1.266c0-.503 1.297-1.265 3.253-1.265 1.956 0 3.254.762 3.254 1.265zM4.338 7.361c1.794 0 2.892-1.221 2.892-.839-1.605-.789-4.18 1.135-5.784 1.924 0-.383 1.098-1.085 2.892-1.085zm0 2.17c-1.794 0-2.892-2.627-2.892-3.009C.594 6.941.015 7.582 0 8.446c0 2.417 4.709 3.105 7 2.044l5.888 2.813c-1.613 1.546-.888 3.541 1.207 4.558 2.069 1.073 5.527 1.203 7.823.41l4.963 3.255C26.315 22 26 22.534 26 23.156c0 1.546 2 2.712 4.686 2.712 6.24-.05 6.24-5.372 0-5.423-.853 0-1.686.119-2.313.33l-4.91-3.22c2.138-1.318 2.022-3.618-.14-4.858l7.94-5.53a6.52 6.52 0 0 0 1.737.23c5.32-.043 5.32-4.655 0-4.699-2.227 0-3.936 1.01-3.936 2.302 0 .574.265 1 .723 1.433L21.766 12h-.2c1.364-1.8 2.587-3.811 2.587-5.645A5.651 5.651 0 0 0 18.508.71a5.651 5.651 0 0 0-5.644 5.645c0 1.834 1.222 3.844 2.587 5.645a4.412 4.412 0 0 0-1.144.376L8.292 9.522c.247-.324.384-.687.384-1.076-.015-.864-.594.419-1.446 0 0 .382-1.098 1.084-2.892 1.084z"/></g><g><path fill="#1c1c20" d="M8.531 28.19c-2.173 0-3.615-.87-3.615-1.446s1.442-1.446 3.615-1.446 3.615.87 3.615 1.446-1.442 1.446-3.615 1.446zm3.904-4.865c.26-.325.227-.759-.076-1.02-.302-.305-.759-.227-1.02.076L10 24c-2.796-.544-6.573.565-6.53 2.744 0 1.649 2.176 2.892 5.061 2.892s5.061-1.243 5.061-2.892c0-.998-.799-1.847-2.068-2.362z"/></g><g><path fill="#1c1c20" d="M14 19.66c-.387 0-.71.34-.71.723.036.958 1.41.958 1.446 0A.737.737 0 0 0 14 19.66z"/></g></g></g></g></svg>