<svg xmlns="http://www.w3.org/2000/svg" width="90" height="80" viewBox="0 0 90 80"><g><g><g><path fill="#d50032" d="M79.25 9.212a24.579 24.579 0 0 0-35.064 0 24.579 24.579 0 0 0-35.064 0c-9.683 9.788-9.683 25.697 0 35.5L40.69 76.673a4.9 4.9 0 0 0 6.99 0l31.57-31.96c9.682-9.804 9.682-25.713 0-35.5z"/></g><g transform="rotate(-26.693 -642 -1480.5)"><path fill="#ffdd69" d="M33.786 39.468c2.807-.01 5.102-5.931 5.128-13.227.025-7.295-2.23-13.191-5.037-13.191s-5.102 5.931-5.127 13.227c-.025 7.295 2.23 13.2 5.036 13.191z"/></g><g transform="rotate(-63.307 -620 -1480.5)"><path fill="#ffdd69" d="M55.9 31.288c7.295-.025 13.217-2.324 13.227-5.127.01-2.807-5.897-5.062-13.192-5.037-7.295.025-13.217 2.321-13.227 5.128-.01 2.806 5.897 5.061 13.192 5.036z"/></g><g><path fill="#ffdd69" d="M55.898 42.298c.03-.298.049-.66.049-.995 0-6.303-5.048-11.373-11.276-11.373-6.227 0-11.275 5.07-11.275 11.373 0 .336.02.697.048.995A9.142 9.142 0 0 0 30 49.49c0 5.037 4 9.12 9 9.12 2.149 0 4.12-.758 5.672-2.02a8.953 8.953 0 0 0 5.67 2.02c4.993 0 9.041-4.083 9.041-9.12 0-2.922-1.383-5.489-3.485-7.19z"/></g><g><path fill="#1c1c20" d="M81.43 7.89C76.354 2.805 69.604 0 62.425 0c-6.612 0-12.86 2.38-17.772 6.729A26.775 26.775 0 0 0 30.891.304c-5.599-.841-11.21.07-16.23 2.637a1.748 1.748 0 0 0-.76 2.35c.439.86 1.49 1.2 2.347.762C20.614 3.82 25.498 3 30.373 3.76c4.97.747 9.482 3.03 13.047 6.601a1.743 1.743 0 0 0 2.467 0C50.304 5.936 56.177 3.5 62.425 3.5c6.247 0 12.12 2.437 16.575 6.862a23.414 23.414 0 0 1 6.814 16.566A23.414 23.414 0 0 1 79 43.494L47 75.548c-.654.618-1.474.958-2.347.958-.872 0-1.653-.34-2.31-.958l-32-32.055a23.253 23.253 0 0 1-6.59-13.068C3 25.542 3.813 20.65 6 16.276c.48-.86.14-1.911-.718-2.35a1.743 1.743 0 0 0-2.347.762C.374 19.714-.536 25.335.304 30.944 1.162 36.667 3.78 41.86 7.877 46l32 32a6.648 6.648 0 0 0 4.776 2c1.805 0 3.5-.704 4.777-2l32-32c5.077-5.12 7.872-11.882 7.872-19.073 0-7.19-2.796-13.927-7.872-19.037z"/></g><g><path fill="#1c1c20" d="M58.738 28.272c-1.08 2.154-2.343 4.091-3.654 5.628a13.212 13.212 0 0 0-4.358-3.685 30.039 30.039 0 0 1 1.982-4.98C56.061 18.555 60 16 60.886 16.468c.32.161.748 1.218.54 3.369-.236 2.428-1.215 5.502-2.688 8.435zM46.402 56.276v-1.03l2.372-2.376a1.749 1.749 0 0 0 0-2.47 1.742 1.742 0 0 0-2.466 0l-1.65 1.652L43 50.399a1.734 1.734 0 0 0-2.46 0 1.75 1.75 0 0 0 0 2.47l2.373 2.377v1.03c-1.184.724-2.543 1.167-3.975 1.167-4.066 0-7.374-3.314-7.374-7.387a7.35 7.35 0 0 1 2.843-5.825c.467-.364.717-.941.664-1.532-.071-.317-.071-.592-.071-.842 0-5.317 4.349-9.644 9.657-9.644 5.343 0 9.628 4.327 9.628 9.644 0 .25-.014.525-.042.842-.052.59.198 1.168.664 1.532a7.35 7.35 0 0 1 2.844 5.825c0 4.073-3.308 7.387-7.374 7.387-1.433 0-2.792-.443-3.975-1.167zm-18.513-36.44c-.208-2.15.22-3.207.54-3.368.876-.468 4.825 2.086 8.178 8.767a30.035 30.035 0 0 1 1.983 4.98 13.209 13.209 0 0 0-4.36 3.684c-1.31-1.536-2.572-3.473-3.653-5.627-1.473-2.933-2.452-6.007-2.688-8.435zm34.564-6.49C58.427 11.32 52.936 17 49.59 23.667 48.7 25.444 48 27.266 47.44 29a14.477 14.477 0 0 0-2.782-.28c-.954 0-1.884.104-2.781.28a34.403 34.403 0 0 0-2.153-5.334C36.38 17 30.89 11.319 26.863 13.346c-2.578 1.299-2.639 4.836-2.446 6.829.28 2.882 1.36 6.315 3.043 9.667 1.427 2.843 3.166 5.38 4.97 7.27a13.083 13.083 0 0 0-.886 4.977 10.815 10.815 0 0 0-3.468 7.967c0 6 4.873 10.881 10.862 10.881 2.062 0 4.01-.573 5.72-1.632a10.883 10.883 0 0 0 5.718 1.632c5.99 0 10.863-4.88 10.863-10.88 0-3.057-1.239-5.912-3.468-7.968l.002-.232c0-1.672-.317-3.272-.888-4.744 1.803-1.89 3.542-4.427 4.97-7.27 1.682-3.353 2.763-6.786 3.043-9.668.193-1.993.102-5.53-2.445-6.828z"/></g><g><path fill="#1c1c20" d="M9.114 10.884c.963 0 1.744-.782 1.744-1.747 0-.965-.78-1.747-1.744-1.747-.963 0-1.744.782-1.744 1.747 0 .965.78 1.747 1.744 1.747z"/></g><g><path fill="#1c1c20" d="M40.874 46.214c.963 0 1.744-.782 1.744-1.747 0-.965-.78-1.747-1.744-1.747-.963 0-1.744.782-1.744 1.747 0 .965.78 1.747 1.744 1.747z"/></g><g><path fill="#1c1c20" d="M48.204 46.214c.963 0 1.744-.782 1.744-1.747 0-.965-.78-1.747-1.744-1.747-.963 0-1.744.782-1.744 1.747 0 .965.78 1.747 1.744 1.747z"/></g></g></g></svg>