<svg xmlns="http://www.w3.org/2000/svg" width="32" height="32" viewBox="0 0 32 32"><g><g><g><path fill="#d50032" d="M16 31.155c8.443 0 15.265-6.822 15.265-15.237C31.265 7.502 24.443.68 16 .68 7.612.68.79 7.502.79 15.918c0 8.415 6.822 15.237 15.21 15.237z"/></g><g><path fill="#fff" d="M16 27.806c6.601 0 11.926-5.325 11.926-11.893C27.926 9.345 22.6 4 16 4 9.465 4 4.14 9.345 4.14 15.913c0 6.568 5.325 11.893 11.86 11.893z"/></g><g><g><path fill="#1c1c20" d="M26.364 26.254A14.6 14.6 0 0 1 16 30.535c-3.878 0-7.549-1.535-10.31-4.281A14.522 14.522 0 0 1 1.41 15.917C1.409 12 2.929 8.341 5.69 5.58A14.506 14.506 0 0 1 16 1.3c3.932 0 7.603 1.52 10.364 4.281a14.501 14.501 0 0 1 4.281 10.337c0 3.905-1.52 7.576-4.281 10.337zm.876-21.55C24.245 1.71 20.263.06 16 .06c-4.208 0-8.19 1.65-11.186 4.644A15.753 15.753 0 0 0 .17 15.917c0 4.236 1.65 8.218 4.644 11.213A15.737 15.737 0 0 0 16 31.774c4.263 0 8.245-1.65 11.24-4.644a15.753 15.753 0 0 0 4.644-11.213c0-4.235-1.65-8.218-4.644-11.213z"/></g><g><path fill="#1c1c20" d="M25.81 8.11a12.57 12.57 0 0 0-6.866-4.363.62.62 0 0 0-.746.459c-.08.333.126.667.46.794 2.422.53 4.618 1.926 6.184 3.883a11.151 11.151 0 0 1 2.464 7.035c0 6.217-5.058 11.274-11.306 11.274-6.184 0-11.241-5.057-11.241-11.274 0-2.586.852-5.02 2.464-7.035C8.788 6.926 11 5.53 13.408 5c.332-.127.538-.461.459-.794a.62.62 0 0 0-.747-.459c-2.69.641-5.12 2.19-6.864 4.362a12.547 12.547 0 0 0-2.736 7.81C3.52 22.817 9.133 28.43 16 28.43c6.932 0 12.545-5.613 12.545-12.513 0-2.83-.972-5.603-2.736-7.809z"/></g><g><path fill="#1c1c20" d="M11.214 20.497a.62.62 0 0 0 .62-.62V11.95a.62.62 0 0 0-.62-.62H9.52a.62.62 0 0 0 0 1.24h1.076v7.309c0 .342.277.62.62.62z"/></g><g><path fill="#1c1c20" d="M15.6 13.621c0-.621.472-1.052 1.052-1.052.58 0 1.052.431 1.052 1.052a1.053 1.053 0 0 1-2.104 0zm1.052 5.638c-.923 0-1.652-.751-1.652-1.674 0-.923.73-1.673 1.652-1.673.923 0 1.674.75 1.674 1.673s-.751 1.674-1.674 1.674zm-2.912-1.674a2.886 2.886 0 0 0 2.912 2.912 2.91 2.91 0 1 0 1.662-5.302c.39-.41.63-.965.63-1.574a2.294 2.294 0 0 0-2.292-2.291 2.294 2.294 0 0 0-2.29 2.291c0 .61.24 1.164.638 1.575a2.895 2.895 0 0 0-1.26 2.39z"/></g><g><path fill="#1c1c20" d="M22.642 11.83c-.342 0-.642.277-.642.62v.702h-.68c-.32 0-.62.278-.62.62 0 .342.3.62.62.62H22v.702c0 .342.3.62.642.62a.61.61 0 0 0 .62-.62v-.703H24c.306 0 .584-.277.584-.62 0-.341-.278-.619-.584-.619h-.739v-.703a.61.61 0 0 0-.62-.619z"/></g><g><path fill="#1c1c20" d="M16 4.639A.63.63 0 0 0 16.649 4c0-.323-.277-.6-.649-.6a.61.61 0 0 0-.59.6c0 .362.277.639.59.639z"/></g></g></g></g></svg>