<svg xmlns="http://www.w3.org/2000/svg" width="100" height="76" viewBox="0 0 100 76"><g><g><g><path fill="#f1f1f1" d="M28.505 6.566C26.35 2.832 22.186 1 18.165 1.582L22.453 9l-1.99 4L16 12.742l-4.3-7.428a10.192 10.192 0 0 0-.853 11.448 10.187 10.187 0 0 0 8.479 5.09l14.58 25.249 9.35-5.398-14.582-25.248c1.594-3 1.656-6.73-.169-9.889z"/></g><g><path fill="#8e5aa9" d="M52 44.398l16.477-20.91-.024 33.835zM76.11 1.47L41.33 45.675 76.059 73z"/></g><g><g><path fill="#ffdd69" d="M51.18 50.173H44c-.903 0-1.63-.727-1.63-1.623v-35h10.433v35c0 .896-.727 1.623-1.624 1.623z"/></g><g><path fill="#fc4848" d="M47.586 2.77l5.217 8.776v2.004H42.37v-2.004z"/></g></g><g><g><path fill="#1c1c20" d="M10.94 42.19h69.137M20.59 21.117a1.466 1.466 0 0 0-1.217-.731A8.654 8.654 0 0 1 12.112 16a8.614 8.614 0 0 1-.45-7.82l3.055 5.293c.283.424.687.698 1.176.73l4.473.283a1.423 1.423 0 0 0 1.406-.81l1.99-4.018C24 9.22 24 8.7 23.718 8.276L20.663 3c2.712.285 5.155 1.845 6.571 4.297a8.689 8.689 0 0 1 .144 8.47c-.237.445-.227.982.025 1.419L40.151 39.26h-9.083zM47.586 5.632l3.752 6.312v.138h-7.504v-.138zm3.752 33.628h-7.504V15h7.504zm15.662 0h-9.067L67 27.722zm10.549 0l.008-10.99a1.465 1.465 0 0 0-2.93-.002L74.62 39.26h-4.688l.012-15.771c0-.625-.396-1.18-.944-1.385-.632-.205-1.286-.013-1.672.478l-13.061 16.6v-7.58L74.643 5.703l-.006 9.382a1.465 1.465 0 0 0 2.93.002l.009-13.617c0-.624-.395-1.18-.985-1.385C76-.119 75.346.073 75 .563l-20.733 26.3V11.542c0-.263-.07-.541-.205-.748L48.845 2a1.487 1.487 0 0 0-1.259-.699c-.516 0-.995.272-1.259.699l-5.216 8.793a1.67 1.67 0 0 0-.206.748v23.167L30.329 16.394a11.595 11.595 0 0 0-.558-10.561A11.596 11.596 0 0 0 17.945.13a1.465 1.465 0 0 0-1.052 2.181l3.896 6.749-1.21 2.44-2.717-.173L13 4.58a1.58 1.58 0 0 0-1.194-.728c-.483-.036-.953.148-1.255.548a11.597 11.597 0 0 0-.976 13.093 11.592 11.592 0 0 0 8.868 5.764l9.242 16.003H9.475c-.809 0-1.475.656-1.475 1.465h75c0-.81-.65-1.465-1.458-1.465z"/></g><g><path fill="#1c1c20" d="M76.115 23.14a1.465 1.465 0 1 0 0-2.93 1.465 1.465 0 0 0 0 2.93z"/></g></g></g><g><g><g><path fill="#db9b00" d="M23.189 30.47H2.419a.939.939 0 0 0-.878 1.292l6.32 15.356a.656.656 0 0 1 0 .71l-6.32 15.356a.939.939 0 0 0 .877 1.291H23.19z"/></g><g><path fill="#ffdd69" d="M15.44 40.437l7.746-9.967v34.005l-7.746 9.967z"/></g><g><path fill="#db9b00" d="M76.88 30.47h20.77a.939.939 0 0 1 .878 1.292l-6.32 15.356a.928.928 0 0 0 0 .71l6.32 15.356a.939.939 0 0 1-.877 1.291H76.88z"/></g><g><path fill="#ffdd69" d="M84.626 40.437L76.88 30.47v34.005l7.746 9.967z"/></g><g><path fill="#fdb813" d="M15.44 40.43h69.183v34.005H15.44z"/></g><g><g><path fill="#1c1c20" d="M86.088 63V40.433c0-.075-.007-.148-.018-.22l-.006-.037C86.051 40.104 86 40 86 40v-.058c0-.142-.12-.274-.21-.392l-.01-.017-5.908-7.601h16.996L90.85 46.554a2.408 2.408 0 0 0-.001 1.826L96.869 63zM3.193 63L9.21 48.383c.24-.581.24-1.248 0-1.827L3.194 31.932h16.996l-5.908 7.601-.011.017c-.09.118-.16.25-.211.392C14 40 14 40.095 14 40.176V63zm18.526-24h-3.285l3.285-4.26zm56.624-4.26L81.627 39h-3.284zm15.3 12.728l6.237-15.153a2.39 2.39 0 0 0-.225-2.245A2.411 2.411 0 0 0 97.647 29H76.611c-.068 0-.134.055-.199.077-.003 0-.007.001-.01.003l-.017.007c-.066.023-.129.05-.19.082l-.008.004c-.06.032-.117.07-.187.11v.025a.73.73 0 0 0-.167.13l-.016.018a1.422 1.422 0 0 0-.118.141c-.007.01-.015.018-.021.028a1.453 1.453 0 0 0-.103.17l-.014.03a1.642 1.642 0 0 0-.074.175h-.005a2.883 2.883 0 0 0-.054.258c-.01.068-.017.138-.017.208V39H24.65v-8.534a1.457 1.457 0 0 0-.023-.25A2.796 2.796 0 0 0 24.58 30h-.004a1.699 1.699 0 0 0-.075-.176l-.013-.029a1.488 1.488 0 0 0-.103-.17l-.02-.028a1.438 1.438 0 0 0-.119-.14l-.016-.019a1.497 1.497 0 0 0-.148-.13c-.012-.01-.023-.017-.081-.026 0-.04-.065-.077-.125-.109l-.01-.005a1.43 1.43 0 0 0-.188-.081l-.017-.007-.01-.003c-.066-.022-.133-.077-.202-.077H2.414c-.809 0-1.559.4-2.008 1.07-.406.665-.53 1.504-.225 2.245l6.236 15.153L.181 62.622c-.305.74-.181 1.58.225 2.245.449.67 1.2 1.07 2.008 1.07H14v8.501c0 .81.629 1.466 1.439 1.466h56.208c1.938-.06 1.937-2.904 0-2.904H16.904V41.898h66.253V73h-4.774c-1.938 0-1.937 2.844 0 2.904h6.24c.809 0 1.465-.656 1.465-1.466v-8.501h11.56c.808 0 1.558-.4 2.007-1.07.446-.665.53-1.505.225-2.246z"/></g></g></g><g/></g></g></svg>