<svg xmlns="http://www.w3.org/2000/svg" width="100.061" height="78.399" viewBox="0 0 100.061 78.399">
  <g id="Сгруппировать_2" data-name="Сгруппировать 2" transform="translate(-450 -5368.6)">
    <g id="sold" transform="translate(475 5369)">
      <g id="Group" transform="translate(0.972 0.972)">
        <path id="Path" d="M46.758,5.961H37.437a.968.968,0,0,1-.863-.526C34.97,2.295,29.888,0,23.865,0S12.76,2.295,11.157,5.435a.968.968,0,0,1-.863.526H.972A.972.972,0,0,0,0,6.933V26.027A.972.972,0,0,0,.972,27h9.322a.968.968,0,0,1,.863.526c1.6,3.14,6.686,5.435,12.708,5.435s11.1-2.295,12.708-5.435A.968.968,0,0,1,37.437,27h9.322a.972.972,0,0,0,.972-.972V6.933A.972.972,0,0,0,46.758,5.961Z" fill="#d50032"/>
        <g id="Group-2" data-name="Group" transform="translate(3.719 26.999)">
          <path id="Path-2" data-name="Path" d="M0,15.084a.972.972,0,0,0,.972.972H2.916a.972.972,0,0,0,.972-.972V0H0Z" fill="#ffdd69"/>
          <path id="Path-3" data-name="Path" d="M0,0V15.084a.972.972,0,0,0,.972.972H2.916a.972.972,0,0,0,.972-.972V0Z" transform="translate(36.403)" fill="#ffdd69"/>
        </g>
      </g>
      <g id="Group-3" data-name="Group">
        <path id="Shape" d="M42.067,45a1.946,1.946,0,0,1-1.944-1.944V28.944H38.408C36.59,32.507,31.135,34.9,24.837,34.9s-11.752-2.4-13.575-5.965H9.552V43.056A1.946,1.946,0,0,1,7.608,45H5.664a1.947,1.947,0,0,1-1.945-1.944V40.042a.972.972,0,0,1,1.945,0v3.014H7.608V28.941H5.664v2.381a.972.972,0,1,1-1.945,0V28.943H1.944A1.946,1.946,0,0,1,0,27V7.9A1.946,1.946,0,0,1,1.944,5.961h9.322C13.085,2.4,18.54,0,24.837,0S36.59,2.4,38.412,5.965l9.319,0A1.946,1.946,0,0,1,49.675,7.9V27a1.946,1.946,0,0,1-1.944,1.944H45.955V43.056A1.946,1.946,0,0,1,44.011,45Z" fill="#1c1c20" stroke="#1c1c20" stroke-miterlimit="10" stroke-width="0.8"/>
        <path id="Path-4" data-name="Path" d="M4.318,9.546H1.944V.972A.972.972,0,0,0,0,.972v9.546a.972.972,0,0,0,.972.972H4.318a.972.972,0,0,0,0-1.944Z" transform="translate(28.134 11.306)" fill="#1c1c20"/>
        <path id="Shape-2" data-name="Shape" d="M3.675,11.216H.972A.972.972,0,0,1,0,10.244V.972A.973.973,0,0,1,.972,0H3.6C6.419,0,8.314,2.254,8.314,5.608c0,3.2-1.944,5.561-4.622,5.608Z" transform="translate(34.977 11.443)" fill="#1c1c20"/>
        <path id="Path-5" data-name="Path" d="M5.468,4.913C4.258,4.467,3.135,3.98,2.829,3.846A.879.879,0,0,1,2.489,3a1.173,1.173,0,0,1,.916-.947A3.409,3.409,0,0,1,6.239,2.7.972.972,0,0,0,7.486,1.21,5.333,5.333,0,0,0,2.844.192,3.141,3.141,0,0,0,.565,2.724,2.816,2.816,0,0,0,1.821,5.512a.97.97,0,0,0,.135.073c.055.025,1.364.607,2.839,1.151,1,.368,1.5.932,1.394,1.548A1.834,1.834,0,0,1,4.3,9.554a3.552,3.552,0,0,1-2.609-1.1A.972.972,0,0,0,.252,9.763,5.524,5.524,0,0,0,4.3,11.5,3.767,3.767,0,0,0,8.1,8.627c.222-1.244-.354-2.872-2.635-3.714Z" transform="translate(6.383 11.301)" fill="#1c1c20"/>
        <path id="Shape-3" data-name="Shape" d="M0,5.749A5.749,5.749,0,1,1,5.749,11.5,5.756,5.756,0,0,1,0,5.749Z" transform="translate(15.245 11.302)" fill="#1c1c20"/>
        <circle id="Oval" cx="0.972" cy="0.972" r="0.972" transform="translate(3.719 34.71)" fill="#1c1c20"/>
      </g>
    </g>
    <g id="Group_8_Copy_6" data-name="Group 8 Copy 6" transform="translate(450 5400.096)">
      <g id="star" transform="translate(0 0)">
        <path id="Path-6" data-name="Path" d="M21.719,0H.948A.939.939,0,0,0,.071,1.292l6.32,15.356a.928.928,0,0,1,0,.709L.071,32.714a.939.939,0,0,0,.877,1.292h20.77Z" transform="translate(1.466 1.466)" fill="#db9b00"/>
        <path id="Path-7" data-name="Path" d="M0,9.967,7.746,0V34.005L0,43.972Z" transform="translate(15.439 1.466)" fill="#ffdd69"/>
        <path id="Path-8" data-name="Path" d="M0,0H20.77a.939.939,0,0,1,.877,1.292l-6.32,15.356a.928.928,0,0,0,0,.709l6.32,15.356a.939.939,0,0,1-.877,1.292H0Z" transform="translate(76.876 1.466)" fill="#db9b00"/>
        <path id="Path-9" data-name="Path" d="M7.746,9.967,0,0V34.005l7.746,9.967Z" transform="translate(76.876 1.466)" fill="#ffdd69"/>
        <path id="Path-10" data-name="Path" d="M0,0H69.183V34.005H0Z" transform="translate(15.439 11.433)" fill="#fdb813"/>
        <g id="Group-4" data-name="Group">
          <path id="Shape-4" data-name="Shape" d="M78.383,46.9a1.466,1.466,0,0,1,0-2.931h4.774V12.9H16.9V43.972H71.647a1.466,1.466,0,0,1,0,2.931H15.439a1.465,1.465,0,0,1-1.465-1.465v-8.5H2.414A2.4,2.4,0,0,1,.181,33.621L6.417,18.468.181,3.316A2.4,2.4,0,0,1,2.414,0H23.2l.031,0a1.352,1.352,0,0,1,.182.017l.035.005a1.469,1.469,0,0,1,.2.051l.011,0,.016.007a1.478,1.478,0,0,1,.189.082l.01,0a1.615,1.615,0,0,1,.171.109l.034.026a1.572,1.572,0,0,1,.149.131l.016.018A1.362,1.362,0,0,1,24.363.6l.021.027a1.727,1.727,0,0,1,.1.171L24.5.824a1.509,1.509,0,0,1,.074.18l.005.013a1.441,1.441,0,0,1,.047.2c0,.014,0,.028.007.042a1.44,1.44,0,0,1,.016.208v8.5H75.412v-8.5a1.441,1.441,0,0,1,.016-.208c0-.014,0-.028.006-.042a1.455,1.455,0,0,1,.048-.2L75.488,1a1.248,1.248,0,0,1,.074-.179L75.575.8a1.372,1.372,0,0,1,.1-.171c.006-.009.014-.018.02-.028a1.483,1.483,0,0,1,.119-.14.155.155,0,0,1,.016-.018,1.468,1.468,0,0,1,.149-.131l.033-.025a1.427,1.427,0,0,1,.172-.11l.008,0a1.426,1.426,0,0,1,.19-.083L76.4.079l.01,0a1.477,1.477,0,0,1,.2-.051l.04-.006A1.609,1.609,0,0,1,76.827,0l.036,0H97.647A2.4,2.4,0,0,1,99.88,3.315L93.644,18.468,99.88,33.621a2.4,2.4,0,0,1-2.233,3.316H86.088v8.5A1.465,1.465,0,0,1,84.623,46.9Z" fill="#1c1c20"/>
        </g>
      </g>
      <text id="_2018" data-name="2018" transform="translate(18 18.154)" fill="#1c1c20" font-size="22" font-family="CenturyGothic-Bold, Century Gothic" font-weight="700"><tspan x="7.31" y="22">2018</tspan></text>
    </g>
  </g>
</svg>
