<svg xmlns="http://www.w3.org/2000/svg" width="100" height="85" viewBox="0 0 100 85"><g><g><g><g><path fill="#8e5aa9" d="M52.307 8.304C33.787 10.206 35.64 36.27 36.217 50h30.264c.234-1.394.337-2.69.332-3.88C66.764 34.08 55.62 33.132 56 26.854h5.194C62.667 32.184 67.796 29.6 68 28l1.883 1.118c4.996-6.118-.309-9.621-.309-9.621L58.472 9.875s-.26-2.415-1.284-4.7C56.633 3.936 55.855 2.737 54.772 2c0 0-1.055.175-1.837 2.85-.252.866-.477 1.991-.628 3.454z"/></g><g><g><path fill="#fc4848" d="M36.22 50c-.578-13.73-2.43-39.794 16.09-41.697.15-1.462.375-2.587.628-3.453-24.886 0-25.286 28.081-20.705 45.15z"/></g><g><path fill="#fc4848" d="M60.84 11.916l.461.4c2.699 1.544 6.123-.821 6.62-3.58C69 2.8 60.248-.133 57.19 5.165c1.025 2.285 1.284 4.7 1.284 4.7z"/></g></g></g><g><g><path fill="#1c1c20" d="M42.443 20.383a.978.978 0 0 0-1.275.533c-.005.012-.01.024-.014.084a.983.983 0 0 0 .566 1.212c.114.044.28.064.347.064.39 0 .757-.276.933-.619v-.001a1.008 1.008 0 0 0-.557-1.273z"/></g><g><path fill="#1c1c20" d="M41.433 23.073c-.527-.073-1.047.217-1.163.744a39.894 39.894 0 0 0-.657 4.727.995.995 0 0 0 .975 1.051c.505 0 .933-.39.972-.901.13-1.694.337-3.188.617-4.457.116-.527-.177-1.048-.744-1.164z"/></g><g><path fill="#1c1c20" d="M58 14.84c-.792 0-1.45.658-1.45 1.465s.658 1.465 1.45 1.465c.822 0 1.48-.658 1.48-1.465A1.47 1.47 0 0 0 58 14.84z"/></g><g><path fill="#1c1c20" d="M59 47.093c.559 0 1-.437 1-.977a.984.984 0 0 0-1-.976c-.543 0-1 .437-1 .976 0 .54.457.977 1 .977z"/></g><g><path fill="#1c1c20" d="M69.629 27.84l-1.132-.658L66.863 26a1.01 1.01 0 0 0-1.361.263.977.977 0 0 0 .234 1.361l.94.663c-.412.359-1.167.78-2.025.786h-.022c-1.2 0-2.04-.835-2.496-2.483-.133-.423-.502-.716-.941-.716h-6.063a3.437 3.437 0 0 1-3.433-3.434.977.977 0 0 0-1.953 0 5.393 5.393 0 0 0 5.323 5.387c.285 2.566 2.26 4.314 4.336 6.173 2.878 2.528 6.064 5.35 6.405 11.14h-3.98a.977.977 0 0 0 0 1.953h3.988c-.029.62-.087 1.27-.178 1.907H37.151c-.009-.16-.018-.368-.027-.579-.306-6.957-.725-16.485 1.131-24.421C40.402 14.852 45 10 52.405 9.271a.976.976 0 0 0 .872-.87c.145-1.401.355-2.454.58-3.24a.97.97 0 0 0 .025-.086c.3-1.014.624-1.568.857-1.861.64.615 1.139 1.43 1.526 2.28.018.05.04.098.065.145.91 2.074 1.166 4.303 1.17 4.361a.979.979 0 0 0 .331.61l2.33 2.02c.164.166.337.315.517.447l8.255 7.154c.067.028.067.053.067.076 0 .011 1.701 1.156 2 3.133.205 1.36-.256 2.837-1.371 4.4zM35.173 48.506c.007.181.015.361.023.493H33c-2.83-11-3.569-26.746 3.43-35.866 3.505-4.568 8.633-7.015 15.255-7.285-.097.477-.185 1-.26 1.575C47.355 8 44 9.786 41.43 12.728c-2.302 2.64-4.01 6.272-5.077 10.841-1.917 8.184-1.492 17.868-1.181 24.938zM63.94 3.722C65.623 4.338 67.42 6 67 8.567c-.258 1.186-1.222 2.363-2.443 2.93-.557.257-1.63.593-2.7.017l-.342-.296c-.423-.454-.81-1.167-.871-1.858-.042-.478.075-.848.356-1.132.176-.173.702-.35 1.133-.228.275.067.436.244.523.567a.977.977 0 1 0 1.886-.506c-.268-1.003-.945-1.698-1.904-1.955-1.04-.278-2.309.033-3.016.741-.238.237-.43.502-.622.788a12.61 12.61 0 0 0-.715-2.37C59.687 3.288 62.089 3 63.94 3.722zm8.99 19.427c-.397-2.634-2.375-4.149-2.758-4.428l-5.862-5.08c.359-.086.689-.209 1.069-.372 1.799-.835 3.172-2.545 3.498-4.356.637-3.541-1.683-6.08-4.266-7.025-1.466-.536-3.06-.606-4.488-.195-1.124.307-2.03.882-2.795 1.673-.53-.849-1.186-1.62-2-2.19C55.116 1 54.85 1 54.594 1c-.42.093-1.52.527-2.37 2.878C44.7 4 38.868 6.749 34.88 11.945c-1.818 2.37-3.24 5.26-4.223 8.59-.883 2.99-1.42 6.346-1.594 9.976-.302 6.27.488 13.289 2.223 19.765l.005.016a1.118 1.118 0 0 0 .03.087l.016.039a.975.975 0 0 0 .023.05l.015.028c.013.024.028.048.043.071l.002.002c.017.026.035.05.055.074l.006.007c.017.02.034.04.052.058l.018.017.046.042.024.02.045.033c.01.006.018.013.027.02l.048.028.028.017a.93.93 0 0 0 .075.036l.03.01c.017.008.035.015.053.069H66.48c.52 0 .886-.347.963-.819.742-4.52.293-8.26-1.375-11.437-1.441-2.744-3.53-4.596-5.371-6.227-1.837-1.626-3.344-2.96-3.697-4.69h3.483C61.643 30.92 64 31.093 65 31c1.342-.096 2.635-.775 3.357-1.64l1.034.64c.414.2.942.104 1.246-.267 1.842-2.252 2.614-4.467 2.294-6.584z"/><path fill="none" stroke="#1c1c20" stroke-miterlimit="50" stroke-width=".6" d="M69.629 27.84l-1.132-.658L66.863 26a1.01 1.01 0 0 0-1.361.263.977.977 0 0 0 .234 1.361l.94.663c-.412.359-1.167.78-2.025.786h-.022c-1.2 0-2.04-.835-2.496-2.483-.133-.423-.502-.716-.941-.716h-6.063a3.437 3.437 0 0 1-3.433-3.434.977.977 0 0 0-1.953 0 5.393 5.393 0 0 0 5.323 5.387c.285 2.566 2.26 4.314 4.336 6.173 2.878 2.528 6.064 5.35 6.405 11.14h-3.98a.977.977 0 0 0 0 1.953h3.988c-.029.62-.087 1.27-.178 1.907H37.151c-.009-.16-.018-.368-.027-.579-.306-6.957-.725-16.485 1.131-24.421C40.402 14.852 45 10 52.405 9.271a.976.976 0 0 0 .872-.87c.145-1.401.355-2.454.58-3.24a.97.97 0 0 0 .025-.086c.3-1.014.624-1.568.857-1.861.64.615 1.139 1.43 1.526 2.28.018.05.04.098.065.145.91 2.074 1.166 4.303 1.17 4.361a.979.979 0 0 0 .331.61l2.33 2.02c.164.166.337.315.517.447l8.255 7.154c.067.028.067.053.067.076 0 .011 1.701 1.156 2 3.133.205 1.36-.256 2.837-1.371 4.4zM35.173 48.506c.007.181.015.361.023.493H33c-2.83-11-3.569-26.746 3.43-35.866 3.505-4.568 8.633-7.015 15.255-7.285-.097.477-.185 1-.26 1.575C47.355 8 44 9.786 41.43 12.728c-2.302 2.64-4.01 6.272-5.077 10.841-1.917 8.184-1.492 17.868-1.181 24.938zM63.94 3.722C65.623 4.338 67.42 6 67 8.567c-.258 1.186-1.222 2.363-2.443 2.93-.557.257-1.63.593-2.7.017l-.342-.296c-.423-.454-.81-1.167-.871-1.858-.042-.478.075-.848.356-1.132.176-.173.702-.35 1.133-.228.275.067.436.244.523.567a.977.977 0 1 0 1.886-.506c-.268-1.003-.945-1.698-1.904-1.955-1.04-.278-2.309.033-3.016.741-.238.237-.43.502-.622.788a12.61 12.61 0 0 0-.715-2.37C59.687 3.288 62.089 3 63.94 3.722zm8.99 19.427c-.397-2.634-2.375-4.149-2.758-4.428l-5.862-5.08c.359-.086.689-.209 1.069-.372 1.799-.835 3.172-2.545 3.498-4.356.637-3.541-1.683-6.08-4.266-7.025-1.466-.536-3.06-.606-4.488-.195-1.124.307-2.03.882-2.795 1.673-.53-.849-1.186-1.62-2-2.19C55.116 1 54.85 1 54.594 1c-.42.093-1.52.527-2.37 2.878C44.7 4 38.868 6.749 34.88 11.945c-1.818 2.37-3.24 5.26-4.223 8.59-.883 2.99-1.42 6.346-1.594 9.976-.302 6.27.488 13.289 2.223 19.765l.005.016a1.118 1.118 0 0 0 .03.087l.016.039a.975.975 0 0 0 .023.05l.015.028c.013.024.028.048.043.071l.002.002c.017.026.035.05.055.074l.006.007c.017.02.034.04.052.058l.018.017.046.042.024.02.045.033c.01.006.018.013.027.02l.048.028.028.017a.93.93 0 0 0 .075.036l.03.01c.017.008.035.015.053.069H66.48c.52 0 .886-.347.963-.819.742-4.52.293-8.26-1.375-11.437-1.441-2.744-3.53-4.596-5.371-6.227-1.837-1.626-3.344-2.96-3.697-4.69h3.483C61.643 30.92 64 31.093 65 31c1.342-.096 2.635-.775 3.357-1.64l1.034.64c.414.2.942.104 1.246-.267 1.842-2.252 2.614-4.467 2.294-6.584z"/></g></g></g><g><g><g><path fill="#db9b00" d="M23.189 39.56H2.419a.939.939 0 0 0-.878 1.292l6.32 15.356a.655.655 0 0 1 0 .709l-6.32 15.356a.939.939 0 0 0 .877 1.292H23.19z"/></g><g><path fill="#ffdd69" d="M15.44 49.527l7.746-9.967v34.005l-7.746 9.967z"/></g><g><path fill="#db9b00" d="M76.88 39.56h20.77a.939.939 0 0 1 .878 1.292l-6.32 15.356a.928.928 0 0 0 0 .709l6.32 15.356a.939.939 0 0 1-.877 1.292H76.88z"/></g><g><path fill="#ffdd69" d="M84.626 49.527L76.88 39.56v34.005l7.746 9.967z"/></g><g><path fill="#fdb813" d="M15.44 49.53h69.183v34.005H15.44z"/></g><g><g><path fill="#1c1c20" d="M86.088 72.105V49.533c0-.075-.007-.148-.018-.22l-.006-.037c-.013-.072-.064-.141-.064-.21V49c0-.1-.12-.232-.21-.35l-.01-.017L79.871 41h16.996L90.85 55.654a2.409 2.409 0 0 0-.001 1.826l6.02 14.625zm-82.895 0L9.21 57.483a2.41 2.41 0 0 0 0-1.827L3.194 41h16.996l-5.908 7.633-.011.017c-.09.118-.16.25-.211.35-.059.117-.059.196-.059.276v22.829zm18.526-24.038h-3.285l3.285-4.226zm56.624-4.226l3.284 4.226h-3.284zm15.3 12.727l6.237-15.153c.305-.74.22-1.58-.225-2.245a2.41 2.41 0 0 0-2.008-1.07H76.862c-.012 0-.023.002-.035.003a1.49 1.49 0 0 0-.176.016l-.04.006c-.068.013-.134.03-.199.052l-.01.002-.017.008c-.066.023-.129.05-.19.082l-.008.004c-.06.032-.117.069-.187.11v.024a.736.736 0 0 0-.167.13l-.016.019a1.48 1.48 0 0 0-.118.141c-.007.01-.015.018-.021.028a1.45 1.45 0 0 0-.103.17l-.014.03c-.028.075-.053.075-.074.179l-.005.013a1.476 1.476 0 0 0-.07.45v8.5H24.65v-8.5a1.456 1.456 0 0 0-.023-.251 1.441 1.441 0 0 0-.048-.198l-.004-.014c-.02-.104-.046-.104-.075-.18l-.013-.029a1.473 1.473 0 0 0-.103-.17l-.02-.028a1.471 1.471 0 0 0-.119-.14l-.016-.02a1.5 1.5 0 0 0-.148-.13c-.012-.008-.023-.017-.081-.025 0-.04-.065-.077-.125-.109l-.01-.004a1.462 1.462 0 0 0-.188-.082l-.017-.008a1.452 1.452 0 0 0-.212-.054l-.035-.005a1.44 1.44 0 0 0-.182-.018l-.03-.001H2.413c-.809 0-1.559.399-2.008 1.069-.406.665-.53 1.504-.225 2.246l6.236 15.152L.181 71.722c-.305.74-.181 1.58.225 2.278.449.637 1.2 1 2.008 1H14v8.538c0 .81.629 1.462 1.439 1.462h56.208c1.938-.056 1.937-2.869 0-2.928H16.904V51h66.253v31.072h-4.774c-1.938.06-1.937 2.872 0 2.928h6.24c.809 0 1.465-.652 1.465-1.462V75h11.56c.808 0 1.558-.363 2.007-1 .446-.698.53-1.538.225-2.279z"/></g></g></g><g/></g></g></svg>