<svg xmlns="http://www.w3.org/2000/svg" width="100" height="85" viewBox="0 0 100 85"><g><g><g><path fill="#ffdd69" d="M49.826 41.462a4.786 4.786 0 0 0 4.786-4.786 4.765 4.765 0 0 0-4.786-4.786C47.183 31.89 45 34 45 36.676c0 2.643 2.183 4.786 4.826 4.786z"/></g><g><path fill="#8e5aa9" d="M73.664 35.126L72 38.271c-1.543 2.844-4.747 4.013-7.806 3.054L54.38 38.15c.15-.464.23-.96.23-1.473a4.78 4.78 0 0 0-1.99-3.886s6.022-8.372 6.063-8.427c1.918-2.554 5.234-3.364 8.129-2.001L70 23.917a8.152 8.152 0 0 1 3.664 11.21z"/></g><g><path fill="#8e5aa9" d="M58.684 24.361l-6.063 8.427a4.768 4.768 0 0 0-2.795-.9 4.93 4.93 0 0 0-2.826.9s-6-8.371-6-8.427c-1.875-2.608-1.766-5.946.462-8.266l2.47-2.573a8.17 8.17 0 0 1 11.787 0l2.47 2.573c2.228 2.32 2.337 5.658.495 8.266z"/></g><g><path fill="#8e5aa9" d="M45 36.677c0 .514.114 1.009.264 1.473 0 0-9.757 3.155-9.814 3.175-3.06.959-6.264-.21-7.787-3.054L26 35.126a8.137 8.137 0 0 1 3.622-11.21l3.21-1.553C35.727 21 39 21.81 41 24.363c0 .056 6 8.428 6 8.428-1.182.869-2 2.286-2 3.886z"/></g><g><path fill="#8e5aa9" d="M49.826 41.462v10.252c-.032 3.213-2.153 5.958-5.33 6.527l-3.496.63c-4.584.819-8.917-2.33-9.55-6.929L31 48.408c-.477-3.195 1.417-6.059 4.457-7.083.057-.02 9.814-3.175 9.814-3.175a4.79 4.79 0 0 0 4.555 3.312z"/></g><g><path fill="#8e5aa9" d="M68.683 48.408l-.487 3.534c-.632 4.599-4.966 7.748-9.535 6.929l-3.511-.63c-3.15-.57-5.298-3.314-5.33-6.527V41.462a4.79 4.79 0 0 0 4.555-3.312s9.757 3.158 9.814 3.175c3.04 1.024 4.934 3.888 4.494 7.083z"/></g><g><g><path fill="#1c1c20" d="M50.757 36.29a1.017 1.017 0 0 0-1.316-.545c-.509.255-.756.81-.546 1.317.21.508.809.756 1.317.545.507-.21.788-.81.545-1.316z"/><path fill="none" stroke="#1c1c20" stroke-miterlimit="50" stroke-width=".7" d="M50.757 36.29a1.017 1.017 0 0 0-1.316-.545c-.509.255-.756.81-.546 1.317.21.508.809.756 1.317.545.507-.21.788-.81.545-1.316z"/></g><g><path fill="#1c1c20" d="M67.199 51.801c-.547 3.976-4.403 6.782-8.359 6.073l-3.51-.63c-2.617-.469-4.466-2.743-4.5-5.531v-9.334c.52-.09 1.03-.256 1.505-.483L58 49.69c.195.31.503.416.815.416.185 0 .413-.106.592-.193.45-.328.593-.913.223-1.409L54 40.72c.355-.39.682-.837.943-1.33l8.773 2.837.027.009.14.046c2.603.884 4.117 3.343 3.803 5.985zm-26.396 6.073c-3.956.709-7.803-2.097-8.358-6.073L32 48.267c-.406-2.647 1.163-5.11 3.776-5.99l.148-.049 8.777-2.839c.299.51.612.97 1.01 1.371l-5.654 7.782c-.328.458-.228 1.081.223 1.458.179.08.386.143.592.143.312 0 .62-.143.817-.415l5.672-7.808c.46.215.952.372 1.452.46v9.333c-.033 2.788-1.882 5.063-4.499 5.532zM28.554 37.791l-1.683-3.144a7.1 7.1 0 0 1-.497-5.593c.626-1.872 1.918-3.375 3.69-4.233l3.21-1.554c2.47-1.197 5.425-.376 6.994 1.851l5.403 7.512c-.329.37-.618.72-.855 1.129l-9.222-2.996a1.008 1.008 0 0 0-1.27.647c-.173.53.117 1.099.676 1.27l9.119 2.973a5.527 5.527 0 0 0-.038 1.816l-8.765 2.836c-2.607.825-5.427-.023-6.762-2.514zm13.632-21l2.47-2.572A7.086 7.086 0 0 1 49.822 12c1.968 0 3.803.8 5.178 2.219l2.458 2.573c1.835 1.911 1.998 4.713.406 6.976-.043.058-5.527 7.682-5.527 7.682A4.651 4.651 0 0 0 50.83 31v-9.665a1.009 1.009 0 0 0-2.017 0V31c-.52.057-1.031.22-1.506.45 0 0-5.484-7.624-5.527-7.682-1.592-2.263-1.43-5.065.406-6.976zm4.41 21.843a3.803 3.803 0 0 1 .283-4.327c1.02-1.307 2.785-1.745 4.3-1.16a3.817 3.817 0 0 1 2.415 3.726c-.094 1.771-1.47 3.284-3.228 3.537a3.814 3.814 0 0 1-3.77-1.776zm28.938-8.744A9.28 9.28 0 0 0 73 24.83c-.387-.396-1-.402-1.423-.011a1.009 1.009 0 0 0-.012 1.426 7.129 7.129 0 0 1 1.208 8.402L71.09 37.79c-1.272 2.374-3.923 3.406-6.597 2.568l-.014-.005c-.041-.012-8.916-2.884-8.916-2.884a5.834 5.834 0 0 0-.04-1.823l9.13-2.966c.53-.172.82-.741.647-1.27-.172-.53-.74-.82-1.3-.648l-9.175 2.99C54.588 33.347 54.3 33 54 32.63c0 0 5.452-7.63 5.487-7.63 1.16-1.577 2.96-2.42 4.815-2.29a1.008 1.008 0 1 0 .14-2.013 7.342 7.342 0 0 0-3.51.617c.256-2.124-.427-4.26-2.02-5.919l-2.47-2.573A9.091 9.091 0 0 0 49.823 10c-2.522 0-4.874 1-6.621 2.822l-2.47 2.573c-1.592 1.658-2.274 3.793-2.019 5.917-1.965-.865-4.25-.863-6.317.14L29.185 23c-2.27 1.105-3.95 3-4.73 5.43a9.099 9.099 0 0 0 .638 7.169l1.683 3.144a7.349 7.349 0 0 0 5.048 3.762A7.245 7.245 0 0 0 30 48.542l.447 3.534c.7 5.09 5.644 8.692 10.713 7.784l3.51-.63a7.36 7.36 0 0 0 5.152-3.663A7.355 7.355 0 0 0 55 59.23l3.485.63c3.937.705 7.998-1.303 9.808-4.86a9.431 9.431 0 0 0 .904-2.924l.487-3.534a7.39 7.39 0 0 0-1.863-6.038 7.35 7.35 0 0 0 5.047-3.76l1.683-3.145a9.095 9.095 0 0 0 .983-5.709z"/><path fill="none" stroke="#1c1c20" stroke-miterlimit="50" stroke-width=".7" d="M67.199 51.801c-.547 3.976-4.403 6.782-8.359 6.073l-3.51-.63c-2.617-.469-4.466-2.743-4.5-5.531v-9.334c.52-.09 1.03-.256 1.505-.483L58 49.69c.195.31.503.416.815.416.185 0 .413-.106.592-.193.45-.328.593-.913.223-1.409L54 40.72c.355-.39.682-.837.943-1.33l8.773 2.837.027.009.14.046c2.603.884 4.117 3.343 3.803 5.985zm-26.396 6.073c-3.956.709-7.803-2.097-8.358-6.073L32 48.267c-.406-2.647 1.163-5.11 3.776-5.99l.148-.049 8.777-2.839c.299.51.612.97 1.01 1.371l-5.654 7.782c-.328.458-.228 1.081.223 1.458.179.08.386.143.592.143.312 0 .62-.143.817-.415l5.672-7.808c.46.215.952.372 1.452.46v9.333c-.033 2.788-1.882 5.063-4.499 5.532zM28.554 37.791l-1.683-3.144a7.1 7.1 0 0 1-.497-5.593c.626-1.872 1.918-3.375 3.69-4.233l3.21-1.554c2.47-1.197 5.425-.376 6.994 1.851l5.403 7.512c-.329.37-.618.72-.855 1.129l-9.222-2.996a1.008 1.008 0 0 0-1.27.647c-.173.53.117 1.099.676 1.27l9.119 2.973a5.527 5.527 0 0 0-.038 1.816l-8.765 2.836c-2.607.825-5.427-.023-6.762-2.514zm13.632-21l2.47-2.572A7.086 7.086 0 0 1 49.822 12c1.968 0 3.803.8 5.178 2.219l2.458 2.573c1.835 1.911 1.998 4.713.406 6.976-.043.058-5.527 7.682-5.527 7.682A4.651 4.651 0 0 0 50.83 31v-9.665a1.009 1.009 0 0 0-2.017 0V31c-.52.057-1.031.22-1.506.45 0 0-5.484-7.624-5.527-7.682-1.592-2.263-1.43-5.065.406-6.976zm4.41 21.843a3.803 3.803 0 0 1 .283-4.327c1.02-1.307 2.785-1.745 4.3-1.16a3.817 3.817 0 0 1 2.415 3.726c-.094 1.771-1.47 3.284-3.228 3.537a3.814 3.814 0 0 1-3.77-1.776zm28.938-8.744A9.28 9.28 0 0 0 73 24.83c-.387-.396-1-.402-1.423-.011a1.009 1.009 0 0 0-.012 1.426 7.129 7.129 0 0 1 1.208 8.402L71.09 37.79c-1.272 2.374-3.923 3.406-6.597 2.568l-.014-.005c-.041-.012-8.916-2.884-8.916-2.884a5.834 5.834 0 0 0-.04-1.823l9.13-2.966c.53-.172.82-.741.647-1.27-.172-.53-.74-.82-1.3-.648l-9.175 2.99C54.588 33.347 54.3 33 54 32.63c0 0 5.452-7.63 5.487-7.63 1.16-1.577 2.96-2.42 4.815-2.29a1.008 1.008 0 1 0 .14-2.013 7.342 7.342 0 0 0-3.51.617c.256-2.124-.427-4.26-2.02-5.919l-2.47-2.573A9.091 9.091 0 0 0 49.823 10c-2.522 0-4.874 1-6.621 2.822l-2.47 2.573c-1.592 1.658-2.274 3.793-2.019 5.917-1.965-.865-4.25-.863-6.317.14L29.185 23c-2.27 1.105-3.95 3-4.73 5.43a9.099 9.099 0 0 0 .638 7.169l1.683 3.144a7.349 7.349 0 0 0 5.048 3.762A7.245 7.245 0 0 0 30 48.542l.447 3.534c.7 5.09 5.644 8.692 10.713 7.784l3.51-.63a7.36 7.36 0 0 0 5.152-3.663A7.355 7.355 0 0 0 55 59.23l3.485.63c3.937.705 7.998-1.303 9.808-4.86a9.431 9.431 0 0 0 .904-2.924l.487-3.534v0a7.39 7.39 0 0 0-1.863-6.038 7.35 7.35 0 0 0 5.047-3.76l1.683-3.145a9.095 9.095 0 0 0 .983-5.709z"/></g><g><path fill="#1c1c20" d="M67.815 23.68c.339.828 1.552.806 1.872-.022.154-.401.032-.869-.3-1.142a1.021 1.021 0 0 0-1.159-.086c-.424.25-.602.798-.413 1.25z"/><path fill="none" stroke="#1c1c20" stroke-miterlimit="50" stroke-width=".7" d="M67.815 23.68c.339.828 1.552.806 1.872-.022.154-.401.032-.869-.3-1.142a1.021 1.021 0 0 0-1.159-.086c-.424.25-.602.798-.413 1.25z"/></g></g></g><g><g><g><path fill="#db9b00" d="M23.189 39.56H2.419a.939.939 0 0 0-.878 1.292l6.32 15.356a.655.655 0 0 1 0 .709l-6.32 15.356a.939.939 0 0 0 .877 1.292H23.19z"/></g><g><path fill="#ffdd69" d="M15.44 49.527l7.746-9.967v34.005l-7.746 9.967z"/></g><g><path fill="#db9b00" d="M76.88 39.56h20.77a.939.939 0 0 1 .878 1.292l-6.32 15.356a.928.928 0 0 0 0 .709l6.32 15.356a.939.939 0 0 1-.877 1.292H76.88z"/></g><g><path fill="#ffdd69" d="M84.626 49.527L76.88 39.56v34.005l7.746 9.967z"/></g><g><path fill="#fdb813" d="M15.44 49.53h69.183v34.005H15.44z"/></g><g><g><path fill="#1c1c20" d="M50 6.173c.835 0 1.491-.656 1.491-1.465V1.453c-.06-1.938-2.872-1.937-2.931 0v3.255c0 .81.656 1.465 1.44 1.465z"/></g><g><path fill="#1c1c20" d="M33.774 9.457a1.474 1.474 0 0 0 2.002.543 1.467 1.467 0 0 0 .536-2l-1.627-2.827a1.466 1.466 0 0 0-2.002-.537C32 5 31.742 5.938 32.147 6.64z"/></g><g><path fill="#1c1c20" d="M20.523 19.335L23.342 21c.658.363 1.595.133 2.002-.574a1.466 1.466 0 0 0-.537-2.002L22 16.797c-.713-.405-1.609-.165-2 .536-.418.667-.178 1.597.523 2.002z"/></g><g><path fill="#1c1c20" d="M13.803 33.592h3.255c1.942-.06 1.942-2.873 0-2.932h-3.255c-1.938.06-1.937 2.872 0 2.932z"/></g><g><path fill="#1c1c20" d="M81.53 32.126c0 .81.656 1.466 1.47 1.466h3.25c1.939-.06 1.937-2.873 0-2.932H83c-.814 0-1.47.656-1.47 1.466z"/></g><g><path fill="#1c1c20" d="M76 21.159c.236 0 .488-.063.719-.159l2.818-1.665c.701-.405.942-1.335.537-2.002a1.466 1.466 0 0 0-2.002-.537l-2.819 1.628a1.466 1.466 0 0 0-.536 2.002c.283.47.764.733 1.283.733z"/></g><g><path fill="#1c1c20" d="M64.283 10c.717.395 1.595.165 2.002-.542l1.628-2.82c.404-.7.164-1.638-.537-2.001a1.465 1.465 0 0 0-2.002.536L63.747 8a1.466 1.466 0 0 0 .536 2z"/></g><g><path fill="#1c1c20" d="M86.088 72.105V49.533c0-.075-.007-.148-.018-.22l-.006-.037c-.013-.072-.064-.141-.064-.21V49c0-.1-.12-.232-.21-.35l-.01-.017L79.871 41h16.996L90.85 55.654a2.409 2.409 0 0 0-.001 1.826l6.02 14.625zm-82.895 0L9.21 57.483a2.41 2.41 0 0 0 0-1.827L3.194 41h16.996l-5.908 7.633-.011.017c-.09.118-.16.25-.211.35-.059.117-.059.196-.059.276v22.829zm18.526-24.038h-3.285l3.285-4.226zm56.624-4.226l3.284 4.226h-3.284zm15.3 12.727l6.237-15.153c.305-.74.22-1.58-.225-2.245a2.41 2.41 0 0 0-2.008-1.07H76.862c-.012 0-.023.002-.035.003a1.49 1.49 0 0 0-.176.016l-.04.006c-.068.013-.134.03-.199.052l-.01.002-.017.008c-.066.023-.129.05-.19.082l-.008.004c-.06.032-.117.069-.187.11v.024a.736.736 0 0 0-.167.13l-.016.019a1.48 1.48 0 0 0-.118.141c-.007.01-.015.018-.021.028a1.45 1.45 0 0 0-.103.17l-.014.03c-.028.075-.053.075-.074.179l-.005.013a1.476 1.476 0 0 0-.07.45v8.5H24.65v-8.5a1.456 1.456 0 0 0-.023-.251 1.441 1.441 0 0 0-.048-.198l-.004-.014c-.02-.104-.046-.104-.075-.18l-.013-.029a1.473 1.473 0 0 0-.103-.17l-.02-.028a1.471 1.471 0 0 0-.119-.14l-.016-.02a1.5 1.5 0 0 0-.148-.13c-.012-.008-.023-.017-.081-.025 0-.04-.065-.077-.125-.109l-.01-.004a1.462 1.462 0 0 0-.188-.082l-.017-.008a1.452 1.452 0 0 0-.212-.054l-.035-.005a1.44 1.44 0 0 0-.182-.018l-.03-.001H2.413c-.809 0-1.559.399-2.008 1.069-.406.665-.53 1.504-.225 2.246l6.236 15.152L.181 71.722c-.305.74-.181 1.58.225 2.278.449.637 1.2 1 2.008 1H14v8.538c0 .81.629 1.462 1.439 1.462h56.208c1.938-.056 1.937-2.869 0-2.928H16.904V51h66.253v31.072h-4.774c-1.938.06-1.937 2.872 0 2.928h6.24c.809 0 1.465-.652 1.465-1.462V75h11.56c.808 0 1.558-.363 2.007-1 .446-.698.53-1.538.225-2.279z"/></g></g></g><g/></g></g></svg>