<svg xmlns="http://www.w3.org/2000/svg" width="100" height="80" viewBox="0 0 100 80"><g><g><g><path fill="#d50032" d="M29.203 1.27H18.77v43.162h62.457V1.27H39.392z"/></g><g><path fill="#1c1c20" d="M34.309 2.54h-.02C33.59 2.54 33 2 33 1.27 33 .568 33.588 0 34.29 0h.019c.691 0 1.27.568 1.27 1.27 0 .73-.579 1.27-1.27 1.27z"/></g><g><path fill="#1c1c20" d="M81.227 45.7H18.769a1.27 1.27 0 0 1-1.269-1.269V1.27c0-.702.568-1.27 1.27-1.27h10.432c.701 0 1.27.568 1.27 1.27 0 .73-.569 1.27-1.27 1.27H20v40.622h60V2.539H39.391c-.7 0-1.269-.539-1.269-1.27 0-.7.568-1.269 1.27-1.269h41.835c.701 0 1.27.568 1.27 1.27V44.43a1.27 1.27 0 0 1-1.27 1.27z"/></g><g><path fill="#f1f1f1" d="M53.678 38.21H71c0-3.21 2.654-5.903 5.915-5.903V13.395C73.654 13.395 71 10.75 71 7.49H29a5.91 5.91 0 0 1-5.91 5.905v18.912C26.35 32.307 29 35 29 38.21h24.678z"/></g><g><path fill="#1c1c20" d="M71 39.48H53.678c-.678 0-1.27-.568-1.27-1.27 0-.7.592-1.27 1.27-1.27h16.175a7.193 7.193 0 0 1 5.792-5.791V14.55c-2.94-.551-5.265-2.852-5.792-5.792H30.15c-.527 2.94-2.852 5.241-5.792 5.792v16.598a7.193 7.193 0 0 1 5.792 5.792h14.264a1.27 1.27 0 1 1 0 2.539H29a1.27 1.27 0 0 1-1.276-1.27 4.64 4.64 0 0 0-4.635-4.635c-.7 0-1.269-.575-1.269-1.27V13.395c0-.701.568-1.27 1.27-1.27 2.555 0 4.634-2.124 4.634-4.635 0-.7.569-1.269 1.276-1.269h42c.71 0 1.28.569 1.28 1.27 0 2.51 2.078 4.635 4.634 4.635.701 0 1.27.568 1.27 1.269v18.912c0 .694-.569 1.27-1.27 1.27a4.64 4.64 0 0 0-4.635 4.634c0 .702-.568 1.27-1.279 1.27z"/></g><g><path fill="#1c1c20" d="M49.14 39.479c-.334 0-.662-.136-.898-.372a1.254 1.254 0 0 1-.372-.898c0-.334.13-.661.372-.897.236-.236.564-.372.897-.372.334 0 .662.136.861.372.273.236.409.563.409.897 0 .334-.136.662-.409.898-.2.236-.527.372-.86.372z"/></g><g><path fill="#1c1c20" d="M70 17.14c-.722 0-1.29.568-1.29 1.27v5.42l-4.861-6.204c-.334-.425-.902-.626-1.414-.417a1.27 1.27 0 0 0-.855 1.2v9.098a1.27 1.27 0 1 0 2.539 0v-5.42L69 28.291c.225.313.596.486 1 .486.117 0 .257-.023.393-.07.512-.176.855-.707.855-1.2V18.41c0-.702-.568-1.27-1.248-1.27z"/></g><g><path fill="#1c1c20" d="M58.584 19.679a1.27 1.27 0 1 0 0-2.539h-3.245a1.27 1.27 0 0 0-1.269 1.27v9.097c0 .701.568 1.27 1.27 1.27h3.244a1.27 1.27 0 0 0 0-2.54h-1.975v-2.009h1.975c.7 0 1.27-.568 1.27-1.228 0-.743-.57-1.311-1.27-1.311h-1.975v-2.01h1.975z"/></g><g><path fill="#1c1c20" d="M35.097 26.656a3.814 3.814 0 0 1-3.808-3.809c0-2.1 1.711-3.847 3.808-3.847 2.1 0 3.809 1.748 3.809 3.847 0 2.1-1.709 3.809-3.809 3.809zm0-10.156a6.354 6.354 0 0 0-6.347 6.347c0 3.5 2.847 6.348 6.347 6.348 3.5 0 6.348-2.848 6.348-6.348S38.597 16.5 35.097 16.5z"/></g><g><path fill="#1c1c20" d="M48.806 21.572h-2.857v-2.003h2.857a.991.991 0 0 1 1.001 1.001c0 .553-.449 1.002-1.001 1.002zm0-4.572h-4.127c-.679 0-1.269.598-1.269 1.3v9.097c0 .702.59 1.27 1.27 1.27a1.27 1.27 0 0 0 1.269-1.27v-3.286h2.857a3.545 3.545 0 0 0 3.54-3.54c0-1.953-1.588-3.571-3.54-3.571z"/></g></g><g><g><g><path fill="#db9b00" d="M23.189 34.56H2.419a.939.939 0 0 0-.878 1.292l6.32 15.356a.656.656 0 0 1 0 .709l-6.32 15.356a.939.939 0 0 0 .877 1.292H23.19z"/></g><g><path fill="#ffdd69" d="M15.44 44.527l7.746-9.967v34.005l-7.746 9.967z"/></g><g><path fill="#db9b00" d="M76.88 34.56h20.77a.939.939 0 0 1 .878 1.292l-6.32 15.356a.928.928 0 0 0 0 .709l6.32 15.356a.939.939 0 0 1-.877 1.292H76.88z"/></g><g><path fill="#ffdd69" d="M84.626 44.527L76.88 34.56v34.005l7.746 9.967z"/></g><g><path fill="#fdb813" d="M15.44 44.53h69.183v34.005H15.44z"/></g><g><g><path fill="#1c1c20" d="M86.088 67.105V44.533c0-.075-.007-.148-.018-.22l-.006-.037c-.013-.071-.064-.142-.064-.21V44c0-.1-.12-.231-.21-.35l-.01-.017L79.871 36h16.996L90.85 50.653a2.41 2.41 0 0 0-.001 1.827l6.02 14.625zm-82.895 0L9.21 52.483c.24-.581.24-1.248 0-1.827L3.194 36h16.996l-5.908 7.633-.011.017c-.09.119-.16.25-.211.35-.059.118-.059.195-.059.276v22.829zm18.526-24.038h-3.285l3.285-4.226zm56.624-4.226l3.284 4.226h-3.284zm15.3 12.727l6.237-15.153c.305-.74.22-1.58-.225-2.246a2.412 2.412 0 0 0-2.008-1.069H76.862c-.012 0-.023.002-.035.003a1.49 1.49 0 0 0-.176.016l-.04.006c-.068.013-.134.03-.199.052l-.01.002-.017.008c-.066.023-.129.05-.19.082l-.008.004c-.06.032-.117.07-.187.11v.024a.744.744 0 0 0-.167.131l-.016.018a1.37 1.37 0 0 0-.118.141c-.007.009-.015.018-.021.028a1.488 1.488 0 0 0-.103.17l-.014.03c-.028.075-.053.075-.074.179l-.005.013a1.484 1.484 0 0 0-.07.449v8.501H24.65v-8.501a1.452 1.452 0 0 0-.023-.25 1.436 1.436 0 0 0-.048-.198l-.004-.014c-.02-.104-.046-.104-.075-.18l-.013-.029a1.543 1.543 0 0 0-.103-.17l-.02-.028a1.505 1.505 0 0 0-.119-.14l-.016-.019a1.503 1.503 0 0 0-.148-.13c-.012-.01-.023-.017-.081-.026 0-.04-.065-.077-.125-.11a1.427 1.427 0 0 0-.198-.086c-.006-.001-.011-.004-.017-.007l-.01-.002a1.454 1.454 0 0 0-.202-.052l-.035-.005c-.06-.01-.12-.016-.182-.017l-.03-.002H2.413c-.809 0-1.559.399-2.008 1.068-.406.666-.53 1.505-.225 2.247l6.236 15.152L.181 66.722c-.305.74-.181 1.58.225 2.278.449.637 1.2 1 2.008 1H14v8.538c0 .81.629 1.462 1.439 1.462h56.208c1.938-.056 1.937-2.869 0-2.928H16.904V46h66.253v31.072h-4.774c-1.938.06-1.937 2.872 0 2.928h6.24c.809 0 1.465-.652 1.465-1.462V70h11.56c.808 0 1.558-.363 2.007-1 .446-.698.53-1.538.225-2.279z"/></g></g></g><g/></g></g></svg>