<svg xmlns="http://www.w3.org/2000/svg" width="100" height="86" viewBox="0 0 100 86"><g><g><g><path fill="#d50032" d="M79.73 20v1.37a25.44 25.44 0 0 1-11.393 21.208L56.9 50.154l-4.151 2.748L49.635 55l-1.038-.715-3.113-2.04L44 51.268 32.806 43.94l-1.47-.94-.336-.22a25.492 25.492 0 0 1-11.46-21.277v-3c0-3.296.94-6.503 2.71-9.305C25.086 4.74 30 2 35.288 2h.393C40.545 2 45.126 4.33 48 8.222l1.635 2.12 1.59-2.12a15.454 15.454 0 0 1 25.712 1.486A20.479 20.479 0 0 1 79.73 20z"/></g><g><path fill="#db9b00" d="M52.75 44.063v8.834l4.151-2.75V40.82z"/></g><g><path fill="#ffdd69" d="M63.119 16.563v2.595c0 .688-.273 1.348-.76 1.842a2.62 2.62 0 0 1-1.834.752H57.93V28l-.38 1 .658 1.054.506 3.793c.124.928.163 1.866.116 2.802a7.957 7.957 0 0 1-1.938 4.82l-4.15 3.113v8.315L49.628 55l-1.037-.72v-7.622L44 51.263l-11.2-7.328 8.526-11.806L43.402 29l2.717-2.702L47.494 26l.059-1.135V22c0-2.826 1.113-5.512 3.094-7.493a3.612 3.612 0 0 1 2.552-1.057h2.247c.927 0 1.815.368 2.47 1.024L60 16.563z"/></g><g><path fill="#428dc5" d="M58.208 30.053h-1.497a13.527 13.527 0 0 1-6.017-1.42l-4.574-2.335 1.433-1.433V24.7l4.077 2.08A11.421 11.421 0 0 0 56.711 28h1.22z"/></g><g><path fill="#985713" d="M49.894 25.906H47.56v-2.075h2.334a.78.78 0 0 0 .78-.78v-3.37h2.075v3.37a2.858 2.858 0 0 1-2.855 2.855z"/></g><g><g><path fill="#b94137" d="M61 43.545c-.422 0-.834-.316-1-.77-.076-.456.124-.935.533-1.169L63.327 40a25.661 25.661 0 0 0 7.391-6.312l.934-1.168c.232-.29.6-.434.967-.378.381.056.676.303.81.649.136.345.076.736-.155 1.025L72.34 35a28.105 28.105 0 0 1-7.983 6.812l-2.794 1.597c-.156.09-.334.136-.563.136z"/></g><g><path fill="#b94137" d="M74.538 30.052a1.038 1.038 0 0 1-.985-1.366l.162-.484a16.01 16.01 0 0 0 .823-5.073v-.341a1.038 1.038 0 1 1 2.075 0v.341c0 1.948-.313 3.871-.93 5.73l-.16.483c-.142.424-.523.71-.985.71z"/></g><g><path fill="#b94137" d="M75.578 19.683a1.035 1.035 0 0 1-1.038-1.037v-1.038c0-.608.46-1.038 1.038-1.038.573 0 1.037.43 1.037 1.038v1.038c0 .573-.464 1.037-1.037 1.037z"/></g><g><path fill="#b94137" d="M33.058 40.432c-.217 0-.429-.068-.605-.194A27.819 27.819 0 0 1 26.923 35L26 33.816c-.37-.447-.298-1.1.15-1.459a1.039 1.039 0 0 1 1.458.163l.934 1.168a25.437 25.437 0 0 0 5.122 4.864c.336.263.521.733.336 1.162-.092.43-.492.72-.943.72z"/></g><g><path fill="#b94137" d="M24.725 30.052c-.446 0-.843-.286-.984-.71l-.161-.484c-.58-1.858-.93-3.781-.93-5.729v-.341a1.038 1.038 0 0 1 2.075 0v.341c0 1.725.275 3.437.824 5.073l.16.484a1.04 1.04 0 0 1-.984 1.366z"/></g></g><g><path fill="#8e5aa9" d="M49.628 32.134v2.075a3.114 3.114 0 0 1-3.113 3.114v3.775c0 .902-.273 1.823-.785 2.59l-1.29 1.937v3.113l.377.755.314.63.346.69v1.431L44 51.268 32.8 43.94 31.33 43l5.845-8.79V31a6.746 6.746 0 0 1 1.638-4.395l1.475-1.735L41.326 29h2.485c1.04 0 2.013.542 2.59 1.408a3.882 3.882 0 0 0 3.227 1.726z"/></g><g><path fill="#1c1c20" d="M78.69 21.367A24.342 24.342 0 0 1 67.761 41.71l-9.828 6.51v-6.374a8.992 8.992 0 0 0 1.937-5.143c.05-.998.008-2-.125-2.99l-.746-5.8v-5.12h1.529a3.636 3.636 0 0 0 3.632-3.632v-2.595c0-.566-.465-1.038-1.038-1.038H60.44l-1.786-1.785a4.502 4.502 0 0 0-3.204-1.328h-2.247c-1.203 0-2.414.49-3.286 1.361A11.536 11.536 0 0 0 46.519 22v2.438L43 28h-.86l-.84-3.384a1.037 1.037 0 0 0-1.798-.42L38 25.93a7.944 7.944 0 0 0-1.854 4.756c-.003.09-.005.182-.005.313v2.893l-2.896 4.346a25.962 25.962 0 0 1-4.698-4.549l-.935-1.169a1.036 1.036 0 0 0-1.459-.161A1.03 1.03 0 0 0 26 33.819L26.926 35a29.675 29.675 0 0 0 5.166 5L31 41.535C24.477 37 20.562 29.494 20.576 21.5v-3c-.002-3.099.882-6.134 2.547-8.748a14.414 14.414 0 0 1 12.163-6.676h.393a14.486 14.486 0 0 1 11.533 5.767L48.802 11c.198.224.504.377.83.377.368 0 .635-.153.83-.377l1.59-2.157C55 5 59.595 2.82 64.418 3.1c4.824.278 9.187 2.955 11.583 7.128A19.097 19.097 0 0 1 78.69 20zM50.67 19.68v3.372c0 .43-.349.78-.78.78h-1.295V22c-.007-2.55.997-5 2.79-6.756a2.577 2.577 0 0 1 1.818-.753h2.247a2.437 2.437 0 0 1 1.736.72l2.09 2.089c.195.195.459.304.724.304h2.085v1.557a1.571 1.571 0 0 1-1.556 1.556h-2.595c-.573 0-1.037.465-1.037 1.038V28h-.182c-1.766 0-3.508-.432-5.089-1.22l-1.749-.874h.013a2.858 2.858 0 0 0 2.856-2.855v-3.372zm5.513 21.031l-4.06 3.045c-.261.245-.415.504-.415.83v7.758l-2.076 1.375v-7.057c0-.42-.252-.799-.632-.96a1.049 1.049 0 0 0-1.14.226l-2.379 2.38v-2.37l1.116-1.674c.627-.937.961-2.04.96-3.167v-2.868a4.158 4.158 0 0 0 3.113-4.02v-2.076c0-.573-.465-1.037-1.038-1.037-.95 0-1.837-.474-2.363-1.265a4.143 4.143 0 0 0-1.731-1.475l1.589-1.59-.034.069 3.605 1.803a13.518 13.518 0 0 0 6.017 1.42h.45L57.69 34c.115.853.152 1.728.108 2.6a6.922 6.922 0 0 1-1.615 4.11zm-.324 8.884L53.783 51v-5.896l2.076-1.557zm-8.302 2.768l-1.038-.68v-.87c0-.162-.038-.32-.11-.465l-.01-.022 1.158-1.159zM43.897 50l-8.34-5.5-2.184-1.43-.594-.39L38 34.785a.824.824 0 0 0 .217-.576V31c0-.108.001-.177.003-.244a5.726 5.726 0 0 1 1.388-3.481l.168-.197.548 2.193c.115.461.53.786 1.006.786h2.485c.695 0 1.343.346 1.727.943.708 1 1.803 1.791 3.053 2.06v1.148a2.078 2.078 0 0 1-2.076 2.075c-.573 0-1.038.465-1.038 1.038v3.775a3.614 3.614 0 0 1-.61 2.015L43.58 45a1.333 1.333 0 0 0-.175.623v3.113c0 .161.037.32.11.464zm20.64-49a16.562 16.562 0 0 0-14.144 6.597l-.76 1.013-.76-1.012A16.535 16.535 0 0 0 35.678 1h-.393a16.49 16.49 0 0 0-13.914 7.638A18.321 18.321 0 0 0 18.5 18.5v3a26.427 26.427 0 0 0 11.964 22.145l1.772 1.16 7.277 4.768 9.55 6.258c.348.227.797.226 1.142-.003L68.908 43.44a26.413 26.413 0 0 0 11.857-22.074V20c-.001-3.781-1.013-7.524-2.933-10.818C75 4.408 70.055 1.346 64.537 1z"/><path fill="none" stroke="#1c1c20" stroke-linejoin="round" stroke-miterlimit="50" stroke-width=".5" d="M78.69 21.367A24.342 24.342 0 0 1 67.761 41.71l-9.828 6.51v-6.374a8.992 8.992 0 0 0 1.937-5.143c.05-.998.008-2-.125-2.99l-.746-5.8v-5.12h1.529a3.636 3.636 0 0 0 3.632-3.632v-2.595c0-.566-.465-1.038-1.038-1.038H60.44l-1.786-1.785a4.502 4.502 0 0 0-3.204-1.328h-2.247c-1.203 0-2.414.49-3.286 1.361A11.536 11.536 0 0 0 46.519 22v2.438L43 28h-.86l-.84-3.384a1.037 1.037 0 0 0-1.798-.42L38 25.93a7.944 7.944 0 0 0-1.854 4.756c-.003.09-.005.182-.005.313v2.893l-2.896 4.346a25.962 25.962 0 0 1-4.698-4.549l-.935-1.169a1.036 1.036 0 0 0-1.459-.161A1.03 1.03 0 0 0 26 33.819L26.926 35a29.675 29.675 0 0 0 5.166 5L31 41.535C24.477 37 20.562 29.494 20.576 21.5v-3c-.002-3.099.882-6.134 2.547-8.748a14.414 14.414 0 0 1 12.163-6.676h.393a14.486 14.486 0 0 1 11.533 5.767L48.802 11c.198.224.504.377.83.377.368 0 .635-.153.83-.377l1.59-2.157C55 5 59.595 2.82 64.418 3.1c4.824.278 9.187 2.955 11.583 7.128A19.097 19.097 0 0 1 78.69 20zM50.67 19.68v3.372c0 .43-.349.78-.78.78h-1.295V22c-.007-2.55.997-5 2.79-6.756a2.577 2.577 0 0 1 1.818-.753h2.247a2.437 2.437 0 0 1 1.736.72l2.09 2.089c.195.195.459.304.724.304h2.085v1.557a1.571 1.571 0 0 1-1.556 1.556h-2.595c-.573 0-1.037.465-1.037 1.038V28h-.182c-1.766 0-3.508-.432-5.089-1.22l-1.749-.874h.013a2.858 2.858 0 0 0 2.856-2.855v-3.372zm5.513 21.031l-4.06 3.045c-.261.245-.415.504-.415.83v7.758l-2.076 1.375v-7.057c0-.42-.252-.799-.632-.96a1.049 1.049 0 0 0-1.14.226l-2.379 2.38v-2.37l1.116-1.674c.627-.937.961-2.04.96-3.167v-2.868a4.158 4.158 0 0 0 3.113-4.02v-2.076c0-.573-.465-1.037-1.038-1.037-.95 0-1.837-.474-2.363-1.265a4.143 4.143 0 0 0-1.731-1.475l1.589-1.59-.034.069 3.605 1.803a13.518 13.518 0 0 0 6.017 1.42h.45L57.69 34c.115.853.152 1.728.108 2.6a6.922 6.922 0 0 1-1.615 4.11zm-.324 8.884L53.783 51v-5.896l2.076-1.557zm-8.302 2.768l-1.038-.68v-.87c0-.162-.038-.32-.11-.465l-.01-.022 1.158-1.159zM43.897 50l-8.34-5.5-2.184-1.43-.594-.39L38 34.785a.824.824 0 0 0 .217-.576V31c0-.108.001-.177.003-.244a5.726 5.726 0 0 1 1.388-3.481l.168-.197.548 2.193c.115.461.53.786 1.006.786h2.485c.695 0 1.343.346 1.727.943.708 1 1.803 1.791 3.053 2.06v1.148a2.078 2.078 0 0 1-2.076 2.075c-.573 0-1.038.465-1.038 1.038v3.775a3.614 3.614 0 0 1-.61 2.015L43.58 45a1.333 1.333 0 0 0-.175.623v3.113c0 .161.037.32.11.464zm20.64-49a16.562 16.562 0 0 0-14.144 6.597l-.76 1.013-.76-1.012A16.535 16.535 0 0 0 35.678 1h-.393a16.49 16.49 0 0 0-13.914 7.638A18.321 18.321 0 0 0 18.5 18.5v3a26.427 26.427 0 0 0 11.964 22.145l1.772 1.16 7.277 4.768 9.55 6.258c.348.227.797.226 1.142-.003L68.908 43.44a26.413 26.413 0 0 0 11.857-22.074V20c-.001-3.781-1.013-7.524-2.933-10.818C75 4.408 70.055 1.346 64.537 1z"/></g><g><path fill="#1c1c20" d="M53.78 17.57a1 1 0 0 1 1-1h.075a1 1 0 0 1 1 1v.075a1 1 0 0 1-1 1h-.075a1 1 0 0 1-1-1z"/></g><g><path fill="#1c1c20" d="M42.37 33.13a1 1 0 0 1 1-1h.075a1 1 0 0 1 1 1v.076a1 1 0 0 1-1 1h-.075a1 1 0 0 1-1-1z"/></g><g><path fill="#1c1c20" d="M73.112 32.358a1.037 1.037 0 0 0-1.459.162l-.934 1.167A25.662 25.662 0 0 1 63.328 40l-2.794 1.606a1.043 1.043 0 0 0-.534.897c0 .371.205.715.525.902.32.186.717.188 1.039.003l2.794-1.596A28.116 28.116 0 0 0 72.339 35l.934-1.184c.358-.447.286-1.1-.16-1.458z"/></g><g><path fill="#1c1c20" d="M75.579 21.75c-.579 0-1.038.465-1.038 1.038v.341c0 1.725-.277 3.437-.823 5.073l-.161.484c-.122.314-.045.744.202 1.024.241.29.625.406.99.29.365 0 .662-.302.776-.658l.162-.484c.616-1.858.93-3.781.93-5.729v-.341c0-.573-.465-1.038-1.038-1.038z"/></g><g><path fill="#1c1c20" d="M75.578 16.57c-.578 0-1.038.43-1.038 1.038v1.038a1.038 1.038 0 1 0 2.075 0v-1.038c0-.608-.464-1.038-1.037-1.038z"/></g><g><path fill="#1c1c20" d="M25.549 28.202a15.93 15.93 0 0 1-.823-5.073v-.341a1.038 1.038 0 0 0-2.076 0v.341c0 1.948.35 3.871.93 5.73l.161.483c.115.355.411.658.776.658.366.116.744 0 .99-.29.247-.28.324-.71.203-1.024z"/></g></g><g><g><g><path fill="#db9b00" d="M23.189 40.56H2.419a.939.939 0 0 0-.878 1.292l6.32 15.356a.656.656 0 0 1 0 .709l-6.32 15.356a.939.939 0 0 0 .877 1.292H23.19z"/></g><g><path fill="#ffdd69" d="M15.44 50.527l7.746-9.967v34.005l-7.746 9.967z"/></g><g><path fill="#db9b00" d="M76.88 40.56h20.77a.939.939 0 0 1 .878 1.292l-6.32 15.356a.928.928 0 0 0 0 .709l6.32 15.356a.939.939 0 0 1-.877 1.292H76.88z"/></g><g><path fill="#ffdd69" d="M84.626 50.527L76.88 40.56v34.005l7.746 9.967z"/></g><g><path fill="#fdb813" d="M15.44 50.53h69.183v34.005H15.44z"/></g><g><g><path fill="#1c1c20" d="M86.088 73.105V50.533c0-.075-.007-.148-.018-.22l-.006-.037c-.013-.071-.064-.142-.064-.21V50c0-.1-.12-.231-.21-.35l-.01-.017L79.871 42h16.996L90.85 56.653a2.41 2.41 0 0 0-.001 1.827l6.02 14.625zm-82.895 0L9.21 58.483c.24-.581.24-1.248 0-1.827L3.194 42h16.996l-5.908 7.633-.011.017c-.09.119-.16.25-.211.35-.059.118-.059.195-.059.276v22.829zm18.526-24.038h-3.285l3.285-4.226zm56.624-4.226l3.284 4.226h-3.284zm15.3 12.727l6.237-15.153c.305-.74.22-1.58-.225-2.246a2.412 2.412 0 0 0-2.008-1.069H76.862c-.012 0-.023.002-.035.003a1.49 1.49 0 0 0-.176.016l-.04.006c-.068.013-.134.03-.199.052l-.01.002-.017.008c-.066.023-.129.05-.19.082l-.008.004c-.06.032-.117.07-.187.11v.024a.744.744 0 0 0-.167.131l-.016.018a1.37 1.37 0 0 0-.118.141c-.007.009-.015.018-.021.028a1.488 1.488 0 0 0-.103.17l-.014.03c-.028.075-.053.075-.074.179l-.005.013a1.484 1.484 0 0 0-.07.449v8.501H24.65v-8.501a1.452 1.452 0 0 0-.023-.25 1.436 1.436 0 0 0-.048-.198l-.004-.014c-.02-.104-.046-.104-.075-.18l-.013-.029a1.543 1.543 0 0 0-.103-.17l-.02-.028a1.505 1.505 0 0 0-.119-.14l-.016-.019a1.503 1.503 0 0 0-.148-.13c-.012-.01-.023-.017-.081-.026 0-.04-.065-.077-.125-.11a1.427 1.427 0 0 0-.198-.086c-.006-.001-.011-.004-.017-.007l-.01-.002a1.454 1.454 0 0 0-.202-.052l-.035-.005c-.06-.01-.12-.016-.182-.017l-.03-.002H2.413c-.809 0-1.559.399-2.008 1.068-.406.666-.53 1.505-.225 2.247l6.236 15.152L.181 72.722c-.305.74-.181 1.58.225 2.278.449.637 1.2 1 2.008 1H14v8.538c0 .81.629 1.462 1.439 1.462h56.208c1.938-.056 1.937-2.869 0-2.928H16.904V52h66.253v31.072h-4.774c-1.938.06-1.937 2.872 0 2.928h6.24c.809 0 1.465-.652 1.465-1.462V76h11.56c.808 0 1.558-.363 2.007-1 .446-.698.53-1.538.225-2.279z"/></g></g></g><g/></g></g></svg>