<svg xmlns="http://www.w3.org/2000/svg" width="100" height="84" viewBox="0 0 100 84"><g><g><g><path fill="#d50032" d="M50.16 1.27l25.388 11.679v19.103c-.255 11.126-1.164 20.495-25.389 31.676C25.935 52.548 25 43.178 24.77 32.052V12.949z"/></g><g><path fill="#f1f1f1" d="M30.86 32c.208 9.06.41 15.738 19.296 25C69 47.738 69.243 41.06 69.452 32V16.856L50.156 8 30.86 16.856z"/></g><g><path fill="#ffdd69" d="M62 27.324L50.163 17.18 38.31 27.324h2.489v12.812h18.73V27.324z"/></g><g><path fill="#1c1c20" d="M74.278 32c-.13 5.725-.473 10.453-3.505 15.184-3.438 5.366-9.995 10.185-20.614 15.143C39.539 57.37 33 52.55 29.544 47.184 26.513 42.453 26.17 37.724 26 32V13.762L50.159 2.667l24.12 11.095zm1.8-20.205L50.69.116a1.657 1.657 0 0 0-1.06 0l-25.39 11.68c-.45.204-.739.657-.739 1.152V32.081c.135 5.919.5 11.191 3.907 16.473 3.768 5.88 10.828 11.068 22.22 16.326.168.12.373.12.532.12.181 0 .363 0 .531-.12 11.392-5.258 18.453-10.445 22.22-16.326C76.295 43.272 76.682 38 76.817 32.08V12.948c0-.495-.288-.948-.739-1.153z"/></g><g><path fill="#1c1c20" d="M49.625 6.826l-19.296 8.876a1.27 1.27 0 0 0-.739 1.153V32c.104 4.538.202 8.813 2.832 13.085 2.783 4.522 8.24 8.665 17.175 13.04.176.085.403.129.558.129.191 0 .382-.044.558-.13 8.935-4.374 14.393-8.517 17.175-13.039 2.63-4.272 2.728-8.547 2.832-13.085V16.855c0-.495-.288-.946-.72-1.153l-3.252-1.487a1.27 1.27 0 0 0-1.684.622c-.293.637-.064 1.391.622 1.684l2.496 1.148V32c-.1 4.316-.182 8.071-2.456 11.755-2.333 3.79-6.902 7.365-14.301 11.172v-5.105a1.27 1.27 0 1 0-2.54 0v5.105c-7.399-3.807-11.967-7.381-14.3-11.172-2.268-3.684-2.356-7.439-2.456-11.755V17.669l18.026-8.292 4.536 2.086a1.27 1.27 0 1 0 1.061-2.306l-5.066-2.33c-.337-.156-.686-.156-1.061 0z"/></g><g><path fill="#1c1c20" d="M58.258 27.323v11.543h-16.19V27.323c0-.442-.226-.831-.57-1.059l8.665-7.414 8.664 7.415a1.268 1.268 0 0 0-.569 1.058zm-8.92-11.108L37.483 26.359a1.27 1.27 0 0 0 .825 2.234h1.22v11.542c0 .701.568 1.27 1.27 1.27h18.729a1.27 1.27 0 0 0 1.27-1.27V28.593H62c.548 0 1-.332 1.207-.83a1.27 1.27 0 0 0-.365-1.404L51 16.215a1.286 1.286 0 0 0-1.663 0z"/></g><g><path fill="#1c1c20" d="M48 31.3c-.449-.496-1.252-.496-1.748 0a1.27 1.27 0 0 0 0 1.795l2.178 2.178c.238.238.57.372.898.372.337 0 .672-.134.898-.372l5.416-5.416a1.27 1.27 0 0 0-1.795-1.795l-4.519 4.519z"/></g><g><path fill="#1c1c20" d="M60.379 14.073l.047.021c.172.08.352.117.574.117.436 0 .896-.274 1.11-.739a1.27 1.27 0 0 0-.622-1.684l-.047-.021c-.637-.294-1.441-.015-1.684.622-.294.611-.015 1.39.622 1.684z"/></g></g><g><g><g><path fill="#db9b00" d="M23.189 38.56H2.419a.939.939 0 0 0-.878 1.292l6.32 15.356a.655.655 0 0 1 0 .709l-6.32 15.356a.939.939 0 0 0 .877 1.292H23.19z"/></g><g><path fill="#ffdd69" d="M15.44 48.527l7.746-9.967v34.005l-7.746 9.967z"/></g><g><path fill="#db9b00" d="M76.88 38.56h20.77a.939.939 0 0 1 .878 1.292l-6.32 15.356a.928.928 0 0 0 0 .709l6.32 15.356a.939.939 0 0 1-.877 1.292H76.88z"/></g><g><path fill="#ffdd69" d="M84.626 48.527L76.88 38.56v34.005l7.746 9.967z"/></g><g><path fill="#fdb813" d="M15.44 48.53h69.183v34.005H15.44z"/></g><g><g><path fill="#1c1c20" d="M86.088 71.105V48.533c0-.075-.007-.148-.018-.22l-.006-.037c-.013-.072-.064-.141-.064-.21V48c0-.1-.12-.232-.21-.35l-.01-.017L79.871 40h16.996L90.85 54.654a2.409 2.409 0 0 0-.001 1.826l6.02 14.625zm-82.895 0L9.21 56.483a2.41 2.41 0 0 0 0-1.827L3.194 40h16.996l-5.908 7.633-.011.017c-.09.118-.16.25-.211.35-.059.117-.059.196-.059.276v22.829zm18.526-24.038h-3.285l3.285-4.226zm56.624-4.226l3.284 4.226h-3.284zm15.3 12.727l6.237-15.153c.305-.74.22-1.58-.225-2.245a2.41 2.41 0 0 0-2.008-1.07H76.862c-.012 0-.023.002-.035.003a1.49 1.49 0 0 0-.176.016l-.04.006c-.068.013-.134.03-.199.052l-.01.002-.017.008c-.066.023-.129.05-.19.082l-.008.004c-.06.032-.117.069-.187.11v.024a.736.736 0 0 0-.167.13l-.016.019a1.48 1.48 0 0 0-.118.141c-.007.01-.015.018-.021.028a1.45 1.45 0 0 0-.103.17l-.014.03c-.028.075-.053.075-.074.179l-.005.013a1.476 1.476 0 0 0-.07.45v8.5H24.65v-8.5a1.456 1.456 0 0 0-.023-.251 1.441 1.441 0 0 0-.048-.198l-.004-.014c-.02-.104-.046-.104-.075-.18l-.013-.029a1.473 1.473 0 0 0-.103-.17l-.02-.028a1.471 1.471 0 0 0-.119-.14l-.016-.02a1.5 1.5 0 0 0-.148-.13c-.012-.008-.023-.017-.081-.025 0-.04-.065-.077-.125-.109l-.01-.004a1.462 1.462 0 0 0-.188-.082l-.017-.008a1.452 1.452 0 0 0-.212-.054l-.035-.005a1.44 1.44 0 0 0-.182-.018l-.03-.001H2.413c-.809 0-1.559.399-2.008 1.069-.406.665-.53 1.504-.225 2.246l6.236 15.152L.181 70.722c-.305.74-.181 1.58.225 2.278.449.637 1.2 1 2.008 1H14v8.538c0 .81.629 1.462 1.439 1.462h56.208c1.938-.056 1.937-2.869 0-2.928H16.904V50h66.253v31.072h-4.774c-1.938.06-1.937 2.872 0 2.928h6.24c.809 0 1.465-.652 1.465-1.462V74h11.56c.808 0 1.558-.363 2.007-1 .446-.698.53-1.538.225-2.279z"/></g></g></g><g/></g></g></svg>