<svg xmlns="http://www.w3.org/2000/svg" width="100" height="76" viewBox="0 0 100 76"><g><g><g><path fill="#f1f1f1" d="M28.505 6.566C26.35 2.831 22.186 1 18.165 1.582L22.453 9l-1.99 4L16 12.742l-4.3-7.428a10.192 10.192 0 0 0-.853 11.448 10.186 10.186 0 0 0 8.479 5.09l14.58 25.249 9.35-5.398-14.582-25.248c1.594-3 1.656-6.73-.169-9.889z"/></g><g><path fill="#8e5aa9" d="M52 44.399l16.477-20.91-.024 33.834zM76.11 1.47L41.33 45.675 76.059 73z"/></g><g><g><path fill="#ffdd69" d="M51.18 50.173H44c-.903 0-1.63-.727-1.63-1.623v-35h10.433v35c0 .896-.727 1.623-1.624 1.623z"/></g><g><path fill="#fc4848" d="M47.586 2.77l5.217 8.776v2.005H42.37v-2.005z"/></g></g><g><g><path fill="#1c1c20" d="M10.94 42.19h69.137M20.59 21.117a1.465 1.465 0 0 0-1.217-.731A8.655 8.655 0 0 1 12.112 16a8.614 8.614 0 0 1-.45-7.82l3.055 5.293c.283.424.687.698 1.176.729l4.473.285a1.423 1.423 0 0 0 1.406-.812l1.99-4.017C24 9.22 24 8.7 23.718 8.276L20.663 3c2.712.285 5.155 1.845 6.571 4.297a8.69 8.69 0 0 1 .144 8.47c-.237.445-.227.982.025 1.419L40.151 39.26h-9.083zM47.586 5.633l3.752 6.311v.137h-7.504v-.137zm3.752 33.627h-7.504V15h7.504zm15.662 0h-9.067L67 27.722zm10.549 0l.008-10.99a1.465 1.465 0 0 0-2.93-.002L74.62 39.26h-4.688l.012-15.771c0-.624-.396-1.18-.944-1.385-.632-.204-1.286-.012-1.672.478l-13.061 16.6v-7.58L74.643 5.703l-.006 9.382a1.465 1.465 0 0 0 2.93.002l.009-13.617c0-.625-.395-1.18-.985-1.385C76-.119 75.346.073 75 .563l-20.733 26.3V11.543c0-.264-.07-.542-.205-.749L48.845 2a1.487 1.487 0 0 0-1.259-.699c-.516 0-.995.272-1.259.699l-5.216 8.793c-.111.207-.206.485-.206.749v23.166L30.329 16.394a11.595 11.595 0 0 0-.558-10.561A11.596 11.596 0 0 0 17.945.13a1.465 1.465 0 0 0-1.052 2.182L20.79 9.06l-1.21 2.44-2.717-.173L13 4.58c-.277-.42-.71-.693-1.194-.728-.483-.035-.953.148-1.255.548a11.597 11.597 0 0 0-.976 13.092 11.591 11.591 0 0 0 8.868 5.765l9.242 16.003H9.475c-.809 0-1.475.656-1.475 1.465h75a1.46 1.46 0 0 0-1.458-1.465z"/></g><g><path fill="#1c1c20" d="M76.115 23.14a1.465 1.465 0 1 0 0-2.93 1.465 1.465 0 0 0 0 2.93z"/></g></g></g><g><g><g><path fill="#db9b00" d="M23.189 30.47H2.419a.939.939 0 0 0-.878 1.292l6.32 15.356a.656.656 0 0 1 0 .71l-6.32 15.356a.939.939 0 0 0 .877 1.291H23.19z"/></g><g><path fill="#ffdd69" d="M15.44 40.437l7.746-9.967v34.005l-7.746 9.967z"/></g><g><path fill="#db9b00" d="M76.88 30.47h20.77a.939.939 0 0 1 .878 1.292l-6.32 15.356a.928.928 0 0 0 0 .71l6.32 15.356a.939.939 0 0 1-.877 1.291H76.88z"/></g><g><path fill="#ffdd69" d="M84.626 40.437L76.88 30.47v34.005l7.746 9.967z"/></g><g><path fill="#fdb813" d="M15.44 40.43h69.183v34.005H15.44z"/></g><g><g><path fill="#1c1c20" d="M86.088 63V40.433a1.46 1.46 0 0 0-.018-.22l-.006-.037C86.051 40.104 86 40 86 40v-.058c0-.142-.12-.274-.21-.392l-.01-.017-5.908-7.602h16.996L90.85 46.553a2.41 2.41 0 0 0-.001 1.828L96.869 63zM3.193 63L9.21 48.383c.24-.581.24-1.248 0-1.827L3.194 31.93h16.996l-5.908 7.602-.011.017c-.09.118-.16.25-.211.392C14 40 14 40.095 14 40.176V63zm18.526-24h-3.285l3.285-4.26zm56.624-4.26L81.627 39h-3.284zm15.3 12.728l6.237-15.153c.305-.74.22-1.58-.225-2.245A2.411 2.411 0 0 0 97.647 29H76.611c-.068 0-.134.055-.199.077l-.01.002-.017.008a1.48 1.48 0 0 0-.19.082l-.008.004c-.06.032-.117.07-.187.11v.024a.744.744 0 0 0-.167.131l-.016.018a1.447 1.447 0 0 0-.118.14l-.021.029a1.491 1.491 0 0 0-.103.17l-.014.03a1.663 1.663 0 0 0-.074.175h-.005a2.879 2.879 0 0 0-.054.258c-.01.068-.017.137-.017.208V39H24.65v-8.534a1.454 1.454 0 0 0-.023-.25A2.847 2.847 0 0 0 24.58 30h-.004a1.677 1.677 0 0 0-.075-.176 1.473 1.473 0 0 0-.117-.2l-.02-.027a1.535 1.535 0 0 0-.118-.14l-.016-.019a1.464 1.464 0 0 0-.148-.13c-.012-.009-.023-.017-.081-.026 0-.04-.065-.077-.125-.109l-.01-.005a1.5 1.5 0 0 0-.188-.081l-.017-.008-.01-.002c-.066-.022-.133-.077-.202-.077H2.414c-.809 0-1.559.4-2.008 1.07-.406.665-.53 1.504-.225 2.245l6.236 15.153L.181 62.622c-.305.74-.181 1.58.225 2.245.449.67 1.2 1.07 2.008 1.07H14v8.501c0 .81.629 1.466 1.439 1.466h56.208c1.938-.06 1.937-2.904 0-2.904H16.904V41.898h66.253V73h-4.774c-1.938 0-1.937 2.844 0 2.904h6.24c.809 0 1.465-.656 1.465-1.466v-8.501h11.56c.808 0 1.558-.4 2.007-1.07.446-.665.53-1.505.225-2.246z"/></g></g></g><g/></g></g></svg>