<svg xmlns="http://www.w3.org/2000/svg" width="100" height="81" viewBox="0 0 100 81"><g><g><g><g><path fill="#d50032" d="M51.86 13.89H54a1.08 1.08 0 0 0 1.082-1.075v-2.148A1.08 1.08 0 0 0 54 9.593h-2.14V7.444c0-.59-.484-1.074-1.075-1.074h-2.148c-.637 0-1.074.484-1.074 1.074v2.149h-2.149c-.59 0-1.074.483-1.074 1.074v2.148c0 .591.483 1.075 1.074 1.075h2.149V16c0 .629.437 1.112 1.074 1.112h2.148c.591 0 1.075-.483 1.075-1.112z"/></g><g><path fill="#f1f1f1" d="M59.376 11.738c0 .739-.083 1.457-.24 2.148-.977 4.306-4.827 7.52-9.428 7.52-4.601 0-8.451-3.214-9.428-7.52-.157-.69-.28-1.41-.28-2.148 0-.738.123-1.458.28-2.149.977-4.305 4.827-7.52 9.428-7.52 4.601 0 8.451 3.215 9.428 7.52.157.691.24 1.411.24 2.149zm-7.52-4.297c0-.59-.483-1.074-1.074-1.074h-2.148A1.05 1.05 0 0 0 47.56 7.44v2.148H45.41c-.59 0-1.074.484-1.074 1.075v2.148c0 .59.483 1.074 1.074 1.074h2.149V16c0 .625.44 1.109 1.074 1.109h2.148c.591 0 1.074-.484 1.074-1.109v-2.114H54c.596 0 1.079-.483 1.079-1.074v-2.148c0-.591-.483-1.075-1.079-1.075h-2.144z"/></g><g><path fill="#fc4848" d="M40 11.738c0-.738.123-1.457.28-2.148H27.15v4.297H40.28c-.157-.691-.28-1.41-.28-2.149z"/></g><g><path fill="#fc4848" d="M59.14 9.59a9.703 9.703 0 0 1 0 4.297h13.131V9.59z"/></g><g><path fill="#ffdd69" d="M70.12 13.89H59.138c-.977 4.305-4.827 7.52-9.428 7.52-4.601 0-8.451-3.215-9.428-7.52H29.3v32.442H39V26.78c0-.591.451-1.074 1-1.074h19.378c.622 0 1.074.483 1.074 1.074v19.55h9.668v-32.44z"/></g><g><path fill="#8e5aa9" d="M60.452 26.784c0-.59-.452-1.074-1.074-1.074H49.71v20.625h10.742z"/></g><g><path fill="#8e5aa9" d="M49.702 46.335V25.71H40c-.556 0-1 .483-1 1.074v19.551z"/></g><g><path fill="#b6bccf" d="M60.45 46.33h-33.3v4.297h45.117V46.33H70.12z"/></g><g><path fill="#8690af" d="M72.261 50.63H26.07v4.297h47.266V50.63z"/></g></g><g><g><path fill="#1c1c20" d="M54 12.82h-2.146c-.594 0-1.074.48-1.074 1.074V16H48.63v-2.106c0-.594-.48-1.075-1.074-1.075h-2.149v-2.148h2.149c.593 0 1.074-.481 1.074-1.074V7.448h2.149v2.149c0 .593.48 1.074 1.074 1.074H54zm0-4.298h-1.072V7.448A2.128 2.128 0 0 0 50.78 5.3H48.63a2.15 2.15 0 0 0-2.148 2.148v1.074h-1.075a2.15 2.15 0 0 0-2.148 2.149v2.148C43.26 14 44.224 15 45.408 15h1.075v1c0 1.227.963 2.19 2.148 2.19h2.149c1.22 0 2.148-.963 2.148-2.19v-1H54c1.187 0 2.15-1 2.15-2.18v-2.15A2.151 2.151 0 0 0 54 8.523z"/></g><g><path fill="#1c1c20" d="M72.266 53.852H27.148v-2.149h45.118zm-44.043-4.297v-2.149H71.19v2.149zM40 45.258V26.78h8.633v18.477zm19.375 0H50.78V26.78h8.594zm1.02-34.59h10.796v2.148H60.396a10.808 10.808 0 0 0 0-2.148zm-10.688 9.668c-4.707 0-8.594-3.855-8.594-8.594C41.113 7 45 3.148 49.707 3.148c4.739 0 8.594 3.852 8.594 8.594 0 4.739-3.855 8.594-8.594 8.594zm-21.484-7.52v-2.148H39v2.148zM73.34 49.555v-3.223c0-.593-.481-1.074-1.074-1.074H71.19V15h1.075c.593 0 1.074-.516 1.074-1.11V9.595c0-.594-.481-1.074-1.074-1.074H60C58.583 4.166 54.508 1 49.707 1c-4.801 0-8.876 3.166-10.248 7.52h-12.31c-.594 0-1.075.48-1.075 1.074v4.297c0 .593.481 1.109 1.074 1.109h1.075v4.134a1.074 1.074 0 1 0 2.148 0V15h9.088c1.372 4.318 5.447 7.484 10.248 7.484 4.8 0 8.876-3.166 10.293-7.484h9v30.258h-7.477V26.78a2.15 2.15 0 0 0-2.148-2.148H40c-1.146 0-2.11.964-2.11 2.148v18.477h-7.519V28.802a1.074 1.074 0 1 0-2.148 0v16.456h-1.075c-.593 0-1.074.48-1.074 1.074v3.223c-.593 0-1.074.445-1.074 1.074v4.297c0 .593.48 1.074 1.074 1.074H73.34c.593 0 1.074-.48 1.074-1.074v-4.297c0-.629-.48-1.074-1.074-1.074z"/><path fill="none" stroke="#1c1c20" stroke-miterlimit="50" stroke-width=".8" d="M72.266 53.852H27.148v-2.149h45.118zm-44.043-4.297v-2.149H71.19v2.149zM40 45.258V26.78h8.633v18.477zm19.375 0H50.78V26.78h8.594zm1.02-34.59h10.796v2.148H60.396a10.808 10.808 0 0 0 0-2.148zm-10.688 9.668c-4.707 0-8.594-3.855-8.594-8.594C41.113 7 45 3.148 49.707 3.148c4.739 0 8.594 3.852 8.594 8.594 0 4.739-3.855 8.594-8.594 8.594zm-21.484-7.52v-2.148H39v2.148zM73.34 49.555v-3.223c0-.593-.481-1.074-1.074-1.074H71.19V15h1.075c.593 0 1.074-.516 1.074-1.11V9.595c0-.594-.481-1.074-1.074-1.074H60C58.583 4.166 54.508 1 49.707 1c-4.801 0-8.876 3.166-10.248 7.52h-12.31c-.594 0-1.075.48-1.075 1.074v4.297c0 .593.481 1.109 1.074 1.109h1.075v4.134a1.074 1.074 0 1 0 2.148 0V15h9.088c1.372 4.318 5.447 7.484 10.248 7.484 4.8 0 8.876-3.166 10.293-7.484h9v30.258h-7.477V26.78a2.15 2.15 0 0 0-2.148-2.148H40c-1.146 0-2.11.964-2.11 2.148v18.477h-7.519V28.802a1.074 1.074 0 1 0-2.148 0v16.456h-1.075c-.593 0-1.074.48-1.074 1.074v3.223c-.593 0-1.074.445-1.074 1.074v4.297c0 .593.48 1.074 1.074 1.074H73.34c.593 0 1.074-.48 1.074-1.074v-4.297c0-.629-.48-1.074-1.074-1.074z"/></g><g><path fill="#1c1c20" d="M45.414 33.87c-.593 0-1.074.481-1.074 1.074v2.149a1.074 1.074 0 1 0 2.148 0v-2.149a1.08 1.08 0 0 0-1.074-1.074z"/></g><g><path fill="#1c1c20" d="M54 33.87c-.589 0-1.07.481-1.07 1.074v2.149a1.073 1.073 0 1 0 2.148 0v-2.149c0-.593-.48-1.074-1.078-1.074z"/></g><g><path fill="#1c1c20" d="M29.294 25c.594 0 1.074-.442 1.074-1 0-.63-.48-1.11-1.074-1.11-.593 0-1.074.481-1.074 1.11 0 .558.481 1 1.074 1z"/></g></g></g><g><g><g><path fill="#db9b00" d="M23.189 35.56H2.419a.939.939 0 0 0-.878 1.292l6.32 15.356a.656.656 0 0 1 0 .709l-6.32 15.356a.939.939 0 0 0 .877 1.292H23.19z"/></g><g><path fill="#ffdd69" d="M15.44 45.527l7.746-9.967v34.005l-7.746 9.967z"/></g><g><path fill="#db9b00" d="M76.88 35.56h20.77a.939.939 0 0 1 .878 1.292l-6.32 15.356a.928.928 0 0 0 0 .709l6.32 15.356a.939.939 0 0 1-.877 1.292H76.88z"/></g><g><path fill="#ffdd69" d="M84.626 45.527L76.88 35.56v34.005l7.746 9.967z"/></g><g><path fill="#fdb813" d="M15.44 45.53h69.183v34.005H15.44z"/></g><g><g><path fill="#1c1c20" d="M86.088 68.105V45.533c0-.075-.007-.148-.018-.22l-.006-.037c-.013-.071-.064-.142-.064-.21V45c0-.1-.12-.231-.21-.35l-.01-.017L79.871 37h16.996L90.85 51.653a2.41 2.41 0 0 0-.001 1.827l6.02 14.625zm-82.895 0L9.21 53.483c.24-.581.24-1.248 0-1.827L3.194 37h16.996l-5.908 7.633-.011.017c-.09.119-.16.25-.211.35-.059.118-.059.195-.059.276v22.829zm18.526-24.038h-3.285l3.285-4.226zm56.624-4.226l3.284 4.226h-3.284zm15.3 12.727l6.237-15.153c.305-.74.22-1.58-.225-2.246a2.412 2.412 0 0 0-2.008-1.069H76.862c-.012 0-.023.002-.035.003a1.49 1.49 0 0 0-.176.016l-.04.006c-.068.013-.134.03-.199.052l-.01.002-.017.008c-.066.023-.129.05-.19.082l-.008.004c-.06.032-.117.07-.187.11v.024a.744.744 0 0 0-.167.131l-.016.018a1.37 1.37 0 0 0-.118.141c-.007.009-.015.018-.021.028a1.488 1.488 0 0 0-.103.17l-.014.03c-.028.075-.053.075-.074.179l-.005.013a1.484 1.484 0 0 0-.07.449v8.501H24.65v-8.501a1.456 1.456 0 0 0-.023-.25 1.44 1.44 0 0 0-.048-.198l-.004-.014c-.021-.104-.046-.104-.075-.18l-.013-.029a1.538 1.538 0 0 0-.103-.17l-.02-.028a1.505 1.505 0 0 0-.119-.14l-.016-.019a1.497 1.497 0 0 0-.148-.13c-.012-.01-.023-.017-.081-.026 0-.04-.065-.077-.125-.11a1.43 1.43 0 0 0-.198-.086c-.006-.001-.011-.004-.017-.007l-.01-.002a1.452 1.452 0 0 0-.202-.052l-.035-.005c-.06-.01-.12-.016-.182-.017l-.03-.002H2.413c-.809 0-1.559.399-2.008 1.068-.406.666-.53 1.505-.225 2.247l6.236 15.152L.181 67.722c-.305.74-.181 1.58.225 2.278.449.637 1.2 1 2.008 1H14v8.538c0 .81.629 1.462 1.439 1.462h56.208c1.938-.056 1.937-2.869 0-2.928H16.904V47h66.253v31.072h-4.774c-1.938.06-1.937 2.872 0 2.928h6.24c.809 0 1.465-.652 1.465-1.462V71h11.56c.808 0 1.558-.363 2.007-1 .446-.698.53-1.538.225-2.279z"/></g></g></g><g/></g></g></svg>