<svg xmlns="http://www.w3.org/2000/svg" width="100" height="85" viewBox="0 0 100 85"><g><g><g><g><g><path fill="#d50032" d="M70.851 31.718C70.851 25.72 66 20.84 60 20.84c-.174 0-.322.003-.47.01-1.908-3.145-5.365-5.25-9.304-5.25-3.94 0-7.397 2.104-9.305 5.25a10.727 10.727 0 0 0-.444-.01c-5.998 0-10.877 4.88-10.877 10.877 0 3.665 1.822 6.912 4.608 8.884-.208 1.015-.375 2.07-.375 3.146 0 7.37 5.997 13.367 13.367 13.367h6.051c7.37 0 13.367-5.997 13.367-13.367 0-1.076-.129-2.13-.374-3.146 2.756-1.972 4.607-5.22 4.607-8.884z"/></g><g><path fill="#8e5aa9" d="M39.77 34.19a2.81 2.81 0 1 0 0-5.62c-1.552 0-2.77 1.258-2.77 2.81s1.218 2.81 2.77 2.81z"/></g><g><path fill="#8e5aa9" d="M60.68 34.19a2.81 2.81 0 1 0 0-5.62 2.81 2.81 0 0 0 0 5.62z"/></g></g><g><path fill="#8e5aa9" d="M44.81 39.247a5.482 5.482 0 0 1 5.415-4.627 5.452 5.452 0 0 1 5.414 4.627 5.455 5.455 0 0 1 3.31 5.034 5.48 5.48 0 0 1-5.48 5.48H47c-3 0-5.5-2.453-5.5-5.48a5.455 5.455 0 0 1 3.31-5.034z"/></g><g transform="rotate(-45 -840 -2865)"><path fill="#8e5aa9" d="M50.1 28.8c1.552 0 2.78-1.257 2.78-2.809 0-1.552-1.228-2.81-2.78-2.81a2.81 2.81 0 1 0 0 5.62z"/></g></g><g><g><path fill="#1c1c20" d="M31.199 31.717c0-5.115 4.162-9.277 9.277-9.277.127 0 .252.002.378.008a1.578 1.578 0 0 0 1.433-.769C44 18.874 47 17.2 50.225 17.2c3.268 0 6.235 1.675 7.938 4.48a1.58 1.58 0 0 0 1.434.769A9.61 9.61 0 0 1 60 22.44c5.09 0 9.252 4.162 9.252 9.277a9.303 9.303 0 0 1-3.933 7.578A1.62 1.62 0 0 0 64.69 41c.218.88.311 1.813.311 2.747 0 6.489-5.26 11.767-11.749 11.767H47.2c-6.489 0-11.768-5.278-11.768-11.767 0-.934.111-1.866.33-2.747a1.62 1.62 0 0 0-.63-1.705 9.302 9.302 0 0 1-3.933-7.578zM53.25 58.713c8.252 0 14.966-6.713 14.966-14.966 0-.836-.07-1.67-.217-2.492a12.483 12.483 0 0 0 4.45-9.538c0-6.717-5.372-12.249-12.06-12.469C58 15.945 54.313 14 50.226 14a12.382 12.382 0 0 0-10.166 5.248C33.372 19.468 28 25 28 31.717c0 3.684 1.643 7.176 4.442 9.538a15.023 15.023 0 0 0-.209 2.492c0 8.253 6.714 14.966 14.967 14.966z"/></g><g><path fill="#1c1c20" d="M39.77 30.169c.667 0 1.23.543 1.23 1.21 0 .621-.563 1.21-1.23 1.21-.668 0-1.211-.589-1.211-1.21 0-.667.543-1.21 1.21-1.21zm0 5.62a4.414 4.414 0 0 0 4.409-4.41c0-2.431-1.978-4.379-4.41-4.379-2.431 0-4.409 1.948-4.409 4.38a4.414 4.414 0 0 0 4.41 4.409z"/></g><g><path fill="#1c1c20" d="M60.68 30.169c.667 0 1.21.543 1.21 1.21 0 .621-.543 1.21-1.21 1.21-.68 0-1.211-.589-1.211-1.21 0-.667.531-1.21 1.21-1.21zm0 5.62a4.414 4.414 0 0 0 4.409-4.41c0-2.431-1.978-4.379-4.41-4.379-2.431 0-4.409 1.948-4.409 4.38a4.414 4.414 0 0 0 4.41 4.409z"/></g><g><path fill="#1c1c20" d="M46.39 39.493c.292-1.867 1.94-3.274 3.834-3.274 1.894 0 3.542 1.407 3.834 3.274.085.507.442 1.004.942 1.222a3.878 3.878 0 0 1 2.35 3.565c0 2.14-1.741 3.881-3.881 3.881H47a3.89 3.89 0 0 1-3.901-3.88 3.85 3.85 0 0 1 2.345-3.566 1.66 1.66 0 0 0 .946-1.222zM47 51.36h6.469a7.088 7.088 0 0 0 7.08-7.08A7.034 7.034 0 0 0 57 38.164C56.189 35.138 53.446 33 50.224 33a7.054 7.054 0 0 0-6.813 5.164A7.077 7.077 0 0 0 39.9 44.28c0 3.904 3.176 7.08 7.1 7.08z"/></g><g><path fill="#1c1c20" d="M50.23 24.549c.667 0 1.21.543 1.21 1.21 0 .668-.543 1.241-1.21 1.241-.668 0-1.23-.573-1.23-1.24 0-.668.562-1.211 1.23-1.211zm0 5.62a4.414 4.414 0 0 0 4.409-4.41 4.414 4.414 0 0 0-4.41-4.409 4.414 4.414 0 0 0-4.409 4.41 4.414 4.414 0 0 0 4.41 4.409z"/></g></g></g><g><g><g><path fill="#db9b00" d="M23.189 39.56H2.419a.939.939 0 0 0-.878 1.292l6.32 15.356a.655.655 0 0 1 0 .709l-6.32 15.356a.939.939 0 0 0 .877 1.292H23.19z"/></g><g><path fill="#ffdd69" d="M15.44 49.527l7.746-9.967v34.005l-7.746 9.967z"/></g><g><path fill="#db9b00" d="M76.88 39.56h20.77a.939.939 0 0 1 .878 1.292l-6.32 15.356a.928.928 0 0 0 0 .709l6.32 15.356a.939.939 0 0 1-.877 1.292H76.88z"/></g><g><path fill="#ffdd69" d="M84.626 49.527L76.88 39.56v34.005l7.746 9.967z"/></g><g><path fill="#fdb813" d="M15.44 49.53h69.183v34.005H15.44z"/></g><g><g><path fill="#1c1c20" d="M50 6.173c.835 0 1.491-.656 1.491-1.465V1.453c-.06-1.938-2.872-1.937-2.931 0v3.255c0 .81.656 1.465 1.44 1.465z"/></g><g><path fill="#1c1c20" d="M33.774 9.457a1.474 1.474 0 0 0 2.002.543 1.467 1.467 0 0 0 .536-2l-1.627-2.827a1.466 1.466 0 0 0-2.002-.537C32 5 31.742 5.938 32.147 6.64z"/></g><g><path fill="#1c1c20" d="M20.523 19.335L23.342 21c.658.363 1.595.133 2.002-.574a1.466 1.466 0 0 0-.537-2.002L22 16.797c-.713-.405-1.609-.165-2 .536-.418.667-.178 1.597.523 2.002z"/></g><g><path fill="#1c1c20" d="M16.803 33.592h3.255c1.942-.06 1.942-2.873 0-2.932h-3.255c-1.938.06-1.937 2.872 0 2.932z"/></g><g><path fill="#1c1c20" d="M78.53 32.126c0 .81.656 1.466 1.47 1.466h3.25c1.939-.06 1.937-2.873 0-2.932H80c-.814 0-1.47.656-1.47 1.466z"/></g><g><path fill="#1c1c20" d="M76 21.159c.236 0 .488-.063.719-.159l2.818-1.665c.701-.405.942-1.335.537-2.002a1.466 1.466 0 0 0-2.002-.537l-2.819 1.628a1.466 1.466 0 0 0-.536 2.002c.283.47.764.733 1.283.733z"/></g><g><path fill="#1c1c20" d="M64.283 10c.717.395 1.595.165 2.002-.542l1.628-2.82c.404-.7.164-1.638-.537-2.001a1.465 1.465 0 0 0-2.002.536L63.747 8a1.466 1.466 0 0 0 .536 2z"/></g><g><path fill="#1c1c20" d="M86.088 72.105V49.533c0-.075-.007-.148-.018-.22l-.006-.037c-.013-.072-.064-.141-.064-.21V49c0-.1-.12-.232-.21-.35l-.01-.017L79.871 41h16.996L90.85 55.654a2.409 2.409 0 0 0-.001 1.826l6.02 14.625zm-82.895 0L9.21 57.483c.24-.581.24-1.248 0-1.827L3.194 41h16.996l-5.908 7.633-.011.017c-.09.118-.16.25-.211.35-.059.117-.059.196-.059.276v22.829zm18.526-24.038h-3.285l3.285-4.226zm56.624-4.226l3.284 4.226h-3.284zm15.3 12.727l6.237-15.153c.305-.74.22-1.58-.225-2.245a2.41 2.41 0 0 0-2.008-1.07H76.862c-.012 0-.023.002-.035.003a1.49 1.49 0 0 0-.176.016l-.04.006c-.068.013-.134.03-.199.052l-.01.002-.017.008c-.066.023-.129.05-.19.082l-.008.004c-.06.032-.117.069-.187.11v.024a.736.736 0 0 0-.167.13l-.016.019a1.48 1.48 0 0 0-.118.141c-.007.01-.015.018-.021.028a1.45 1.45 0 0 0-.103.17l-.014.03c-.028.075-.053.075-.074.179l-.005.013a1.476 1.476 0 0 0-.07.45v8.5H24.65v-8.5a1.46 1.46 0 0 0-.023-.251 1.445 1.445 0 0 0-.048-.198l-.004-.014c-.021-.104-.046-.104-.075-.18l-.013-.029a1.47 1.47 0 0 0-.103-.17l-.02-.028a1.472 1.472 0 0 0-.119-.14l-.016-.02a1.494 1.494 0 0 0-.148-.13c-.012-.008-.023-.017-.081-.025 0-.04-.065-.077-.125-.109l-.01-.004a1.465 1.465 0 0 0-.188-.082l-.017-.008a1.45 1.45 0 0 0-.212-.054l-.035-.005a1.44 1.44 0 0 0-.182-.018l-.03-.001H2.413c-.809 0-1.559.399-2.008 1.069-.406.665-.53 1.504-.225 2.246l6.236 15.152L.181 71.722c-.305.74-.181 1.58.225 2.278.449.637 1.2 1 2.008 1H14v8.538c0 .81.629 1.462 1.439 1.462h56.208c1.938-.056 1.937-2.869 0-2.928H16.904V51h66.253v31.072h-4.774c-1.938.06-1.937 2.872 0 2.928h6.24c.809 0 1.465-.652 1.465-1.462V75h11.56c.808 0 1.558-.363 2.007-1 .446-.698.53-1.538.225-2.279z"/></g></g></g><g/></g></g></svg>