<svg xmlns="http://www.w3.org/2000/svg" width="100" height="90" viewBox="0 0 100 90"><g><g><g><path fill="#8e5aa9" d="M67.676 13.11v29.07H56.632V40h-12.37v2.18H33.36V13.11h9.028a8.517 8.517 0 0 0 8.13 5.982 8.517 8.517 0 0 0 8.13-5.982z"/></g><g><path fill="#8e5aa9" d="M67.628 42.18v12.74H33.4V42.18h10.858v2.215h12.37V42.18z"/></g><g><g><path fill="#fdb813" d="M46.8 44.4h7.423v10.526H46.8z"/></g><g><path fill="#fdb813" d="M50.511 19.092c4.7 0 8.489-3.81 8.489-8.51 0-4.702-3.788-8.512-8.489-8.512a8.511 8.511 0 0 0 0 17.022z"/></g><g><path fill="#d50032" d="M49.323 10.855l-1.8 1.288c-.523.403-.523 1.24 0 1.643l.042.03a4.99 4.99 0 0 0 5.86-.038.984.984 0 0 0 0-1.627l-1.74-1.28c-.685-.516-1.685-.522-2.362-.016z"/></g></g><g><path fill="#d50032" d="M42.38 8.06a8.5 8.5 0 0 0-.38 2.527c0 .881.132 1.73.38 2.53H30.13V8.06z"/></g><g><path fill="#d50032" d="M70.89 8.06v5.056H58.64c.247-.8.36-1.648.36-2.529 0-.879-.112-1.73-.36-2.527z"/></g><g><path fill="#ffdd69" d="M39.07 25.65h8.02V33h-8.02z"/></g><g><path fill="#ffdd69" d="M53.89 25.65h8.02V33h-8.02z"/></g><g><path fill="#d50032" d="M44.26 40h12.37v4.4H44.26z"/></g><g><path fill="#fdb813" d="M39.07 25.646s.67-3.426 4.088-3.426c3.243 0 3.932 3.426 3.932 3.426z"/></g><g><path fill="#fdb813" d="M53.89 25.646s.67-3.426 4.11-3.426c3.22 0 3.91 3.426 3.91 3.426z"/></g><g><path fill="#1c1c20" d="M45.95 8.723c.224.54.86.805 1.402.58.541-.223.804-.862.581-1.402a1.084 1.084 0 0 0-1.403-.582c-.53.224-.803.862-.58 1.404z"/></g><g><path fill="#1c1c20" d="M53.1 8.723c.224.54.9.806 1.402.58.498-.223.805-.861.581-1.402a1.084 1.084 0 0 0-1.403-.581c-.542.225-.803.86-.58 1.403z"/></g><g><path fill="#1c1c20" d="M49.52 6.743c.225.54.861.805 1.403.58.54-.223.806-.862.581-1.402a1.085 1.085 0 0 0-1.403-.582c-.54.224-.806.864-.58 1.404z"/></g><g><path fill="#1c1c20" d="M50 11.725c.283-.237.725-.234 1.052.007L52.722 13a4.047 4.047 0 0 1-4.497 0zm-3.099 2.93l.043.032a6.048 6.048 0 0 0 7.122-.048c.54-.397.85-1.009.85-1.639 0-.71-.31-1.322-.85-1.719L52.325 10a3.045 3.045 0 0 0-3.623 0l-1.8 1.265A2.134 2.134 0 0 0 46 13c0 .631.356 1.265.901 1.655z"/></g><g><path fill="#1c1c20" d="M45.414 24.489l.06.088h-4.791c.44-.642 1.197-1.279 2.474-1.279.96 0 1.698.39 2.257 1.19zM46 32h-5.857v-5.275H46zm1.089 2.121c.593 0 1.074-.48 1.074-1.121v-6.275h.136a1.074 1.074 0 0 0 0-2.148h-.415c-.586-1.504-2.027-3.427-4.728-3.427-2.814 0-4.29 1.922-4.882 3.427H38a1.075 1.075 0 0 0 0 2.147V33c0 .64.476 1.121 1.069 1.121z"/></g><g><path fill="#1c1c20" d="M55.531 24.55c.585-.842 1.384-1.252 2.469-1.252.934 0 1.672.39 2.232 1.19l.06.089h-4.779l.018-.027zM60.832 32H55v-5.275h5.832zm1.074 2.121C62.5 34.121 63 33.641 63 33v-6.275c.632 0 1.113-.48 1.113-1.074 0-.593-.481-1.074-1.113-1.074h-.3c-.585-1.504-2.026-3.427-4.7-3.427-2.84 0-4.317 1.922-4.908 3.427h-.338a1.074 1.074 0 0 0 0 2.148h.058V33c0 .64.481 1.121 1.074 1.121z"/></g><g><path fill="#1c1c20" d="M32.507 34.437c.328.486 1.001.62 1.493.296a1.086 1.086 0 0 0 .293-1.488c-.293-.487-1.002-.623-1.488-.298a1.085 1.085 0 0 0-.298 1.49z"/></g><g><path fill="#1c1c20" d="M43.184 43.259v1.14c0 .601.481 1.075 1.074 1.075h1.47v8.377H34.476V43.26zm23.37 10.592H55.3v-8.377h1.329a1.07 1.07 0 0 0 1.074-1.075v-1.14h8.851zm-13.402-8.377v8.377h-5.275v-8.377zM45.333 41h10.221v2.325H45.332zM60 12a10.09 10.09 0 0 0 0-2.868h9.819V12zm-28.79 0V9.132H41c-.108.96-.108 1.947 0 2.868zm26.585-2.935c.696 3.355-1.068 6.85-4.18 8.28-3.097 1.422-6.871.497-8.964-2.19a7.5 7.5 0 0 1-1.533-5.348c.39-3.736 3.558-6.659 7.396-6.659 3.58 0 6.577 2.543 7.28 5.917zm19.13 44.787h-8.223V43.259h1.725c.573 0 1.075-.481 1.075-1.074 0-.594-.502-1.075-1.075-1.075h-1.68V14.188h2.146c.593 0 1.107-.481 1.107-1.074V8.058C72 7.464 71.486 7 70.893 7H59.397C58 3.478 54.527 1 50.514 1c-4.012 0-7.455 2.478-8.882 6H30.135a1.06 1.06 0 0 0-1.074 1.058v5.056c0 .593.48 1.074 1.074 1.074h2.147v14.866a1.074 1.074 0 0 0 2.149 0V14.188h7.199C43 17.653 46.448 20 50.19 20.163c3.98.128 7.704-2.285 9.209-5.975h7.2V41.11h-8.896V40a1.075 1.075 0 0 0-1.074-1.105h-12.37c-.186 0-.36.047-.512.105a1.157 1.157 0 0 0-.563 1v1.11h-8.753v-2.552c0-.558-.481-1.074-1.074-1.074-.594 0-1.075.516-1.075 1.074v2.552h-1.68a1.07 1.07 0 0 0-1.075 1.075 1.07 1.07 0 0 0 1.074 1.074h1.725v10.593h-8.252a1.074 1.074 0 0 0 0 2.148h52.852a1.074 1.074 0 0 0 0-2.148z"/><path fill="none" stroke="#1c1c20" stroke-miterlimit="50" d="M43.184 43.259v1.14c0 .601.481 1.075 1.074 1.075h1.47v8.377H34.476V43.26zm23.37 10.592H55.3v-8.377h1.329a1.07 1.07 0 0 0 1.074-1.075v-1.14h8.851zm-13.402-8.377v8.377h-5.275v-8.377zM45.333 41h10.221v2.325H45.332zM60 12a10.09 10.09 0 0 0 0-2.868h9.819V12zm-28.79 0V9.132H41c-.108.96-.108 1.947 0 2.868zm26.585-2.935c.696 3.355-1.068 6.85-4.18 8.28-3.097 1.422-6.871.497-8.964-2.19a7.5 7.5 0 0 1-1.533-5.348c.39-3.736 3.558-6.659 7.396-6.659 3.58 0 6.577 2.543 7.28 5.917zm19.13 44.787h-8.223V43.259h1.725c.573 0 1.075-.481 1.075-1.074 0-.594-.502-1.075-1.075-1.075h-1.68V14.188h2.146c.593 0 1.107-.481 1.107-1.074V8.058C72 7.464 71.486 7 70.893 7H59.397C58 3.478 54.527 1 50.514 1c-4.012 0-7.455 2.478-8.882 6H30.135a1.06 1.06 0 0 0-1.074 1.058v5.056c0 .593.48 1.074 1.074 1.074h2.147v14.866a1.074 1.074 0 0 0 2.149 0V14.188h7.199C43 17.653 46.448 20 50.19 20.163c3.98.128 7.704-2.285 9.209-5.975h7.2V41.11h-8.896V40a1.075 1.075 0 0 0-1.074-1.105h-12.37c-.186 0-.36.047-.512.105a1.157 1.157 0 0 0-.563 1v1.11h-8.753v-2.552c0-.558-.481-1.074-1.074-1.074-.594 0-1.075.516-1.075 1.074v2.552h-1.68a1.07 1.07 0 0 0-1.075 1.075 1.07 1.07 0 0 0 1.074 1.074h1.725v10.593h-8.252a1.074 1.074 0 0 0 0 2.148h52.852a1.074 1.074 0 0 0 0-2.148z"/></g></g><g><g><g><path fill="#db9b00" d="M23.189 44.56H2.419a.939.939 0 0 0-.878 1.292l6.32 15.356a.656.656 0 0 1 0 .709l-6.32 15.356a.939.939 0 0 0 .877 1.292H23.19z"/></g><g><path fill="#ffdd69" d="M15.44 54.527l7.746-9.967v34.005l-7.746 9.967z"/></g><g><path fill="#db9b00" d="M76.88 44.56h20.77a.939.939 0 0 1 .878 1.292l-6.32 15.356a.928.928 0 0 0 0 .709l6.32 15.356a.939.939 0 0 1-.877 1.292H76.88z"/></g><g><path fill="#ffdd69" d="M84.626 54.527L76.88 44.56v34.005l7.746 9.967z"/></g><g><path fill="#fdb813" d="M15.44 54.53h69.183v34.005H15.44z"/></g><g><g><path fill="#1c1c20" d="M86.088 77.105V54.533c0-.075-.007-.148-.018-.22l-.006-.037c-.013-.071-.064-.142-.064-.21V54c0-.1-.12-.231-.21-.35l-.01-.017L79.871 46h16.996L90.85 60.653a2.41 2.41 0 0 0-.001 1.827l6.02 14.625zm-82.895 0L9.21 62.483c.24-.581.24-1.248 0-1.827L3.194 46h16.996l-5.908 7.633-.011.017c-.09.119-.16.25-.211.35-.059.118-.059.195-.059.276v22.829zm18.526-24.038h-3.285l3.285-4.226zm56.624-4.226l3.284 4.226h-3.284zm15.3 12.727l6.237-15.153c.305-.74.22-1.58-.225-2.246a2.412 2.412 0 0 0-2.008-1.069H76.862c-.012 0-.023.002-.035.003a1.49 1.49 0 0 0-.176.016l-.04.006c-.068.013-.134.03-.199.052l-.01.002-.017.008c-.066.023-.129.05-.19.082l-.008.004c-.06.032-.117.07-.187.11v.024a.744.744 0 0 0-.167.131l-.016.018a1.37 1.37 0 0 0-.118.141c-.007.009-.015.018-.021.028a1.488 1.488 0 0 0-.103.17l-.014.03c-.028.075-.053.075-.074.179l-.005.013a1.484 1.484 0 0 0-.07.449v8.501H24.65v-8.501a1.452 1.452 0 0 0-.023-.25 1.436 1.436 0 0 0-.048-.198l-.004-.014c-.02-.104-.046-.104-.075-.18l-.013-.029a1.543 1.543 0 0 0-.103-.17l-.02-.028a1.505 1.505 0 0 0-.119-.14l-.016-.019a1.503 1.503 0 0 0-.148-.13c-.012-.01-.023-.017-.081-.026 0-.04-.065-.077-.125-.11a1.427 1.427 0 0 0-.198-.086c-.006-.001-.011-.004-.017-.007l-.01-.002a1.454 1.454 0 0 0-.202-.052l-.035-.005c-.06-.01-.12-.016-.182-.017l-.03-.002H2.413c-.809 0-1.559.399-2.008 1.068-.406.666-.53 1.505-.225 2.247l6.236 15.152L.181 76.722c-.305.74-.181 1.58.225 2.278.449.637 1.2 1 2.008 1H14v8.538c0 .81.629 1.462 1.439 1.462h56.208c1.938-.056 1.937-2.869 0-2.928H16.904V56h66.253v31.072h-4.774c-1.938.06-1.937 2.872 0 2.928h6.24c.809 0 1.465-.652 1.465-1.462V80h11.56c.808 0 1.558-.363 2.007-1 .446-.698.53-1.538.225-2.279z"/></g></g></g><g/></g></g></svg>