<svg xmlns="http://www.w3.org/2000/svg" width="100" height="85" viewBox="0 0 100 85"><g><g><g><g><g><path fill="#d50032" d="M-450-2209z"/></g></g><g><g/><g><path fill="#1c1c20" d="M-450-2209z"/></g><g><path fill="#1c1c20" d="M-450-2209z"/></g></g></g><g><g><path fill="#db9b00" d="M23.189 39.56H2.419a.939.939 0 0 0-.878 1.292l6.32 15.356a.655.655 0 0 1 0 .709l-6.32 15.356a.939.939 0 0 0 .877 1.292H23.19z"/></g><g><path fill="#ffdd69" d="M15.44 49.527l7.746-9.967v34.005l-7.746 9.967z"/></g><g><path fill="#db9b00" d="M76.88 39.56h20.77a.939.939 0 0 1 .878 1.292l-6.32 15.356a.928.928 0 0 0 0 .709l6.32 15.356a.939.939 0 0 1-.877 1.292H76.88z"/></g><g><path fill="#ffdd69" d="M84.626 49.527L76.88 39.56v34.005l7.746 9.967z"/></g><g><path fill="#fdb813" d="M15.44 49.53h69.183v34.005H15.44z"/></g><g><g><path fill="#1c1c20" d="M50 6.173c.835 0 1.491-.656 1.491-1.465V1.453c-.06-1.938-2.872-1.937-2.931 0v3.255c0 .81.656 1.465 1.44 1.465z"/></g><g><path fill="#1c1c20" d="M33.774 9.457a1.474 1.474 0 0 0 2.002.543 1.467 1.467 0 0 0 .536-2l-1.627-2.827a1.466 1.466 0 0 0-2.002-.537C32 5 31.742 5.938 32.147 6.64z"/></g><g><path fill="#1c1c20" d="M20.523 19.335L23.342 21c.658.363 1.595.133 2.002-.574a1.466 1.466 0 0 0-.537-2.002L22 16.797c-.713-.405-1.609-.165-2 .536-.418.667-.178 1.597.523 2.002z"/></g><g><path fill="#1c1c20" d="M16.803 33.592h3.255c1.942-.06 1.942-2.873 0-2.932h-3.255c-1.938.06-1.937 2.872 0 2.932z"/></g><g><path fill="#1c1c20" d="M78.53 32.126c0 .81.656 1.466 1.47 1.466h3.25c1.939-.06 1.937-2.873 0-2.932H80c-.814 0-1.47.656-1.47 1.466z"/></g><g><path fill="#1c1c20" d="M76 21.159c.236 0 .488-.063.719-.159l2.818-1.665c.701-.405.942-1.335.537-2.002a1.466 1.466 0 0 0-2.002-.537l-2.819 1.628a1.466 1.466 0 0 0-.536 2.002c.283.47.764.733 1.283.733z"/></g><g><path fill="#1c1c20" d="M64.283 10c.717.395 1.595.165 2.002-.542l1.628-2.82c.404-.7.164-1.638-.537-2.001a1.465 1.465 0 0 0-2.002.536L63.747 8a1.466 1.466 0 0 0 .536 2z"/></g><g><path fill="#1c1c20" d="M86.088 72.105V49.533c0-.075-.007-.148-.018-.22l-.006-.037c-.013-.072-.064-.141-.064-.21V49c0-.1-.12-.232-.21-.35l-.01-.017L79.871 41h16.996L90.85 55.654a2.409 2.409 0 0 0-.001 1.826l6.02 14.625zm-82.895 0L9.21 57.483a2.41 2.41 0 0 0 0-1.827L3.194 41h16.996l-5.908 7.633-.011.017c-.09.118-.16.25-.211.35-.059.117-.059.196-.059.276v22.829zm18.526-24.038h-3.285l3.285-4.226zm56.624-4.226l3.284 4.226h-3.284zm15.3 12.727l6.237-15.153c.305-.74.22-1.58-.225-2.245a2.41 2.41 0 0 0-2.008-1.07H76.862c-.012 0-.023.002-.035.003a1.49 1.49 0 0 0-.176.016l-.04.006c-.068.013-.134.03-.199.052l-.01.002-.017.008c-.066.023-.129.05-.19.082l-.008.004c-.06.032-.117.069-.187.11v.024a.736.736 0 0 0-.167.13l-.016.019a1.48 1.48 0 0 0-.118.141c-.007.01-.015.018-.021.028a1.45 1.45 0 0 0-.103.17l-.014.03c-.028.075-.053.075-.074.179l-.005.013a1.476 1.476 0 0 0-.07.45v8.5H24.65v-8.5a1.456 1.456 0 0 0-.023-.251 1.441 1.441 0 0 0-.048-.198l-.004-.014c-.02-.104-.046-.104-.075-.18l-.013-.029a1.473 1.473 0 0 0-.103-.17l-.02-.028a1.471 1.471 0 0 0-.119-.14l-.016-.02a1.5 1.5 0 0 0-.148-.13c-.012-.008-.023-.017-.081-.025 0-.04-.065-.077-.125-.109l-.01-.004a1.462 1.462 0 0 0-.188-.082l-.017-.008a1.452 1.452 0 0 0-.212-.054l-.035-.005a1.44 1.44 0 0 0-.182-.018l-.03-.001H2.413c-.809 0-1.559.399-2.008 1.069-.406.665-.53 1.504-.225 2.246l6.236 15.152L.181 71.722c-.305.74-.181 1.58.225 2.278.449.637 1.2 1 2.008 1H14v8.538c0 .81.629 1.462 1.439 1.462h56.208c1.938-.056 1.937-2.869 0-2.928H16.904V51h66.253v31.072h-4.774c-1.938.06-1.937 2.872 0 2.928h6.24c.809 0 1.465-.652 1.465-1.462V75h11.56c.808 0 1.558-.363 2.007-1 .446-.698.53-1.538.225-2.279z"/></g></g></g><g/></g></g></svg>