<svg xmlns="http://www.w3.org/2000/svg" width="100" height="88" viewBox="0 0 100 88"><g><g><g><path fill="#fc4848" d="M50.318 58.734c-2.713-1.498-6.318-3.652-9.878-6.237-3.911-2.851-6.507-5.33-8.18-7.274-1.743-2.024-2.71-4.693-2.71-7.468V11c7.76-1.156 15.11-3.786 20.768-9.74"/></g><g><path fill="#d50032" d="M50.32 15.258v43.476c2.68-1.498 6.332-3.652 9.878-6.237 3.911-2.851 6.507-5.33 8.18-7.274 1.743-2.024 2.71-4.693 2.71-7.468V11C63.328 9.844 56 7.214 50.32 1.26"/></g><g><path fill="#1c1c20" d="M50.322 11.464a1.246 1.246 0 0 1-.7-.212 1.198 1.198 0 0 1-.192-.158c-.058-.094-.111-.094-.158-.191a1.272 1.272 0 0 1-.212-.701 1.271 1.271 0 0 1 .562-1.05c.068-.045.141-.084.217-.152h.237a.619.619 0 0 1 .493 0h.236c.077.068.195.107.195.153a.775.775 0 0 1 .215.156 1.29 1.29 0 0 1 .273.41c.031.076.055.156.072.281.016 0 .025.12.025.202a1.264 1.264 0 0 1-.213.7c-.046.098-.099.098-.157.192-.215.237-.56.37-.893.37z"/></g><g><path fill="#8e5aa9" d="M63.863 27.55c-.484-2.238-1.674-4.1-3.35-5.243-1.595-1.087-3.513-1.417-5.447-.953-.301.072-.576.16-.833.267-1.43.592-2.293 1.731-3.913 3.379-1.911-1.948-2.77-3.18-4.745-3.646-1.969-.464-3.852-.134-5.447.953-1.677 1.142-2.867 3.005-3.35 5.244-.498 2.3-.173 4.765.914 6.939 2.153 4.307 11.585 9.78 10.129 8.846 1.456.934 2.474 1.517 2.5 1.517.079 0 10.474-6.056 12.628-10.363 1.051-2.174 1.411-4.638.914-6.94z"/></g><g><path fill="#1c1c20" d="M67.422 44.402c-1.947 2.262-4.627 4.598-7.967 7.077-2.774 2.023-5.598 3.774-7.872 5.093v-10.98c.28-.167 3.417-2.178 5.007-3.277 3.98-2.838 6.498-5.315 7.488-7.26 1.216-2.43 1.577-5.19 1.02-7.77-.553-2.557-1.929-4.695-3.874-6.021-1.896-1.264-4.126-1.685-6.447-1.138-.365.086-.7.194-1.027.329h-.001c-.844.35-1.513.843-2.166 1.45V15.26c0-.697-.583-1.26-1.262-1.26a1.26 1.26 0 0 0-1.263 1.26v6.647c-.893-.829-1.835-1.46-3.193-1.78-2.323-.548-4.552-.127-6.448 1.137-1.945 1.326-3.32 3.464-3.873 6.02a11.938 11.938 0 0 0 1.019 7.77c.918 1.837 3.014 3.996 6.228 6.417 1.209.944 5.883 3.899 6.267 4.124v10.977a97.844 97.844 0 0 1-7.872-5.093c-3.34-2.479-6.02-4.815-7.967-7.077-1.55-1.8-2.404-4.16-2.404-6.644V12.085c8.254-1.394 14.658-4.358 19.506-9.031 4.847 4.673 11.251 7.637 19.505 9.031v25.673c0 2.483-.826 4.843-2.404 6.644zm-28.6-10.476c-.96-1.926-1.247-4.087-.822-6.108.427-1.921 1.431-3.508 2.84-4.467 1.293-.883 2.831-1.148 4.446-.767 1.282.302 1.94 1.002 3.252 2.416.274.27.557.572.877.9.238.246.585.384.906.384.341 0 .679-.138.906-.383.32-.33.602-.63.876-.901 1.03-1.115 1.711-1.839 2.613-2.213l.006-.002c.198-.082.405-.148.634-.201 1.644-.38 3.152-.116 4.446.766 1.408.96 2.412 2.547 2.828 4.468.436 2.021.149 4.182-.81 6.108-1.64 3.28-9.243 8.14-11.496 9.476l-.159-.095c3.607-2.434 7.563-5.55 8.914-8.252 1.215-2.43 1.577-5.19 1.02-7.77-.099-.682-.82-1.115-1.502-.968a1.263 1.263 0 0 0-.967 1.5c.437 2.022.15 4.183-.81 6.109-.961 1.923-4.24 4.796-9.038 7.932-2.07-1.313-7.53-5.071-8.96-7.932zM71.275 9.759C62.416 8.433 56 5.458 51.238.395a.934.934 0 0 0-.025-.025C51.136.292 51.051.228 51 .174V.171c-.051-.004-.058-.008-.065-.012L50.92.15l-.01-.005C50.697 0 50.462 0 50.231 0H50v.052c0 .001 0 .002-.05.003l-.019.006-.01.004-.019.006-.01.004-.018.006a.268.268 0 0 0-.014.006l-.014.005-.017.007-.012.005a.615.615 0 0 0-.027.013l-.026.012h-.002c-.12.06-.234.14-.334.24l-.024.026c-4.812 5.063-11.18 8.038-20.038 9.364A1.26 1.26 0 0 0 28.29 11v26.758c0 3.088 1.07 6.033 3.015 8.242 2.074 2.458 4.898 5 8.394 7.52 3.708 2.703 7.49 4.93 10.011 6.322l.003.002.01.005a.199.199 0 0 1 .017.01.963.963 0 0 0 .032.015l.003.002.017.008h.001c.207.116.35.116.526.116H50.667c.032-.058.063-.068.094-.08a.033.033 0 0 1 .005-.002h.001c.063-.024.124-.052.182-.086 2.52-1.393 6.294-3.615 9.994-6.312 3.496-2.52 6.32-5.062 8.393-7.52 1.944-2.21 3.015-5.154 3.015-8.242V11a1.26 1.26 0 0 0-1.075-1.241z"/></g><g><path fill="#1c1c20" d="M81.38 25.265h-1.967a1.263 1.263 0 0 1 0-2.525h1.968a1.262 1.262 0 1 1 0 2.525z"/></g><g><path fill="#1c1c20" d="M76 16.947c-.36 0-.684-.124-.93-.37a1.262 1.262 0 0 1 0-1.785L76.46 13.4c.539-.493 1.293-.493 1.786 0a1.263 1.263 0 0 1 0 1.785l-1.392 1.392a1.24 1.24 0 0 1-.855.37z"/></g><g><path fill="#1c1c20" d="M77.354 35c-.354 0-.646-.156-.893-.403l-1.391-1.392a1.263 1.263 0 0 1 1.785-1.785l1.392 1.392a1.263 1.263 0 0 1 0 1.785c-.247.247-.57.403-.893.403z"/></g><g><path fill="#1c1c20" d="M21.23 25.265h-1.967a1.263 1.263 0 0 1 0-2.525h1.968a1.262 1.262 0 1 1 0 2.525z"/></g><g><path fill="#1c1c20" d="M23.282 35c-.282 0-.646-.156-.892-.403a1.262 1.262 0 0 1 0-1.785l1.391-1.392a1.263 1.263 0 0 1 1.786 1.785l-1.392 1.392c-.246.246-.57.403-.893.403z"/></g><g><path fill="#1c1c20" d="M24.674 16.947c-.323 0-.674-.124-.893-.37l-1.391-1.392a1.263 1.263 0 0 1 1.785-1.785l1.392 1.392a1.262 1.262 0 0 1-.893 2.155z"/></g></g><g><g><g><path fill="#db9b00" d="M23.189 42.47H2.419a.939.939 0 0 0-.878 1.292l6.32 15.356a.656.656 0 0 1 0 .71l-6.32 15.356a.939.939 0 0 0 .877 1.291H23.19z"/></g><g><path fill="#ffdd69" d="M15.44 52.437l7.746-9.967v34.005l-7.746 9.967z"/></g><g><path fill="#db9b00" d="M76.88 42.47h20.77a.939.939 0 0 1 .878 1.292l-6.32 15.356a.928.928 0 0 0 0 .71l6.32 15.356a.939.939 0 0 1-.877 1.291H76.88z"/></g><g><path fill="#ffdd69" d="M84.626 52.437L76.88 42.47v34.005l7.746 9.967z"/></g><g><path fill="#fdb813" d="M15.44 52.43h69.183v34.005H15.44z"/></g><g><g><path fill="#1c1c20" d="M86.088 75V52.433a1.46 1.46 0 0 0-.018-.22l-.006-.037C86.051 52.104 86 52 86 52v-.058c0-.142-.12-.274-.21-.392l-.01-.017-5.908-7.602h16.996L90.85 58.553a2.41 2.41 0 0 0-.001 1.828L96.869 75zM3.193 75L9.21 60.383c.24-.581.24-1.248 0-1.827L3.194 43.93h16.996l-5.908 7.602-.011.017c-.09.118-.16.25-.211.392C14 52 14 52.095 14 52.176V75zm18.526-24h-3.285l3.285-4.26zm56.624-4.26L81.627 51h-3.284zm15.3 12.728l6.237-15.153c.305-.74.22-1.58-.225-2.245A2.411 2.411 0 0 0 97.647 41H76.611c-.068 0-.134.055-.199.077l-.01.002-.017.008a1.48 1.48 0 0 0-.19.082l-.008.004c-.06.032-.117.07-.187.11v.024a.744.744 0 0 0-.167.131l-.016.018a1.447 1.447 0 0 0-.118.14l-.021.029a1.491 1.491 0 0 0-.103.17l-.014.03a1.663 1.663 0 0 0-.074.175h-.005a2.879 2.879 0 0 0-.054.258c-.01.068-.017.137-.017.208V51H24.65v-8.534a1.454 1.454 0 0 0-.023-.25A2.847 2.847 0 0 0 24.58 42h-.004a1.677 1.677 0 0 0-.075-.176 1.473 1.473 0 0 0-.117-.2l-.02-.027a1.535 1.535 0 0 0-.118-.14l-.016-.019a1.464 1.464 0 0 0-.148-.13c-.012-.009-.023-.017-.081-.026 0-.04-.065-.077-.125-.109l-.01-.005a1.5 1.5 0 0 0-.188-.081l-.017-.008-.01-.002c-.066-.022-.133-.077-.202-.077H2.414c-.809 0-1.559.4-2.008 1.07-.406.665-.53 1.504-.225 2.245l6.236 15.153L.181 74.622c-.305.74-.181 1.58.225 2.245.449.67 1.2 1.07 2.008 1.07H14v8.501c0 .81.629 1.466 1.439 1.466h56.208c1.938-.06 1.937-2.904 0-2.904H16.904V53.898h66.253V85h-4.774c-1.938 0-1.937 2.844 0 2.904h6.24c.809 0 1.465-.656 1.465-1.466v-8.501h11.56c.808 0 1.558-.4 2.007-1.07.446-.665.53-1.505.225-2.246z"/></g></g></g><g/></g></g></svg>