<svg xmlns="http://www.w3.org/2000/svg" width="100" height="84" viewBox="0 0 100 84"><g><g><g><g><path fill="#d50032" d="M49.92 9.07a.363.363 0 0 0 .57 0C51.672 7.58 56.52 2.2 65 2.2c8.691 0 14.71 7.443 14.71 16.111 0 9.98-8.446 26.21-29.505 36.49C29.145 44.521 20.7 28.293 20.7 18.311c0-8.668 6.02-16.11 14.752-16.11 8.439 0 13.286 5.378 14.468 6.87z"/></g><g><g><g><path fill="#ffdd69" d="M41 28c0 1.66-1.29 3-2.92 3s-2.95-1.34-2.95-3c0-1.6 1.32-2.92 2.95-2.92C39.71 25.08 41 26.4 41 28z"/></g><g><path fill="#ffdd69" d="M65.27 28c0 1.66-1.32 3-2.95 3-1.63 0-2.95-1.34-2.95-3 0-1.6 1.32-2.92 2.95-2.92 1.63 0 2.95 1.32 2.95 2.92z"/></g><g><path fill="#ffdd69" d="M58.825 21.237a3.577 3.577 0 1 1-7.154 0 3.577 3.577 0 0 1 7.154 0z"/></g><g><path fill="#ffdd69" d="M48.725 21.237a3.577 3.577 0 1 1-7.155 0 3.577 3.577 0 0 1 7.155 0z"/></g></g><g><path fill="#ffdd69" d="M58.442 34.059c-1.823-3.158-5.044-5.58-8.228-5.589H50.205C47 28.48 43.8 30.901 42 34.06c-4.294 7.397 0 10.941 6.922 8.113.412-.172.85-.252 1.287-.253.438.001.876.081 1.288.253 6.881 2.828 11.215-.716 6.945-8.113z"/></g></g></g><g><g><path fill="#1c1c20" d="M51.404 52.852V50A1.203 1.203 0 0 0 49 50v2.852C30.397 43.144 21.899 28.284 21.899 18.31c0-8.5 5.826-14.911 13.553-14.911 7.831 0 12.332 4.909 13.548 6.415v2.856c0 .663.55 1.2 1.212 1.2a1.2 1.2 0 0 0 1.2-1.2V9.838l.017-.023C52.622 8.31 57.124 3.399 65 3.399c7.684 0 13.51 6.41 13.51 14.911 0 9.974-8.51 24.834-27.106 34.542zM76.508 6.21C73.544 2.85 69.442 1 65 1c-7.878 0-12.796 4.337-14.795 6.553C48.208 5.34 43.29 1 35.452 1 31 1 26.864 2.85 23.902 6.21c-2.84 3.22-4.402 7.516-4.402 12.1 0 5.69 2.581 12.583 7.081 18.834C32 44.667 40 51.146 49.678 55.878c.166.122.322.122.526.122.18 0 .36 0 .527-.122 9.693-4.732 17.68-11.21 23.096-18.734C78.327 30.892 80.91 24 80.91 18.31c0-4.584-1.563-8.88-4.401-12.1z"/><path fill="none" stroke="#1c1c20" stroke-miterlimit="50" stroke-width=".5" d="M51.404 52.852V50A1.203 1.203 0 0 0 49 50v2.852C30.397 43.144 21.899 28.284 21.899 18.31c0-8.5 5.826-14.911 13.553-14.911 7.831 0 12.332 4.909 13.548 6.415v2.856c0 .663.55 1.2 1.212 1.2a1.2 1.2 0 0 0 1.2-1.2V9.838l.017-.023C52.622 8.31 57.124 3.399 65 3.399c7.684 0 13.51 6.41 13.51 14.911 0 9.974-8.51 24.834-27.106 34.542zM76.508 6.21C73.544 2.85 69.442 1 65 1c-7.878 0-12.796 4.337-14.795 6.553C48.208 5.34 43.29 1 35.452 1 31 1 26.864 2.85 23.902 6.21c-2.84 3.22-4.402 7.516-4.402 12.1 0 5.69 2.581 12.583 7.081 18.834C32 44.667 40 51.146 49.678 55.878c.166.122.322.122.526.122.18 0 .36 0 .527-.122 9.693-4.732 17.68-11.21 23.096-18.734C78.327 30.892 80.91 24 80.91 18.31c0-4.584-1.563-8.88-4.401-12.1z"/></g><g><path fill="#1c1c20" d="M50.213 40.72a4.525 4.525 0 0 0-1.735.34c-2.91 1.18-5.369 1.163-6.418-.06-1.06-1.154-.66-3.532.94-6.342 1.741-2.977 4.631-4.981 7.215-4.99h.002c2.584.009 5.475 2.013 7.193 4.99 1.59 2.81 1.983 5.188.963 6.342-1.05 1.223-3.509 1.239-6.373.06a5.064 5.064 0 0 0-1.787-.34zm5.595 3.603c1.85 0 3.375-.582 4.375-1.731 1.028-1.181 2.304-3.939-.695-9.134-2.163-3.745-5.793-6.173-9.253-6.188h-.037c-3.46.015-7.09 2.443-9.253 6.188-3 5.195-1.722 7.953-.695 9.134 1.75 2.032 5.182 2.29 9.13.69.267-.108.55-.163.833-.164.29 0 .573.056.84.165 1.717.717 3.332 1.04 4.755 1.04z"/></g><g><path fill="#1c1c20" d="M57.624 21.236a2.38 2.38 0 0 1-2.377 2.378 2.38 2.38 0 0 1-2.378-2.378 2.38 2.38 0 0 1 2.378-2.377 2.38 2.38 0 0 1 2.377 2.377zM55.247 26A4.75 4.75 0 0 0 60 21.236c0-2.633-2.12-4.776-4.753-4.776a4.782 4.782 0 0 0-4.777 4.776A4.77 4.77 0 0 0 55.247 26z"/></g><g><path fill="#1c1c20" d="M47.524 21.236a2.38 2.38 0 0 1-2.377 2.378 2.38 2.38 0 0 1-2.378-2.378 2.38 2.38 0 0 1 2.378-2.377 2.38 2.38 0 0 1 2.377 2.377zM45.147 26a4.77 4.77 0 0 0 4.776-4.764 4.782 4.782 0 0 0-4.776-4.776 4.782 4.782 0 0 0-4.777 4.776A4.77 4.77 0 0 0 45.147 26z"/></g><g><path fill="#1c1c20" d="M64.07 28c0 1-.786 1.78-1.75 1.78-.966 0-1.751-.78-1.751-1.78 0-.936.785-1.721 1.75-1.721s1.75.785 1.75 1.721zm2.398 0c0-2.259-1.861-4.12-4.149-4.12A4.128 4.128 0 0 0 58.17 28c0 2.317 1.83 4.178 4.15 4.178 2.287 0 4.148-1.861 4.148-4.178z"/></g><g><path fill="#1c1c20" d="M39.83 28c0 1-.83 1.78-1.75 1.78-.966 0-1.751-.78-1.751-1.78 0-.936.785-1.721 1.75-1.721.921 0 1.75.785 1.75 1.721zm2.398 0c0-2.259-1.861-4.12-4.149-4.12-2.288 0-4.149 1.861-4.149 4.12 0 2.317 1.861 4.178 4.15 4.178 2.287 0 4.148-1.861 4.148-4.178z"/></g></g></g><g><g><g><path fill="#db9b00" d="M23.189 38.47H2.419a.939.939 0 0 0-.878 1.292l6.32 15.356a.656.656 0 0 1 0 .71l-6.32 15.356a.939.939 0 0 0 .877 1.291H23.19z"/></g><g><path fill="#ffdd69" d="M15.44 48.437l7.746-9.967v34.005l-7.746 9.967z"/></g><g><path fill="#db9b00" d="M76.88 38.47h20.77a.939.939 0 0 1 .878 1.292l-6.32 15.356a.928.928 0 0 0 0 .71l6.32 15.356a.939.939 0 0 1-.877 1.291H76.88z"/></g><g><path fill="#ffdd69" d="M84.626 48.437L76.88 38.47v34.005l7.746 9.967z"/></g><g><path fill="#fdb813" d="M15.44 48.43h69.183v34.005H15.44z"/></g><g><g><path fill="#1c1c20" d="M86.088 71V48.433c0-.075-.007-.148-.018-.22l-.006-.037C86.051 48.104 86 48 86 48v-.058c0-.142-.12-.274-.21-.392l-.01-.017-5.908-7.601h16.996L90.85 54.554a2.408 2.408 0 0 0-.001 1.826L96.869 71zM3.193 71L9.21 56.383c.24-.581.24-1.248 0-1.827L3.194 39.932h16.996l-5.908 7.601-.011.017c-.09.118-.16.25-.211.392C14 48 14 48.095 14 48.176V71zm18.526-24h-3.285l3.285-4.26zm56.624-4.26L81.627 47h-3.284zm15.3 12.728l6.237-15.153a2.39 2.39 0 0 0-.225-2.245A2.411 2.411 0 0 0 97.647 37H76.611c-.068 0-.134.055-.199.077-.003 0-.007.001-.01.003l-.017.007c-.066.023-.129.05-.19.082l-.008.004c-.06.032-.117.07-.187.11v.025a.73.73 0 0 0-.167.13l-.016.018a1.422 1.422 0 0 0-.118.141c-.007.01-.015.018-.021.028a1.453 1.453 0 0 0-.103.17l-.014.03a1.642 1.642 0 0 0-.074.175h-.005a2.883 2.883 0 0 0-.054.258c-.01.068-.017.138-.017.208V47H24.65v-8.534a1.457 1.457 0 0 0-.023-.25A2.796 2.796 0 0 0 24.58 38h-.004a1.699 1.699 0 0 0-.075-.176l-.013-.029a1.488 1.488 0 0 0-.103-.17l-.02-.028a1.438 1.438 0 0 0-.119-.14l-.016-.019a1.497 1.497 0 0 0-.148-.13c-.012-.01-.023-.017-.081-.026 0-.04-.065-.077-.125-.109l-.01-.005a1.43 1.43 0 0 0-.188-.081l-.017-.007-.01-.003c-.066-.022-.133-.077-.202-.077H2.414c-.809 0-1.559.4-2.008 1.07-.406.665-.53 1.504-.225 2.245l6.236 15.153L.181 70.622c-.305.74-.181 1.58.225 2.245.449.67 1.2 1.07 2.008 1.07H14v8.501c0 .81.629 1.466 1.439 1.466h56.208c1.938-.06 1.937-2.904 0-2.904H16.904V49.898h66.253V81h-4.774c-1.938 0-1.937 2.844 0 2.904h6.24c.809 0 1.465-.656 1.465-1.466v-8.501h11.56c.808 0 1.558-.4 2.007-1.07.446-.665.53-1.505.225-2.246z"/></g></g></g><g/></g></g></svg>