<svg xmlns="http://www.w3.org/2000/svg" width="100" height="80" viewBox="0 0 100 80"><g><g><g><path fill="#d50032" d="M29.203 1.27H18.77v43.162h62.457V1.27H39.392z"/></g><g><path fill="#1c1c20" d="M34.309 2.539h-.02C33.59 2.539 33 2 33 1.269 33 .57 33.588 0 34.29 0h.019c.691 0 1.27.568 1.27 1.27 0 .73-.579 1.269-1.27 1.269z"/></g><g><path fill="#1c1c20" d="M81.227 45.7H18.769a1.27 1.27 0 0 1-1.269-1.27V1.27c0-.702.568-1.27 1.27-1.27h10.432c.701 0 1.27.568 1.27 1.27 0 .73-.569 1.269-1.27 1.269H20v40.623h60V2.539H39.391a1.25 1.25 0 0 1-1.269-1.27c0-.7.568-1.269 1.27-1.269h41.835c.701 0 1.27.568 1.27 1.27v43.16a1.27 1.27 0 0 1-1.27 1.27z"/></g><g><path fill="#f1f1f1" d="M53.678 38.21H71c0-3.21 2.654-5.903 5.915-5.903V13.394C73.654 13.394 71 10.751 71 7.49H29a5.91 5.91 0 0 1-5.91 5.904v18.913C26.35 32.307 29 35 29 38.21h24.678z"/></g><g><path fill="#1c1c20" d="M71 39.48H53.678c-.678 0-1.27-.568-1.27-1.27 0-.7.592-1.27 1.27-1.27h16.175a7.193 7.193 0 0 1 5.792-5.791V14.55c-2.94-.551-5.265-2.852-5.792-5.792H30.15c-.527 2.94-2.852 5.241-5.792 5.792v16.598a7.193 7.193 0 0 1 5.792 5.792h14.264a1.27 1.27 0 1 1 0 2.539H29a1.27 1.27 0 0 1-1.276-1.27 4.64 4.64 0 0 0-4.635-4.635c-.7 0-1.269-.575-1.269-1.27V13.395c0-.701.568-1.27 1.27-1.27 2.555 0 4.634-2.124 4.634-4.635 0-.7.569-1.269 1.276-1.269h42c.71 0 1.28.568 1.28 1.27 0 2.51 2.078 4.635 4.634 4.635.701 0 1.27.568 1.27 1.269v18.912c0 .694-.569 1.27-1.27 1.27a4.64 4.64 0 0 0-4.635 4.634c0 .702-.568 1.27-1.279 1.27z"/></g><g><path fill="#1c1c20" d="M49.14 39.479a1.28 1.28 0 0 1-.898-.372 1.255 1.255 0 0 1-.372-.898c0-.334.13-.66.372-.897a1.28 1.28 0 0 1 .897-.372c.334 0 .662.136.861.372.273.236.409.563.409.897 0 .334-.136.662-.409.898-.2.236-.527.372-.86.372z"/></g><g><path fill="#1c1c20" d="M70 17.14c-.722 0-1.29.568-1.29 1.27v5.42l-4.861-6.204c-.334-.426-.902-.626-1.414-.417a1.27 1.27 0 0 0-.855 1.2v9.098a1.27 1.27 0 1 0 2.539 0v-5.42L69 28.29c.225.313.596.487 1 .487.117 0 .257-.023.393-.07.512-.176.855-.707.855-1.2V18.41c0-.7-.568-1.269-1.248-1.269z"/></g><g><path fill="#1c1c20" d="M58.584 19.679a1.27 1.27 0 0 0 0-2.54h-3.245a1.27 1.27 0 0 0-1.269 1.27v9.098c0 .701.568 1.27 1.27 1.27h3.244a1.27 1.27 0 0 0 0-2.54h-1.975v-2.009h1.975c.7 0 1.27-.568 1.27-1.228 0-.743-.57-1.311-1.27-1.311h-1.975v-2.01h1.975z"/></g><g><path fill="#1c1c20" d="M35.097 26.656a3.814 3.814 0 0 1-3.808-3.809c0-2.1 1.711-3.847 3.808-3.847 2.1 0 3.809 1.747 3.809 3.847 0 2.1-1.709 3.809-3.809 3.809zm0-10.156a6.355 6.355 0 0 0-6.347 6.347c0 3.5 2.847 6.348 6.347 6.348 3.5 0 6.348-2.848 6.348-6.348S38.597 16.5 35.097 16.5z"/></g><g><path fill="#1c1c20" d="M48.806 21.572h-2.857v-2.003h2.857a.991.991 0 0 1 1.001 1.001c0 .553-.449 1.002-1.001 1.002zm0-4.572h-4.127c-.679 0-1.269.598-1.269 1.3v9.097c0 .701.59 1.27 1.27 1.27a1.27 1.27 0 0 0 1.269-1.27v-3.286h2.857a3.545 3.545 0 0 0 3.54-3.54c0-1.953-1.588-3.571-3.54-3.571z"/></g></g><g><g><g><path fill="#db9b00" d="M23.189 34.56H2.419a.939.939 0 0 0-.878 1.292l6.32 15.356a.655.655 0 0 1 0 .709l-6.32 15.356a.939.939 0 0 0 .877 1.292H23.19z"/></g><g><path fill="#ffdd69" d="M15.44 44.527l7.746-9.967v34.005l-7.746 9.967z"/></g><g><path fill="#db9b00" d="M76.88 34.56h20.77a.939.939 0 0 1 .878 1.292l-6.32 15.356a.928.928 0 0 0 0 .709l6.32 15.356a.939.939 0 0 1-.877 1.292H76.88z"/></g><g><path fill="#ffdd69" d="M84.626 44.527L76.88 34.56v34.005l7.746 9.967z"/></g><g><path fill="#fdb813" d="M15.44 44.53h69.183v34.005H15.44z"/></g><g><g><path fill="#1c1c20" d="M86.088 67.105V44.533c0-.075-.007-.148-.018-.22l-.006-.037c-.013-.072-.064-.141-.064-.21V44c0-.1-.12-.232-.21-.35l-.01-.017L79.871 36h16.996L90.85 50.654a2.409 2.409 0 0 0-.001 1.826l6.02 14.625zm-82.895 0L9.21 52.483c.24-.581.24-1.248 0-1.827L3.194 36h16.996l-5.908 7.633-.011.017c-.09.118-.16.25-.211.35-.059.117-.059.196-.059.276v22.829zm18.526-24.038h-3.285l3.285-4.226zm56.624-4.226l3.284 4.226h-3.284zm15.3 12.727l6.237-15.153c.305-.74.22-1.58-.225-2.245a2.41 2.41 0 0 0-2.008-1.07H76.862c-.012 0-.023.002-.035.003a1.49 1.49 0 0 0-.176.016l-.04.006c-.068.013-.134.03-.199.052l-.01.002-.017.008c-.066.023-.129.05-.19.082l-.008.004c-.06.032-.117.069-.187.11v.024a.736.736 0 0 0-.167.13l-.016.019a1.48 1.48 0 0 0-.118.141c-.007.01-.015.018-.021.028a1.45 1.45 0 0 0-.103.17l-.014.03c-.028.075-.053.075-.074.179l-.005.013a1.476 1.476 0 0 0-.07.45v8.5H24.65v-8.5a1.46 1.46 0 0 0-.023-.251 1.445 1.445 0 0 0-.048-.198l-.004-.014c-.021-.104-.046-.104-.075-.18l-.013-.029a1.47 1.47 0 0 0-.103-.17l-.02-.028a1.472 1.472 0 0 0-.119-.14l-.016-.02a1.494 1.494 0 0 0-.148-.13c-.012-.008-.023-.017-.081-.025 0-.04-.065-.077-.125-.109l-.01-.004a1.465 1.465 0 0 0-.188-.082l-.017-.008a1.45 1.45 0 0 0-.212-.054l-.035-.005a1.44 1.44 0 0 0-.182-.018l-.03-.001H2.413c-.809 0-1.559.399-2.008 1.069-.406.665-.53 1.504-.225 2.246l6.236 15.152L.181 66.722c-.305.74-.181 1.58.225 2.278.449.637 1.2 1 2.008 1H14v8.538c0 .81.629 1.462 1.439 1.462h56.208c1.938-.056 1.937-2.869 0-2.928H16.904V46h66.253v31.072h-4.774c-1.938.06-1.937 2.872 0 2.928h6.24c.809 0 1.465-.652 1.465-1.462V70h11.56c.808 0 1.558-.363 2.007-1 .446-.698.53-1.538.225-2.279z"/></g></g></g><g/></g></g></svg>