<svg id="Group_64" data-name="Group 64" xmlns="http://www.w3.org/2000/svg" xmlns:xlink="http://www.w3.org/1999/xlink" width="214" height="76.058" viewBox="0 0 214 76.058">
  <defs>
    <clipPath id="clip-path">
      <path id="Clip_15" data-name="Clip 15" d="M0,0H35.1V34.888H0Z" fill="none"/>
    </clipPath>
  </defs>
  <path id="Fill_1" data-name="Fill 1" d="M52.664,39.77H50.592c-1.562-2.344-3.119-4.683-4.7-7.059H6.8L2.156,39.76H0c.078-.122.155-.244.229-.361.171-.272.333-.529.5-.783s.343-.5.513-.737c.324-.459.658-.932.95-1.42.362-.6.761-1.2,1.148-1.769.181-.268.368-.545.549-.82.3-.453.607-.91.906-1.351.265-.391.536-.792.8-1.189.524-.791,1.054-1.6,1.566-2.376.589-.895,1.2-1.818,1.8-2.723.14-.211.291-.421.438-.623.224-.309.455-.629.65-.963.361-.62.77-1.222,1.164-1.8.208-.307.423-.624.628-.939.331-.507.677-1.015,1.012-1.507.264-.387.536-.786.8-1.183.457-.689.918-1.392,1.364-2.071l0,0h0c.651-.992,1.325-2.019,2-3.021.435-.647.867-1.312,1.284-1.955.3-.462.607-.935.913-1.4.365-.552.744-1.108,1.111-1.646.308-.452.627-.919.936-1.383.445-.666.892-1.346,1.325-2,.355-.54.723-1.1,1.087-1.648.265-.4.539-.8.8-1.193s.555-.819.829-1.232c.246-.37.481-.739.73-1.13L26.372,0c.116.167.232.332.344.492.257.367.5.712.735,1.068.248.375.5.76.735,1.132.277.431.564.877.854,1.31.149.223.3.448.451.666.406.6.826,1.213,1.2,1.847.236.4.508.788.772,1.163.151.214.306.436.453.657.362.544.725,1.094,1.075,1.626l0,0c.313.475.637.967.957,1.449.341.513.688,1.03,1.023,1.529q.391.582.78,1.164c.557.834,1.116,1.678,1.589,2.393l.554.84,0,.007c.351.533.714,1.085,1.075,1.624.226.338.461.677.687,1.006.446.645.906,1.313,1.323,1.992.289.471.6.939.9,1.391.162.245.328.5.489.744.287.443.591.886.885,1.313.181.263.368.536.55.806q.306.456.615.911c.57.841,1.16,1.71,1.7,2.587.421.677.867,1.339,1.3,1.979.32.476.641.958.952,1.425l.01.015.355.534q.386.579.776,1.157c.638.949,1.3,1.931,1.924,2.911l.173.271c.331.521.674,1.06,1.049,1.564v.193ZM26.4,3.2,9.063,29.314l-.047.071-.965,1.454H44.693l-10.1-15.257L26.4,3.2Z" transform="translate(161.337 30.665)" fill="#d50032"/>
  <g id="Group_5" data-name="Group 5" transform="translate(37.319)">
    <path id="Fill_3" data-name="Fill 3" d="M21.054,0c.025.032.052.093.077.093a9.294,9.294,0,0,1,1.376.181c.594.08,1.152.276,1.73.392s1.114.368,1.685.508a5.017,5.017,0,0,1,.812.376c.3.135.616.236.9.393A23.328,23.328,0,0,1,30.146,3.5,18.782,18.782,0,0,1,32.99,6.087a14.081,14.081,0,0,1,1.575,2.1c.421.683.773,1.393,1.125,2.107a7.314,7.314,0,0,1,.3.746c.091.252.19.5.288.752a3.194,3.194,0,0,0,.284.754,8.441,8.441,0,0,0,.315,1.474c.077.428.141.865.254,1.292a7.122,7.122,0,0,1,.112,1.167c.028.31.077.619.093.929a9.675,9.675,0,0,1,0,.968c-.013.246-.073.489-.089.736a3.184,3.184,0,0,1-.018.721,3.486,3.486,0,0,0-.086.788c-.014.15-.067.3-.092.445a2.072,2.072,0,0,1-.079.4,6.616,6.616,0,0,0-.105.682c-.153.631-.262,1.272-.455,1.9-.151.487-.266.985-.426,1.471-.192.582-.434,1.146-.635,1.723-.247.707-.619,1.359-.837,2.076a4.037,4.037,0,0,1-.274.516c-.167.35-.3.72-.492,1.055-.287.494-.521,1.016-.828,1.5a10.277,10.277,0,0,0-.515.9c-.237.473-.533.909-.8,1.364-.593,1.009-1.275,1.961-1.926,2.932-.281.42-.586.824-.885,1.233-.218.3-.443.592-.664.888-.156.209-.305.425-.468.629-.4.5-.827.974-1.191,1.5-.4.572-.867,1.086-1.282,1.645-.355.478-.763.917-1.159,1.387l-.316-.023c.164-.228.289-.419.43-.6.269-.342.556-.671.819-1.019.464-.613.9-1.25,1.379-1.848.4-.493.749-1.017,1.123-1.525.742-1.007,1.442-2.044,2.125-3.092.4-.608.774-1.229,1.156-1.846.247-.4.488-.8.731-1.2.148-.245.287-.5.42-.748q.923-1.719,1.768-3.481a31.14,31.14,0,0,0,1.555-4.008c.232-.729.4-1.476.665-2.194.006-.6.319-1.159.291-1.769.157-.211.025-.479.111-.681.1-.236.024-.474.091-.69a10.6,10.6,0,0,0,.1-1.413,4.581,4.581,0,0,0,.079-.979c-.011-.262-.074-.522-.089-.784s-.008-.549,0-.823c0-.158-.119-.275-.108-.445a.842.842,0,0,0-.045-.511c-.069-.125,0-.321-.049-.463a14.515,14.515,0,0,1-.359-1.445c-.116-.47-.307-.912-.424-1.381a6.326,6.326,0,0,0-.473-1.11,16.608,16.608,0,0,0-.784-1.611c-.356-.587-.76-1.146-1.167-1.7a18.137,18.137,0,0,0-2.145-2.3A12.665,12.665,0,0,0,28.963,3.7a17.229,17.229,0,0,0-2.08-1.178,19.874,19.874,0,0,0-2.459-.968,10.322,10.322,0,0,0-1.63-.405c-.3-.041-.591-.131-.891-.179s-.6-.051-.877-.116A7.825,7.825,0,0,0,19.462.779c-.532-.02-1.066,0-1.6,0-.2,0-.373.139-.591.1a1.56,1.56,0,0,0-.593.072c-.234.056-.488.042-.734.107-.278.073-.565.1-.846.181a6.417,6.417,0,0,1-.788.194,7.132,7.132,0,0,0-1.468.448,14.759,14.759,0,0,0-2.185,1.037,12.533,12.533,0,0,0-1.81,1.264c-.253.214-.491.444-.74.661-.116.1-.262.169-.366.278-.206.216-.4.447-.585.677s-.39.4-.566.631c-.255.331-.54.645-.768,1-.361.559-.738,1.106-1.071,1.685-.345.6-.657,1.215-.949,1.838a25.709,25.709,0,0,0-1.072,2.7,17.492,17.492,0,0,1-.681,2.189c-.044.582-.281,1.127-.31,1.719-.012.255-.074.52-.078.784a7.351,7.351,0,0,1-.118.733,1.021,1.021,0,0,1-.352.721,2.688,2.688,0,0,0-.249.246H.47l-.432-.3A3.378,3.378,0,0,1,.32,17.972c.26-.777.614-1.522.911-2.287.222-.571.4-1.157.629-1.726.137-.347.266-.7.411-1.041.359-.852.708-1.711,1.138-2.532a26.2,26.2,0,0,1,1.32-2.264c.268-.407.592-.775.831-1.2.1-.186.29-.317.416-.5.21-.311.508-.562.739-.861A9.968,9.968,0,0,1,7.888,4.3,16.562,16.562,0,0,1,10.3,2.415a12.188,12.188,0,0,1,1.821-.99A15.4,15.4,0,0,1,14.583.565c.412-.089.825-.19,1.24-.277A8.222,8.222,0,0,1,17.239.078c.012,0,.022-.051.033-.078Z" fill="#d50032"/>
  </g>
  <path id="Fill_6" data-name="Fill 6" d="M38.535,13.95H36.59c-.179-.6-.5-1.154-.715-1.759a4.827,4.827,0,0,0-.386-.711c-.03-.053-.064-.1-.091-.156a17.306,17.306,0,0,0-.959-1.591c-.124-.192-.289-.352-.4-.559a5.685,5.685,0,0,0-.4-.514,14.211,14.211,0,0,0-1.856-2.04A16.928,16.928,0,0,0,29.41,4.75a20.914,20.914,0,0,0-2.4-1.344,14.211,14.211,0,0,0-1.5-.589c-.394-.143-.8-.264-1.2-.39a9.079,9.079,0,0,0-1.333-.293c-.15-.023-.3-.074-.445-.093s-.285.027-.4-.1c-.015-.016-.062,0-.095,0A17.7,17.7,0,0,0,20,1.841c-.516.021-1.034-.008-1.551.008a6.869,6.869,0,0,0-1.266.106c-.388.086-.783.123-1.167.219-.367.092-.753.148-1.1.271-.576.2-1.166.373-1.733.612-.775.326-1.517.713-2.255,1.108A14.175,14.175,0,0,0,9.239,5.252c-.634.464-1.212.99-1.809,1.5a15.682,15.682,0,0,0-1.3,1.36,13.869,13.869,0,0,0-1.413,1.88A21,21,0,0,0,3.242,12.72a11.226,11.226,0,0,0-.678,1.848c-.121.467-.268.93-.352,1.413-.075.427-.152.864-.252,1.292a6.774,6.774,0,0,0-.108,1.361q-.024.968,0,1.937a7.989,7.989,0,0,0,.108,1.313,2.641,2.641,0,0,1,.079.593,2.475,2.475,0,0,0,.116.538,7.422,7.422,0,0,0,.323,1.315c.118.307.173.638.282.949a19.085,19.085,0,0,0,.931,2.181A24.573,24.573,0,0,0,5.064,29.8c.26.4.625.739.913,1.127A20.491,20.491,0,0,0,7.7,32.73a13.023,13.023,0,0,0,1.482,1.209,17.716,17.716,0,0,0,3.44,2,10.257,10.257,0,0,0,2.544.879c.108.166.293.061.435.121a2.005,2.005,0,0,0,.427.136c.154.028.323,0,.47.039.419.122.858.119,1.275.207a10.556,10.556,0,0,0,1.757.075c.436.02.873.017,1.309,0a7.086,7.086,0,0,0,1.266-.106c.388-.086.783-.123,1.167-.219.367-.092.743-.167,1.1-.272a7.712,7.712,0,0,0,.9-.276,8.738,8.738,0,0,1,.829-.34,11.284,11.284,0,0,0,2.039-.925,17.521,17.521,0,0,0,3.7-2.672c.185-.19.43-.323.6-.521.527-.6,1.064-1.194,1.538-1.835a15.864,15.864,0,0,0,1.209-1.87c.2-.369.422-.728.6-1.11.289-.639.547-1.291.824-1.951h1.889a10.529,10.529,0,0,0-.364,1,11.78,11.78,0,0,1-.462,1.215,7.062,7.062,0,0,1-.449,1.023c-.429.745-.822,1.513-1.322,2.217-.449.634-.926,1.242-1.43,1.835-.436.514-.912.983-1.39,1.45-.286.28-.62.517-.932.772s-.655.526-.994.774c-.282.206-.579.392-.872.584a21.185,21.185,0,0,1-2.5,1.342,18.59,18.59,0,0,1-1.869.753c-.665.234-1.357.392-2.036.583-.266.075-.573.02-.825.118-.277.108-.565.015-.823.12-.282.115-.58-.014-.845.068a5.8,5.8,0,0,1-1.563.084,10.127,10.127,0,0,1-1.6-.013,8.7,8.7,0,0,1-.977-.093,8.9,8.9,0,0,1-1.392-.262,2.811,2.811,0,0,0-.586-.1,5.733,5.733,0,0,1-.839-.205c-.4-.128-.8-.236-1.2-.371s-.778-.31-1.176-.443a7.74,7.74,0,0,1-1.262-.577c-.818-.454-1.635-.912-2.408-1.439-.372-.253-.69-.586-1.058-.846A12.413,12.413,0,0,1,5.357,33.1c-.565-.619-1.09-1.274-1.6-1.947a20.956,20.956,0,0,1-2.211-3.885,12,12,0,0,1-.767-2.1c-.139-.557-.31-1.106-.4-1.678-.063-.409-.131-.82-.2-1.226-.063-.347-.019-.695-.087-1.027a15.385,15.385,0,0,1-.086-2.481c-.021-.489.1-.97.115-1.46a6.99,6.99,0,0,1,.186-1.274q.235-1.034.51-2.062a11.811,11.811,0,0,1,.664-1.857A8.448,8.448,0,0,1,2.319,10.4a8.607,8.607,0,0,0,.494-.906A17.467,17.467,0,0,1,3.884,7.9,19.536,19.536,0,0,1,9,3.111,20.172,20.172,0,0,1,13.743.875c.273-.08.546-.161.816-.252s.558-.1.831-.218a3.3,3.3,0,0,1,.778-.112c.166-.024.329-.065.494-.095s.32.063.452-.085c.023-.025.093-.019.138-.011A7.432,7.432,0,0,0,18.375,0c.388.008.776,0,1.163,0,.307,0,.615-.011.921,0a16.362,16.362,0,0,1,1.7.107A7.86,7.86,0,0,1,23.342.3a9.97,9.97,0,0,0,1.1.262,14.25,14.25,0,0,1,2.075.622,20.39,20.39,0,0,1,2.206.993c.831.409,1.582.94,2.365,1.423.368.227.671.557,1.025.809a9.769,9.769,0,0,1,.987.893c.146.137.329.238.468.382.263.272.506.563.757.847a10.368,10.368,0,0,1,.715.82c.529.743,1.072,1.474,1.535,2.266A23.294,23.294,0,0,1,37.641,11.7a10.546,10.546,0,0,1,.765,2.106c.009.039.06.069.129.143" transform="translate(128.375 31.193)" fill="#d50032"/>
  <path id="Fill_8" data-name="Fill 8" d="M.12,30.278H1.95a2.23,2.23,0,0,1,.18.505,4.954,4.954,0,0,0,.595,1.6,6.907,6.907,0,0,0,1.263,1.8c.216.218.425.444.653.649A8.54,8.54,0,0,0,6.2,35.974c.263.146.522.3.791.431a11.369,11.369,0,0,0,2.12.732c.165.167.4.03.574.132.185.111.384,0,.555.068a4.126,4.126,0,0,0,1.368.087,8.431,8.431,0,0,0,1.356-.007,16.408,16.408,0,0,0,1.7-.329A10.978,10.978,0,0,0,17.2,36.063a8.794,8.794,0,0,0,1.329-.9,9.148,9.148,0,0,0,1.015-.933,8.8,8.8,0,0,0,1.122-1.52,6.479,6.479,0,0,0,.7-1.647,3.321,3.321,0,0,0,.169-.7c.011-.2.141-.373.107-.591a1.37,1.37,0,0,1,.072-.593.685.685,0,0,0-.052-.6.352.352,0,0,1-.025-.229,4.806,4.806,0,0,0-.113-1.266,3.591,3.591,0,0,0-.322-1.073,6.912,6.912,0,0,0-.627-1.148,5.793,5.793,0,0,0-1.343-1.42,3.249,3.249,0,0,0-.508-.414c-.309-.156-.594-.359-.9-.521-.289-.154-.591-.285-.894-.415a15.392,15.392,0,0,0-1.595-.6c-.432-.132-.873-.232-1.31-.35-.406-.11-.808-.241-1.218-.333-.37-.083-.729-.2-1.108-.259-.431-.063-.848-.217-1.28-.3-.308-.059-.6-.213-.906-.26-.378-.058-.722-.216-1.089-.3a13.379,13.379,0,0,1-1.343-.384c-.324-.114-.651-.222-.97-.348a11.359,11.359,0,0,1-1.3-.607,14.953,14.953,0,0,1-1.578-.992,8.032,8.032,0,0,1-1.314-1.25,7.716,7.716,0,0,1-1.132-1.8A7.312,7.312,0,0,1,.3,12.769a6.116,6.116,0,0,1-.188-1.616C.12,10.9,0,10.677,0,10.418A8.594,8.594,0,0,0,.109,9.005c.167-.379.114-.8.273-1.194.144-.355.222-.748.375-1.1a11.482,11.482,0,0,1,1-1.861A3.787,3.787,0,0,1,2.089,4.4,14.235,14.235,0,0,1,3.26,3.147,12.927,12.927,0,0,1,7.9.556,4.8,4.8,0,0,1,9.46.224c.318-.207.692-.067,1.042-.17A4.221,4.221,0,0,1,11.658.03c.371,0,.744-.019,1.114.005a4.587,4.587,0,0,1,1.182.183,2.163,2.163,0,0,0,.385.01c.1.013.2.069.3.092A11.572,11.572,0,0,1,16.784,1c.357.155.716.3,1.058.488a16.619,16.619,0,0,1,1.8,1.152,12.755,12.755,0,0,1,1.627,1.554,7.8,7.8,0,0,1,.845,1.148,10.53,10.53,0,0,1,.935,1.985,6.732,6.732,0,0,1,.224.778,7.553,7.553,0,0,0,.118.825,3.1,3.1,0,0,1,.08,1.03c.018.334,0,.67,0,1.014H21.732c0-.1-.007-.191,0-.282a8.1,8.1,0,0,0-.124-1.507,6.241,6.241,0,0,0-.418-1.513,7.808,7.808,0,0,0-1.022-1.85A8.741,8.741,0,0,0,18.56,4.154,12.278,12.278,0,0,0,15.94,2.627a9.125,9.125,0,0,0-1.455-.466c-.232-.065-.468-.107-.7-.183-.214-.07-.466.043-.688-.1-.068-.044-.19-.007-.287-.007-.63,0-1.261.022-1.89-.008A4.832,4.832,0,0,0,9.8,1.992a5.457,5.457,0,0,0-1.011.237c-.184.072-.428.078-.61.165-.539.258-1.118.42-1.637.731A8.9,8.9,0,0,0,4.5,4.61c-.324.348-.679.662-.973,1.046a9.068,9.068,0,0,0-.988,1.629,5.751,5.751,0,0,0-.5,1.538,4.584,4.584,0,0,1-.095.684,2,2,0,0,0-.082.643,4.259,4.259,0,0,0,.006.726A12.78,12.78,0,0,0,2.231,12.9a6.753,6.753,0,0,0,1.051,1.893,5.3,5.3,0,0,0,.627.7,9.234,9.234,0,0,0,1.483,1.1c.27.162.551.306.833.445.227.113.46.217.7.308a4.961,4.961,0,0,1,.679.229c.228.128.506.107.709.282a9.2,9.2,0,0,1,1.677.407c.511.115,1.019.267,1.531.394.366.091.737.16,1.1.26.437.12.886.2,1.324.316.565.154,1.133.308,1.69.481a13.588,13.588,0,0,1,1.575.523c.475.213.976.38,1.435.627a10.637,10.637,0,0,1,1.8,1.16,10.893,10.893,0,0,1,.872.8,7.52,7.52,0,0,1,1.53,2.319A6.3,6.3,0,0,1,23.3,26.71a3.139,3.139,0,0,0,.1.776,2.357,2.357,0,0,1,.072.841c.025.272.005.548.005.823a6.058,6.058,0,0,1-.008.822c-.041.3-.111.6-.153.9a7.329,7.329,0,0,1-.422,1.428,4.2,4.2,0,0,1-.543,1.183c-.16.213-.245.477-.411.7a9.688,9.688,0,0,1-.934,1.209c-.253.25-.494.511-.756.751a8.8,8.8,0,0,1-1.984,1.409c-.242.122-.459.294-.705.4q-.655.29-1.324.549c-.464.179-.95.276-1.413.448-.187.07-.412-.04-.58.122-.315-.022-.609.169-.929.1a10.378,10.378,0,0,1-2.287.091,1.887,1.887,0,0,1-.657-.042c-.22-.068-.521.042-.7-.069-.2-.13-.46.041-.611-.173a8.308,8.308,0,0,1-2.178-.6A7.942,7.942,0,0,1,5.476,37.7a10.067,10.067,0,0,1-1.448-.953,8.141,8.141,0,0,1-1.215-1.034A10.786,10.786,0,0,1,1.454,33.9,9.836,9.836,0,0,1,.34,31.41a5.331,5.331,0,0,0-.127-.626,2.165,2.165,0,0,1-.093-.506" transform="translate(81.05 31.166)" fill="#d50032"/>
  <path id="Fill_10" data-name="Fill 10" d="M1.829,39.229H0V0H4.688l6.369,0h.176a.69.69,0,0,1,.372.086.236.236,0,0,0,.124.028c.032,0,.065,0,.1-.007S11.9.1,11.933.1a.266.266,0,0,1,.211.085h.015a2.043,2.043,0,0,1,.549.1,2.9,2.9,0,0,0,.372.087,3.122,3.122,0,0,1,.791.256c.089.038.18.077.272.112a7.934,7.934,0,0,1,1.215.586c.136.081.269.174.4.263a3.627,3.627,0,0,0,.76.443c.172.166.352.327.527.482a8.261,8.261,0,0,1,1.126,1.145,12.972,12.972,0,0,1,.941,1.36A14.266,14.266,0,0,1,19.76,6.3a7.616,7.616,0,0,1,.489,1.541c.02.092.041.183.063.274a3.258,3.258,0,0,1,.131,1.05,4.214,4.214,0,0,1,.086,1.734l-.01.114a9.97,9.97,0,0,1-.347,1.929,10.184,10.184,0,0,1-1,2.447,8.2,8.2,0,0,1-.652.975l-.09.122a9.909,9.909,0,0,1-.791.978,7.716,7.716,0,0,1-.958.84c-.46.34-.95.65-1.368.909a6.925,6.925,0,0,1-.976.47l-.281.119a10.313,10.313,0,0,1-1.363.447l-.306.085a2.494,2.494,0,0,1-.545.07,3.293,3.293,0,0,0-.429.042,7.28,7.28,0,0,1-1.349.1c-.224,0-.455-.005-.66-.01s-.429-.009-.643-.009l-.266,0c-.348.007-.72.011-1.171.011l-.911,0H6.409q-.458,0-.917,0H1.829V39.228ZM8.745,18.692c.235,0,.474.007.706.014s.472.014.708.014a6.182,6.182,0,0,0,1.3-.114,2.258,2.258,0,0,1,.319-.035,1.423,1.423,0,0,0,.458-.079,1.88,1.88,0,0,1,.344-.1,1.6,1.6,0,0,0,.392-.12c.579-.29,1.068-.523,1.536-.735a3.129,3.129,0,0,0,.728-.464c.07-.059.139-.122.207-.182a3.577,3.577,0,0,1,.518-.412,1.308,1.308,0,0,0,.453-.406,2.781,2.781,0,0,1,.359-.44,2.614,2.614,0,0,0,.374-.465c.089-.155.191-.307.289-.454a4.7,4.7,0,0,0,.474-.828c.038-.095.077-.189.116-.284a7.123,7.123,0,0,0,.435-1.283c.023-.113.051-.229.077-.341a4.407,4.407,0,0,0,.145-.864c0-.1.006-.195.01-.292a7.822,7.822,0,0,0-.07-1.753,15.436,15.436,0,0,0-.394-1.583A8.038,8.038,0,0,0,16.38,4.428a7.942,7.942,0,0,0-.952-.856,8.711,8.711,0,0,0-.941-.65,3.3,3.3,0,0,0-.476-.223c-.072-.029-.145-.059-.217-.091l-.216-.1c-.158-.072-.319-.146-.482-.209l-.079-.03a3.665,3.665,0,0,0-.646-.205c-.136-.025-.274-.056-.407-.085a4.575,4.575,0,0,0-.994-.145h-.009c-1.242,0-2.572.006-4.313.006H1.842V18.7h.493l1.785,0h.015l1.8,0c1.053,0,1.911,0,2.7-.012Z" transform="translate(107.841 31.196)" fill="#d50032"/>
  <path id="Fill_12" data-name="Fill 12" d="M3.727,15.1H3.344L3.307,15l-.032-.09a2.6,2.6,0,0,1-.263.013,4.111,4.111,0,0,1-1.365-.284.835.835,0,0,1-.209-.12c-.032-.023-.066-.047-.1-.068A2.454,2.454,0,0,1,.21,12.987,1.931,1.931,0,0,1,.1,12.35a.994.994,0,0,0-.043-.281,1.4,1.4,0,0,1-.042-.211,1.975,1.975,0,0,1,0-.532c.045-.256.074-.518.1-.771A9.5,9.5,0,0,1,.269,9.547c.057-.256.123-.513.186-.762.051-.2.1-.4.15-.607A8.081,8.081,0,0,1,.923,7.2c.043-.114.085-.227.125-.34.023-.066.048-.131.072-.2A5.342,5.342,0,0,0,1.3,6.14a.99.99,0,0,1,.125-.258.716.716,0,0,0,.144-.4,5.874,5.874,0,0,0,.463-.933,4.972,4.972,0,0,1,.585-1.106A3.113,3.113,0,0,0,2.94,2.85c.062-.134.126-.272.2-.4a3.4,3.4,0,0,1,.507-.713,4.052,4.052,0,0,0,.268-.31A3.817,3.817,0,0,1,4.2,1.1,13.521,13.521,0,0,1,5.227.179a.918.918,0,0,1,.5-.172h.045a.722.722,0,0,1,.5.194c.065.062.135.123.19.172l.039.035V.934a.669.669,0,0,1-.541.527,1.487,1.487,0,0,0-.593.313l-.222.19a5.873,5.873,0,0,0-.926.914l-.061.08a13.046,13.046,0,0,0-.843,1.2c-.431.727-.817,1.5-1.169,2.227a16.831,16.831,0,0,0-.971,2.454c-.032.106-.066.212-.1.317a4.87,4.87,0,0,0-.291,1.313.6.6,0,0,0-.1.438,1.345,1.345,0,0,1,0,.2.688.688,0,0,0,0,.1.307.307,0,0,1-.073.259c-.048.05-.032.177-.021.27v.006c.013.1.035.2.056.3.013.063.026.125.038.188a.842.842,0,0,1,.007.168.492.492,0,0,0,.075.334.659.659,0,0,1,.087.3,1.42,1.42,0,0,0,.03.179.422.422,0,0,0,.082.14l.011.015a2.671,2.671,0,0,0,1.526,1.064,4.058,4.058,0,0,0,.952.083h.11c.184,0,.374,0,.563.012.07-.06.143-.12.214-.178a5.138,5.138,0,0,0,.452-.4,9.809,9.809,0,0,0,1.13-1.516,8.011,8.011,0,0,0,.823-1.968l.018-.056c.016-.049.032-.1.048-.149a2.39,2.39,0,0,0,.176-1.019,8.943,8.943,0,0,0,.194-2.511c-.005-.293-.011-.6-.005-.9a1.965,1.965,0,0,0-.05-.4c-.015-.077-.031-.157-.04-.236S7.083,5.065,7.08,5a1.265,1.265,0,0,0-.069-.437,1.161,1.161,0,0,1,0-.669.583.583,0,0,1,.413-.507A.167.167,0,0,0,7.5,3.328c.012-.012.023-.024.036-.035h.481c.033.023.068.046.1.068a1.7,1.7,0,0,1,.231.17.666.666,0,0,1,.223.861.747.747,0,0,0-.055.317.962.962,0,0,1-.046.318,2.044,2.044,0,0,0-.092.6c-.006.106-.011.215-.025.32a3.05,3.05,0,0,1-.063.309c-.011.045-.022.09-.031.135a.477.477,0,0,0,0,.149.3.3,0,0,1-.063.263.277.277,0,0,0-.031.183c0,.015,0,.03,0,.043a3.251,3.251,0,0,1-.176.944,2.028,2.028,0,0,0-.063.4c-.008.093-.017.19-.035.284a12.065,12.065,0,0,1-.419,1.576A3.9,3.9,0,0,0,8.71,11.763a3.611,3.611,0,0,0,1.883.734,1.27,1.27,0,0,1,.227.05,1.048,1.048,0,0,0,.289.054.544.544,0,0,0,.074-.005,4.758,4.758,0,0,0,1.937-.589,1.377,1.377,0,0,0,.565-.667.91.91,0,0,1,.464-.536.581.581,0,0,1,.256-.044.774.774,0,0,0,.24-.031,2.955,2.955,0,0,0-.155-.767,4.349,4.349,0,0,0-.512-.872l-.122-.176c-.06-.088-.121-.175-.182-.262a5.287,5.287,0,0,1-.8-1.458,4.809,4.809,0,0,0-.185-.477,4.976,4.976,0,0,1-.187-.483c-.112-.363-.2-.727-.262-1a3.894,3.894,0,0,0-.78-1.717l-.051-.061a6.627,6.627,0,0,0-.649-.706,1,1,0,0,1-.368-.916.492.492,0,0,0,0-.094,1.157,1.157,0,0,1,.715-.68l.354.06.148.025c0-.032-.012-.064-.019-.1A.839.839,0,0,1,11.559.8a.877.877,0,0,1,.077-.248C11.656.5,11.68.439,11.7.37L11.8.294,12.146,0l.083,0a1.523,1.523,0,0,1,.614.153,4.994,4.994,0,0,1,1.394.949,4.677,4.677,0,0,1,1.042,1.4l.033.067a9.071,9.071,0,0,1,.718,1.753c.046.178.1.357.15.53.041.138.083.281.122.423.053.2.09.4.126.592a6.467,6.467,0,0,0,.155.695,1.871,1.871,0,0,1,.058.412,2.737,2.737,0,0,0,.035.322,7.064,7.064,0,0,1,.09.982c.006.141.013.286.023.428s.022.279.035.414c.026.3.054.6.055.9a8.529,8.529,0,0,1-.07.994c-.014.123-.027.246-.039.369a6.1,6.1,0,0,1-.461,1.983,4.879,4.879,0,0,1-.592.915,1.943,1.943,0,0,1-1.056.587l-.134.042a.359.359,0,0,1-.107.017.243.243,0,0,1-.238-.176,2.111,2.111,0,0,0,1.7-1.425c.039-.093.08-.19.125-.283l.024-.05a1.229,1.229,0,0,0,.162-.5,3.152,3.152,0,0,1,.06-.515,2.7,2.7,0,0,0,.058-.608c0-.056-.01-.114-.017-.17a.781.781,0,0,1,.094-.608A.818.818,0,0,1,16.3,9.97c.006-.052.013-.107.016-.159A5.441,5.441,0,0,0,16.2,8.53l-.014-.081a15.427,15.427,0,0,0-.411-1.858c-.053-.175-.1-.354-.152-.528a12.957,12.957,0,0,0-.406-1.275,15.126,15.126,0,0,0-.852-1.729A2.448,2.448,0,0,0,13.15,1.832a1.5,1.5,0,0,0-.557-.1h-.074a2.4,2.4,0,0,1-.371-.039c-.058-.009-.118-.019-.175-.025.07.172.143.346.215.514.167.393.339.8.473,1.211a9.213,9.213,0,0,1,.261,1.058c.035.177.057.359.079.534a5.01,5.01,0,0,0,.149.821c.048.159.087.325.126.485a5.515,5.515,0,0,0,.226.775c.181.448.4.891.609,1.319q.1.212.208.425c.051.107.109.212.165.313s.117.213.17.323l.029.06a1.536,1.536,0,0,1,.159.441,3.11,3.11,0,0,1,.013.51c0,.077,0,.157,0,.237.027.036.056.071.086.108a1.453,1.453,0,0,1,.2.285,1.012,1.012,0,0,1,.054,1.019.7.7,0,0,0-.048.109c-.007.018-.014.036-.021.054-.077.036-.156.07-.232.1a3.583,3.583,0,0,0-.495.246,4.089,4.089,0,0,1-.978.4,6.235,6.235,0,0,0-.651.231,1.747,1.747,0,0,1-.616.1l-.161.008c-.063,0-.13.006-.212.006l-.163,0h-.031l-.185,0c-.068,0-.128,0-.184,0l-.107,0a3.568,3.568,0,0,1-1.027-.192A3.318,3.318,0,0,1,8.6,12.307a2.883,2.883,0,0,1-1.021,1.115c-.181.108-.36.226-.532.341-.188.125-.382.254-.58.369a2.148,2.148,0,0,1-.4.166c-.074.025-.151.051-.223.08-.186.076-.37.158-.549.238l-.026.012a1.013,1.013,0,0,1-.272.065.715.715,0,0,0-.375.129.759.759,0,0,0-.123-.01,1.371,1.371,0,0,0-.648.227l-.119.064Zm3.622-4.393a8.206,8.206,0,0,1-2.177,3.506,6.018,6.018,0,0,0,3.214-2.029,4.585,4.585,0,0,1-.908-1.311.555.555,0,0,0-.075-.1c-.017-.02-.035-.041-.054-.065Z" transform="translate(30.433 24.611)" fill="#0d0d0d"/>
  <g id="Group_16" data-name="Group 16" transform="translate(0 40.306)">
    <path id="Clip_15-2" data-name="Clip 15" d="M0,0H35.1V34.888H0Z" fill="none"/>
    <g id="Group_16-2" data-name="Group 16" clip-path="url(#clip-path)">
      <path id="Fill_14" data-name="Fill 14" d="M34.093,34.489l-.19.3c-.8-.086-1.583.143-2.382.091-.6-.039-1.2-.093-1.8-.122a10.666,10.666,0,0,1-1.374-.178c-.461-.083-.918-.192-1.37-.319-.475-.133-.945-.289-1.411-.454a14.258,14.258,0,0,1-1.907-.9A7.233,7.233,0,0,1,22.072,31.6a2.26,2.26,0,0,1-.48-.674,6.007,6.007,0,0,1-.483-1.06,4.317,4.317,0,0,1-.259-1.3c.017-.316-.148-.605-.1-.929a5.976,5.976,0,0,0,.106-1.316c0-.034.053-.074.084-.114a.9.9,0,0,1-.289-.645,5.264,5.264,0,0,0-.089-.686c-.027-.213.067-.445-.1-.638a6.41,6.41,0,0,0-.3-1.572,5.885,5.885,0,0,0-.407-1.233c-.228-.551-.476-1.1-.747-1.628a15.066,15.066,0,0,0-1.4-2.283,12.278,12.278,0,0,0-1.522-1.786A4.978,4.978,0,0,0,14.574,14.7a4.024,4.024,0,0,0-1.1-.264,2.365,2.365,0,0,0-1.441.615A10.792,10.792,0,0,0,10.847,16.5c-.58.805-1.082,1.663-1.671,2.456a11.2,11.2,0,0,1-1.353,1.675c-.243.222-.414.521-.66.737A5.683,5.683,0,0,1,5.39,22.579a1.567,1.567,0,0,1-.747.187c-.226,0-.452,0-.679,0a1.528,1.528,0,0,1-.938-.313,6.315,6.315,0,0,1-.709-.514,8.42,8.42,0,0,1-1.156-1.508c-.186-.281-.393-.548-.588-.823S.205,19.079,0,18.784l.013-.2c.077.022.138.02.16.048.333.426.679.843.987,1.287a10.546,10.546,0,0,0,1.412,1.79,5.622,5.622,0,0,0,1.042.648c.311-.061.612.281.928.023a3.1,3.1,0,0,0,1.585-.739,5.146,5.146,0,0,0,1.046-.969c.38-.449.762-.9,1.116-1.372.294-.393.548-.809.828-1.21.346-.5.629-1.036.972-1.534a9.985,9.985,0,0,1,1.24-1.668c.138-.361.483-.525.757-.736a2.02,2.02,0,0,1,1.295-.492,1.788,1.788,0,0,0,.291,0,2.762,2.762,0,0,1,1.552.35,5.294,5.294,0,0,1,.806.509,9.555,9.555,0,0,1,1.6,1.513,15.266,15.266,0,0,1,1.283,1.789A19.433,19.433,0,0,1,20.176,20.2a22.178,22.178,0,0,1,.962,2.508,7.788,7.788,0,0,1,.335,1.306c.188-.623.451-1.124.644-1.657a6.831,6.831,0,0,1,.488-.911c.029-.053.058-.105.084-.159a11.852,11.852,0,0,1,.98-1.626,9.273,9.273,0,0,1,1.16-1.51,4.871,4.871,0,0,0,.415-.5,3.67,3.67,0,0,0,.389-.467,6.174,6.174,0,0,1,.57-.687,21.016,21.016,0,0,0,1.834-2.58c.361-.625.73-1.246,1.048-1.893.217-.441.4-.9.582-1.357s.331-.929.487-1.4c.123-.37.217-.751.344-1.117s.2-.755.314-1.127c.089-.283.141-.588.218-.881s.136-.56.205-.837c.13-.519.35-1.016.517-1.527a13.147,13.147,0,0,1,.93-2.036,7.86,7.86,0,0,1,.859-1.29A4.169,4.169,0,0,1,34.033,0C34.67,0,34.67,0,35.1.44v.675c-.22.22-.432.443-.655.653a6.372,6.372,0,0,0-1.425,2.123,6.926,6.926,0,0,0-.47,1.212c-.1.419-.335.806-.422,1.225-.113.549-.306,1.074-.432,1.619A16.293,16.293,0,0,1,31.126,9.6c-.157.451-.346.89-.528,1.331-.234.565-.5,1.117-.786,1.66-.215.414-.479.806-.7,1.215s-.479.77-.718,1.151c-.32.509-.756.944-1.111,1.433-.386.53-.876.973-1.241,1.519a1.463,1.463,0,0,1-.2.207A16.652,16.652,0,0,0,24.216,20.1a19.546,19.546,0,0,0-1.835,3.217,13.207,13.207,0,0,0-.621,1.584.456.456,0,0,0,.028.437c-.033.215-.061.4-.093.6l-.259.259c-.034.267-.067.543-.1.819a3.535,3.535,0,0,0-.089.686,7.5,7.5,0,0,0,.43,2.338,4.744,4.744,0,0,0,.72,1.206,5.149,5.149,0,0,0,1.243,1.2c.5.27,1,.547,1.515.787a11.416,11.416,0,0,0,2.251.769c.266.055.532.117.791.195a2.874,2.874,0,0,1,.747.186.114.114,0,0,0,.046.005c.373.032.747.07,1.121.1a10.326,10.326,0,0,0,1.366.1c.451-.028.905,0,1.357-.009a1.77,1.77,0,0,0,.837-.086c.1-.051.242-.008.426-.008" transform="translate(0)" fill="#0d0d0d"/>
    </g>
  </g>
  <path id="Fill_17" data-name="Fill 17" d="M10.91,14.631c.121-.4.222-.813.369-1.206a9.72,9.72,0,0,1,.844-1.83,9.336,9.336,0,0,1,.769-1.132,7.177,7.177,0,0,1,2.506-1.9,4.978,4.978,0,0,1,1.481-.415,4.213,4.213,0,0,1,.93-.071,13.3,13.3,0,0,1,1.4.235A12.222,12.222,0,0,1,21.688,9.36a4.437,4.437,0,0,1,.549.322,5.256,5.256,0,0,0,.937.423c.194.078.4.126.6.2a2.693,2.693,0,0,1,.6.179.073.073,0,0,0,.043.012,13.047,13.047,0,0,0,1.462.095c.377-.062.758-.116,1.127-.207A4.115,4.115,0,0,0,28,9.975a5.115,5.115,0,0,0,1.709-1.488,7.294,7.294,0,0,0,.747-1.244A5.313,5.313,0,0,0,31.044,5.4c.036-.23.061-.458.088-.688a1.249,1.249,0,0,1,.13-.322l.151.008c-.041.207.1.422-.085.624-.033.035,0,.124-.008.188a6.315,6.315,0,0,1-.612,2.266A7.023,7.023,0,0,1,28.849,9.9a5.459,5.459,0,0,1-1.614.9,5.784,5.784,0,0,1-2.643.262,6.82,6.82,0,0,1-2.013-.507c-.552-.235-1.073-.528-1.62-.768a10.665,10.665,0,0,0-2.01-.656,6.225,6.225,0,0,0-1.8-.061,3.851,3.851,0,0,0-1.725.615,10.087,10.087,0,0,0-1.112.822,5.715,5.715,0,0,0-.864,1.043,6.735,6.735,0,0,0-.743,1.195,5.85,5.85,0,0,0-.58,1.649c-.21.263-.156.608-.274.9-.082.205.024.467-.114.679.028.6-.15,1.193-.1,1.8.035.464.007.934.007,1.4l-.38.5a2.216,2.216,0,0,1-.12.65c-.1.207-.083.441-.218.64-.122.181-.139.432-.259.616a5.277,5.277,0,0,1-1.312,1.543,8.284,8.284,0,0,1-1.55.948,11.751,11.751,0,0,1-1.6.586c-.444.115-.889.2-1.333.3a5.412,5.412,0,0,1-.935.073,4.2,4.2,0,0,1-.967-.007,6.417,6.417,0,0,1-2.047-.669c-.254-.147-.5-.31-.845-.525.2-.03.293-.072.364-.048a1.235,1.235,0,0,1,.356.19,2.979,2.979,0,0,0,1.1.5,4.151,4.151,0,0,0,.847.171,14.851,14.851,0,0,0,1.6,0c.314-.022.634-.126.943-.156.345-.034.645-.191.981-.23a2.286,2.286,0,0,0,.591-.206,10.971,10.971,0,0,0,1.789-.948,4.659,4.659,0,0,0,1.606-1.777,2.741,2.741,0,0,0,.326-1.078,2.018,2.018,0,0,1,.122-.461,1.4,1.4,0,0,1-.461-.728.907.907,0,0,1-.023-.494,1.436,1.436,0,0,0,.061-.264,1.865,1.865,0,0,1,.089-.642c.078-.193-.008-.417.09-.641.086-.2.032-.451.105-.682.082-.257-.072-.513-.123-.767-.074-.367-.192-.726-.3-1.084-.106-.343-.243-.677-.334-1.023a4.557,4.557,0,0,0-.228-.584,17.581,17.581,0,0,0-.951-1.979c-.321-.564-.67-1.116-1-1.672-.443-.736-.989-1.392-1.464-2.1-.209-.312-.506-.563-.745-.857a21.559,21.559,0,0,0-1.822-2c-.466-.446-.964-.858-1.451-1.28-.355-.308-.733-.583-1.095-.88C.922,1.992.8,1.9.669,1.815.035,1.374,0,1.311,0,.563L.386.051C.451.041.482.037.512.03,1.174-.12,1.556.314,1.9.745c.115.143.23.293.358.427.278.292.575.567.853.86.394.415.8.82,1.16,1.266s.78.862,1.134,1.321c.528.685,1.081,1.349,1.6,2.046.483.654.89,1.357,1.386,2a5.458,5.458,0,0,1,.326.543c.316.526.605,1.07.87,1.624.141.295.243.608.393.9a8.275,8.275,0,0,1,.334.878,4.59,4.59,0,0,1,.328.926c.053.381.3.712.268,1.092" transform="translate(56.53 48.508)" fill="#0d0d0d"/>
  <path id="Fill_19" data-name="Fill 19" d="M14.885,38.928a.548.548,0,0,1-.548-.137c-.6-.434-1.181-.882-1.785-1.3-.356-.249-.668-.561-1.023-.813-.416-.3-.776-.66-1.209-.935-.222-.141-.381-.364-.608-.518a11.207,11.207,0,0,1-.893-.776c-.93-.791-1.767-1.677-2.632-2.536a10.9,10.9,0,0,1-1-1.185c-.179-.237-.4-.443-.577-.683-.584-.8-1.186-1.587-1.711-2.435a22.022,22.022,0,0,1-1.317-2.462,11.171,11.171,0,0,1-.818-2.28c-.117-.544-.288-1.078-.386-1.633a2.676,2.676,0,0,0-.093-.586c-.09-.2-.032-.408-.092-.593a7.717,7.717,0,0,1-.1-.978,18.206,18.206,0,0,1-.082-2.819,2.768,2.768,0,0,1,.091-.589c.035-.2-.086-.411.091-.595.04-.042,0-.156.007-.236A11.2,11.2,0,0,1,.47,13.349c.073-.309.141-.621.2-.931A11.831,11.831,0,0,1,1.108,11,13.216,13.216,0,0,1,2.143,8.567a20.643,20.643,0,0,1,1.2-1.976c.381-.515.778-1.009,1.2-1.488a6.653,6.653,0,0,1,.7-.768c.622-.514,1.226-1.047,1.88-1.527A17.207,17.207,0,0,1,10.105,1.09,9.245,9.245,0,0,1,12.145.4c.328-.068.65-.156.986-.2a6.083,6.083,0,0,0,.685-.1,3.131,3.131,0,0,1,.739-.082c.242,0,.485,0,.727,0a5.119,5.119,0,0,0,.726-.007,7,7,0,0,1,.979.109,6.125,6.125,0,0,1,.94.174,9.012,9.012,0,0,1,1.88.5c.572.216,1.148.422,1.711.666.62.268,1.211.587,1.82.872a11.771,11.771,0,0,1,1.193.74c.43.268.811.614,1.223.913.458.332.926.649,1.39.971.023.016.064.008.086.025.16.123.319.247.473.378.03.025.034.082.082.207a6.507,6.507,0,0,1-.61-.357,14.941,14.941,0,0,0-1.776-1.1c-.945-.521-1.885-1.052-2.865-1.506a22.367,22.367,0,0,0-2.073-.846c-.425-.148-.863-.259-1.288-.4-.33-.112-.669-.179-1-.268A3.741,3.741,0,0,0,16.9.888,2.128,2.128,0,0,0,15.871.8c-.354-.018-.711,0-1.066,0-.156,0-.276.116-.445.107a.827.827,0,0,0-.511.047c-.123.07-.322,0-.464.047-.273.1-.559.135-.834.211-.475.131-.939.3-1.408.46A12.872,12.872,0,0,0,9.2,2.588c-.546.306-1.038.684-1.562,1.018a4.489,4.489,0,0,0-.684.571c-.487.472-1,.927-1.434,1.443A17.963,17.963,0,0,0,3.772,7.989c-.4.673-.765,1.365-1.129,2.055-.249.472-.4,1-.6,1.495a10.166,10.166,0,0,0-.387,1.245c-.109.409-.21.82-.309,1.231a9.544,9.544,0,0,1-.27,1.386.282.282,0,0,0,0,.1c-.012.7-.156,1.389-.1,2.091a2.373,2.373,0,0,1,0,.435c-.067.638.114,1.263.1,1.9.14.247.031.538.114.777s.1.5.17.751.137.5.191.743a14.174,14.174,0,0,0,.772,2.395c.148.356.281.723.431,1.081a6.658,6.658,0,0,0,.487,1.055c.312.483.566,1,.865,1.488.332.545.721,1.049,1.057,1.591a14.1,14.1,0,0,0,.912,1.127,45.466,45.466,0,0,0,3.6,3.785c.2.2.428.367.643.551a5.216,5.216,0,0,0,.639.559,6.762,6.762,0,0,1,.755.639c.439.368.878.737,1.349,1.067.456.32.882.681,1.323,1.022.154.119.31.234.5.376" transform="translate(9.395 13.742)" fill="#d50032"/>
  <path id="Fill_21" data-name="Fill 21" d="M1.872,10.95H0V0H2.8c.284,0,.518,0,.736,0h.03A2.87,2.87,0,0,1,5.208.52a2.084,2.084,0,0,1,.721.708,2.553,2.553,0,0,1,.145.343c.019.051.038.1.058.154a3.325,3.325,0,0,1,.158,1.353c0,.121-.005.245,0,.368A2.712,2.712,0,0,1,5.129,4.993a.259.259,0,0,0-.068.067c-.013.016-.028.034-.045.052l.134.073c.1.052.184.1.275.145A2.432,2.432,0,0,1,6.79,6.9a2.768,2.768,0,0,1,.087.4,1.533,1.533,0,0,0,.042.195.938.938,0,0,1,.045.3A3.668,3.668,0,0,1,6.59,9.379a2.511,2.511,0,0,1-1.1,1.09c-.071.035-.141.072-.21.109a2.5,2.5,0,0,1-.824.318.948.948,0,0,0-.111.024.65.65,0,0,1-.157.027C3.355,10.949,2.549,10.95,1.872,10.95ZM2.728,5.8c-.24,0-.486,0-.724.007s-.49.007-.738.007V9.787H3.651l.061,0,.061,0a.223.223,0,0,0,.071-.009c.1-.033.211-.059.315-.084s.226-.054.338-.091a1.692,1.692,0,0,0,.69-.516c.069-.074.14-.15.215-.219A.347.347,0,0,0,5.479,8.7a.7.7,0,0,1,.038-.118,1.536,1.536,0,0,0,.1-.717c0-.1-.005-.207,0-.309a1.191,1.191,0,0,0-.2-.689,2.12,2.12,0,0,0-1.76-1.044c-.273-.017-.567-.025-.924-.025Zm-.169-4.64-.642,0-.653,0V4.652H2.624c.359,0,.652,0,.924-.005a1.855,1.855,0,0,0,1.359-1,1.959,1.959,0,0,0,.031-1.311,1.739,1.739,0,0,0-.577-.82,1.674,1.674,0,0,0-.914-.352C3.185,1.163,2.9,1.161,2.559,1.161Z" transform="translate(81.558 13.659)" fill="#0d0d0d"/>
  <path id="Fill_23" data-name="Fill 23" d="M4.078,11.249a4.6,4.6,0,0,1-1.262-.224,2.591,2.591,0,0,1-1.152-.606,2.076,2.076,0,0,0-.263-.21,1.039,1.039,0,0,1-.45-.5A3.074,3.074,0,0,1,.222,8.361,5.088,5.088,0,0,1,.014,6.412a.493.493,0,0,0,.1-.346.489.489,0,0,1,.1-.349A.473.473,0,0,1,.3,5.335a.551.551,0,0,0,.1-.313c.086-.121.169-.248.249-.37a3.709,3.709,0,0,1,.94-1.087A4.533,4.533,0,0,1,3,2.872a.2.2,0,0,0,.057-.03.173.173,0,0,1,.063-.031l.119-.019c.186-.03.377-.061.567-.076.068-.005.14-.008.229-.008l.176,0,.177,0a3.836,3.836,0,0,1,2.05.664,2.932,2.932,0,0,1,.508.411,3.124,3.124,0,0,1,.276.33c.042.055.085.112.132.17a2.291,2.291,0,0,0,.026-.506c0-.072,0-.146,0-.218,0-.167,0-.336,0-.5,0-.076,0-.151,0-.227V.706c0-.236,0-.472,0-.707H8.5c.069.4.094,9.6.031,10.933H7.492V9.519a3.255,3.255,0,0,1-1.367,1.259,2.7,2.7,0,0,1-1.107.374c-.131.008-.263.027-.392.045a4.367,4.367,0,0,1-.441.048ZM3.935,3.872h0a2.042,2.042,0,0,0-.876.216A3.174,3.174,0,0,0,1.185,6.72a2.121,2.121,0,0,0,.128,1c.022.077.045.152.065.228A2.634,2.634,0,0,0,2.2,9.292a2.232,2.232,0,0,0,1.407.688A.666.666,0,0,0,4,10.085c.061,0,.124,0,.184-.008s.121-.008.18-.008a1.016,1.016,0,0,1,.126.007,1.091,1.091,0,0,0,.138.009,2.194,2.194,0,0,0,.719-.163A2.78,2.78,0,0,0,6.961,8.7a3.216,3.216,0,0,0,.517-1.722c-.01-.212-.038-.421-.065-.622-.012-.092-.024-.181-.034-.267-.065-.123-.122-.248-.178-.369a2.961,2.961,0,0,0-.476-.8,4.681,4.681,0,0,0-1.072-.8A1.838,1.838,0,0,0,4.921,3.9a2.671,2.671,0,0,1-.583-.129.241.241,0,0,1-.221.109c-.03,0-.062,0-.092-.005s-.058,0-.086-.005Z" transform="translate(114.404 13.661)" fill="#0d0d0d"/>
  <path id="Fill_25" data-name="Fill 25" d="M8.818,8.025H7.6L5.791,2.434c-.272.834-.559,1.677-.822,2.527-.271.872-.522,1.751-.85,2.6-.059.154.074.378-.239.465H2.844a3.659,3.659,0,0,1-.295-.63c-.226-.856-.558-1.674-.857-2.5C1.55,4.5,1.422,4.1,1.3,3.7,1.2,3.4,1.045,3.13.979,2.815a5.006,5.006,0,0,0-.3-.938C.552,1.59.483,1.284.336,1A8.964,8.964,0,0,1,0,.007H1.291c.359,1.043.721,2.119,1.064,3.2.338,1.068.727,2.12,1.1,3.21L5.29.778H6.31L8.2,6.427,10.3,0h1.272a2.184,2.184,0,0,1-.086.3A13.056,13.056,0,0,0,11,1.694c-.171.527-.367,1.045-.536,1.572-.205.641-.406,1.285-.651,1.91-.366.933-.629,1.9-.99,2.849" transform="translate(132.238 16.577)" fill="#0d0d0d"/>
  <path id="Fill_27" data-name="Fill 27" d="M4.117,8.524c-.075,0-.148,0-.219-.009A6.011,6.011,0,0,1,2.529,8.2,3.537,3.537,0,0,1,1.34,7.461,3.706,3.706,0,0,1,.3,5.868,4.718,4.718,0,0,1,.01,3.954a5.374,5.374,0,0,1,.13-.78L.157,3.1A4.28,4.28,0,0,1,.713,1.778,3.561,3.561,0,0,1,2.394.376a4.909,4.909,0,0,1,.947-.3A3.631,3.631,0,0,1,4.143,0c.076,0,.152,0,.228,0A3.806,3.806,0,0,1,7.036,1.168a1.644,1.644,0,0,1,.194.257c.038.057.081.122.133.194V.213h1.26v8H7.393a1.554,1.554,0,0,1-.02-.388c0-.066,0-.133,0-.2,0-.138,0-.274,0-.447,0-.086,0-.18,0-.286a2.2,2.2,0,0,1-.193.262,1.712,1.712,0,0,0-.114.149,2.24,2.24,0,0,1-.781.632l-.01.006a3.924,3.924,0,0,1-1.395.506A4.787,4.787,0,0,1,4.117,8.524ZM4.3,1.115a1.722,1.722,0,0,0-.307.026,3.867,3.867,0,0,0-1.245.4,2.432,2.432,0,0,0-.9.786,3.042,3.042,0,0,0-.6,1.551c0,.088-.009.163-.014.23a2.2,2.2,0,0,0,.121,1.009,3.427,3.427,0,0,0,.558,1.131,2.917,2.917,0,0,0,.865.732,2.607,2.607,0,0,0,1.4.384c.052,0,.105,0,.158,0l.192,0,.173,0c.095,0,.172,0,.243-.008a.777.777,0,0,0,.222-.063l.077-.029A2.754,2.754,0,0,0,6.992,5.776c.028-.056.056-.111.084-.166a1.877,1.877,0,0,0,.3-.985,1.2,1.2,0,0,0,0-1.051c-.017-.054-.034-.107-.049-.16A2.931,2.931,0,0,0,6.05,1.629L6,1.6a2.415,2.415,0,0,0-.973-.417c-.076-.007-.151-.017-.227-.026A4.075,4.075,0,0,0,4.3,1.115Z" transform="translate(94.245 16.374)" fill="#0d0d0d"/>
  <path id="Fill_29" data-name="Fill 29" d="M4.136,8.533c-.05,0-.1,0-.144-.006A4.159,4.159,0,0,1,1.226,7.363,4.976,4.976,0,0,1,.167,5.619a.69.69,0,0,1-.034-.236.465.465,0,0,0-.1-.338c0-.169-.008-.343-.016-.512A4.737,4.737,0,0,1,.052,3.4a4.113,4.113,0,0,1,1.071-2.12A3.7,3.7,0,0,1,2.441.364,6.308,6.308,0,0,1,3.347.087,3.563,3.563,0,0,1,4.122,0c.1,0,.2,0,.3.014A3.486,3.486,0,0,1,6.816,1.02c.1.106.2.213.3.322l.28.3V.21H8.549V8.23l-.142,0c-.13,0-.265.006-.4.008H7.4V6.866c-.078.086-.151.17-.222.25-.146.166-.283.323-.431.468a3.206,3.206,0,0,1-1.873.866l-.13.02A4,4,0,0,1,4.136,8.533ZM3.864,1.166H3.84a3.649,3.649,0,0,0-1.148.391,3.4,3.4,0,0,0-.675.584l-.138.141a2.616,2.616,0,0,0-.664,1.462,3.1,3.1,0,0,0,.173,1.661,3.042,3.042,0,0,0,1.168,1.47,2.675,2.675,0,0,0,1.48.506,2.081,2.081,0,0,0,.254-.016c.092-.011.186-.013.276-.014a1.672,1.672,0,0,0,.512-.064,3.648,3.648,0,0,0,1.316-.694A2.925,2.925,0,0,0,7.106,5.53c.023-.052.047-.1.072-.153a1.991,1.991,0,0,0,.14-.343A3.71,3.71,0,0,0,7.4,3.926V3.909a1.674,1.674,0,0,0-.122-.673A3.878,3.878,0,0,0,6.5,2.047a2.788,2.788,0,0,0-1.871-.88.216.216,0,0,1-.089-.034A.278.278,0,0,0,4.469,1.1l-.03-.006A.694.694,0,0,0,4.3,1.072a.075.075,0,0,0-.057.017.267.267,0,0,1-.213.086c-.029,0-.058,0-.086,0S3.892,1.166,3.864,1.166Z" transform="translate(179.836 16.367)" fill="#0d0d0d"/>
  <path id="Fill_31" data-name="Fill 31" d="M4.216,8.556c-.072,0-.143,0-.211-.008a4.2,4.2,0,0,1-2.362-.837A4.346,4.346,0,0,1,.191,5.51a2.1,2.1,0,0,1-.1-.589,1.19,1.19,0,0,0-.044-.261A1.352,1.352,0,0,1,0,4.428,4.281,4.281,0,0,1,.147,3.253L.152,3.23A4.3,4.3,0,0,1,.906,1.613a3.853,3.853,0,0,1,.9-.836A5.515,5.515,0,0,1,3.145.139,5.38,5.38,0,0,1,4.421,0a1.612,1.612,0,0,1,.418.037,4.119,4.119,0,0,0,.4.1,2.821,2.821,0,0,1,.6.172l.033.015a5.25,5.25,0,0,1,.843.444A4.185,4.185,0,0,1,8.346,2.944a2.117,2.117,0,0,1,.088.618c0,.055,0,.11.008.166a.348.348,0,0,0,.045.127.359.359,0,0,1,.044.124c.01.135.007.269.005.4,0,.053,0,.1,0,.155L8.4,4.668H1.314a.6.6,0,0,0,0,.56,1.314,1.314,0,0,1,.061.216,1.6,1.6,0,0,0,.328.68A2.739,2.739,0,0,0,3.079,7.217a3.053,3.053,0,0,0,1.21.254,3.285,3.285,0,0,0,.626-.062,2.883,2.883,0,0,0,1.619-.887,3.537,3.537,0,0,0,.34-.46c.046-.07.094-.142.143-.212H8.256a1.973,1.973,0,0,1-.285.579c-.037.059-.076.119-.112.18A3.759,3.759,0,0,1,6.271,8.063a4.408,4.408,0,0,1-1.238.407A4.474,4.474,0,0,1,4.216,8.556ZM3.978,1.087a2.5,2.5,0,0,0-.926.24l-.067.027a2.811,2.811,0,0,0-1.4,1.237A1.8,1.8,0,0,0,1.27,3.7h6A2.622,2.622,0,0,0,6.92,2.535a2.243,2.243,0,0,0-.654-.742,3.21,3.21,0,0,0-1.2-.621,3.09,3.09,0,0,0-.656-.066c-.107,0-.217-.006-.325-.015C4.052,1.089,4.015,1.087,3.978,1.087Z" transform="translate(197.127 16.347)" fill="#0d0d0d"/>
  <path id="Fill_33" data-name="Fill 33" d="M4.115,8.525c-.047,0-.094,0-.139,0a5.755,5.755,0,0,1-.862-.136A3.737,3.737,0,0,1,1.8,7.824,4.315,4.315,0,0,1,.474,6.265,4.82,4.82,0,0,1,.018,3.6a2.877,2.877,0,0,1,.3-1.034,4.164,4.164,0,0,1,.874-1.29A4.023,4.023,0,0,1,2.507.361,5.615,5.615,0,0,1,3.413.084,4.069,4.069,0,0,1,4.232,0c.069,0,.14,0,.21.006A4.274,4.274,0,0,1,6.707.734a4.2,4.2,0,0,1,1.6,2.19,3.118,3.118,0,0,1,.132.767c.016.21.012.423.009.649,0,.1,0,.208,0,.319H1.193A2.981,2.981,0,0,0,3.831,7.445a2.616,2.616,0,0,0,.478.044A2.807,2.807,0,0,0,5.9,6.973,2.905,2.905,0,0,0,6.941,5.825H8.162c-.009.035-.017.069-.025.1a1.4,1.4,0,0,1-.056.2,3.023,3.023,0,0,1-.611.911A3.849,3.849,0,0,1,6.117,8.083a3.958,3.958,0,0,1-1.21.368l-.046.006A5.6,5.6,0,0,1,4.115,8.525ZM4.047,1.061a1.3,1.3,0,0,0-.192.012,2.878,2.878,0,0,0-.66.157,3.068,3.068,0,0,0-1.184.777,2.533,2.533,0,0,0-.748,1.532c0,.018-.021.03-.04.043s-.038.025-.041.045a.064.064,0,0,0,.019.048H7.273l-.026-.131-.005-.027a2.3,2.3,0,0,0-.065-.285c-.016-.049-.03-.1-.043-.152a1.1,1.1,0,0,0-.181-.428c-.089-.1-.17-.217-.248-.326a2.451,2.451,0,0,0-.549-.607,2.894,2.894,0,0,0-1.709-.651H4.352l-.16,0C4.144,1.062,4.1,1.061,4.047,1.061Z" transform="translate(157.853 16.372)" fill="#0d0d0d"/>
  <path id="Fill_35" data-name="Fill 35" d="M0,0H1.463q.886,2.288,1.765,4.559C3.814,6.076,4.4,7.592,5.018,9.182L8.586.006H9.932c0,.04.035.108.016.156-.184.473-.39.937-.562,1.414-.279.772-.629,1.517-.893,2.295-.124.367-.306.713-.445,1.075-.3.78-.6,1.56-.924,2.33-.282.675-.511,1.369-.814,2.037-.24.528-.409,1.089-.664,1.62H4.372c-.173-.413-.356-.835-.528-1.262-.156-.387-.3-.782-.453-1.169-.219-.54-.419-1.086-.618-1.633-.133-.364-.3-.715-.441-1.076-.274-.71-.6-1.4-.823-2.131C1.4,3.293,1.2,2.949,1.064,2.587.762,1.792.4,1.021.134.211A1.3,1.3,0,0,0,0,0" transform="translate(170.499 13.671)" fill="#0d0d0d"/>
  <path id="Fill_37" data-name="Fill 37" d="M.579,32.92H.385v-.337c0-.937-.007-1.873,0-2.809C.395,28.9.245,28.03.28,27.151s.021-1.776,0-2.663c-.012-.6.144-1.193.109-1.8A9.2,9.2,0,0,1,.4,20.85c.085-.589,0-1.177.093-1.752.065-.426.025-.854.1-1.267a9.641,9.641,0,0,1,.1-1.118c.116-.38-.043-.785.17-1.138.014-.023,0-.063,0-.1a9.566,9.566,0,0,1,.11-1.265c.07-.329.023-.665.1-.976.088-.362.01-.732.1-1.074a7.329,7.329,0,0,0,.078-1.61c.011-.346.187-.68.1-1.024C1.211,9,1.334,8.449,1.241,7.926,1.145,7.385,1.1,6.837.989,6.3.86,5.655.667,5.029.57,4.38A6.27,6.27,0,0,1,.385,3.3C.214,3.1.358,2.829.252,2.626s-.029-.437-.06-.654C.17,1.822.069,1.7.088,1.527a1.173,1.173,0,0,0-.072-.449A1.622,1.622,0,0,1,.08.467a1.021,1.021,0,0,1,.6-.441.519.519,0,0,1,.434.05.846.846,0,0,1,.53.8c0,.646.025,1.293-.01,1.937A6.691,6.691,0,0,0,1.764,4.22,5.1,5.1,0,0,0,2.02,5.368,4.8,4.8,0,0,1,2.113,6a5.872,5.872,0,0,1,.11,1.215q.024.944,0,1.888c-.018.713-.027,1.43-.11,2.137a3.642,3.642,0,0,1-.1.874c-.137.347.041.724-.173,1.042-.015.022,0,.063,0,.1a8.913,8.913,0,0,1-.112,1.216c-.051.232-.025.473-.1.685a6.65,6.65,0,0,0-.091.689c-.107.47-.112.952-.2,1.42-.049.264-.033.534-.1.782-.07.265-.02.541-.1.783-.1.329,0,.674-.106.973-.121.336,0,.668-.081.984-.135.518-.011,1.051-.1,1.557-.129.7.009,1.4-.1,2.091a22.679,22.679,0,0,0-.079,2.916c-.023.968-.005,1.937,0,2.905,0,.441-.138.868-.1,1.316s.007.895.007,1.346" transform="translate(41.989 41.478)" fill="#0d0d0d"/>
  <path id="Fill_39" data-name="Fill 39" d="M1.141,8.249H0V.225H1.032V1.444A2.727,2.727,0,0,1,2.778.176,3.857,3.857,0,0,1,3.536.022a4.054,4.054,0,0,1,.823,0A3.235,3.235,0,0,1,6.516.994,3.185,3.185,0,0,1,7.268,2.57a6.909,6.909,0,0,1,.075,1.27c.011,1.339,0,2.678,0,4.017v.384H6.183V7.766c0-1.4.03-2.808-.013-4.211a2.518,2.518,0,0,0-.776-1.849,2.01,2.01,0,0,0-1.329-.527,3.264,3.264,0,0,1-.483-.005,3.5,3.5,0,0,0-1.131.2.4.4,0,0,0-.154.094A2.548,2.548,0,0,0,1.24,2.944a4.116,4.116,0,0,0-.105.976c.013,1.29.005,2.581.005,3.872Z" transform="translate(105.229 16.358)" fill="#0d0d0d"/>
  <path id="Fill_41" data-name="Fill 41" d="M1.185,8.238H.071C0,7.819-.028,1.816.038.213H1.074V1.455c.143-.213.238-.3.324-.426A1.6,1.6,0,0,1,2,.515,4.427,4.427,0,0,1,3.178.077,4.863,4.863,0,0,1,4.4.014a3.289,3.289,0,0,1,2.13.927A2.862,2.862,0,0,1,7.2,2.165a3.922,3.922,0,0,1,.2,1.227c-.016,1.5-.006,3-.006,4.5v.335H6.227V7.753c0-1.4.03-2.809-.013-4.211a2.51,2.51,0,0,0-.778-1.849,2,2,0,0,0-1.329-.527,3.446,3.446,0,0,1-.484,0A2.071,2.071,0,0,0,2.5,1.379a1.816,1.816,0,0,0-.929.89,2.865,2.865,0,0,0-.279.512,3.809,3.809,0,0,0-.1.877c-.009,1.515,0,3.03,0,4.579" transform="translate(148.722 16.37)" fill="#0d0d0d"/>
  <path id="Fill_43" data-name="Fill 43" d="M3.759,6.348c.359-.905.707-1.745,1.029-2.6.2-.515.418-1.021.621-1.534.246-.624.536-1.231.732-1.876A1.526,1.526,0,0,1,6.35,0H7.593c0,.088.019.18-.016.237A13.359,13.359,0,0,0,6.9,1.8c-.177.394-.34.8-.48,1.206A7.885,7.885,0,0,1,6.1,3.74c-.388.841-.717,1.706-1.071,2.559-.324.785-.655,1.569-.959,2.364-.2.511-.4,1.027-.645,1.524a4.79,4.79,0,0,0-.3.749.686.686,0,0,1-.119.179H1.786c-.005-.058-.027-.112-.011-.149q.661-1.542,1.331-3.084L0,.01H1.3c.415,1.045.84,2.1,1.251,3.152.4,1.04.794,2.086,1.212,3.186" transform="translate(206.119 16.579)" fill="#0d0d0d"/>
  <path id="Fill_45" data-name="Fill 45" d="M2.991,11.144H1.8c-.126-.209.027-.4.1-.554.368-.784.68-1.591,1.03-2.382a.664.664,0,0,1,.09-.118,1.712,1.712,0,0,0-.177-.783c-.314-.854-.709-1.676-.986-2.545-.117-.368-.287-.719-.432-1.079C1.071,2.813.683,1.956.4,1.058.314.79.167.542.055.281A1.466,1.466,0,0,1,0,.031,2.766,2.766,0,0,1,.622,0C.829,0,1.037,0,1.253,0c.334.843.667,1.673.992,2.506.2.514.385,1.034.584,1.549.188.487.386.969.58,1.454l.332.831L6.272.022H7.589c-.177.451-.322.889-.518,1.3-.212.446-.371.911-.559,1.366-.114.275-.248.543-.357.821-.267.68-.54,1.359-.825,2.03-.209.492-.39,1-.64,1.479A6.676,6.676,0,0,0,4.2,8.265c-.08.278-.332.483-.3.8-.3.553-.5,1.146-.752,1.721-.047.11-.092.22-.152.362" transform="translate(124.389 16.564)" fill="#0d0d0d"/>
  <path id="Fill_47" data-name="Fill 47" d="M1.646,16.543h.506c.648.2.9.745,1.129,1.378a6.827,6.827,0,0,1,.115.99,2.958,2.958,0,0,1-.544,1.517.84.84,0,0,1-.258.191c-.169.1-.343.186-.538.291A4.551,4.551,0,0,1,0,20.659l.2-.143a2.24,2.24,0,0,1,.7.119,1.324,1.324,0,0,0,1.025-.051c.087-.023.171-.057.293-.1l.536-.535A2.259,2.259,0,0,0,3,18.677a5.219,5.219,0,0,0-.312-.935,1.434,1.434,0,0,0-.524-.7c-.238-.1-.457.1-.668.215a.286.286,0,0,1-.428-.079,10.562,10.562,0,0,1,.016-1.464c.057-.409.025-.822.1-1.218.06-.329.021-.664.1-.976a6.724,6.724,0,0,0,.087-1.028,3.757,3.757,0,0,0,.1-.638.885.885,0,0,1,.091-.638c.008-.011,0-.032,0-.048a13.229,13.229,0,0,1,.095-1.654c.009-.548.006-1.1,0-1.645a5.193,5.193,0,0,1-.1-.687,1.619,1.619,0,0,0-.076-.641c-.068-.23-.044-.485-.1-.733C1.207,5.116,1.061,4.42.9,3.727.75,3.049.475,2.4.386,1.711A2.011,2.011,0,0,1,.192.536L.747,0h.866l.518.518c0,.127-.005.27,0,.413.03.665.033,1.333.111,1.991a5.741,5.741,0,0,0,.1.781c.07.265.026.538.1.783.091.314.02.633.094.929a7.978,7.978,0,0,1,.082,1.754A11.963,11.963,0,0,1,2.6,8.909c-.052.441-.021.886-.1,1.314a4.231,4.231,0,0,1-.1.827c-.146.345.04.724-.177,1.04.074.336-.108.645-.1.976a3.581,3.581,0,0,1-.089.541,2.736,2.736,0,0,1-.08.5c-.078.24-.035.515-.1.78-.1.382-.078.791-.2,1.177a1.7,1.7,0,0,0-.007.479" transform="translate(34.812 55.142)" fill="#0d0d0d"/>
  <path id="Fill_49" data-name="Fill 49" d="M.5.436A1.058,1.058,0,0,1,1.7.027a1.121,1.121,0,0,1,.625.684,4.82,4.82,0,0,1-.261,1.55c-.1.366-.156.745-.223,1.119a1.551,1.551,0,0,0-.1.637c-.217.15.024.448-.194.6.027.455-.2.871-.2,1.325a3.446,3.446,0,0,1-.089.445c-.017.137.021.285-.1.4.07.336-.1.646-.1.977a4.922,4.922,0,0,1-.091.686c-.032.213.082.447-.095.64-.016.017-.005.063,0,.095.074.606-.126,1.2-.1,1.8s-.043,1.2.022,1.79c.043.392.034.787.1,1.17a3.083,3.083,0,0,1,.077.592,3.745,3.745,0,0,0,.115.54,7.819,7.819,0,0,0,.276,1.14,9.682,9.682,0,0,0,.332,1.122c.149.365.18.758.327,1.124a6.207,6.207,0,0,1,.109,1.888,3.389,3.389,0,0,1-.3.845,2.349,2.349,0,0,0-.368,1.443c.029.237-.154.4-.107.619l-.133.009c-.019-.023-.055-.045-.055-.068a6.733,6.733,0,0,1,0-.823,3.929,3.929,0,0,1,.356-1.352,7.562,7.562,0,0,0,.3-.8.557.557,0,0,0,.015-.33c-.2-.693-.32-1.407-.546-2.1-.153-.468-.285-.949-.42-1.426-.1-.346-.211-.688-.316-1.032-.057-.186-.121-.371-.164-.561s-.067-.392-.1-.589S.212,13.8.189,13.6.222,13.2.1,13c-.051-.08-.008-.221-.008-.334A8.458,8.458,0,0,0,.07,11.123,9.17,9.17,0,0,1,0,9.609c-.007-.292.07-.586.086-.88a4.389,4.389,0,0,1,.019-.916C.217,7.417.118,7.02.2,6.64s.019-.762.1-1.121C.4,5.076.306,4.628.393,4.2a12.9,12.9,0,0,0,.08-2.191,1.314,1.314,0,0,0-.081-.74A.758.758,0,0,1,.386.841,2.793,2.793,0,0,1,.5.436" transform="translate(50.137 51.436)" fill="#0d0d0d"/>
  <path id="Fill_51" data-name="Fill 51" d="M.031.392.525,0h.534l.5.416c0,1-.012,1.968,0,2.936.012.729.025,1.462.109,2.185.038.327.029.66.1.975.06.281.046.559.091.833s.051.561.1.829.026.536.094.783c.073.265.026.537.1.783s.013.516.1.732a4.559,4.559,0,0,1,.086.74c.105.421.113.856.205,1.273a5.116,5.116,0,0,0,.095.684c.085.22.025.443.091.64.163.483.119,1,.271,1.484a5.416,5.416,0,0,1,.11.924c.019.15.066.3.094.445s-.063.321.095.448c.024.019,0,.093,0,.141a1.466,1.466,0,0,0,.086.594c.07.16.024.353.089.543.082.238.042.515.1.779a6.64,6.64,0,0,1,.106,1.119c.009.157.129.273.109.445-.017.145-.076.323.087.444.008.006,0,.032,0,.047a7.454,7.454,0,0,0,.1,1.17,4.491,4.491,0,0,0,.089.686c.029.213-.075.446.1.639.008.009,0,.032,0,.047-.07.637.127,1.259.1,1.9s-.006,1.285-.006,1.935l-.151.015a.288.288,0,0,1-.041-.088c-.005-.08,0-.161,0-.242-.032-.729-.068-1.458-.093-2.187-.006-.188-.131-.339-.111-.542a.948.948,0,0,0-.07-.6c-.081-.149.031-.393-.025-.569-.154-.485-.1-1-.272-1.484-.077-.209-.007-.45-.091-.688a4.578,4.578,0,0,1-.115-.922c-.019-.15-.063-.3-.095-.444s.014-.264-.066-.41c-.106-.2.029-.466-.128-.671A7.815,7.815,0,0,0,2.8,17.3a7.176,7.176,0,0,0-.259-1.291,3.418,3.418,0,0,1-.091-.636c-.069-.456-.15-.914-.231-1.366a8.073,8.073,0,0,0-.26-1.291,4.318,4.318,0,0,1-.109-.827,2.377,2.377,0,0,0-.1-.492c-.153-.417-.074-.883-.287-1.285a2.239,2.239,0,0,0-.094-.735c-.046-.259.006-.566-.119-.771-.145-.237.058-.521-.172-.707a2.526,2.526,0,0,0-.094-.735C.853,6.664.843,6.14.7,5.637A6.2,6.2,0,0,1,.591,4.76c-.02-.15-.069-.3-.093-.445s.049-.288-.1-.4C.379,3.9.4,3.823.4,3.775a1.473,1.473,0,0,0-.086-.594c-.069-.161-.019-.353-.09-.543a5.1,5.1,0,0,1-.1-.731A4.432,4.432,0,0,1,.031.392" transform="translate(36.253 47.474)" fill="#0d0d0d"/>
  <path id="Fill_53" data-name="Fill 53" d="M0,10.93H1.227V0H0Z" transform="translate(194.236 13.67)" fill="#0d0d0d"/>
  <path id="Fill_55" data-name="Fill 55" d="M0,0H1.231V10.93c-.187,0-.391.007-.595.008s-.415,0-.637,0Z" transform="translate(190.743 13.67)" fill="#0d0d0d"/>
  <path id="Fill_56" data-name="Fill 56" d="M.892,0h.369a1.831,1.831,0,0,0,.17.364,4.519,4.519,0,0,0,.583.676A3.87,3.87,0,0,1,2.934,2.6c.068.163.153.325.207.5a2.169,2.169,0,0,1,.095.395,2.52,2.52,0,0,1,0,.346c.284.5.538.929.772,1.367a5.133,5.133,0,0,0,.266.612c.145.2.047.463.222.637a6.155,6.155,0,0,1-.1,1.7A9.178,9.178,0,0,1,3.918,9.4a12.536,12.536,0,0,1-.59,1.157c-.337.52-.6,1.082-.944,1.6a3.944,3.944,0,0,0-.4,1.04,6.037,6.037,0,0,0-.135.736H1.59c.017-.112.034-.223.051-.333a5.228,5.228,0,0,1,.387-1.5q.463-1.117,1-2.2c.129-.258.221-.557.326-.832A6.809,6.809,0,0,0,3.6,8.261a2.949,2.949,0,0,0,.114-.776,3.015,3.015,0,0,0-.448-1.41,2.826,2.826,0,0,0-1.031-.9.841.841,0,0,1-.455-.831c.006-.1,0-.194,0-.323C1.413,3.7,1.63,3.3,1.72,2.929a1.511,1.511,0,0,0-.271-1.383C1.274,1.334,1.131,1.1.96.853c-.146.478-.555.721-.879,1.1L0,1.668A6.6,6.6,0,0,0,.892,0" transform="translate(53.97 33.428)" fill="#0d0d0d"/>
  <path id="Fill_57" data-name="Fill 57" d="M0,.211H1.153V1.356A2.9,2.9,0,0,1,3.657,0V1.149a4.975,4.975,0,0,0-.846.131,2.333,2.333,0,0,0-.75.4,2.222,2.222,0,0,0-.812,1.786c0,1.578,0,3.157,0,4.757H0Z" transform="translate(90.286 16.364)" fill="#0d0d0d"/>
  <path id="Fill_58" data-name="Fill 58" d="M1.063,15.171l-.222.187c-.179-.521-.578-.88-.677-1.4A1.61,1.61,0,0,1,.1,13.746Q.048,12.508,0,11.27c-.006-.161.007-.323,0-.484-.021-.363.143-.7.107-1.074A3.835,3.835,0,0,1,.116,8.6c.072-.362.028-.725.1-1.073.052-.264.04-.529.093-.783s.044-.5.1-.733c.105-.443.162-.9.281-1.334A12.189,12.189,0,0,1,1.079,3.39a3.475,3.475,0,0,1,.459-.83c.241-.32.533-.584.8-.878.2-.221.378-.458.587-.713L2.816.8,2.966.37,3.4,0c.684-.015.733.01,1.062.524v.58a5.727,5.727,0,0,1-.858,1.146q-.466.383-.951.743a2.611,2.611,0,0,0-.614.715,6.468,6.468,0,0,0-.635,1.43,9.169,9.169,0,0,0-.238.967c-.131.567-.219,1.141-.31,1.716a5.686,5.686,0,0,1-.09.734,2.567,2.567,0,0,0-.085.738c0,.2-.135.372-.107.591.023.175.075.381-.085.542-.016.016,0,.062,0,.095A27.877,27.877,0,0,0,.4,13.384a1.721,1.721,0,0,0,.337,1.073,2.678,2.678,0,0,1,.325.714" transform="translate(55.557 58.428)" fill="#0d0d0d"/>
  <path id="Fill_59" data-name="Fill 59" d="M0,0H1.231V8.023c-.187,0-.391.007-.595.009s-.415,0-.636,0Z" transform="translate(145.17 16.577)" fill="#0d0d0d"/>
  <path id="Fill_60" data-name="Fill 60" d="M.693,2.148C.254,2.068.037,1.8,0,1.261A5.821,5.821,0,0,0,.479.684,5.69,5.69,0,0,0,.8,0c.059.058.127.094.13.134a1.527,1.527,0,0,0,.255.62,2.571,2.571,0,0,0,.462.478.838.838,0,0,1-.56.919,3.081,3.081,0,0,0,.736,1.087c.342.416.734.79,1.086,1.2A3.575,3.575,0,0,1,3.574,5.85c.113.4.257.8.332,1.219a3.717,3.717,0,0,0,.141.459c-.108.286-.091.651-.441.823-.213-.017-.416.209-.686.017-.184-.131-.416-.184-.485-.6A8.13,8.13,0,0,1,2.5,6.86a5.133,5.133,0,0,0,.008-1.493,2,2,0,0,0-.518-.991,6.843,6.843,0,0,1-.855-1.24C.979,2.83.854,2.511.693,2.148" transform="translate(49.258 39.992)" fill="#0d0d0d"/>
  <path id="Fill_61" data-name="Fill 61" d="M1.946.473a2.635,2.635,0,0,1-.141.99c-.069.342-.146.681-.228,1.021-.054.224,0,.5-.118.675-.138.217-.023.451-.157.669-.087.142-.054.383-.11.58-.066.236-.009.524-.122.723-.124.218.022.481-.177.656A6.747,6.747,0,0,1,.678,7.108,9.322,9.322,0,0,1,.421,8.4a5.861,5.861,0,0,0-.111.973c-.029.227-.078.451-.12.685H.021a9.325,9.325,0,0,1,.02-1.489A9.328,9.328,0,0,0,.118,7.539C.128,7.354.25,7.2.222,7A.538.538,0,0,1,.31,6.5c.016-.017,0-.063,0-.095a12.767,12.767,0,0,1,.106-1.46,24.828,24.828,0,0,0,.1-2.722A5.042,5.042,0,0,0,.4,1.588a1.783,1.783,0,0,0-.07-.6A.808.808,0,0,1,.56.18C.615.121.674.066.74,0h.806l.4.473" transform="translate(53.309 59.205)" fill="#0d0d0d"/>
  <path id="Fill_62" data-name="Fill 62" d="M.012.144.157,0H.547c.3.27.62.532.911.821a9.083,9.083,0,0,1,.771.836,4.144,4.144,0,0,0,.952.847c.189.128.316.306.506.427v.782l-.267.36a1.179,1.179,0,0,1-1.028-.015c-.27-.5-.539-.966-.779-1.448A10.06,10.06,0,0,0,.732,1.276c.01,0,0,0-.012,0S.692,1.3.692,1.315c0,.9,0,1.806,0,2.72l-.223.151C.435,4.14.407,4.118.4,4.091a1.237,1.237,0,0,1,0-.145A18.243,18.243,0,0,0,.287,2,8.241,8.241,0,0,0,.017.473,1.007,1.007,0,0,1,.012.144" transform="translate(51.767 33.911)" fill="#0d0d0d"/>
  <path id="Fill_63" data-name="Fill 63" d="M1.256,0V1.518H.016A6.9,6.9,0,0,1,0,.782C0,.527,0,.271,0,0Z" transform="translate(145.152 13.677)"/>
</svg>
