<svg id="Group_64" data-name="Group 64" xmlns="http://www.w3.org/2000/svg" xmlns:xlink="http://www.w3.org/1999/xlink" width="250" height="88.853" viewBox="0 0 250 88.853">
  <defs>
    <clipPath id="clip-path">
      <path id="Clip_15" data-name="Clip 15" d="M0,0H41V40.757H0Z" fill="none"/>
    </clipPath>
  </defs>
  <path id="Fill_1" data-name="Fill 1" d="M61.522,46.461H59.1l-4.414-6.623-1.082-1.623H7.938l-5.42,8.234H0c.092-.145.183-.288.271-.427.2-.315.387-.613.586-.909s.406-.588.607-.873c.375-.532.763-1.081,1.1-1.647.425-.711.895-1.407,1.349-2.079.209-.309.424-.628.633-.945.354-.539.721-1.081,1.076-1.6.3-.445.613-.906.916-1.363.625-.945,1.258-1.906,1.87-2.837.673-1.023,1.369-2.08,2.057-3.12.162-.245.337-.487.507-.721.263-.363.534-.739.763-1.132.421-.721.9-1.421,1.355-2.1.245-.362.5-.734.74-1.106.382-.585.782-1.173,1.17-1.741.312-.458.635-.931.947-1.4.527-.8,1.057-1.6,1.569-2.383.771-1.175,1.566-2.387,2.361-3.57.508-.757,1.013-1.533,1.5-2.285.349-.538.709-1.091,1.066-1.632.428-.649.874-1.3,1.3-1.933.359-.526.728-1.068,1.087-1.606.511-.766,1.026-1.548,1.524-2.3.424-.645.861-1.308,1.294-1.96.315-.475.64-.953.954-1.417s.638-.942.954-1.417c.282-.424.551-.847.836-1.294.135-.212.271-.426.411-.643.135.194.268.384.4.568.3.431.587.837.863,1.255.29.438.579.887.858,1.321.324.5.659,1.025,1,1.531.173.259.35.518.521.769.476.7.969,1.422,1.407,2.166.278.47.6.926.907,1.366.174.248.354.5.524.76.4.6.8,1.209,1.189,1.8s.791,1.2,1.189,1.8.806,1.207,1.2,1.794l.009.013q.449.669.9,1.339c.607.909,1.2,1.8,1.857,2.8q.328.5.655.994l.008.012c.406.617.825,1.254,1.246,1.882.262.391.535.786.8,1.168.523.757,1.062,1.538,1.549,2.333.335.547.693,1.089,1.041,1.614.191.289.388.586.579.881.328.507.676,1.013,1.013,1.5.219.319.445.648.664.974q.357.532.718,1.063c.667.984,1.356,2,1.994,3.022.474.762.967,1.5,1.516,2.313.374.555.75,1.12,1.114,1.667l.009.014.415.624q.447.671.9,1.34c.748,1.112,1.521,2.263,2.255,3.412l.206.324c.385.606.783,1.233,1.219,1.82v.226ZM30.838,3.733,18.711,22l-.387.583L9.406,36.026h42.8l-9.2-13.894-.128-.193L30.838,3.733Z" transform="translate(188.478 35.824)" fill="#fff"/>
  <g id="Group_5" data-name="Group 5" transform="translate(43.597)">
    <path id="Fill_3" data-name="Fill 3" d="M24.6,0c.03.038.06.109.09.108a10.858,10.858,0,0,1,1.608.211c.694.094,1.346.323,2.021.458s1.3.43,1.968.593a5.861,5.861,0,0,1,.949.439c.349.158.72.276,1.054.459a27.252,27.252,0,0,1,2.931,1.819A21.941,21.941,0,0,1,38.54,7.111a16.45,16.45,0,0,1,1.84,2.452c.492.8.9,1.627,1.314,2.461a8.544,8.544,0,0,1,.356.871c.106.294.221.587.336.879a3.731,3.731,0,0,0,.332.881,9.86,9.86,0,0,0,.368,1.722c.09.5.165,1.011.3,1.51a8.32,8.32,0,0,1,.13,1.363c.033.362.09.723.108,1.085a11.3,11.3,0,0,1,0,1.131c-.015.288-.085.572-.1.859a3.72,3.72,0,0,1-.021.843,4.072,4.072,0,0,0-.1.92c-.017.175-.078.345-.108.52a2.42,2.42,0,0,1-.093.47,7.729,7.729,0,0,0-.123.8c-.178.738-.306,1.486-.532,2.215-.176.569-.311,1.151-.5,1.718-.224.68-.507,1.339-.742,2.013-.288.825-.723,1.588-.978,2.426a4.716,4.716,0,0,1-.32.6c-.2.409-.349.841-.575,1.232-.335.577-.608,1.187-.968,1.754a12.005,12.005,0,0,0-.6,1.05c-.277.553-.622,1.062-.934,1.593-.692,1.179-1.489,2.291-2.25,3.425-.329.491-.685.963-1.034,1.44-.255.348-.518.691-.776,1.037-.182.245-.357.5-.546.735-.463.583-.967,1.138-1.391,1.748-.466.668-1.013,1.269-1.5,1.921-.415.559-.892,1.071-1.354,1.62l-.369-.026c.191-.267.338-.489.5-.7.314-.4.65-.784.957-1.19.543-.716,1.048-1.461,1.611-2.159.464-.576.875-1.188,1.312-1.781.866-1.177,1.684-2.388,2.483-3.612.464-.71.9-1.436,1.351-2.157.288-.465.57-.933.854-1.4.173-.286.335-.583.491-.874q1.078-2.009,2.065-4.067a36.378,36.378,0,0,0,1.817-4.682c.271-.851.468-1.724.777-2.563.008-.706.373-1.354.34-2.066.183-.247.029-.56.13-.8.119-.276.028-.553.106-.806a12.389,12.389,0,0,0,.12-1.651,5.352,5.352,0,0,0,.092-1.144c-.013-.306-.086-.61-.1-.916s-.009-.641,0-.962c0-.184-.139-.321-.127-.519a.983.983,0,0,0-.052-.6c-.081-.146,0-.374-.057-.541a16.956,16.956,0,0,1-.42-1.689c-.135-.55-.359-1.066-.495-1.613a7.39,7.39,0,0,0-.552-1.3,19.4,19.4,0,0,0-.916-1.882c-.416-.686-.888-1.339-1.364-1.989a21.187,21.187,0,0,0-2.506-2.688,14.8,14.8,0,0,0-2.284-1.722,20.127,20.127,0,0,0-2.429-1.376,23.217,23.217,0,0,0-2.872-1.131,12.059,12.059,0,0,0-1.9-.473c-.345-.048-.691-.153-1.041-.209s-.7-.059-1.024-.136A9.141,9.141,0,0,0,22.736.91c-.622-.023-1.246,0-1.868-.005-.237,0-.436.162-.691.122a1.822,1.822,0,0,0-.693.085c-.274.065-.57.049-.857.125-.324.085-.661.119-.988.212a7.5,7.5,0,0,1-.921.227A8.332,8.332,0,0,0,15,2.2,17.242,17.242,0,0,0,12.45,3.41a14.642,14.642,0,0,0-2.115,1.476c-.3.25-.573.518-.865.772-.135.117-.306.2-.428.325-.24.252-.462.522-.684.791s-.456.471-.661.738c-.3.387-.631.753-.9,1.164-.422.653-.862,1.292-1.251,1.969-.4.7-.767,1.42-1.108,2.148a30.033,30.033,0,0,0-1.253,3.159,20.435,20.435,0,0,1-.8,2.557c-.051.68-.329,1.317-.362,2.009-.014.3-.086.607-.091.916a8.588,8.588,0,0,1-.138.856,1.192,1.192,0,0,1-.411.842,3.14,3.14,0,0,0-.291.288H.549l-.5-.35a3.946,3.946,0,0,1,.33-2.075c.3-.908.717-1.778,1.064-2.671.259-.667.472-1.351.735-2.016.16-.406.311-.816.48-1.216.419-1,.827-2,1.329-2.958A30.6,30.6,0,0,1,5.524,9.488c.314-.476.692-.906.971-1.407.121-.218.339-.371.486-.589.246-.364.593-.657.864-1.006a11.645,11.645,0,0,1,1.37-1.466,19.349,19.349,0,0,1,2.822-2.2,14.238,14.238,0,0,1,2.127-1.157,17.99,17.99,0,0,1,2.872-1c.482-.1.964-.221,1.449-.323A9.6,9.6,0,0,1,20.139.091c.014,0,.025-.059.038-.091Z" fill="#fff"/>
  </g>
  <path id="Fill_6" data-name="Fill 6" d="M45.017,16.3H42.746c-.21-.7-.587-1.349-.835-2.055a5.639,5.639,0,0,0-.451-.831c-.034-.061-.075-.12-.106-.183a20.216,20.216,0,0,0-1.121-1.859c-.145-.225-.338-.412-.465-.653a6.64,6.64,0,0,0-.469-.6,16.6,16.6,0,0,0-2.168-2.383,19.775,19.775,0,0,0-2.774-2.184,24.432,24.432,0,0,0-2.8-1.57A16.6,16.6,0,0,0,29.8,3.29c-.46-.167-.93-.309-1.4-.455a10.607,10.607,0,0,0-1.558-.342c-.175-.027-.345-.086-.52-.108s-.333.032-.465-.114c-.017-.019-.073,0-.11,0a20.683,20.683,0,0,0-2.389-.118c-.6.024-1.208-.01-1.812.009a8.025,8.025,0,0,0-1.479.124c-.453.1-.914.144-1.363.256-.429.108-.88.173-1.286.316-.673.238-1.362.435-2.025.714-.905.381-1.772.832-2.635,1.294a16.559,16.559,0,0,0-1.967,1.272c-.741.543-1.416,1.157-2.113,1.749A18.32,18.32,0,0,0,7.159,9.473a16.2,16.2,0,0,0-1.65,2.2,24.536,24.536,0,0,0-1.722,3.19A13.115,13.115,0,0,0,3,17.019c-.141.545-.313,1.087-.411,1.65-.087.5-.178,1.01-.294,1.509a7.913,7.913,0,0,0-.127,1.59q-.028,1.131,0,2.263a9.333,9.333,0,0,0,.127,1.534,3.086,3.086,0,0,1,.093.692,2.891,2.891,0,0,0,.136.628A8.671,8.671,0,0,0,2.9,28.423c.138.359.2.746.33,1.109a22.3,22.3,0,0,0,1.087,2.548,28.707,28.707,0,0,0,1.6,2.73c.3.472.73.863,1.067,1.316a23.937,23.937,0,0,0,2.009,2.108,15.214,15.214,0,0,0,1.731,1.413,20.7,20.7,0,0,0,4.018,2.339,11.982,11.982,0,0,0,2.972,1.027c.127.194.343.071.508.142a2.343,2.343,0,0,0,.5.159c.18.033.377,0,.55.045.49.143,1,.139,1.489.241a12.333,12.333,0,0,0,2.053.087c.509.023,1.02.019,1.529,0a8.278,8.278,0,0,0,1.479-.124c.453-.1.914-.144,1.363-.256.429-.108.868-.2,1.287-.318a9.009,9.009,0,0,0,1.053-.323,10.208,10.208,0,0,1,.968-.4,13.182,13.182,0,0,0,2.382-1.081,20.469,20.469,0,0,0,4.317-3.122c.216-.221.5-.378.7-.609.616-.7,1.243-1.395,1.8-2.143A18.532,18.532,0,0,0,41.1,33.132c.233-.432.493-.851.7-1.3.338-.746.639-1.508.962-2.279h2.207a12.3,12.3,0,0,0-.425,1.168A13.761,13.761,0,0,1,44,32.144a8.25,8.25,0,0,1-.525,1.195c-.5.87-.96,1.767-1.544,2.59-.525.74-1.082,1.451-1.67,2.143-.509.6-1.066,1.148-1.624,1.694-.334.327-.724.6-1.089.9-.38.311-.765.614-1.161.9-.33.241-.677.458-1.019.683a24.749,24.749,0,0,1-2.917,1.568,21.718,21.718,0,0,1-2.184.879c-.777.273-1.585.458-2.379.681-.31.087-.67.023-.964.137-.324.126-.66.018-.961.141-.33.134-.677-.016-.987.08a6.779,6.779,0,0,1-1.826.1,11.83,11.83,0,0,1-1.866-.015,10.168,10.168,0,0,1-1.141-.109,10.4,10.4,0,0,1-1.626-.306,3.283,3.283,0,0,0-.685-.117,6.7,6.7,0,0,1-.98-.24c-.467-.149-.939-.276-1.4-.434s-.909-.362-1.374-.518a9.042,9.042,0,0,1-1.475-.674c-.955-.53-1.911-1.065-2.813-1.681-.435-.3-.806-.684-1.236-.989a14.5,14.5,0,0,1-2.3-2.093c-.66-.723-1.273-1.488-1.866-2.275A24.481,24.481,0,0,1,1.81,31.849a14.013,14.013,0,0,1-.9-2.458C.751,28.74.552,28.1.45,27.431.377,26.952.3,26.473.212,26c-.073-.405-.022-.812-.1-1.2a17.973,17.973,0,0,1-.1-2.9c-.025-.571.114-1.133.134-1.706A8.166,8.166,0,0,1,.36,18.706Q.634,17.5.956,16.3a13.8,13.8,0,0,1,.776-2.17,9.869,9.869,0,0,1,.977-1.979,10.055,10.055,0,0,0,.577-1.058A20.405,20.405,0,0,1,4.537,9.234a22.822,22.822,0,0,1,5.975-5.6,23.566,23.566,0,0,1,5.542-2.612c.319-.093.638-.188.954-.295s.652-.122.97-.255a3.859,3.859,0,0,1,.909-.131c.194-.028.384-.076.577-.11.175-.032.374.073.528-.1C20.019.1,20.1.111,20.153.12A8.683,8.683,0,0,0,21.466,0c.453.009.906,0,1.359,0,.359,0,.718-.013,1.076,0a19.115,19.115,0,0,1,1.99.125,9.182,9.182,0,0,1,1.377.222,11.647,11.647,0,0,0,1.283.306,16.647,16.647,0,0,1,2.424.727,23.82,23.82,0,0,1,2.577,1.16c.971.478,1.849,1.1,2.762,1.663.43.265.784.651,1.2.945A11.411,11.411,0,0,1,38.665,6.2c.171.161.385.278.547.446.307.318.592.658.885.99a12.111,12.111,0,0,1,.835.958c.618.868,1.253,1.722,1.793,2.647a27.214,27.214,0,0,1,1.248,2.429,12.32,12.32,0,0,1,.894,2.46c.01.046.07.08.15.168" transform="translate(149.971 36.44)" fill="#fff"/>
  <path id="Fill_8" data-name="Fill 8" d="M.141,35.372H2.277a2.605,2.605,0,0,1,.211.59,5.788,5.788,0,0,0,.7,1.865,8.069,8.069,0,0,0,1.475,2.1c.252.255.5.519.763.758a9.977,9.977,0,0,0,1.823,1.336c.307.17.61.349.924.5a13.283,13.283,0,0,0,2.477.855c.193.195.473.035.671.154.216.13.449,0,.648.079a4.82,4.82,0,0,0,1.6.1,9.849,9.849,0,0,0,1.584-.008,19.169,19.169,0,0,0,1.987-.384,12.825,12.825,0,0,0,2.959-1.2,10.273,10.273,0,0,0,1.552-1.046,10.687,10.687,0,0,0,1.186-1.09,10.275,10.275,0,0,0,1.311-1.776,7.568,7.568,0,0,0,.82-1.924,3.88,3.88,0,0,0,.2-.822c.013-.235.164-.436.125-.69a1.6,1.6,0,0,1,.085-.693.8.8,0,0,0-.06-.7.411.411,0,0,1-.03-.267,5.615,5.615,0,0,0-.132-1.479,4.2,4.2,0,0,0-.376-1.254,8.074,8.074,0,0,0-.732-1.342,6.768,6.768,0,0,0-1.569-1.659,3.8,3.8,0,0,0-.593-.484c-.361-.182-.694-.419-1.051-.609-.338-.18-.691-.333-1.044-.484a17.981,17.981,0,0,0-1.863-.7c-.5-.154-1.02-.271-1.53-.408-.475-.128-.943-.282-1.423-.39-.432-.1-.851-.238-1.295-.3-.5-.074-.99-.254-1.495-.35-.359-.068-.7-.249-1.059-.3-.442-.068-.844-.253-1.272-.355a15.629,15.629,0,0,1-1.569-.449c-.379-.133-.761-.259-1.134-.407a13.271,13.271,0,0,1-1.519-.709,17.469,17.469,0,0,1-1.843-1.159,9.383,9.383,0,0,1-1.535-1.461A9.013,9.013,0,0,1,.923,16.716a8.542,8.542,0,0,1-.577-1.8,7.144,7.144,0,0,1-.219-1.888C.14,12.737,0,12.473,0,12.17a10.04,10.04,0,0,0,.127-1.65c.195-.442.133-.936.319-1.4.168-.415.26-.874.438-1.29A13.413,13.413,0,0,1,2.055,5.66a4.424,4.424,0,0,1,.386-.518A16.629,16.629,0,0,1,3.809,3.677,15.1,15.1,0,0,1,9.229.65,5.61,5.61,0,0,1,11.052.262c.372-.242.809-.078,1.217-.2A4.931,4.931,0,0,1,13.62.036c.434,0,.869-.022,1.3.006A5.358,5.358,0,0,1,16.3.255a2.527,2.527,0,0,0,.45.011c.119.015.231.081.35.107a13.519,13.519,0,0,1,2.5.789c.416.181.836.352,1.236.57a19.416,19.416,0,0,1,2.105,1.346,14.9,14.9,0,0,1,1.9,1.815,9.11,9.11,0,0,1,.987,1.341,12.3,12.3,0,0,1,1.092,2.319,7.865,7.865,0,0,1,.262.909,8.823,8.823,0,0,0,.138.963,3.619,3.619,0,0,1,.094,1.2c.021.391,0,.783,0,1.185H25.388c0-.114-.008-.223,0-.33a9.467,9.467,0,0,0-.145-1.761,7.291,7.291,0,0,0-.488-1.768,9.121,9.121,0,0,0-1.194-2.162,10.212,10.212,0,0,0-1.88-1.941,14.344,14.344,0,0,0-3.06-1.784,10.66,10.66,0,0,0-1.7-.544c-.271-.076-.547-.125-.816-.213-.25-.082-.544.051-.8-.118-.08-.051-.221-.008-.335-.008-.736,0-1.473.026-2.208-.009a5.645,5.645,0,0,0-1.308.15,6.375,6.375,0,0,0-1.181.277c-.215.084-.5.092-.713.193-.63.3-1.307.491-1.913.854A10.392,10.392,0,0,0,5.254,5.386c-.378.407-.793.773-1.136,1.222a10.594,10.594,0,0,0-1.154,1.9,6.718,6.718,0,0,0-.59,1.8,5.355,5.355,0,0,1-.11.8,2.339,2.339,0,0,0-.1.751,4.976,4.976,0,0,0,.007.848,14.93,14.93,0,0,0,.433,2.364,7.889,7.889,0,0,0,1.228,2.212,6.186,6.186,0,0,0,.733.823A10.787,10.787,0,0,0,6.3,19.385c.315.189.644.357.973.52.265.132.537.254.814.359a5.8,5.8,0,0,1,.793.267c.266.15.592.125.828.329a10.746,10.746,0,0,1,1.959.475c.6.135,1.19.312,1.788.461.428.107.861.187,1.287.3.511.141,1.036.231,1.547.37.66.179,1.323.36,1.974.562a15.874,15.874,0,0,1,1.84.611c.554.248,1.14.443,1.677.732a12.427,12.427,0,0,1,2.106,1.356,12.726,12.726,0,0,1,1.019.937,8.785,8.785,0,0,1,1.788,2.709,7.361,7.361,0,0,1,.524,1.825,3.667,3.667,0,0,0,.119.907,2.753,2.753,0,0,1,.084.982c.029.318.006.641.006.961a7.078,7.078,0,0,1-.009.96c-.048.35-.13.7-.179,1.05a8.562,8.562,0,0,1-.493,1.668,4.9,4.9,0,0,1-.635,1.382c-.187.248-.287.557-.48.82a11.318,11.318,0,0,1-1.091,1.412c-.3.292-.577.6-.883.877a10.286,10.286,0,0,1-2.318,1.646c-.282.142-.536.344-.824.471q-.765.339-1.546.641c-.542.209-1.11.323-1.651.524-.218.081-.482-.047-.677.143-.368-.026-.711.2-1.086.113a12.124,12.124,0,0,1-2.671.106,2.2,2.2,0,0,1-.768-.05c-.257-.08-.608.049-.812-.081-.239-.152-.538.048-.714-.2a9.706,9.706,0,0,1-2.544-.7,9.279,9.279,0,0,1-1.649-.8,11.76,11.76,0,0,1-1.691-1.113,9.511,9.511,0,0,1-1.419-1.208A12.6,12.6,0,0,1,1.7,39.608,11.49,11.49,0,0,1,.4,36.694a6.228,6.228,0,0,0-.148-.731,2.529,2.529,0,0,1-.109-.591" transform="translate(94.685 36.409)" fill="#fff"/>
  <path id="Fill_10" data-name="Fill 10" d="M2.137,45.829H0V0H4.65c2.624,0,5.441,0,8.267,0l.1,0,.105,0a.792.792,0,0,1,.431.1A.275.275,0,0,0,13.7.135c.036,0,.072,0,.111-.007h.007c.04,0,.082-.008.122-.008a.308.308,0,0,1,.245.1H14.2a2.388,2.388,0,0,1,.642.118,3.373,3.373,0,0,0,.435.1,3.672,3.672,0,0,1,.923.3c.1.044.211.09.318.131a9.172,9.172,0,0,1,1.42.684c.159.1.315.2.465.308a4.233,4.233,0,0,0,.887.518c.2.193.411.381.615.563a9.628,9.628,0,0,1,1.316,1.338,15.236,15.236,0,0,1,1.1,1.589,16.576,16.576,0,0,1,.759,1.5,8.951,8.951,0,0,1,.571,1.8c.023.108.049.217.074.322a3.8,3.8,0,0,1,.153,1.225,4.913,4.913,0,0,1,.1,2.023l-.012.134a11.661,11.661,0,0,1-.406,2.255A11.917,11.917,0,0,1,22.4,17.98a9.548,9.548,0,0,1-.771,1.15l-.1.132a11.59,11.59,0,0,1-.924,1.143,8.912,8.912,0,0,1-1.12.981c-.541.4-1.111.761-1.6,1.061A8.014,8.014,0,0,1,16.748,23c-.11.046-.218.091-.325.137a12.23,12.23,0,0,1-1.608.526l-.341.1a2.9,2.9,0,0,1-.638.082,3.853,3.853,0,0,0-.5.049,8.725,8.725,0,0,1-1.584.121c-.246,0-.5-.005-.737-.01H10.99c-.255-.006-.5-.011-.756-.011q-.153,0-.306,0C9.52,24,9.084,24,8.554,24q-.534,0-1.069,0T6.417,24H2.137V45.828Zm8.09-23.993c.252,0,.509.007.757.014l.058,0c.273.008.554.017.831.017a7.183,7.183,0,0,0,1.51-.133,2.642,2.642,0,0,1,.372-.041,1.661,1.661,0,0,0,.536-.093,2.187,2.187,0,0,1,.4-.112,1.856,1.856,0,0,0,.458-.14c.69-.345,1.26-.617,1.795-.859a3.625,3.625,0,0,0,.851-.544c.083-.07.165-.143.244-.215a4.163,4.163,0,0,1,.6-.478,1.536,1.536,0,0,0,.528-.474,3.254,3.254,0,0,1,.419-.513,3.052,3.052,0,0,0,.437-.544c.1-.181.223-.359.338-.531a5.5,5.5,0,0,0,.554-.967c.043-.107.087-.214.131-.321a8.342,8.342,0,0,0,.512-1.509c.027-.133.059-.269.09-.4a5.184,5.184,0,0,0,.17-1.007c0-.115.007-.23.011-.345a9.122,9.122,0,0,0-.083-2.044,17.581,17.581,0,0,0-.46-1.849,9.37,9.37,0,0,0-2.155-3.576,9.264,9.264,0,0,0-1.111-1,10.285,10.285,0,0,0-1.1-.759,3.9,3.9,0,0,0-.555-.259c-.084-.034-.171-.069-.255-.106l-.228-.1,0,0c-.189-.086-.384-.176-.582-.252l-.074-.029a4.327,4.327,0,0,0-.772-.247c-.158-.029-.318-.065-.472-.1a5.358,5.358,0,0,0-1.167-.171h-.009c-1.406,0-2.9.007-4.852.007h-5.8V21.845h.577l2.1,0h.015l2.119,0c1.215,0,2.208,0,3.123-.014Z" transform="translate(125.982 36.444)" fill="#fff"/>
  <path id="Fill_12" data-name="Fill 12" d="M4.354,17.643H3.906c-.027-.077-.05-.142-.08-.224a3.024,3.024,0,0,1-.307.016A4.811,4.811,0,0,1,1.924,17.1a.972.972,0,0,1-.245-.14c-.038-.027-.076-.055-.118-.08A2.864,2.864,0,0,1,.245,15.171a2.251,2.251,0,0,1-.124-.743A1.165,1.165,0,0,0,.069,14.1a1.636,1.636,0,0,1-.049-.247,2.366,2.366,0,0,1,0-.621c.053-.3.087-.606.12-.9a11.069,11.069,0,0,1,.174-1.176c.067-.3.144-.606.219-.9.058-.229.118-.465.173-.7a9.51,9.51,0,0,1,.372-1.143c.049-.131.1-.263.145-.395.027-.077.056-.153.084-.229a6.217,6.217,0,0,0,.205-.614,1.166,1.166,0,0,1,.146-.3A.834.834,0,0,0,1.828,6.4a6.833,6.833,0,0,0,.543-1.092,5.8,5.8,0,0,1,.683-1.291,3.645,3.645,0,0,0,.381-.687c.073-.156.148-.318.235-.468a4.031,4.031,0,0,1,.591-.833c.111-.112.212-.238.311-.359a4.438,4.438,0,0,1,.338-.387A15.805,15.805,0,0,1,6.106.209,1.08,1.08,0,0,1,6.7.009l.056,0a.838.838,0,0,1,.582.226c.067.063.135.124.2.177L7.6.475v.616a.78.78,0,0,1-.632.617,1.738,1.738,0,0,0-.692.366c-.085.074-.171.146-.256.219A6.862,6.862,0,0,0,4.936,3.363l-.072.095a15.379,15.379,0,0,0-.984,1.4c-.51.859-.958,1.757-1.366,2.6a19.716,19.716,0,0,0-1.135,2.868c-.038.127-.079.255-.119.379a5.644,5.644,0,0,0-.337,1.525.7.7,0,0,0-.113.513,1.59,1.59,0,0,1,0,.231.8.8,0,0,0,0,.121.359.359,0,0,1-.085.3c-.057.058-.038.2-.025.312v.01c.015.118.04.237.064.352.015.074.031.149.044.224a.981.981,0,0,1,.008.2.575.575,0,0,0,.088.389.769.769,0,0,1,.1.356,1.666,1.666,0,0,0,.035.207.492.492,0,0,0,.095.162l.014.018A3.115,3.115,0,0,0,2.931,16.87a4.745,4.745,0,0,0,1.125.1h.119c.213,0,.434,0,.654.014.079-.068.163-.137.243-.2a6.056,6.056,0,0,0,.534-.475,11.467,11.467,0,0,0,1.321-1.77A9.43,9.43,0,0,0,7.9,12.214l.014-.044c.018-.056.036-.113.055-.17A2.808,2.808,0,0,0,8.172,10.8,10.42,10.42,0,0,0,8.4,7.874c-.006-.344-.012-.7-.006-1.048a2.253,2.253,0,0,0-.058-.465c-.018-.092-.036-.186-.048-.28s-.013-.164-.016-.244a1.482,1.482,0,0,0-.081-.51,1.347,1.347,0,0,1-.005-.78.682.682,0,0,1,.482-.592.194.194,0,0,0,.088-.066A.577.577,0,0,1,8.8,3.847h.561c.04.028.081.055.123.082a1.944,1.944,0,0,1,.268.2.777.777,0,0,1,.26,1.006.871.871,0,0,0-.064.37,1.109,1.109,0,0,1-.054.371,2.4,2.4,0,0,0-.108.706c-.007.123-.013.25-.029.372a3.461,3.461,0,0,1-.076.37c-.012.051-.024.1-.035.149a.557.557,0,0,0,0,.173.346.346,0,0,1-.074.308.333.333,0,0,0-.037.215c0,.017,0,.033,0,.048a3.809,3.809,0,0,1-.205,1.1,2.31,2.31,0,0,0-.075.471c-.01.107-.019.218-.039.326a14.36,14.36,0,0,1-.491,1.841,4.555,4.555,0,0,0,1.453,1.786,4.222,4.222,0,0,0,2.2.858,1.494,1.494,0,0,1,.264.059,1.225,1.225,0,0,0,.337.063.634.634,0,0,0,.088-.006,5.568,5.568,0,0,0,2.264-.688,1.608,1.608,0,0,0,.66-.778,1.048,1.048,0,0,1,.541-.626.679.679,0,0,1,.3-.052.909.909,0,0,0,.281-.036,3.554,3.554,0,0,0-.181-.9,5.082,5.082,0,0,0-.6-1.013c-.049-.07-.1-.141-.146-.211-.071-.1-.142-.206-.215-.309a6.149,6.149,0,0,1-.937-1.7,5.58,5.58,0,0,0-.216-.559,5.846,5.846,0,0,1-.218-.563c-.1-.336-.2-.7-.306-1.172a4.557,4.557,0,0,0-.911-2.006L13.32,4.03a7.555,7.555,0,0,0-.755-.82,1.17,1.17,0,0,1-.429-1.071.563.563,0,0,0,0-.109,1.355,1.355,0,0,1,.835-.8l.585.1c-.005-.036-.013-.074-.022-.114A.989.989,0,0,1,13.5.931a1.047,1.047,0,0,1,.09-.293c.024-.059.051-.126.08-.206l.1-.08.1-.08,0,0L14.188,0c.033,0,.066,0,.1,0A1.771,1.771,0,0,1,15,.179a5.864,5.864,0,0,1,1.629,1.109A5.473,5.473,0,0,1,17.85,2.926l.042.086a10.6,10.6,0,0,1,.835,2.041c.053.207.115.416.175.618.048.162.1.329.143.494.062.23.106.468.148.7a7.624,7.624,0,0,0,.179.807,2.187,2.187,0,0,1,.068.482,3.189,3.189,0,0,0,.041.376,8.285,8.285,0,0,1,.1,1.149c.007.163.015.332.026.5s.026.324.04.482c.031.346.063.7.065,1.056a10.151,10.151,0,0,1-.084,1.175c-.015.14-.031.278-.044.416a7.136,7.136,0,0,1-.538,2.317,5.759,5.759,0,0,1-.691,1.069,2.267,2.267,0,0,1-1.235.686l-.155.048a.425.425,0,0,1-.126.02.28.28,0,0,1-.277-.206,2.749,2.749,0,0,0,1.521-.835,2.785,2.785,0,0,0,.469-.829c.046-.109.094-.222.146-.33l.029-.061a1.438,1.438,0,0,0,.188-.579,3.613,3.613,0,0,1,.07-.6,3.127,3.127,0,0,0,.068-.707c0-.065-.012-.133-.02-.2a.911.911,0,0,1,.11-.711.954.954,0,0,1-.109-.733c.007-.061.015-.125.019-.186a6.423,6.423,0,0,0-.135-1.5l-.015-.087A17.984,17.984,0,0,0,18.428,7.7c-.061-.2-.119-.41-.175-.611a15,15,0,0,0-.476-1.495,17.725,17.725,0,0,0-1-2.02A2.986,2.986,0,0,0,15.362,2.14a1.75,1.75,0,0,0-.65-.113h-.089a2.846,2.846,0,0,1-.441-.046c-.068-.011-.133-.021-.2-.029.08.2.165.4.247.589.2.463.4.941.558,1.426A10.853,10.853,0,0,1,15.1,5.2c.04.206.066.417.091.622a5.839,5.839,0,0,0,.174.962c.055.185.1.377.146.563a6.5,6.5,0,0,0,.265.908c.21.524.465,1.04.711,1.539.083.168.164.332.243.5.06.125.128.248.194.368s.137.249.2.377l.028.059a1.808,1.808,0,0,1,.191.526,3.616,3.616,0,0,1,.014.594c0,.091-.005.184-.005.279.032.043.066.085.1.129a1.69,1.69,0,0,1,.23.33,1.185,1.185,0,0,1,.063,1.191.788.788,0,0,0-.058.131c-.008.02-.015.04-.023.06-.09.042-.182.082-.271.12a4.247,4.247,0,0,0-.58.286,4.777,4.777,0,0,1-1.142.471,7.29,7.29,0,0,0-.76.27,2.045,2.045,0,0,1-.722.116L14,15.612c-.073,0-.151.006-.245.006l-.226,0-.218,0c-.081,0-.152,0-.217.005q-.063,0-.125,0a4.192,4.192,0,0,1-1.2-.224,3.886,3.886,0,0,1-1.729-1.021,3.357,3.357,0,0,1-1.192,1.3c-.213.127-.424.266-.627.4s-.443.294-.673.428a2.553,2.553,0,0,1-.466.193c-.087.029-.177.06-.263.095-.235.1-.477.2-.671.291a1.192,1.192,0,0,1-.318.076.843.843,0,0,0-.439.15.886.886,0,0,0-.144-.012,1.6,1.6,0,0,0-.758.266l-.138.075Zm4.231-5.132a9.573,9.573,0,0,1-2.543,4.1A7.025,7.025,0,0,0,9.8,14.237a5.45,5.45,0,0,1-1.06-1.532.7.7,0,0,0-.092-.124c-.019-.022-.039-.045-.059-.071Z" transform="translate(35.553 28.751)" fill="#fff"/>
  <g id="Group_16" data-name="Group 16" transform="translate(0 47.087)">
    <path id="Clip_15-2" data-name="Clip 15" d="M0,0H41V40.757H0Z" fill="none"/>
    <g id="Group_16-2" data-name="Group 16" clip-path="url(#clip-path)">
      <path id="Fill_14" data-name="Fill 14" d="M39.829,40.291l-.222.35c-.935-.1-1.85.167-2.783.107-.7-.045-1.4-.109-2.1-.142a12.46,12.46,0,0,1-1.605-.208c-.538-.1-1.073-.225-1.6-.372-.555-.155-1.1-.338-1.648-.53a16.657,16.657,0,0,1-2.228-1.049,8.449,8.449,0,0,1-1.853-1.536,2.64,2.64,0,0,1-.561-.787,7.018,7.018,0,0,1-.565-1.238,5.044,5.044,0,0,1-.3-1.514c.02-.369-.172-.707-.121-1.086a6.982,6.982,0,0,0,.124-1.537c0-.04.061-.086.1-.134a1.052,1.052,0,0,1-.338-.754,6.15,6.15,0,0,0-.1-.8c-.031-.249.078-.52-.114-.745a7.489,7.489,0,0,0-.356-1.837,6.875,6.875,0,0,0-.476-1.44c-.267-.644-.556-1.281-.873-1.9a17.6,17.6,0,0,0-1.632-2.667,14.343,14.343,0,0,0-1.778-2.087,5.816,5.816,0,0,0-1.762-1.208,4.7,4.7,0,0,0-1.285-.309,2.763,2.763,0,0,0-1.683.718,12.608,12.608,0,0,0-1.385,1.686c-.678.941-1.264,1.943-1.953,2.87A13.082,13.082,0,0,1,9.138,24.1c-.283.259-.484.609-.772.861A6.639,6.639,0,0,1,6.3,26.377a1.83,1.83,0,0,1-.872.218c-.264,0-.528,0-.793,0a1.785,1.785,0,0,1-1.1-.366,7.377,7.377,0,0,1-.828-.6,9.836,9.836,0,0,1-1.351-1.762c-.217-.329-.459-.64-.687-.961S.24,22.289,0,21.943l.015-.234c.09.025.161.023.187.056.389.5.793.985,1.153,1.5A12.32,12.32,0,0,0,3,25.36a6.567,6.567,0,0,0,1.217.756c.363-.072.715.328,1.084.026a3.617,3.617,0,0,0,1.851-.863A6.011,6.011,0,0,0,8.38,24.148c.443-.525.89-1.049,1.3-1.6.343-.459.641-.945.967-1.414.4-.582.734-1.21,1.135-1.792a11.665,11.665,0,0,1,1.448-1.948c.161-.421.564-.614.884-.86a2.36,2.36,0,0,1,1.512-.575,2.088,2.088,0,0,0,.34,0,3.227,3.227,0,0,1,1.813.409,6.184,6.184,0,0,1,.942.595,11.162,11.162,0,0,1,1.866,1.768,17.835,17.835,0,0,1,1.5,2.09A22.7,22.7,0,0,1,23.571,23.6a25.908,25.908,0,0,1,1.124,2.93,9.1,9.1,0,0,1,.391,1.526c.219-.728.527-1.313.752-1.936a7.98,7.98,0,0,1,.57-1.065c.034-.061.068-.123.1-.186a13.846,13.846,0,0,1,1.145-1.9A10.833,10.833,0,0,1,29.007,21.2a5.69,5.69,0,0,0,.484-.589,4.287,4.287,0,0,0,.454-.545,7.213,7.213,0,0,1,.665-.8,24.55,24.55,0,0,0,2.142-3.015c.422-.73.853-1.455,1.225-2.212.253-.516.473-1.049.68-1.585s.387-1.085.569-1.632c.144-.432.253-.877.4-1.305S35.861,8.636,36,8.2c.1-.33.165-.687.255-1.029.085-.325.159-.654.24-.978.152-.607.409-1.187.6-1.784a15.359,15.359,0,0,1,1.087-2.378,9.182,9.182,0,0,1,1-1.507A4.871,4.871,0,0,1,39.758,0C40.5,0,40.5,0,41,.514V1.3c-.257.257-.5.517-.765.763a7.444,7.444,0,0,0-1.665,2.48,8.091,8.091,0,0,0-.549,1.416c-.113.489-.392.942-.493,1.431-.132.642-.357,1.255-.5,1.891a19.034,19.034,0,0,1-.663,1.929c-.184.527-.4,1.04-.617,1.555-.273.661-.589,1.3-.918,1.939-.252.484-.56.942-.815,1.42s-.56.9-.839,1.344c-.374.595-.883,1.1-1.3,1.674-.45.62-1.023,1.137-1.45,1.775a1.71,1.71,0,0,1-.238.241,19.454,19.454,0,0,0-1.9,2.321,22.834,22.834,0,0,0-2.144,3.758,15.428,15.428,0,0,0-.725,1.85.533.533,0,0,0,.033.511c-.039.251-.071.462-.108.7l-.3.3c-.039.312-.078.635-.12.956a4.129,4.129,0,0,0-.1.8,8.761,8.761,0,0,0,.5,2.732,5.542,5.542,0,0,0,.841,1.409,6.015,6.015,0,0,0,1.452,1.4c.585.316,1.164.639,1.77.919a13.336,13.336,0,0,0,2.63.9c.311.064.621.136.925.228a3.358,3.358,0,0,1,.873.217.134.134,0,0,0,.054.006c.436.038.873.082,1.31.112a12.063,12.063,0,0,0,1.6.122c.526-.033,1.057,0,1.585-.01a2.067,2.067,0,0,0,.977-.1c.113-.059.283-.009.5-.009" transform="translate(0)" fill="#fff"/>
    </g>
  </g>
  <path id="Fill_17" data-name="Fill 17" d="M12.746,17.092c.142-.47.259-.95.431-1.409a11.355,11.355,0,0,1,.986-2.138,10.906,10.906,0,0,1,.9-1.323,8.385,8.385,0,0,1,2.928-2.216,5.816,5.816,0,0,1,1.731-.485,4.922,4.922,0,0,1,1.087-.083,15.54,15.54,0,0,1,1.637.275,14.278,14.278,0,0,1,2.894,1.22,5.184,5.184,0,0,1,.641.376,6.141,6.141,0,0,0,1.094.494c.227.091.467.147.7.231a3.146,3.146,0,0,1,.706.21.086.086,0,0,0,.05.014,15.242,15.242,0,0,0,1.708.11c.441-.072.886-.136,1.316-.242a4.807,4.807,0,0,0,1.16-.474,5.976,5.976,0,0,0,2-1.739,8.521,8.521,0,0,0,.873-1.453,6.206,6.206,0,0,0,.687-2.154c.042-.268.071-.535.1-.8a1.459,1.459,0,0,1,.152-.376l.177.009c-.048.241.121.493-.1.729-.038.041,0,.145-.01.22a7.377,7.377,0,0,1-.715,2.647,8.2,8.2,0,0,1-2.171,2.83,6.377,6.377,0,0,1-1.885,1.046,6.757,6.757,0,0,1-3.088.306,7.968,7.968,0,0,1-2.352-.593c-.645-.274-1.253-.617-1.893-.9a12.459,12.459,0,0,0-2.348-.766,7.272,7.272,0,0,0-2.106-.071,4.5,4.5,0,0,0-2.015.719,11.784,11.784,0,0,0-1.3.96,6.676,6.676,0,0,0-1.01,1.218,7.868,7.868,0,0,0-.868,1.4,6.834,6.834,0,0,0-.678,1.927c-.245.307-.182.71-.32,1.056-.1.24.028.545-.134.794.033.7-.175,1.393-.121,2.1.041.543.008,1.091.008,1.641l-.443.581a2.588,2.588,0,0,1-.14.759c-.12.242-.1.515-.255.747-.143.211-.162.505-.3.719a6.165,6.165,0,0,1-1.532,1.8,9.677,9.677,0,0,1-1.81,1.108A13.728,13.728,0,0,1,7.24,28.8c-.519.135-1.039.231-1.558.345a6.323,6.323,0,0,1-1.092.085,4.91,4.91,0,0,1-1.13-.008,7.5,7.5,0,0,1-2.391-.782c-.3-.172-.583-.362-.987-.614.234-.035.342-.084.425-.056A1.442,1.442,0,0,1,.924,28a3.48,3.48,0,0,0,1.29.583,4.85,4.85,0,0,0,.989.2,17.349,17.349,0,0,0,1.868-.005c.367-.026.741-.147,1.1-.183.4-.04.753-.223,1.146-.268a2.67,2.67,0,0,0,.69-.241A12.817,12.817,0,0,0,10.1,26.973,5.443,5.443,0,0,0,11.974,24.9a3.2,3.2,0,0,0,.381-1.26A2.357,2.357,0,0,1,12.5,23.1a1.641,1.641,0,0,1-.538-.85,1.06,1.06,0,0,1-.026-.577A1.678,1.678,0,0,0,12,21.363a2.178,2.178,0,0,1,.1-.75c.092-.225-.01-.487.1-.749.1-.229.037-.526.123-.8.1-.3-.084-.6-.144-.9-.087-.429-.225-.848-.354-1.267-.124-.4-.284-.79-.39-1.2a5.324,5.324,0,0,0-.267-.683,20.538,20.538,0,0,0-1.111-2.311c-.375-.659-.783-1.3-1.173-1.953C8.38,9.9,7.742,9.135,7.187,8.306c-.244-.365-.592-.658-.87-1A25.186,25.186,0,0,0,4.189,4.963c-.544-.521-1.126-1-1.695-1.5-.415-.36-.856-.681-1.279-1.027C1.077,2.327.93,2.222.782,2.12.041,1.6,0,1.532,0,.658L.451.06C.527.047.563.044.6.036,1.371-.14,1.817.367,2.225.871c.135.167.269.342.418.5.325.341.672.662,1,1,.461.484.938.958,1.356,1.478S5.906,4.859,6.32,5.4c.617.8,1.263,1.576,1.864,2.39.564.764,1.04,1.585,1.619,2.337a6.376,6.376,0,0,1,.381.635c.369.614.707,1.25,1.017,1.9.165.344.284.71.459,1.055a9.667,9.667,0,0,1,.39,1.026,5.362,5.362,0,0,1,.383,1.082c.061.445.349.832.313,1.275" transform="translate(66.04 56.669)" fill="#fff"/>
  <path id="Fill_19" data-name="Fill 19" d="M17.389,45.477a.64.64,0,0,1-.641-.161c-.7-.507-1.379-1.03-2.086-1.523-.416-.291-.781-.655-1.195-.95-.486-.345-.907-.771-1.412-1.093-.259-.165-.445-.425-.71-.605A13.092,13.092,0,0,1,10.3,40.24c-1.087-.924-2.064-1.96-3.074-2.962a12.74,12.74,0,0,1-1.165-1.384c-.21-.277-.469-.517-.674-.8-.682-.936-1.385-1.854-2-2.845a25.727,25.727,0,0,1-1.539-2.876A13.05,13.05,0,0,1,.9,26.712C.758,26.076.558,25.452.445,24.8a3.126,3.126,0,0,0-.109-.685c-.1-.238-.037-.477-.107-.692a9.015,9.015,0,0,1-.114-1.142,21.269,21.269,0,0,1-.1-3.294A3.233,3.233,0,0,1,.126,18.3c.041-.229-.1-.481.106-.7.047-.049,0-.183.008-.276A13.085,13.085,0,0,1,.549,15.6c.085-.361.165-.726.239-1.088a13.822,13.822,0,0,1,.507-1.662A15.439,15.439,0,0,1,2.5,10.008,24.116,24.116,0,0,1,3.909,7.7c.445-.6.909-1.179,1.4-1.739a7.772,7.772,0,0,1,.816-.9c.727-.6,1.433-1.223,2.2-1.784a20.1,20.1,0,0,1,3.478-2.006A10.8,10.8,0,0,1,14.188.462c.383-.079.759-.182,1.152-.231a7.107,7.107,0,0,0,.8-.117A3.658,3.658,0,0,1,17,.019c.283,0,.566,0,.849,0A5.98,5.98,0,0,0,18.7.011a8.174,8.174,0,0,1,1.143.127,7.155,7.155,0,0,1,1.1.2,10.528,10.528,0,0,1,2.2.585c.669.253,1.341.493,2,.778.724.313,1.415.686,2.126,1.019a13.751,13.751,0,0,1,1.394.865c.5.313.948.718,1.429,1.067.535.388,1.082.758,1.624,1.134.027.019.075.01.1.03.187.144.373.289.552.441.035.03.04.1.1.242a7.6,7.6,0,0,1-.712-.416,17.455,17.455,0,0,0-2.075-1.28c-1.1-.609-2.2-1.229-3.347-1.76A26.13,26.13,0,0,0,23.9,2.058c-.5-.172-1.009-.3-1.5-.471-.386-.131-.781-.209-1.17-.313a4.37,4.37,0,0,0-1.489-.237,2.486,2.486,0,0,0-1.2-.109c-.414-.021-.83,0-1.245-.005-.183,0-.323.136-.52.125a.966.966,0,0,0-.6.055c-.144.082-.376-.006-.542.055-.319.118-.653.158-.975.246-.555.153-1.1.355-1.645.537a15.038,15.038,0,0,0-2.272,1.08c-.638.357-1.213.8-1.825,1.189a5.244,5.244,0,0,0-.8.667c-.569.551-1.165,1.083-1.675,1.686A20.985,20.985,0,0,0,4.407,9.333c-.469.787-.894,1.595-1.319,2.4-.291.552-.462,1.165-.7,1.746a11.876,11.876,0,0,0-.452,1.454c-.127.478-.245.958-.361,1.438a11.149,11.149,0,0,1-.316,1.619.33.33,0,0,0,0,.112c-.014.815-.182,1.623-.115,2.443a2.772,2.772,0,0,1,0,.509c-.078.746.133,1.475.116,2.216.163.289.036.628.133.908s.119.588.2.877.16.579.223.868a16.558,16.558,0,0,0,.9,2.8c.173.416.328.845.5,1.263a7.778,7.778,0,0,0,.569,1.233c.364.564.661,1.166,1.01,1.739.388.637.843,1.225,1.234,1.859A16.476,16.476,0,0,0,7.1,36.132a53.115,53.115,0,0,0,4.21,4.422c.229.235.5.429.751.643a6.093,6.093,0,0,0,.746.653,7.9,7.9,0,0,1,.883.747c.513.43,1.025.861,1.576,1.247.533.374,1.031.8,1.545,1.194.179.139.362.273.583.44" transform="translate(10.976 16.053)" fill="#fff"/>
  <path id="Fill_21" data-name="Fill 21" d="M1.642,12.792H0V0H3.289c.325,0,.592,0,.841,0h.038A3.354,3.354,0,0,1,6.085.607a2.453,2.453,0,0,1,.841.827,2.958,2.958,0,0,1,.168.4c.023.062.045.123.07.185a3.888,3.888,0,0,1,.184,1.58c0,.142-.006.289-.005.433A3.171,3.171,0,0,1,5.991,5.833a.293.293,0,0,0-.078.077c-.015.019-.032.04-.053.062l.174.094c.1.057.2.11.3.16A2.839,2.839,0,0,1,7.932,8.063a3.061,3.061,0,0,1,.1.466,1.785,1.785,0,0,0,.049.226,1.082,1.082,0,0,1,.053.348A4.275,4.275,0,0,1,7.7,10.957,2.933,2.933,0,0,1,6.413,12.23c-.084.042-.168.086-.248.129a2.91,2.91,0,0,1-.959.37,1.092,1.092,0,0,0-.131.028.748.748,0,0,1-.182.031C3.784,12.791,2.675,12.792,1.642,12.792ZM3.188,6.776c-.282,0-.568,0-.846.008s-.573.008-.862.008v4.64H4.266c.024,0,.048,0,.072,0s.048,0,.072,0a.262.262,0,0,0,.081-.011c.121-.039.246-.069.367-.1s.265-.063.4-.107a1.976,1.976,0,0,0,.8-.6c.081-.086.165-.175.253-.257a.409.409,0,0,0,.089-.2.8.8,0,0,1,.045-.139,1.806,1.806,0,0,0,.112-.84c0-.118-.006-.24,0-.359a1.4,1.4,0,0,0-.236-.806,2.477,2.477,0,0,0-2.056-1.22C3.948,6.786,3.6,6.776,3.188,6.776Zm-1.7-1.341H3.033c.433,0,.786,0,1.111-.006A2.166,2.166,0,0,0,5.732,4.267a2.288,2.288,0,0,0,.036-1.532,2.032,2.032,0,0,0-.674-.958,1.947,1.947,0,0,0-1.068-.411c-.313-.007-.654-.011-1.072-.011l-.732,0-.745,0V5.435Z" transform="translate(95.278 15.957)" fill="#fff"/>
  <path id="Fill_23" data-name="Fill 23" d="M4.762,13.141A5.371,5.371,0,0,1,3.29,12.88a3.032,3.032,0,0,1-1.346-.707,2.414,2.414,0,0,0-.308-.246,1.214,1.214,0,0,1-.524-.589A3.572,3.572,0,0,1,.26,9.768,5.942,5.942,0,0,1,.016,7.491a.574.574,0,0,0,.112-.4.57.57,0,0,1,.115-.407.55.55,0,0,1,.106-.446A.645.645,0,0,0,.47,5.868c.1-.141.2-.287.288-.429a4.313,4.313,0,0,1,1.1-1.272,5.288,5.288,0,0,1,1.651-.812.228.228,0,0,0,.066-.034.193.193,0,0,1,.074-.036l.1-.016c.23-.038.468-.077.7-.1.081-.007.167-.01.272-.01.076,0,.151,0,.227,0l.181,0a4.481,4.481,0,0,1,2.4.776,3.444,3.444,0,0,1,.592.48,3.674,3.674,0,0,1,.32.382c.05.065.1.132.158.2a2.678,2.678,0,0,0,.03-.591c0-.088,0-.171,0-.255,0-.2,0-.4,0-.6,0-.085,0-.168,0-.252V.825c0-.275,0-.552,0-.825h1.3c.08.475.109,11.217.035,12.772H8.752V11.12a3.807,3.807,0,0,1-1.6,1.471,3.141,3.141,0,0,1-1.293.437c-.152.009-.307.032-.457.053-.168.024-.342.049-.516.057Zm-.17-8.617a2.374,2.374,0,0,0-1.019.252A3.708,3.708,0,0,0,1.385,7.852a2.478,2.478,0,0,0,.148,1.162c.024.083.052.178.076.268a3.073,3.073,0,0,0,.965,1.572,2.607,2.607,0,0,0,1.644.8.782.782,0,0,0,.459.124c.071,0,.143,0,.213-.009s.141-.01.211-.01a1.132,1.132,0,0,1,.146.009,1.273,1.273,0,0,0,.161.01,2.59,2.59,0,0,0,.84-.19,3.253,3.253,0,0,0,1.883-1.433,3.759,3.759,0,0,0,.6-2.011c-.012-.25-.044-.5-.076-.734-.014-.105-.027-.207-.039-.306-.075-.144-.142-.29-.207-.431a3.463,3.463,0,0,0-.556-.938A5.461,5.461,0,0,0,6.6,4.8a2.143,2.143,0,0,0-.854-.245,3.1,3.1,0,0,1-.683-.151.281.281,0,0,1-.258.128c-.035,0-.072,0-.107-.006s-.068-.006-.1-.006Z" transform="translate(133.649 15.959)" fill="#fff"/>
  <path id="Fill_25" data-name="Fill 25" d="M10.3,9.375H8.874L6.766,2.844c-.318.975-.653,1.96-.96,2.953-.316,1.019-.61,2.045-.993,3.041-.069.179.086.442-.28.543H3.322a4.274,4.274,0,0,1-.344-.736c-.264-1-.652-1.955-1-2.925-.165-.459-.315-.927-.46-1.393-.109-.352-.3-.671-.373-1.039a5.848,5.848,0,0,0-.353-1.1C.645,1.857.564,1.5.392,1.166A10.472,10.472,0,0,1,0,.008H1.508c.419,1.219.843,2.476,1.243,3.742C3.145,5,3.6,6.227,4.04,7.5L6.18.909H7.371l2.207,6.6C10.41,4.967,11.223,2.485,12.036,0h1.486a2.551,2.551,0,0,1-.1.351,15.253,15.253,0,0,0-.576,1.628c-.2.616-.429,1.221-.627,1.837-.24.748-.474,1.5-.761,2.232-.427,1.09-.735,2.221-1.157,3.328" transform="translate(154.484 19.366)" fill="#fff"/>
  <path id="Fill_27" data-name="Fill 27" d="M4.808,9.958c-.087,0-.172,0-.253-.01a6.848,6.848,0,0,1-1.6-.363,4.13,4.13,0,0,1-1.39-.869A4.344,4.344,0,0,1,.345,6.854,5.513,5.513,0,0,1,.011,4.619a6.5,6.5,0,0,1,.152-.911l.02-.092a5.015,5.015,0,0,1,.65-1.539A4.158,4.158,0,0,1,2.8.44,5.63,5.63,0,0,1,3.9.091,4.218,4.218,0,0,1,4.838,0c.082,0,.17,0,.268,0A4.447,4.447,0,0,1,8.22,1.364a1.956,1.956,0,0,1,.226.3c.045.067.1.143.157.229V.249h1.472V9.6H8.635a1.838,1.838,0,0,1-.023-.457c0-.076,0-.155,0-.232,0-.165,0-.329,0-.536,0-.1,0-.2,0-.32a2.562,2.562,0,0,1-.225.306,1.993,1.993,0,0,0-.134.175,2.629,2.629,0,0,1-.915.739l-.009.005A4.558,4.558,0,0,1,5.7,9.87,5.633,5.633,0,0,1,4.808,9.958ZM5.025,1.3a2.031,2.031,0,0,0-.36.03A4.5,4.5,0,0,0,3.211,1.8a2.838,2.838,0,0,0-1.054.918,3.553,3.553,0,0,0-.7,1.812c-.005.1-.011.191-.016.269a2.55,2.55,0,0,0,.141,1.177A3.977,3.977,0,0,0,2.237,7.3a3.425,3.425,0,0,0,1.011.854,3.047,3.047,0,0,0,1.642.449c.059,0,.12,0,.181,0l.222,0,.2,0c.113,0,.2,0,.288-.009a.932.932,0,0,0,.263-.076l.087-.033A3.216,3.216,0,0,0,8.168,6.748c.032-.065.066-.13.1-.195A2.185,2.185,0,0,0,8.614,5.4a1.4,1.4,0,0,0,0-1.225c-.02-.065-.04-.128-.058-.19A3.424,3.424,0,0,0,7.068,1.9l-.062-.038a2.819,2.819,0,0,0-1.131-.483c-.086-.009-.174-.019-.259-.03A4.77,4.77,0,0,0,5.025,1.3Z" transform="translate(110.099 19.129)" fill="#fff"/>
  <path id="Fill_29" data-name="Fill 29" d="M4.832,9.969c-.058,0-.115,0-.169-.007A4.859,4.859,0,0,1,1.432,8.6,5.8,5.8,0,0,1,.2,6.564a.809.809,0,0,1-.039-.275.541.541,0,0,0-.118-.4c0-.2-.01-.4-.019-.6a5.519,5.519,0,0,1,.042-1.32A4.807,4.807,0,0,1,1.312,1.5,4.334,4.334,0,0,1,2.851.425,7.381,7.381,0,0,1,3.911.1a4.159,4.159,0,0,1,.9-.1c.118,0,.238.005.355.016A4.061,4.061,0,0,1,7.961,1.191c.142.15.283.3.428.457l.253.271V.245H9.987V9.616l-.2,0c-.141,0-.287.006-.433.008H8.644V8.021c-.091.1-.176.2-.259.292-.17.194-.331.378-.5.548A3.75,3.75,0,0,1,5.693,9.871L5.535,9.9A4.613,4.613,0,0,1,4.832,9.969ZM4.516,1.362h-.03a4.258,4.258,0,0,0-1.342.456,3.978,3.978,0,0,0-.788.682L2.2,2.666a3.053,3.053,0,0,0-.776,1.709,3.64,3.64,0,0,0,.2,1.941A3.553,3.553,0,0,0,2.986,8.033a3.122,3.122,0,0,0,1.729.592,2.428,2.428,0,0,0,.3-.018c.108-.013.218-.015.324-.017a1.962,1.962,0,0,0,.6-.074A4.289,4.289,0,0,0,7.469,7.7,3.427,3.427,0,0,0,8.3,6.46c.026-.06.055-.12.083-.178a2.375,2.375,0,0,0,.164-.4,4.356,4.356,0,0,0,.091-1.3V4.566A1.979,1.979,0,0,0,8.5,3.78a4.544,4.544,0,0,0-.9-1.39A3.257,3.257,0,0,0,5.413,1.363a.246.246,0,0,1-.1-.04.325.325,0,0,0-.089-.039l-.036-.008a.811.811,0,0,0-.158-.025.087.087,0,0,0-.065.019.317.317,0,0,1-.252.1c-.033,0-.066,0-.1,0S4.548,1.362,4.516,1.362Z" transform="translate(210.089 19.12)" fill="#fff"/>
  <path id="Fill_31" data-name="Fill 31" d="M4.928,9.995c-.085,0-.168,0-.249-.009a4.9,4.9,0,0,1-2.758-.977,5.083,5.083,0,0,1-1.7-2.572,2.448,2.448,0,0,1-.115-.689,1.421,1.421,0,0,0-.052-.3,1.6,1.6,0,0,1-.051-.274A4.985,4.985,0,0,1,.172,3.8l.006-.028a5.033,5.033,0,0,1,.88-1.89A4.57,4.57,0,0,1,2.113.907,6.489,6.489,0,0,1,3.674.162,6.316,6.316,0,0,1,5.169,0a1.878,1.878,0,0,1,.484.042,4.839,4.839,0,0,0,.473.117,3.325,3.325,0,0,1,.7.2l.028.013a6.137,6.137,0,0,1,1,.524,4.894,4.894,0,0,1,1.9,2.542,2.454,2.454,0,0,1,.1.716c0,.067.005.134.01.2a.407.407,0,0,0,.052.148.416.416,0,0,1,.051.144c.012.161.009.32.007.474,0,.059,0,.117,0,.173l-.16.159H1.535a.7.7,0,0,0,0,.655,1.541,1.541,0,0,1,.071.251,1.9,1.9,0,0,0,.383.795A3.189,3.189,0,0,0,3.6,8.431a3.571,3.571,0,0,0,1.415.3,3.85,3.85,0,0,0,.732-.073A3.377,3.377,0,0,0,7.634,7.619a4.041,4.041,0,0,0,.391-.527c.057-.086.114-.173.174-.257H9.644a2.294,2.294,0,0,1-.335.679c-.044.068-.089.138-.13.207a4.385,4.385,0,0,1-1.853,1.7,5.142,5.142,0,0,1-1.448.474A5.253,5.253,0,0,1,4.928,9.995ZM4.648,1.27a2.927,2.927,0,0,0-1.084.282l-.076.03A3.276,3.276,0,0,0,1.847,3.028a2.093,2.093,0,0,0-.364,1.291H8.5a3.054,3.054,0,0,0-.415-1.357A2.61,2.61,0,0,0,7.321,2.1a3.742,3.742,0,0,0-1.4-.726,3.622,3.622,0,0,0-.766-.077c-.124,0-.253-.007-.38-.018C4.734,1.272,4.691,1.27,4.648,1.27Z" transform="translate(230.289 19.097)" fill="#fff"/>
  <path id="Fill_33" data-name="Fill 33" d="M4.807,9.959c-.055,0-.11,0-.162,0A6.617,6.617,0,0,1,3.638,9.8,4.363,4.363,0,0,1,2.1,9.14,5.052,5.052,0,0,1,.554,7.319,5.653,5.653,0,0,1,.021,4.207,3.4,3.4,0,0,1,.365,3,4.891,4.891,0,0,1,1.387,1.492,4.665,4.665,0,0,1,2.929.422,6.621,6.621,0,0,1,3.987.1,4.712,4.712,0,0,1,4.933,0c.085,0,.171,0,.255.007a4.994,4.994,0,0,1,2.647.85A4.905,4.905,0,0,1,9.7,3.416a3.6,3.6,0,0,1,.155.9c.017.243.013.491.009.752,0,.122,0,.247,0,.378H1.393A3.484,3.484,0,0,0,4.476,8.7a3.061,3.061,0,0,0,.559.052,3.279,3.279,0,0,0,1.86-.6A3.4,3.4,0,0,0,8.108,6.8H9.536c-.011.042-.021.083-.03.122a1.484,1.484,0,0,1-.065.226,3.517,3.517,0,0,1-.714,1.065,4.51,4.51,0,0,1-1.58,1.225,4.608,4.608,0,0,1-1.413.43l-.046.006A6.589,6.589,0,0,1,4.807,9.959Zm-.085-8.72a1.474,1.474,0,0,0-.218.014,3.379,3.379,0,0,0-.77.184,3.575,3.575,0,0,0-1.382.907,2.966,2.966,0,0,0-.874,1.79c0,.021-.024.035-.046.05s-.045.029-.048.052A.074.074,0,0,0,1.4,4.29H8.5c-.015-.07-.027-.135-.038-.2a2.71,2.71,0,0,0-.073-.321c-.018-.058-.035-.119-.051-.178a1.27,1.27,0,0,0-.212-.5c-.1-.121-.2-.253-.29-.381a2.865,2.865,0,0,0-.641-.71,3.391,3.391,0,0,0-2-.76h-.12c-.06,0-.119,0-.179,0S4.779,1.239,4.722,1.239Z" transform="translate(184.408 19.126)" fill="#fff"/>
  <path id="Fill_35" data-name="Fill 35" d="M0,0H1.709Q2.744,2.672,3.77,5.326c.685,1.773,1.374,3.543,2.091,5.4L10.03.008H11.6c.006.046.041.126.018.183-.215.552-.456,1.095-.657,1.652-.326.9-.735,1.772-1.044,2.681-.145.428-.357.833-.52,1.256C9.05,6.689,8.7,7.6,8.321,8.5c-.329.788-.6,1.6-.951,2.379-.28.617-.477,1.273-.775,1.892H5.107c-.2-.483-.416-.976-.617-1.474-.183-.452-.346-.913-.529-1.365-.256-.63-.49-1.269-.722-1.908-.155-.425-.353-.835-.516-1.257-.32-.83-.7-1.635-.961-2.489-.132-.431-.359-.832-.519-1.256C.89,2.093.465,1.193.157.246A1.524,1.524,0,0,0,0,0" transform="translate(199.181 15.971)" fill="#fff"/>
  <path id="Fill_37" data-name="Fill 37" d="M.676,38.458H.449v-.393c0-1.094-.008-2.188,0-3.281C.461,33.76.286,32.746.327,31.718s.025-2.074,0-3.111C.317,27.9.5,27.214.458,26.5a10.752,10.752,0,0,1,.014-2.146c.1-.688.006-1.375.108-2.047.076-.5.03-1,.113-1.48a11.263,11.263,0,0,1,.122-1.306c.136-.444-.051-.917.2-1.33.017-.027,0-.074,0-.111a11.176,11.176,0,0,1,.128-1.478c.082-.385.027-.777.115-1.14.1-.423.012-.856.112-1.254a8.562,8.562,0,0,0,.091-1.881c.013-.4.218-.794.114-1.2-.162-.623-.018-1.264-.127-1.875-.112-.632-.166-1.272-.294-1.9C1,6.606.779,5.875.666,5.117A7.324,7.324,0,0,1,.449,3.851c-.2-.234-.031-.546-.155-.784C.161,2.813.26,2.556.224,2.3.2,2.128.081,1.98.1,1.784A1.37,1.37,0,0,0,.019,1.26,1.9,1.9,0,0,1,.093.546,1.193,1.193,0,0,1,.8.031a.606.606,0,0,1,.507.058.988.988,0,0,1,.619.932c-.005.754.029,1.51-.011,2.262A7.817,7.817,0,0,0,2.061,4.93a5.954,5.954,0,0,0,.3,1.341,5.609,5.609,0,0,1,.109.743A6.86,6.86,0,0,1,2.6,8.433q.028,1.1,0,2.206c-.021.833-.031,1.671-.129,2.5a4.255,4.255,0,0,1-.116,1.021c-.16.405.048.846-.2,1.218-.017.026,0,.074,0,.111a10.413,10.413,0,0,1-.13,1.42c-.06.272-.03.553-.111.8a7.768,7.768,0,0,0-.107.8c-.125.549-.131,1.112-.232,1.659-.057.308-.039.624-.115.913-.082.31-.023.632-.113.914-.122.384,0,.788-.124,1.136-.142.393,0,.781-.095,1.149-.158.6-.013,1.227-.122,1.819-.151.818.011,1.641-.112,2.443A26.494,26.494,0,0,0,.8,31.953C.768,33.084.789,34.216.789,35.347c0,.516-.161,1.014-.122,1.538s.008,1.045.008,1.573" transform="translate(49.052 48.455)" fill="#fff"/>
  <path id="Fill_39" data-name="Fill 39" d="M1.333,9.637H0V.263H1.206V1.686A3.186,3.186,0,0,1,3.246.206,4.506,4.506,0,0,1,4.131.025a4.736,4.736,0,0,1,.961,0,3.779,3.779,0,0,1,2.52,1.137A3.721,3.721,0,0,1,8.49,3a8.071,8.071,0,0,1,.087,1.484c.013,1.564,0,3.128,0,4.693v.449H7.223V9.072c0-1.64.035-3.281-.015-4.919A2.941,2.941,0,0,0,6.3,1.993a2.349,2.349,0,0,0-1.553-.616,3.813,3.813,0,0,1-.565-.006,4.094,4.094,0,0,0-1.321.236.467.467,0,0,0-.18.11A2.976,2.976,0,0,0,1.449,3.439a4.809,4.809,0,0,0-.123,1.14c.015,1.507.006,3.015.006,4.523Z" transform="translate(122.931 19.11)" fill="#fff"/>
  <path id="Fill_41" data-name="Fill 41" d="M1.384,9.624H.083C0,9.134-.033,2.122.044.249H1.255V1.7c.167-.248.278-.35.379-.5a1.866,1.866,0,0,1,.7-.6A5.172,5.172,0,0,1,3.713.09,5.681,5.681,0,0,1,5.141.016,3.843,3.843,0,0,1,7.629,1.1a3.343,3.343,0,0,1,.777,1.43,4.582,4.582,0,0,1,.235,1.433c-.018,1.753-.007,3.506-.007,5.259v.392H7.275V9.057c0-1.64.034-3.281-.015-4.92a2.932,2.932,0,0,0-.909-2.16A2.339,2.339,0,0,0,4.8,1.362a4.025,4.025,0,0,1-.565-.006,2.419,2.419,0,0,0-1.312.255,2.121,2.121,0,0,0-1.086,1.04,3.347,3.347,0,0,0-.326.6A4.449,4.449,0,0,0,1.39,4.274c-.011,1.77-.005,3.54-.005,5.35" transform="translate(173.74 19.124)" fill="#fff"/>
  <path id="Fill_43" data-name="Fill 43" d="M4.391,7.416c.419-1.057.825-2.039,1.2-3.034.228-.6.489-1.192.725-1.792.288-.73.627-1.438.855-2.192A1.783,1.783,0,0,1,7.418,0H8.87c-.005.1.022.211-.018.277A15.606,15.606,0,0,0,8.061,2.1c-.207.46-.4.929-.561,1.409a9.212,9.212,0,0,1-.377.861c-.453.982-.838,1.993-1.251,2.99-.379.917-.765,1.833-1.121,2.761-.229.6-.47,1.2-.753,1.781a5.6,5.6,0,0,0-.346.875.8.8,0,0,1-.139.21H2.086c-.006-.068-.031-.13-.013-.174q.773-1.8,1.554-3.6L0,.012H1.513C2,1.232,2.495,2.46,2.975,3.694,3.447,4.91,3.9,6.131,4.391,7.416" transform="translate(240.793 19.368)" fill="#fff"/>
  <path id="Fill_45" data-name="Fill 45" d="M3.494,13.019H2.1c-.147-.244.031-.467.115-.647.43-.916.795-1.858,1.2-2.782a.776.776,0,0,1,.1-.137,2,2,0,0,0-.206-.915c-.367-1-.829-1.958-1.152-2.973-.137-.43-.336-.841-.5-1.26C1.251,3.286.8,2.285.466,1.236.367.923.2.633.064.329A1.713,1.713,0,0,1,0,.036,3.231,3.231,0,0,1,.726.005C.969,0,1.212,0,1.463,0c.391.985.78,1.954,1.159,2.928.234.6.45,1.208.683,1.809.22.569.451,1.132.678,1.7l.388.97L7.327.025H8.866C8.66.552,8.49,1.064,8.261,1.548c-.247.521-.433,1.065-.654,1.6-.134.322-.289.635-.416.959-.312.794-.63,1.588-.963,2.371-.245.575-.456,1.168-.748,1.727A7.8,7.8,0,0,0,4.9,9.655c-.093.324-.388.565-.353.93-.349.645-.589,1.339-.878,2.011-.055.128-.108.257-.177.423" transform="translate(145.314 19.351)" fill="#fff"/>
  <path id="Fill_47" data-name="Fill 47" d="M1.923,19.326h.591c.757.238,1.047.87,1.319,1.61a7.975,7.975,0,0,1,.134,1.157,3.455,3.455,0,0,1-.636,1.773.981.981,0,0,1-.3.223c-.2.115-.4.217-.629.34A5.317,5.317,0,0,1,0,24.134l.23-.167a2.617,2.617,0,0,1,.822.139,1.547,1.547,0,0,0,1.2-.06c.1-.027.2-.067.342-.115l.626-.625A2.639,2.639,0,0,0,3.5,21.819a6.1,6.1,0,0,0-.364-1.092,1.675,1.675,0,0,0-.612-.817c-.278-.122-.534.113-.78.251a.334.334,0,0,1-.5-.092,12.339,12.339,0,0,1,.018-1.71c.067-.477.029-.96.113-1.423.07-.384.025-.776.112-1.14a7.856,7.856,0,0,0,.1-1.2A4.389,4.389,0,0,0,1.7,13.85a1.034,1.034,0,0,1,.106-.745c.009-.012,0-.037,0-.056a15.455,15.455,0,0,1,.111-1.933c.011-.64.007-1.282,0-1.922a6.067,6.067,0,0,1-.118-.8,1.891,1.891,0,0,0-.089-.749c-.079-.268-.051-.566-.118-.856-.186-.809-.357-1.622-.54-2.433C.876,3.562.555,2.808.45,2A2.349,2.349,0,0,1,.224.626L.872,0H1.884l.605.6c0,.149-.006.316,0,.483.035.776.039,1.557.13,2.327a6.707,6.707,0,0,0,.111.912c.082.309.03.628.113.914.107.366.024.74.11,1.086a9.32,9.32,0,0,1,.1,2.049,13.975,13.975,0,0,1-.014,2.033c-.06.515-.025,1.036-.116,1.535a4.943,4.943,0,0,1-.111.967c-.17.4.047.846-.207,1.215.086.392-.127.753-.12,1.14a4.183,4.183,0,0,1-.1.632,3.2,3.2,0,0,1-.093.582c-.092.281-.041.6-.122.911-.118.447-.091.924-.231,1.376a1.989,1.989,0,0,0-.008.56" transform="translate(40.669 64.419)" fill="#fff"/>
  <path id="Fill_49" data-name="Fill 49" d="M.59.509A1.236,1.236,0,0,1,1.981.032a1.31,1.31,0,0,1,.73.8,5.631,5.631,0,0,1-.3,1.81c-.116.428-.182.87-.261,1.308a1.812,1.812,0,0,0-.115.745c-.254.175.028.524-.227.7.032.532-.238,1.017-.233,1.547a4.025,4.025,0,0,1-.1.519c-.02.161.025.333-.117.462.082.392-.118.755-.12,1.141a5.75,5.75,0,0,1-.107.8c-.037.249.1.522-.11.748-.018.02-.006.074,0,.11.087.708-.147,1.4-.119,2.1s-.051,1.4.025,2.091c.051.458.04.92.114,1.367a3.6,3.6,0,0,1,.09.692,4.375,4.375,0,0,0,.135.63,9.134,9.134,0,0,0,.323,1.332,11.311,11.311,0,0,0,.388,1.311c.174.427.211.886.382,1.313a7.251,7.251,0,0,1,.127,2.206,3.959,3.959,0,0,1-.347.987,2.744,2.744,0,0,0-.43,1.685c.034.277-.18.47-.125.723l-.155.011c-.023-.026-.064-.052-.065-.079a7.866,7.866,0,0,1,0-.961,4.589,4.589,0,0,1,.416-1.579,8.834,8.834,0,0,0,.348-.932.651.651,0,0,0,.017-.385c-.239-.809-.374-1.643-.638-2.45-.178-.546-.333-1.109-.491-1.666-.114-.4-.247-.8-.37-1.205C.573,17.7.5,17.484.448,17.262S.37,16.8.332,16.574s-.084-.458-.111-.689.038-.468-.106-.695c-.06-.094-.01-.258-.01-.39a9.881,9.881,0,0,0-.024-1.806A10.712,10.712,0,0,1,0,11.226c-.008-.341.082-.684.1-1.028a5.127,5.127,0,0,1,.022-1.07c.13-.463.015-.927.109-1.37s.022-.89.117-1.31c.117-.518.008-1.041.11-1.539A15.075,15.075,0,0,0,.552,2.349a1.534,1.534,0,0,0-.094-.865.886.886,0,0,1-.007-.5A3.263,3.263,0,0,1,.59.509" transform="translate(58.572 60.089)" fill="#fff"/>
  <path id="Fill_51" data-name="Fill 51" d="M.036.458.613,0h.623l.589.485c0,1.168-.014,2.3,0,3.43.014.852.03,1.708.127,2.552.044.382.034.772.111,1.139.07.328.054.654.107.973s.059.656.122.969.031.626.11.914c.085.31.03.628.114.914s.015.6.116.855a5.326,5.326,0,0,1,.1.864c.123.492.132,1,.24,1.487a5.976,5.976,0,0,0,.111.8c.1.257.029.518.106.748.19.565.139,1.165.317,1.733a6.327,6.327,0,0,1,.128,1.08c.023.175.077.345.11.519s-.074.374.11.523c.028.022,0,.108,0,.165a1.713,1.713,0,0,0,.1.694c.081.187.028.413.1.634.1.278.049.6.12.91A7.757,7.757,0,0,1,4.314,23.7c.01.183.151.319.127.52-.02.17-.088.378.1.519.009.007,0,.037,0,.055a8.708,8.708,0,0,0,.122,1.367,5.246,5.246,0,0,0,.1.8c.034.249-.087.521.113.746.009.01,0,.037,0,.055-.082.745.149,1.471.12,2.216S5,31.478,5,32.237l-.177.017a.336.336,0,0,1-.048-.1c-.006-.094,0-.188,0-.283-.037-.851-.08-1.7-.109-2.555-.008-.219-.153-.4-.129-.633a1.108,1.108,0,0,0-.082-.7c-.095-.174.036-.459-.029-.665-.18-.566-.111-1.171-.318-1.733-.09-.245-.008-.526-.106-.8A5.348,5.348,0,0,1,3.862,23.7c-.023-.175-.074-.346-.11-.519-.033-.157.016-.308-.077-.479-.124-.228.034-.544-.15-.784a9.129,9.129,0,0,0-.251-1.712,8.384,8.384,0,0,0-.3-1.508,3.993,3.993,0,0,1-.107-.743c-.081-.533-.176-1.068-.27-1.6a9.431,9.431,0,0,0-.3-1.508,5.045,5.045,0,0,1-.127-.966,2.777,2.777,0,0,0-.116-.574c-.179-.487-.086-1.032-.335-1.5a2.616,2.616,0,0,0-.11-.858c-.053-.3.007-.662-.139-.9-.17-.277.068-.609-.2-.826a2.95,2.95,0,0,0-.11-.858C1,7.785.985,7.173.816,6.586A7.241,7.241,0,0,1,.69,5.561C.667,5.386.61,5.216.582,5.042.556,4.884.638,4.7.47,4.575c-.027-.021,0-.108,0-.164a1.721,1.721,0,0,0-.1-.694C.285,3.529.344,3.3.261,3.082a5.96,5.96,0,0,1-.116-.854A5.178,5.178,0,0,1,.036.458" transform="translate(42.352 55.46)" fill="#fff"/>
  <path id="Fill_53" data-name="Fill 53" d="M0,12.768H1.434V0H0Z" transform="translate(226.911 15.969)" fill="#fff"/>
  <path id="Fill_55" data-name="Fill 55" d="M0,0H1.438V12.768c-.218,0-.457.008-.695.01s-.485,0-.744,0Z" transform="translate(222.831 15.97)" fill="#fff"/>
  <path id="Fill_56" data-name="Fill 56" d="M1.043,0h.432a2.139,2.139,0,0,0,.2.425,5.279,5.279,0,0,0,.681.79A4.521,4.521,0,0,1,3.427,3.036c.079.19.179.379.242.578a2.534,2.534,0,0,1,.111.461,2.944,2.944,0,0,1,0,.4c.332.585.628,1.085.9,1.6A6,6,0,0,0,5,6.793c.169.233.055.541.26.744A7.19,7.19,0,0,1,5.14,9.524a10.722,10.722,0,0,1-.563,1.463,14.645,14.645,0,0,1-.689,1.351c-.394.607-.7,1.265-1.1,1.868a4.608,4.608,0,0,0-.467,1.215,7.053,7.053,0,0,0-.158.86h-.3c.02-.131.039-.26.059-.389a6.107,6.107,0,0,1,.452-1.749q.54-1.305,1.172-2.569c.15-.3.258-.65.381-.972a7.955,7.955,0,0,0,.288-.95,3.445,3.445,0,0,0,.134-.907A3.522,3.522,0,0,0,3.82,7.1a3.3,3.3,0,0,0-1.2-1.051.982.982,0,0,1-.532-.971c.007-.112,0-.226,0-.377C1.65,4.323,1.9,3.855,2.01,3.422a1.766,1.766,0,0,0-.317-1.616c-.2-.247-.372-.524-.571-.809-.17.559-.649.842-1.027,1.29L0,1.948A7.714,7.714,0,0,0,1.043,0" transform="translate(63.049 39.051)" fill="#fff"/>
  <path id="Fill_57" data-name="Fill 57" d="M0,.247H1.347V1.584A3.382,3.382,0,0,1,4.272,0V1.342a5.812,5.812,0,0,0-.988.153,2.726,2.726,0,0,0-.876.467A2.6,2.6,0,0,0,1.46,4.048c-.006,1.844,0,3.688,0,5.558H0Z" transform="translate(105.475 19.117)" fill="#fff"/>
  <path id="Fill_58" data-name="Fill 58" d="M1.242,17.723l-.259.218C.773,17.333.308,16.913.192,16.31a1.881,1.881,0,0,1-.071-.252Q.057,14.612.005,13.165C0,12.977.013,12.788,0,12.6c-.025-.425.168-.822.125-1.255a4.48,4.48,0,0,1,.008-1.3C.219,9.627.168,9.2.248,8.8c.061-.308.047-.618.109-.915S.407,7.3.473,7.024C.6,6.506.662,5.978.8,5.465A14.24,14.24,0,0,1,1.26,3.96,4.06,4.06,0,0,1,1.8,2.991c.281-.374.623-.682.93-1.026.231-.258.442-.535.686-.833l-.124-.2.176-.5L3.974,0c.8-.017.856.011,1.24.612v.677a6.69,6.69,0,0,1-1,1.339Q3.669,3.079,3.1,3.5a3.05,3.05,0,0,0-.717.835,7.556,7.556,0,0,0-.742,1.671,10.711,10.711,0,0,0-.278,1.129c-.153.662-.255,1.333-.363,2A6.642,6.642,0,0,1,.9,10a3,3,0,0,0-.1.862c0,.235-.158.435-.125.69.027.2.087.445-.1.633-.019.019,0,.073,0,.11a32.567,32.567,0,0,0-.1,3.345,2.01,2.01,0,0,0,.393,1.253,3.129,3.129,0,0,1,.38.834" transform="translate(64.903 68.256)" fill="#fff"/>
  <path id="Fill_59" data-name="Fill 59" d="M0,0H1.438V9.372c-.218,0-.457.009-.7.01s-.484,0-.743,0Z" transform="translate(169.591 19.365)" fill="#fff"/>
  <path id="Fill_60" data-name="Fill 60" d="M.809,2.509C.3,2.416.043,2.1,0,1.473A6.8,6.8,0,0,0,.559.8,6.648,6.648,0,0,0,.937,0c.068.068.148.11.152.156a1.784,1.784,0,0,0,.3.724,3,3,0,0,0,.539.559.979.979,0,0,1-.654,1.073,3.6,3.6,0,0,0,.859,1.27c.4.485.858.923,1.269,1.4a4.177,4.177,0,0,1,.776,1.652c.132.472.3.938.388,1.424a4.343,4.343,0,0,0,.165.536c-.127.334-.107.76-.516.961-.249-.02-.485.245-.8.02-.215-.153-.485-.215-.566-.7A9.5,9.5,0,0,1,2.92,8.014a6,6,0,0,0,.009-1.744,2.336,2.336,0,0,0-.605-1.158,8,8,0,0,1-1-1.449C1.144,3.306,1,2.933.809,2.509" transform="translate(57.545 46.72)" fill="#fff"/>
  <path id="Fill_61" data-name="Fill 61" d="M2.273.553A3.078,3.078,0,0,1,2.109,1.71c-.081.4-.171.8-.267,1.192-.063.261-.005.581-.137.789-.161.254-.026.527-.183.781-.1.166-.063.447-.128.677-.077.275-.01.612-.143.845-.144.255.026.561-.206.766A7.882,7.882,0,0,1,.792,8.3a10.89,10.89,0,0,1-.3,1.509,6.847,6.847,0,0,0-.13,1.137c-.034.265-.092.527-.141.8h-.2a10.893,10.893,0,0,1,.023-1.74,10.9,10.9,0,0,0,.09-1.2c.011-.216.154-.4.121-.633a.628.628,0,0,1,.1-.577c.019-.019,0-.073,0-.111A14.914,14.914,0,0,1,.489,5.781,29.005,29.005,0,0,0,.6,2.6a5.89,5.89,0,0,0-.129-.746,2.083,2.083,0,0,0-.081-.7A.943.943,0,0,1,.654.211C.719.142.787.077.864,0h.942l.467.553" transform="translate(62.277 69.165)" fill="#fff"/>
  <path id="Fill_62" data-name="Fill 62" d="M.014.168.183,0H.639C.993.315,1.364.621,1.7.959a10.611,10.611,0,0,1,.9.977,4.841,4.841,0,0,0,1.112.989c.221.149.37.357.591.5v.914L4,4.758a1.377,1.377,0,0,1-1.2-.017c-.315-.581-.63-1.128-.91-1.691A11.753,11.753,0,0,0,.855,1.491c.012,0,0,0-.014,0s-.032.028-.032.042c0,1.055,0,2.11,0,3.178l-.26.177C.508,4.837.476,4.81.47,4.78a1.446,1.446,0,0,1,0-.17A21.312,21.312,0,0,0,.335,2.341,9.627,9.627,0,0,0,.02.552,1.176,1.176,0,0,1,.014.168" transform="translate(60.475 39.616)" fill="#fff"/>
  <path id="Fill_63" data-name="Fill 63" d="M1.467,0V1.773H.018A8.056,8.056,0,0,1,.006.914C0,.615,0,.317,0,0Z" transform="translate(169.57 15.978)" fill="#fff"/>
</svg>
