<svg xmlns="http://www.w3.org/2000/svg" width="117.359" height="55" viewBox="0 0 117.359 55">
  <g id="Group_3" data-name="Group 3" transform="translate(0)">
    <g id="Group_2" data-name="Group 2" transform="translate(62.831 22.121)">
      <g id="Group" transform="translate(-7.57 8.143)">
        <path id="Path" d="M-12.488,0h1.022a7.823,7.823,0,0,1,6.48,3.44A3.947,3.947,0,0,0-1.717,5.175,1.717,1.717,0,0,1,0,6.892V8.668a4.5,4.5,0,0,1-4.5,4.5h-7.594Z" transform="translate(-5.168)" fill="#fdb813"/>
        <path id="Path-2" data-name="Path" d="M-3.919,11.786A3.919,3.919,0,0,0,0,7.867V0H-2.118a5.72,5.72,0,0,0-5.72,5.72V7.867a3.919,3.919,0,0,0,3.919,3.919Z" transform="translate(-16.619)" fill="#db9b00"/>
        <path id="Path-3" data-name="Path" d="M-50.722,2.939A9.678,9.678,0,0,1-39.5,1l7.479,3.684a20.363,20.363,0,0,0,7.564,2.045l5.989,3.327A24.6,24.6,0,0,0-6.712,14.237l3.406.292A3.659,3.659,0,0,1-.593,20.171a3.529,3.529,0,0,1-2.928,1.617l-6.326-.023-4.14.005a48.567,48.567,0,0,1-25.665-7.3l1.018-1.459-2.09,1.811,1.349.157a3.413,3.413,0,0,1,3.017,3.39,3.413,3.413,0,0,1-3.413,3.413h-1.574A12.108,12.108,0,0,1-53.453,9.678a9.676,9.676,0,0,1,2.731-6.739Z" transform="translate(0 1.141)" fill="#fdb813"/>
      </g>
      <g id="Group-2" data-name="Group">
        <g id="Group-3" data-name="Group">
          <g id="Group-4" data-name="Group" transform="translate(-5.802)">
            <path id="Shape" d="M-5.284,32.879A5.315,5.315,0,0,0-.843,30.434a5.773,5.773,0,0,0,.756-1.747c.285.754-.364-3.542-.364-3.542-.017-.037-.031-.074-.049-.111a5.4,5.4,0,0,0-4.42-3.024l-2.645-.226a6.3,6.3,0,0,0,2.436-4.974V15.035a3.528,3.528,0,0,0-3.524-3.523,2.137,2.137,0,0,1-1.772-.941,9.619,9.619,0,0,0-7.939-4.233l-2.141,0a7.536,7.536,0,0,0-7.528,7.528v.1a18.5,18.5,0,0,1-4.957-1.625l-7.479-3.685a11.45,11.45,0,0,0-11.4.715A7.539,7.539,0,0,1-51.722,6.8a5.218,5.218,0,0,1,2.291-3.41,1.808,1.808,0,0,0,.7-2.458,1.808,1.808,0,0,0-2.458-.7,8.624,8.624,0,0,0-4.055,5.744,10.169,10.169,0,0,0,.412,6.228,11.419,11.419,0,0,0-2.2,6.762A13.931,13.931,0,0,0-43.114,32.877h1.574a5.23,5.23,0,0,0,5.157-4.405,50.317,50.317,0,0,0,20.563,4.389l10.523.018Z" fill="#1c1c20"/>
          </g>
        </g>
      </g>
    </g>
    <g id="hearts" transform="translate(57.203)">
      <g id="Group-5" data-name="Group" transform="translate(1.974 1.975)">
        <path id="Path-4" data-name="Path" d="M13.654,50.787c17.393-1.6,26.623-3.145,33.812-7.369C63.994,33.707,56.03,5.911,32.534,14.206,25.685-9.751-1.586-.141.073,18.957.8,27.265,4.88,35.685,13.654,50.787Z" fill="#d50032"/>
      </g>
      <g id="Group-6" data-name="Group">
        <path id="Shape-2" data-name="Shape" d="M13.92,53.753C5.154,38.665.847,29.93.079,21.1A19.329,19.329,0,0,1,5.045,6.176,18.688,18.688,0,0,1,18.719,0C26.434,0,32.7,5.08,35.786,13.7a25.351,25.351,0,0,1,6.907-1.021A17.385,17.385,0,0,1,53.767,16.4,17.125,17.125,0,0,1,59.5,25.326,19.228,19.228,0,0,1,50.441,47.1c-7.639,4.488-17.254,6.037-34.632,7.632a1.739,1.739,0,0,1-.181.009A1.975,1.975,0,0,1,13.92,53.753Z" fill="#1c1c20"/>
        <path id="Path-5" data-name="Path" d="M3.767,1.144A1.975,1.975,0,1,0,.184,2.807c.092.2.186.4.281.6A1.975,1.975,0,0,0,4.031,1.7C3.942,1.517,3.853,1.33,3.767,1.144Z" transform="translate(12.47 31.311)" fill="#1c1c20"/>
        <path id="Path-6" data-name="Path" d="M2.19,20.71a1.975,1.975,0,1,0,3.7-1.379,29.89,29.89,0,0,1-1.913-7.6A7.57,7.57,0,0,1,5.792,6.109a6.14,6.14,0,0,1,4.4-2.161A1.975,1.975,0,1,0,10.011,0,10.115,10.115,0,0,0,2.82,3.507,11.54,11.54,0,0,0,.043,12.075,33.249,33.249,0,0,0,2.19,20.71Z" transform="translate(8.308 8.31)" fill="#1c1c20"/>
      </g>
    </g>
  </g>
</svg>
