<svg xmlns="http://www.w3.org/2000/svg" width="138.52" height="85" viewBox="0 0 138.52 85">
  <g id="Group_4" data-name="Group 4" transform="translate(0)">
    <g id="heart_1_" data-name="heart (1)" transform="translate(39.269)">
      <path id="Path" d="M67.753,0A27.224,27.224,0,0,0,47.687,8.863,27.224,27.224,0,0,0,27.622,0C12.367,0,0,12.684,0,28.331,0,50.249,47.687,80.648,47.687,80.648s47.687-30.4,47.687-52.316C95.374,12.684,83.008,0,67.753,0Z" transform="translate(1.939 1.938)" fill="#d50032"/>
      <path id="Shape" d="M48.584,84.221a233.108,233.108,0,0,1-24.071-18.11C8.247,52.006,0,39.947,0,30.27,0,13.579,13.261,0,29.56,0A28.882,28.882,0,0,1,49.626,8.041,28.878,28.878,0,0,1,69.692,0c16.3,0,29.56,13.579,29.56,30.27,0,9.677-8.247,21.736-24.511,35.842a233.483,233.483,0,0,1-24.071,18.11,1.942,1.942,0,0,1-2.084,0Z" fill="#1c1c20"/>
      <path id="Shape-2" data-name="Shape" d="M19.31,19A15.356,15.356,0,0,0,8.788,4.257,1.938,1.938,0,1,1,9.925.551a18.652,18.652,0,0,1,9.519,6.857A19.561,19.561,0,0,1,23.188,19a1.939,1.939,0,0,1-3.877,0ZM.031,2.287A1.938,1.938,0,0,1,1.6.04L1.673.027A1.938,1.938,0,0,1,2.317,3.85l-.039.006a1.915,1.915,0,0,1-.341.031A1.938,1.938,0,0,1,.031,2.287Z" transform="translate(65.667 10.697)" fill="#1c1c20"/>
    </g>
    <g id="dog-training" transform="translate(51.117 6.458)">
      <path id="Path-2" data-name="Path" d="M-37.821,35.35l6.383-18.539L-32.452,6.343l.661-.826a8.656,8.656,0,0,1,7.4-3.213A4.3,4.3,0,0,0-20.721.7,1.87,1.87,0,0,1-18.093.41l1.511,1.209a4.9,4.9,0,0,1,.766,6.887l-3.627,4.535,2.175,6.708a26.8,26.8,0,0,0,7.952-3.978l3.008-2.2A3.961,3.961,0,0,1-.053,16.22l.015.105A3.752,3.752,0,0,1-1.3,19.695L-4,22.032A36.432,36.432,0,0,1-17.854,28.6l.053.05-4.351,12.041a16.643,16.643,0,0,1,2.533,13.82l-1.171,4.5a3.777,3.777,0,0,1-3.655,2.826,3.777,3.777,0,0,1-3.777-3.777V50.314l-2.1-.6a11.16,11.16,0,0,1-4.234-2.283A11.16,11.16,0,0,1-37.821,35.35Z" transform="translate(-1.886 14.813)" fill="#fdb813"/>
      <g id="Group" transform="translate(-24.966 20.274)">
        <path id="Path-3" data-name="Path" d="M-.935,11.647a4.269,4.269,0,0,0-.667-6L-8.667,0l-1.441,1.8a6.23,6.23,0,0,0,.974,8.757l1.826,1.461C-5.466,13.492-2.408,13.488-.935,11.647Z" transform="translate(0 0)" fill="#fff"/>
        <path id="Path-4" data-name="Path" d="M-.935,11.647a4.269,4.269,0,0,0-.667-6L-8.667,0l-1.441,1.8a6.23,6.23,0,0,0,.974,8.757l1.826,1.461C-5.466,13.492-2.408,13.488-.935,11.647Z" transform="translate(0 0)" fill="#fff"/>
      </g>
      <path id="Path-5" data-name="Path" d="M-.935,11.647a4.269,4.269,0,0,0-.667-6L-8.667,0l-1.441,1.8a6.23,6.23,0,0,0,.974,8.757l1.826,1.461C-5.466,13.492-2.408,13.488-.935,11.647Z" transform="translate(-24.966 20.274)" fill="#db9b00"/>
      <g id="Group-2" data-name="Group">
        <g id="Group-3" data-name="Group">
          <path id="Shape-3" data-name="Shape" d="M-20.845,61.378l1.171-4.5a18.486,18.486,0,0,0-2.259-14.553l3.7-10.231a34.631,34.631,0,0,0,5.519-1.948,35.928,35.928,0,0,0,8.073-4.791l2.7-2.337A5.713,5.713,0,0,0-.059,17.893a5.9,5.9,0,0,0-3.533-4.622,5.8,5.8,0,0,0-5.72.666l-3.008,2.2a24.854,24.854,0,0,1-5.632,3.086l-1.265-3.9,2.992-3.74a6.748,6.748,0,0,0,1.446-4.993A6.751,6.751,0,0,0-17.286,2.03L-18.8.823a3.767,3.767,0,0,0-5.288.588,2.4,2.4,0,0,1-2.055.9,10.546,10.546,0,0,0-8.894,3.776c-.026.028-1.517,1.887-1.517,1.887A8.13,8.13,0,0,0-35.5,19.2l-6,17.42a13.014,13.014,0,0,0-.047,8.4,9.138,9.138,0,0,1-2.834-1.22,6.4,6.4,0,0,1-2.981-4.072,1.89,1.89,0,0,0-2.173-1.562,1.891,1.891,0,0,0-1.562,2.173,9.95,9.95,0,0,0,4.655,6.635,12.027,12.027,0,0,0,6.37,2.01c.222,0,.442-.011.659-.028a13.248,13.248,0,0,0,1.728,1.8,13.15,13.15,0,0,0,4.953,2.669l.726.207v6.317a5.676,5.676,0,0,0,5.669,5.669A5.671,5.671,0,0,0-20.845,61.378Z" transform="translate(0 12.922)" fill="#1c1c20"/>
          <path id="Path-6" data-name="Path" d="M-7.746,1.965A1.965,1.965,0,0,1-5.781,0h3.817A1.965,1.965,0,0,1,0,1.965,1.965,1.965,0,0,1-1.965,3.929H-5.781A1.965,1.965,0,0,1-7.746,1.965Z" transform="translate(-26.047 0.615) rotate(-99)" fill="#1c1c20"/>
          <path id="Path-7" data-name="Path" d="M-3.326.548A1.965,1.965,0,0,1-.549.6,1.964,1.964,0,0,1-.6,3.381L-2.4,5.11a1.958,1.958,0,0,1-1.361.548,1.959,1.959,0,0,1-1.416-.6,1.964,1.964,0,0,1,.054-2.778Z" transform="translate(-34.851 5.873) rotate(-99)" fill="#1c1c20"/>
          <path id="Path-8" data-name="Path" d="M-2.4.549l1.8,1.73A1.964,1.964,0,0,1-.549,5.056a1.959,1.959,0,0,1-1.416.6A1.958,1.958,0,0,1-3.326,5.11l-1.8-1.73A1.964,1.964,0,0,1-5.179.6,1.965,1.965,0,0,1-2.4.549Z" transform="translate(-17.757 3.166) rotate(-99)" fill="#1c1c20"/>
        </g>
      </g>
    </g>
  </g>
</svg>
