<svg id="Group_6" data-name="Group 6" xmlns="http://www.w3.org/2000/svg" width="64.02" height="45" viewBox="0 0 64.02 45">
  <g id="playing_1_" data-name="playing (1)" transform="translate(7.893 14.486)">
    <path id="Path" d="M43.874,12.1l-.815-1.35,1.276-4.223-1.17-4.232a3.127,3.127,0,1,0-5.972,1.846l.578,1.688-1.638,1.65c-1.641,1.654-2.3,5.173-1.723,7.431a18.656,18.656,0,0,0-8.464-3.21,17.654,17.654,0,0,0-2.589-.12l-2.03-6.291a3.283,3.283,0,0,0-6.321,1.754l1.432,6.141A19.73,19.73,0,0,0,12.9,15.245L8.059,9.031A4.37,4.37,0,0,0,1.9,8.542L.585,9.662A1.668,1.668,0,0,0,.4,12.013a3.834,3.834,0,0,1,.778,3.51,6.794,6.794,0,0,0,0,3.952l6.956,7.583H38.041a7.821,7.821,0,0,0,7.821-7.821A13.813,13.813,0,0,0,43.874,12.1Z" transform="translate(1.728 1.728)" fill="#fdb813"/>
    <path id="Path-2" data-name="Path" d="M10.393,3.456A3.456,3.456,0,0,0,6.937,0H0V1.868A5.044,5.044,0,0,0,5.044,6.912H6.937A3.456,3.456,0,0,0,10.393,3.456Z" transform="translate(2.927 21.875)" fill="#db9b00"/>
    <g id="Group">
      <path id="Shape" d="M7.97,30.515A6.78,6.78,0,0,1,1.2,23.742s.01-2.056.025-2.147a8.49,8.49,0,0,1,.016-4.8,2.106,2.106,0,0,0-.428-1.929,3.394,3.394,0,0,1,.38-4.786l1.313-1.12a6.1,6.1,0,0,1,8.6.682c.016.02.032.039.048.059L15,14.64q.575-.356,1.168-.674l-1.12-4.8A5.011,5.011,0,0,1,24.7,6.485l1.648,5.1c.513.021,1.026.059,1.535.121a20.869,20.869,0,0,1,6.4,1.848,9.519,9.519,0,0,1,2.353-5.57l.882-.888-.23-.673A4.854,4.854,0,1,1,46.56,3.561l1.17,4.233a1.73,1.73,0,0,1-.012.959l-1.054,3.488.418.692a15.547,15.547,0,0,1,2.236,8.032,9.52,9.52,0,0,1-.312,2.423,6.894,6.894,0,0,0,1.639-.878,4.718,4.718,0,0,0,2.036-3.1,1.728,1.728,0,1,1,3.436.373A7.986,7.986,0,0,1,52.681,25.3,9.443,9.443,0,0,1,47.3,27.189c-.1,0-.194,0-.292-.007a9.526,9.526,0,0,1-7.239,3.333Z" fill="#1c1c20"/>
    </g>
  </g>
  <path id="Path-3" data-name="Path" d="M15.239,0a5.958,5.958,0,0,0-4.513,2.126A5.958,5.958,0,0,0,6.212,0C2.781,0,0,3.043,0,6.8c0,5.259,10.726,12.552,10.726,12.552S21.451,12.055,21.451,6.8C21.451,3.043,18.67,0,15.239,0Z" transform="translate(2.296 11.362) rotate(-25)" fill="#d50032"/>
  <path id="Shape-2" data-name="Shape" d="M11.482,22.505a53.247,53.247,0,0,1-5.565-4.465C1.936,14.358,0,11.245,0,8.525,0,3.824,3.562,0,7.94,0a7.6,7.6,0,0,1,4.514,1.512A7.6,7.6,0,0,1,16.967,0c4.378,0,7.94,3.824,7.94,8.525,0,2.72-1.935,5.833-5.917,9.516a53.2,53.2,0,0,1-5.566,4.465,1.727,1.727,0,0,1-1.942,0Z" transform="translate(0 10.526) rotate(-25)" fill="#1c1c20"/>
</svg>
