<svg xmlns="http://www.w3.org/2000/svg" width="59" height="59" viewBox="0 0 59 59"><g><g><g><g><path fill="#fdb813" d="M9.397 28.463L5.905 25c-2.447-2.476-3.795-5.73-3.795-9.19 0-2.21.57-4.395 1.647-6.323a12.988 12.988 0 0 1 4.524-4.715l3.793-2.332a2.226 2.226 0 1 1 2.332 3.794l-3.793 2.332a8.559 8.559 0 0 0-4.05 7.244c0 2.27.885 4.406 2.49 6.012l2.796 2.796z"/></g><g><path fill="#fdb813" d="M39.5 39.5c-1.149 0-2.2-.644-2.723-1.666L31.46 27.431c-2.92-5.714-9.819-8.12-15.659-5.432-5.966 2.687-8.649 9.688-6.025 15.696l7.705 17.647a2.576 2.576 0 0 0 4.888-1.533l-1.996-10.059 1.336 2.618 3.827 3.51a26.637 26.637 0 0 0 18.007 7.009h8.773a2.226 2.226 0 1 0 0-4.453h-4.87z"/></g><g><path fill="#fdb813" d="M55.18 40.153l.01.006c.17-.59.283-1.159.333-1.843A9.82 9.82 0 0 0 55.426 36c-.09-.5-.67-.818-1.177-.602-1.249.51-2.249 1.266-3.16 2.208a7.294 7.294 0 0 0-1.714-.199H47.12c-.587 0-1.121.07-1.705.197a9.374 9.374 0 0 0-3.157-2.206c-.508-.216-1.087.102-1.178.602-.081.78-.158 1.54-.081 2.316 0 .684.147 1.248.315 1.838a7.48 7.48 0 0 0-1.705 4.764c0 4.149 3.39 7.512 7.511 7.512h2.254a7.511 7.511 0 0 0 5.805-12.277z"/></g></g><g><path fill="#1c1c20" d="M3.227 15.814c0-2.02.52-4.018 1.505-5.814a12.048 12.048 0 0 1 4.135-4.275l3.793-2.332c.254-.156.552-.204.842-.135.289.07.498.247.69.5.155.242.203.552.134.841-.069.29-.246.535-.5.69L10 7.623c-2.792 1.736-4.547 4.875-4.547 8.192 0 2.568 1 4.983 2.817 6.8l2.18 2.18C10 25.39 9.57 26 9.21 26.702l-2.514-2.514C4.458 22 3.227 19 3.227 15.814zM47.12 51.32a6.405 6.405 0 0 1-6.398-6.398 6.4 6.4 0 0 1 1.452-4.059c.232-.282.311-.66.21-1.012a8.289 8.289 0 0 1-.254-3.287 8.097 8.097 0 0 1 2.474 1.806c.271.289.677.411 1.063.322.48-.112.969-.168 1.453-.168h2.254c.487 0 .98.057 1.462.17.387.09.792-.033 1.064-.322a8.087 8.087 0 0 1 2.476-1.808 8.278 8.278 0 0 1-.216 3.144c-.161.376-.161.824.16 1.155a6.4 6.4 0 0 1 1.452 4.059 6.405 6.405 0 0 1-6.398 6.398zM58 44.923a8.645 8.645 0 0 0-1.598-5 10.54 10.54 0 0 0 .122-4.057 1.956 1.956 0 0 0-.995-1.402 1.955 1.955 0 0 0-1.716-.086c-1.15.49-2.188 1.17-3.093 2.027a8.603 8.603 0 0 0-1.346-.107h-2.253a8.62 8.62 0 0 0-1.335.105 10.4 10.4 0 0 0-3.091-2.025 1.906 1.906 0 0 0-1.695.086 1.863 1.863 0 0 0-1 1.401 9.684 9.684 0 0 0-.127 2.52h-.375a1.9 1.9 0 0 1-1.732-1.06l-5.317-10.401c-.449-.8-.899-1.558-1.449-2.253a1.124 1.124 0 0 0-1.573-.17 1.113 1.113 0 0 0-.171 1.564c.463.578.87 1.207 1.21 1.872l5.317 10.402a4.154 4.154 0 0 0 3.714 2.273h.157a8.643 8.643 0 0 0-1.157 4.31c0 4.756 3.869 8.625 8.624 8.625h5.193c.614 0 1.113.453 1.113 1.113 0 .614-.5 1.114-1.113 1.114H43.54a25.45 25.45 0 0 1-17.254-6.715l-2.745-2.518a9.283 9.283 0 0 0 1.321-1.078c3.313-3.313 3.313-8.704 0-12.017a1.093 1.093 0 0 0-1.574 0c-.435.435-.435 1.14 0 1.554 2.445 2.466 2.445 6.443 0 8.888-.452.452-.97.83-1.532 1.112l-.293-1.466a1.113 1.113 0 0 0-1.31-.875c-.602.12-.994.705-.874 1.341l1.996 10c.085.457-.026.9-.275 1.239-.309.34-.72.535-1.16.535a1.463 1.463 0 0 1-1.341-.878l-7.705-17.647C8.428 31.832 10.88 25.432 16.26 23a10.947 10.947 0 0 1 5.08-1c.66 0 1.139-.421 1.171-1 .033-.65-.438-1.173-1.052-1.206A12.662 12.662 0 0 0 15.338 21C14.091 21.524 13 22.27 12 23.165L9.844 21c-1.396-1.357-2.164-3.212-2.164-5.186 0-2.549 1.32-4.961 3.52-6.296L15 7.186a3.292 3.292 0 0 0 1.492-2.07 3.317 3.317 0 0 0-.403-2.524A3.307 3.307 0 0 0 14 1.092c-.85-.207-1.746-.092-2.506.404L7.701 3.828C5.658 5.084 4 6.854 2.79 8.948 1.619 11 1 13.415 1 15.814c0 3.758 1.464 7.291 4.121 9.948l3.154 3.154c-.97 3.084-.807 6.282.478 9.224l7.705 17.647C17 57.13 18.373 58 19.84 58c1.108 0 2.16-.491 2.851-1.348a3.676 3.676 0 0 0 .768-3.06l-.996-5.02 2.318 2.127A27.683 27.683 0 0 0 43.541 58h8.773a3.344 3.344 0 0 0 3.34-3.34 3.292 3.292 0 0 0-1.34-2.66C56.54 50.426 58 47.842 58 44.923z"/><path fill="none" stroke="#1c1c20" stroke-miterlimit="50" stroke-width=".8" d="M3.227 15.814c0-2.02.52-4.018 1.505-5.814a12.048 12.048 0 0 1 4.135-4.275l3.793-2.332c.254-.156.552-.204.842-.135.289.07.498.247.69.5.155.242.203.552.134.841-.069.29-.246.535-.5.69L10 7.623c-2.792 1.736-4.547 4.875-4.547 8.192 0 2.568 1 4.983 2.817 6.8l2.18 2.18C10 25.39 9.57 26 9.21 26.702l-2.514-2.514C4.458 22 3.227 19 3.227 15.814zM47.12 51.32a6.405 6.405 0 0 1-6.398-6.398 6.4 6.4 0 0 1 1.452-4.059c.232-.282.311-.66.21-1.012a8.289 8.289 0 0 1-.254-3.287 8.097 8.097 0 0 1 2.474 1.806c.271.289.677.411 1.063.322.48-.112.969-.168 1.453-.168h2.254c.487 0 .98.057 1.462.17.387.09.792-.033 1.064-.322a8.087 8.087 0 0 1 2.476-1.808 8.278 8.278 0 0 1-.216 3.144c-.161.376-.161.824.16 1.155a6.4 6.4 0 0 1 1.452 4.059 6.405 6.405 0 0 1-6.398 6.398zM58 44.923a8.645 8.645 0 0 0-1.598-5 10.54 10.54 0 0 0 .122-4.057 1.956 1.956 0 0 0-.995-1.402 1.955 1.955 0 0 0-1.716-.086c-1.15.49-2.188 1.17-3.093 2.027a8.603 8.603 0 0 0-1.346-.107h-2.253a8.62 8.62 0 0 0-1.335.105 10.4 10.4 0 0 0-3.091-2.025 1.906 1.906 0 0 0-1.695.086 1.863 1.863 0 0 0-1 1.401 9.684 9.684 0 0 0-.127 2.52h-.375a1.9 1.9 0 0 1-1.732-1.06l-5.317-10.401c-.449-.8-.899-1.558-1.449-2.253a1.124 1.124 0 0 0-1.573-.17 1.113 1.113 0 0 0-.171 1.564c.463.578.87 1.207 1.21 1.872l5.317 10.402a4.154 4.154 0 0 0 3.714 2.273h.157a8.643 8.643 0 0 0-1.157 4.31c0 4.756 3.869 8.625 8.624 8.625h5.193c.614 0 1.113.453 1.113 1.113 0 .614-.5 1.114-1.113 1.114H43.54a25.45 25.45 0 0 1-17.254-6.715l-2.745-2.518a9.283 9.283 0 0 0 1.321-1.078c3.313-3.313 3.313-8.704 0-12.017a1.093 1.093 0 0 0-1.574 0c-.435.435-.435 1.14 0 1.554 2.445 2.466 2.445 6.443 0 8.888-.452.452-.97.83-1.532 1.112l-.293-1.466a1.113 1.113 0 0 0-1.31-.875c-.602.12-.994.705-.874 1.341l1.996 10c.085.457-.026.9-.275 1.239-.309.34-.72.535-1.16.535a1.463 1.463 0 0 1-1.341-.878l-7.705-17.647C8.428 31.832 10.88 25.432 16.26 23a10.947 10.947 0 0 1 5.08-1c.66 0 1.139-.421 1.171-1 .033-.65-.438-1.173-1.052-1.206A12.662 12.662 0 0 0 15.338 21C14.091 21.524 13 22.27 12 23.165L9.844 21c-1.396-1.357-2.164-3.212-2.164-5.186 0-2.549 1.32-4.961 3.52-6.296L15 7.186a3.292 3.292 0 0 0 1.492-2.07 3.317 3.317 0 0 0-.403-2.524A3.307 3.307 0 0 0 14 1.092c-.85-.207-1.746-.092-2.506.404L7.701 3.828C5.658 5.084 4 6.854 2.79 8.948 1.619 11 1 13.415 1 15.814c0 3.758 1.464 7.291 4.121 9.948l3.154 3.154c-.97 3.084-.807 6.282.478 9.224l7.705 17.647C17 57.13 18.373 58 19.84 58c1.108 0 2.16-.491 2.851-1.348a3.676 3.676 0 0 0 .768-3.06l-.996-5.02 2.318 2.127A27.683 27.683 0 0 0 43.541 58h8.773a3.344 3.344 0 0 0 3.34-3.34 3.292 3.292 0 0 0-1.34-2.66C56.54 50.426 58 47.842 58 44.923z"/></g><g><path fill="#1c1c20" d="M26.233 23.326c.293 0 .58-.118.767-.326.229-.207.346-.494.346-.787 0-.294-.117-.58-.346-.787a1.036 1.036 0 0 0-.767-.326 1.117 1.117 0 0 0-1.113 1.113c0 .293.12.58.326.787.207.207.494.326.787.326z"/></g><g><path fill="#1c1c20" d="M48.246 49.096c-.377 0-.732-.166-.974-.456l-.459-.55a1.273 1.273 0 0 1-.174-1.35c.208-.443.658-.74 1.148-.74h.918c.49 0 .94.296 1.148.74.208.443.147.973-.174 1.35l-.46.55c-.219.29-.596.456-.973.456z"/></g><g><path fill="#1c1c20" d="M45.113 44.797c-.293 0-.58-.12-.787-.327a1.081 1.081 0 0 1-.326-.787c0-.294.12-.58.326-.788.207-.207.494-.325.787-.325.293 0 .58.118.787.325.207.208.327.495.327.788 0 .317-.12.58-.327.787a1.122 1.122 0 0 1-.787.327z"/></g><g><path fill="#1c1c20" d="M51.383 44.797c-.293 0-.58-.12-.787-.327a1.081 1.081 0 0 1-.326-.787c0-.294.12-.58.326-.788.207-.207.494-.325.787-.325.293 0 .617.118.787.325.207.208.327.494.327.788 0 .317-.12.58-.327.787-.17.207-.494.327-.787.327z"/></g></g></g></svg>