<svg xmlns="http://www.w3.org/2000/svg" width="51.117" height="78.542" viewBox="0 0 51.117 78.542">
  <g id="dog-training" transform="translate(0)">
    <path id="Path" d="M37.821,35.35,31.439,16.811,32.452,6.343l-.661-.826a8.656,8.656,0,0,0-7.4-3.213A4.3,4.3,0,0,1,20.721.7,1.87,1.87,0,0,0,18.093.41L16.582,1.618a4.9,4.9,0,0,0-.766,6.887l3.627,4.535-2.175,6.708a26.8,26.8,0,0,1-7.952-3.978l-3.008-2.2A3.961,3.961,0,0,0,.053,16.22l-.015.105A3.752,3.752,0,0,0,1.3,19.695L4,22.032A36.432,36.432,0,0,0,17.854,28.6l-.053.05,4.351,12.041a16.643,16.643,0,0,0-2.533,13.82l1.171,4.5a3.777,3.777,0,0,0,7.433-.951V50.314l2.1-.6a11.159,11.159,0,0,0,7.5-14.366Z" transform="translate(1.886 14.813)" fill="#fdb813"/>
    <g id="Group" transform="translate(24.966 20.274)">
      <path id="Path-2" data-name="Path" d="M.935,11.647a4.269,4.269,0,0,1,.667-6L8.667,0l1.441,1.8a6.23,6.23,0,0,1-.974,8.757L7.307,12.019C5.466,13.492,2.408,13.488.935,11.647Z" transform="translate(0 0)" fill="#fff"/>
      <path id="Path-3" data-name="Path" d="M.935,11.647a4.269,4.269,0,0,1,.667-6L8.667,0l1.441,1.8a6.23,6.23,0,0,1-.974,8.757L7.307,12.019C5.466,13.492,2.408,13.488.935,11.647Z" transform="translate(0 0)" fill="#fff"/>
    </g>
    <path id="Path-4" data-name="Path" d="M.935,11.647a4.269,4.269,0,0,1,.667-6L8.667,0l1.441,1.8a6.23,6.23,0,0,1-.974,8.757L7.307,12.019C5.466,13.492,2.408,13.488.935,11.647Z" transform="translate(24.966 20.274)" fill="#db9b00"/>
    <g id="Group-2" data-name="Group">
      <g id="Group-3" data-name="Group">
        <path id="Shape" d="M20.845,61.378l-1.171-4.5a18.486,18.486,0,0,1,2.259-14.553l-3.7-10.231a34.631,34.631,0,0,1-5.519-1.948,35.928,35.928,0,0,1-8.073-4.791l-2.7-2.337A5.713,5.713,0,0,1,.059,17.893a5.9,5.9,0,0,1,3.533-4.622,5.8,5.8,0,0,1,5.72.666l3.008,2.2a24.854,24.854,0,0,0,5.632,3.086l1.265-3.9-2.992-3.74A6.793,6.793,0,0,1,17.286,2.03L18.8.823a3.767,3.767,0,0,1,5.288.588,2.4,2.4,0,0,0,2.055.9,10.546,10.546,0,0,1,8.894,3.776c.026.028,1.517,1.887,1.517,1.887A8.13,8.13,0,0,1,35.5,19.2l6,17.42a13.014,13.014,0,0,1,.047,8.4,9.138,9.138,0,0,0,2.834-1.22,6.4,6.4,0,0,0,2.981-4.072,1.892,1.892,0,0,1,3.734.611,9.95,9.95,0,0,1-4.655,6.635,12.027,12.027,0,0,1-6.37,2.01c-.222,0-.442-.011-.659-.028a13.105,13.105,0,0,1-6.681,4.47L32,53.634v6.317a5.67,5.67,0,0,1-11.156,1.427Z" transform="translate(0 12.922)" fill="#1c1c20"/>
        <path id="Path-5" data-name="Path" d="M7.746,1.965A1.965,1.965,0,0,0,5.781,0H1.965a1.965,1.965,0,0,0,0,3.929H5.781A1.965,1.965,0,0,0,7.746,1.965Z" transform="translate(26.047 0.615) rotate(99)" fill="#1c1c20"/>
        <path id="Path-6" data-name="Path" d="M3.326.548A1.965,1.965,0,0,0,.6,3.381L2.4,5.11A1.965,1.965,0,0,0,5.125,2.278Z" transform="translate(34.851 5.873) rotate(99)" fill="#1c1c20"/>
        <path id="Path-7" data-name="Path" d="M2.4.549.6,2.278A1.965,1.965,0,0,0,3.326,5.11l1.8-1.73A1.965,1.965,0,1,0,2.4.549Z" transform="translate(17.757 3.166) rotate(99)" fill="#1c1c20"/>
      </g>
    </g>
  </g>
</svg>
