<svg xmlns="http://www.w3.org/2000/svg" width="57" height="33" viewBox="0 0 57 33"><g><g><g><path fill="#fdb813" d="M39.273 9.664s-5.55.687-12.787.687c-7.249 0-6.026-3.128-10.406-3.128h-2.876L9.325 3l-.007 4.223-2.08 1.01C6.508 8.585 6 9.326 6 10.136c0 .418-.077.864-.297 1.153-.218.336-.532.61-.914.78l-1.413.63C2.613 13 2.12 13.794 2.12 14.63v1.947c0 1.155.88 2.097 2.082 2.115l1.885.024c3.634.058 5.805 1.847 5.805 4.284 0 2.304 2.522 3.64 3.678 3.64h-3.4-4.395C3.72 26.64 4.3 31 4.3 31h34.838c5.957 0 10.863-4.494 10.94-10.45.043-6.005-4.81-10.886-10.804-10.886z"/></g><g><path fill="#fdb813" d="M55 10.109v2.358c0 3.318-2.053 6.17-4.935 7.381-.065-1.52-.485-2.954-1.136-4.242C50 15 50.675 13.79 50.675 12.467V10.11C50.675 8.067 49 6.412 47 6.412c-.516 0-1-.2-1.286-.524a1.779 1.779 0 0 1-.524-1.263v-.729c0-.986.81-1.786 1.81-1.786 2.186 0 4.186.89 5.633 2.343C54.081 5.901 55 7.9 55 10.11z"/></g><g><path fill="#1c1c20" d="M53.9 12.473c0 2.299-1.13 4.403-2.968 5.682a11.734 11.734 0 0 0-.67-2.221c.944-.934 1.487-2.13 1.487-3.461v-2.359c0-2.631-2.142-4.772-4.749-4.772a.721.721 0 0 1-.529-.21.7.7 0 0 1-.207-.502v-.728c0-.392.32-.711.736-.711 1.824 0 3.563.72 4.871 2.028a6.878 6.878 0 0 1 2.028 4.895zM47 1c-1.603 0-2.887 1.324-2.887 2.902v.728c0 .766.298 1.485.887 2.022.49.542 1.21.84 2 .84 1.422 0 2.598 1.177 2.598 2.622v2.359c0 .527-.15 1.008-.422 1.426a11.987 11.987 0 0 0-1.467-1.795 11.798 11.798 0 0 0-8.43-3.51c-.045 0-.09.002-.133.008-.011.001-2.345.398-7.146.603l-7.114.014c-2.509-.219-3.503-.912-4.47-1.597-1.019-.723-2.072-1.47-4.33-1.47H13.68l-3.56-3.847C9.82 2 9.35 1.873 8.94 2c-.413.194-.684.591-.685 1L8.25 6.554l-1.474.716C5.68 7.799 5 8.926 5 10.142c0 .201-.083.397-.193.566-.11.17-.265.292-.45.383l-1.413.63C1.794 12.232 1 13.377 1 14.635v1.947c0 1.732 1.459 3.163 3.194 3.191l1.881.023c2.925.046 4.747 1.32 4.747 3.204 0 .945.301 1.813.867 2.57H7.78c-1.781 0-2.863.757-3.42 1.43-1.418 1.58-1.157 3.915-1.122 4.175.07.535.526.935 1.066.935h9.373c.594 0 1.076-.482 1.076-1.11 0-.56-.482-1-1.076-1H5.38c.06-.576.223-1.195.62-1.625.373-.44 1-.655 1.78-.655h10.441a1.076 1.076 0 0 0 0-2.15h-2.646c-.292 0-.981-.223-1.575-.718-.483-.364-1-.974-1-1.852 0-3.121-2.785-5.289-6.894-5.354l-1.881-.024a1.045 1.045 0 0 1-1.024-1.04v-1.947c0-.41.242-.782.618-.95l1.41-.627a3.176 3.176 0 0 0 1.38-1.177 3.18 3.18 0 0 0 .517-1.74c0-.396.23-.763.587-.936l2.08-1.01c.37-.195.605-.554.606-.966l.002-1.454L12.421 8c.203.178.489.303.789.303h2.875c1.574 0 2.176.427 3.088 1.073 1.238.878 2.767 1.96 6.827 2.048.135.004.31.007.491.007a124.548 124.548 0 0 0 11.057-.503c.963-.088 1.59-.16 1.792-.183a9.661 9.661 0 0 1 6.842 2.874 9.636 9.636 0 0 1 2.683 5.193C49 19.385 49 20 49 20.546 49 25.825 44.634 30 39.142 30h-7.75c.201-.831.608-1.413 1.362-1.803a4.2 4.2 0 0 1 1.687-.477h5.474c.594 0 1.085-.482 1.085-1.075 0-.594-.49-1.076-1.085-1.076h-1.448a5.103 5.103 0 0 1-5.097-5.097 5.103 5.103 0 0 1 5.097-5.097 1.075 1.075 0 1 0 0-2.15c-3.997 0-7.248 3.251-7.248 7.247 0 2.047.854 3.897 2.223 5.216-.442.095-1.045.312-1.632.575-1.059.555-2.291 1.635-2.614 3.737h-6.055c-.594 0-1.075.44-1.075 1 0 .628.481 1.11 1.075 1.11h16.001c3.181 0 6.174-1.172 8.426-3.3a11.366 11.366 0 0 0 3.589-8.248v-.036C54.152 19 56 15.886 56 12.473v-2.359c.05-2.423-.894-4.701-2.608-6.416C51.678 2 49.399 1 47 1z"/><path fill="none" stroke="#1c1c20" stroke-miterlimit="50" stroke-width=".8" d="M53.9 12.473c0 2.299-1.13 4.403-2.968 5.682a11.734 11.734 0 0 0-.67-2.221c.944-.934 1.487-2.13 1.487-3.461v-2.359c0-2.631-2.142-4.772-4.749-4.772a.721.721 0 0 1-.529-.21.7.7 0 0 1-.207-.502v-.728c0-.392.32-.711.736-.711 1.824 0 3.563.72 4.871 2.028a6.878 6.878 0 0 1 2.028 4.895zM47 1c-1.603 0-2.887 1.324-2.887 2.902v.728c0 .766.298 1.485.887 2.022.49.542 1.21.84 2 .84 1.422 0 2.598 1.177 2.598 2.622v2.359c0 .527-.15 1.008-.422 1.426a11.987 11.987 0 0 0-1.467-1.795 11.798 11.798 0 0 0-8.43-3.51c-.045 0-.09.002-.133.008-.011.001-2.345.398-7.146.603l-7.114.014c-2.509-.219-3.503-.912-4.47-1.597-1.019-.723-2.072-1.47-4.33-1.47H13.68l-3.56-3.847C9.82 2 9.35 1.873 8.94 2c-.413.194-.684.591-.685 1L8.25 6.554l-1.474.716C5.68 7.799 5 8.926 5 10.142c0 .201-.083.397-.193.566-.11.17-.265.292-.45.383l-1.413.63C1.794 12.232 1 13.377 1 14.635v1.947c0 1.732 1.459 3.163 3.194 3.191l1.881.023c2.925.046 4.747 1.32 4.747 3.204 0 .945.301 1.813.867 2.57H7.78c-1.781 0-2.863.757-3.42 1.43-1.418 1.58-1.157 3.915-1.122 4.175.07.535.526.935 1.066.935h9.373c.594 0 1.076-.482 1.076-1.11 0-.56-.482-1-1.076-1H5.38c.06-.576.223-1.195.62-1.625.373-.44 1-.655 1.78-.655h10.441a1.076 1.076 0 0 0 0-2.15h-2.646c-.292 0-.981-.223-1.575-.718-.483-.364-1-.974-1-1.852 0-3.121-2.785-5.289-6.894-5.354l-1.881-.024a1.045 1.045 0 0 1-1.024-1.04v-1.947c0-.41.242-.782.618-.95l1.41-.627a3.176 3.176 0 0 0 1.38-1.177 3.18 3.18 0 0 0 .517-1.74c0-.396.23-.763.587-.936l2.08-1.01c.37-.195.605-.554.606-.966l.002-1.454L12.421 8c.203.178.489.303.789.303h2.875c1.574 0 2.176.427 3.088 1.073 1.238.878 2.767 1.96 6.827 2.048.135.004.31.007.491.007a124.548 124.548 0 0 0 11.057-.503c.963-.088 1.59-.16 1.792-.183a9.661 9.661 0 0 1 6.842 2.874 9.636 9.636 0 0 1 2.683 5.193C49 19.385 49 20 49 20.546 49 25.825 44.634 30 39.142 30h-7.75c.201-.831.608-1.413 1.362-1.803a4.2 4.2 0 0 1 1.687-.477h5.474c.594 0 1.085-.482 1.085-1.075 0-.594-.49-1.076-1.085-1.076h-1.448a5.103 5.103 0 0 1-5.097-5.097 5.103 5.103 0 0 1 5.097-5.097 1.075 1.075 0 1 0 0-2.15c-3.997 0-7.248 3.251-7.248 7.247 0 2.047.854 3.897 2.223 5.216-.442.095-1.045.312-1.632.575-1.059.555-2.291 1.635-2.614 3.737h-6.055c-.594 0-1.075.44-1.075 1 0 .628.481 1.11 1.075 1.11h16.001c3.181 0 6.174-1.172 8.426-3.3a11.366 11.366 0 0 0 3.589-8.248v-.036C54.152 19 56 15.886 56 12.473v-2.359c.05-2.423-.894-4.701-2.608-6.416C51.678 2 49.399 1 47 1z"/></g><g><path d="M10.113 10.647c-.812-.541-1.894.245-1.634 1.182.123.442.521.764.984.787.458.024.89-.261 1.055-.687a1.085 1.085 0 0 0-.405-1.282z"/></g><g><path d="M19.429 30.623c-.176-.423-.616-.694-1.072-.623-.469 0-.866.341-.97.8-.213.938.88 1.663 1.667 1.113.408-.285.563-.831.375-1.29z"/></g></g></g></svg>