<svg xmlns="http://www.w3.org/2000/svg" width="82.711" height="32.879" viewBox="0 0 82.711 32.879">
  <g id="Сгруппировать_1" data-name="Сгруппировать 1" transform="translate(-408.289 -2481.121)">
    <g id="Group_3" data-name="Group 3" transform="translate(408.29 2481.121)">
      <g id="Group_2" data-name="Group 2" transform="translate(62.831)">
        <g id="Group" transform="translate(-7.57 8.143)">
          <path id="Path" d="M-12.488,0h1.022a7.823,7.823,0,0,1,6.48,3.44A3.947,3.947,0,0,0-1.717,5.175,1.717,1.717,0,0,1,0,6.892V8.668a4.5,4.5,0,0,1-4.5,4.5h-7.594Z" transform="translate(-5.168)" fill="#fdb813"/>
          <path id="Path-2" data-name="Path" d="M-3.919,11.786A3.919,3.919,0,0,0,0,7.867V0H-2.118a5.72,5.72,0,0,0-5.72,5.72V7.867a3.919,3.919,0,0,0,3.919,3.919Z" transform="translate(-16.619)" fill="#db9b00"/>
          <path id="Path-3" data-name="Path" d="M-50.722,2.939A9.678,9.678,0,0,1-39.5,1l7.479,3.684a20.363,20.363,0,0,0,7.564,2.045l5.989,3.327A24.6,24.6,0,0,0-6.712,14.237l3.406.292A3.659,3.659,0,0,1-.593,20.171a3.529,3.529,0,0,1-2.928,1.617l-6.326-.023-4.14.005a48.567,48.567,0,0,1-25.665-7.3l1.018-1.459-2.09,1.811,1.349.157a3.413,3.413,0,0,1,3.017,3.39,3.413,3.413,0,0,1-3.413,3.413h-1.574A12.108,12.108,0,0,1-53.453,9.678a9.676,9.676,0,0,1,2.731-6.739Z" transform="translate(0 1.141)" fill="#fdb813"/>
        </g>
        <g id="Group-2" data-name="Group">
          <g id="Group-3" data-name="Group">
            <g id="Group-4" data-name="Group" transform="translate(-5.802)">
              <path id="Shape" d="M-5.284,32.879A5.315,5.315,0,0,0-.843,30.434a5.773,5.773,0,0,0,.756-1.747c.285.754-.364-3.542-.364-3.542-.017-.037-.031-.074-.049-.111a5.4,5.4,0,0,0-4.42-3.024l-2.645-.226a6.3,6.3,0,0,0,2.436-4.974V15.035a3.528,3.528,0,0,0-3.524-3.523,2.137,2.137,0,0,1-1.772-.941,9.619,9.619,0,0,0-7.939-4.233l-2.141,0a7.536,7.536,0,0,0-7.528,7.528v.1a18.5,18.5,0,0,1-4.957-1.625l-7.479-3.685a11.45,11.45,0,0,0-11.4.715A7.539,7.539,0,0,1-51.722,6.8a5.218,5.218,0,0,1,2.291-3.41,1.808,1.808,0,0,0,.7-2.458,1.808,1.808,0,0,0-2.458-.7,8.624,8.624,0,0,0-4.055,5.744,10.169,10.169,0,0,0,.412,6.228,11.419,11.419,0,0,0-2.2,6.762A13.931,13.931,0,0,0-43.114,32.877h1.574a5.23,5.23,0,0,0,5.157-4.405,50.317,50.317,0,0,0,20.563,4.389l10.523.018Z" fill="#1c1c20"/>
            </g>
          </g>
        </g>
      </g>
    </g>
    <g id="Group_9" data-name="Group 9" transform="translate(476 2499)">
      <path id="Shape-2" data-name="Shape" d="M7.5,15A7.5,7.5,0,1,0,0,7.5,7.508,7.508,0,0,0,7.5,15Z" fill="#1c1c20"/>
      <circle id="Oval" cx="4" cy="4" r="4" transform="translate(2 7.657) rotate(-45)" fill="#8e5aa9"/>
    </g>
  </g>
</svg>
