<svg xmlns="http://www.w3.org/2000/svg" width="65" height="37" viewBox="0 0 65 37"><g><g><g><path fill="#fdb813" d="M45.407 12.665l-11.58 1.938c-2.93.49-5.939-.049-8.516-1.526l-4.738-9.944-1.044-.286c-2.653-.73-5.529-.095-7.584 1.694a4.181 4.181 0 0 1-3.827.855 1.818 1.818 0 0 0-2.235 1.271l-.498 1.814c-.698 2.519.794 5.16 3.332 5.858a4.772 4.772 0 0 1 3.494 4.25l.367 4.972a3.975 3.975 0 0 1-3.964 4.267H5.17a3.531 3.531 0 0 0 0 7.062h7.02A9.315 9.315 0 0 0 20.373 30h-.006c1.477 1.735 3.783 2.924 6.08 2.924h9.88a3.528 3.528 0 0 0 3.161 1.966h5.131c6.847 0 12.38-5.55 12.38-12.397 0-6.16-5.517-10.846-11.593-9.828z"/></g><g><path fill="#db9b00" d="M20.212 16c-2.212-.63-3.51-2.915-2.903-5.125l2.209-8.035 2.163.595a6.059 6.059 0 0 1 4.237 7.447l-.603 2.193A4.182 4.182 0 0 1 20.212 16z"/></g><g><g><path fill="#1c1c20" d="M39.495 33.13a1.767 1.767 0 0 1-1.766-1.765c0-.974.792-1.766 1.766-1.766h3.955a1.766 1.766 0 0 0 0-3.53h-1.87a5.204 5.204 0 0 1 3.833-3.322c.956-.195 1.587-1.128 1.376-2.083a1.765 1.765 0 0 0-2.084-1.376c-3.534.712-6.22 3.569-6.834 7.036-2.068.676-3.583 2.573-3.668 4.84h-7.75a6.117 6.117 0 0 1-3.952-1.453l1.673-3.606a1.766 1.766 0 0 0-.858-2.345c-.885-.41-1.934-.026-2.316.859l-1.947 4.133a7.584 7.584 0 0 1-6.857 4.378h-7.02a1.767 1.767 0 0 1-1.765-1.765c0-.974.792-1.766 1.765-1.766H8.62c1.59 0 3.123-.668 4.206-1.833a5.79 5.79 0 0 0 1.519-4.33L14 18.568l3.763-1.854a5.907 5.907 0 0 0 3.548 1.186c1.907 0 3.689-.9 4.805-2.463a14.66 14.66 0 0 0 8.008.912l11.58-1.938a8.142 8.142 0 0 1 6.651 1.829 8.185 8.185 0 0 1 2.902 6.259c0 5.862-4.77 10.63-10.631 10.63zM9.19 12.642C7.595 12.204 6.654 10.55 7.092 9l.499-1.86a.047.047 0 0 1 .025-.032.047.047 0 0 1 .04-.004 5.94 5.94 0 0 0 5.442-1.216 6.513 6.513 0 0 1 4.185-1.565l-1.674 6.092a5.882 5.882 0 0 0 .077 3.385l-2.869 1.408C12 14 10.693 13.055 9.19 12.642zm15.026-2.22l-.602 2.193a2.388 2.388 0 0 1-2.933 1.668 2.37 2.37 0 0 1-1.442-1.12c-.315-.555-.395-1.163-.239-1.812L20.753 5l.461.145a4.264 4.264 0 0 1 2.594 2.017c.567.996.712 2.154.408 3.26zm37.143 13.32c-.194 1.787-1.562 3.03-2.359 3.612-.439.319-.914.591-1.398.81a14.08 14.08 0 0 0 1.186-5.665c0-3.499-1.513-6.72-4.151-8.954a11.709 11.709 0 0 0-9.516-2.617l-11.58 1.939c-2.075.347-4.21.133-6.137-.72l.217-.79a7.773 7.773 0 0 0-.744-5.941A7.773 7.773 0 0 0 22.15 1.74S20 1.14 20 1.139C16.748.272 13.33 1 10.802 3.205a2.41 2.41 0 0 1-2.21.494A3.735 3.735 0 0 0 5.87 4a3.611 3.611 0 0 0-1.684 2.205L3.687 8c-.954 3.491 1.095 7.092 4.567 8 1.223.383 2.108 1.459 2.202 2.725l.367 4.97a2.187 2.187 0 0 1-.585 1.667 2.187 2.187 0 0 1-1.619.706H5.176A5.302 5.302 0 0 0-.12 31.365a5.302 5.302 0 0 0 5.296 5.296h7.02a11.13 11.13 0 0 0 8.45-3.914 9.635 9.635 0 0 0 5.808 1.948h8.927a5.288 5.288 0 0 0 4.114 1.966h5.13c4.014 0 7.64-1.661 10.22-4.372.096.003.155.006.291.006 1.932 0 4.103-.746 5.942-2.086 2.193-1.6 3.54-3.76 3.792-6.087.13-.97-.596-1.84-1.566-1.945a1.765 1.765 0 0 0-1.945 1.565z"/></g></g></g></g></svg>