<svg xmlns="http://www.w3.org/2000/svg" width="50" height="60" viewBox="0 0 50 60"><g><g><g><path fill="#fc4848" d="M40.065 11.105C44.458 11.105 48 9 48 6.482c0-2.552-3.542-4.622-7.935-4.622S32.11 3.93 32.11 6.482c0 2.518 3.562 4.623 7.955 4.623z"/></g><g><g><g><path fill="#fff" d="M32.922 30.76L21.47 41.315"/></g><g><path fill="#fff" d="M25.23 21.188a3.775 3.775 0 0 0-.59-5.306L18.38 10.88l-1.274 1.593A5.486 5.486 0 0 0 18 20.217l1.584 1.292c1.628 1.302 4.343 1.307 5.645-.321z"/></g><g><path fill="#fff" d="M25.23 21.188a3.775 3.775 0 0 0-.59-5.306L18.38 10.88l-1.274 1.593A5.486 5.486 0 0 0 18 20.217l1.584 1.292c1.628 1.302 4.343 1.307 5.645-.321z"/></g></g><g><g><path fill="#fdb813" d="M8.449 35.354l11.136-13.845-1.826-9.849.584-.73c1.56-1.93 3.983-3.078 6.47-2.848a3.803 3.803 0 0 0 3.32-1.411c.57-.671 1.61-.83 2.324-.259l1.336 1.069C33.662 9 34 11.703 32.47 13.571l-2.133 2.668a3.195 3.195 0 0 0-.544 2.98 4.168 4.168 0 0 0 4.102 2.881l1.82-.507c.865-.477 1.7-1.01 2.503-1.593.88-.645 1.782-1.31 2.66-1.945C43 16.498 46 17.772 46.41 20.394l.014.092a3.318 3.318 0 0 1-1.112 2.98l-2.389 2.068c-1.824 1.578-6.03 3.972-10 5.223L21.472 41.313s-.072.118-.198.313a14.718 14.718 0 0 1 .927 9.972l-1.036 3.981a3.34 3.34 0 0 1-6.573-.841V50.35a3.26 3.26 0 0 0-2.368-3.136 7.466 7.466 0 0 1-3.775-11.86z"/></g><g><path fill="#db9b00" d="M25.23 21.188a3.775 3.775 0 0 0-.59-5.306L18.38 10.88l-1.274 1.593A5.486 5.486 0 0 0 18 20.217l1.584 1.292c1.628 1.302 4.343 1.307 5.645-.321z"/></g></g></g><g><g><path fill="#1c1c20" d="M41.688 24.11c-2.347 2.032-9.264 5.594-13.301 5.594-.115 0-.227-.003-.337-.01a1.88 1.88 0 0 0-1.985 1.785c-.065.855.487 1.607 1.257 1.878l-5.64 5.198c-.06-.09-.12-.179-.183-.267a1.887 1.887 0 0 0-2.631-.447 1.871 1.871 0 0 0-.447 2.63 12.803 12.803 0 0 1 1.952 10.655l-1.036 3.982a1.453 1.453 0 0 1-2.86-.365v-4.389c0-2.288-1.537-4.354-3.738-4.95a5.908 5.908 0 0 1-2.117-1.141C8.332 42.288 8 38.896 9.918 36.54l10.15-12.618a6.534 6.534 0 0 0 2.532.414c1.659-.063 3.154-.78 4.103-1.966a5.622 5.622 0 0 0 1.203-2.88c.027.105.094.21.094.315a6.03 6.03 0 0 0 3.537 3.767 5.963 5.963 0 0 0 5.09-.323 25.585 25.585 0 0 0 2.703-1.725L42 19.583a1.57 1.57 0 0 1 1.566-.183c.254.107.864.492.982 1.312.07.484-.103 1.012-.472 1.288zm-23.01-10.574l4.783 3.824c.394.315.642.764.698 1.265.055.501-.087.995-.403 1.375-.263.343-.756.544-1.298.566-.618.02-1.254-.174-1.695-.566l-1.615-1.252a3.627 3.627 0 0 1-.567-5.092zM29.455 8l1.157 1c1.054.801 1.225 2.344.387 3.397l-2.138 2.667a5.073 5.073 0 0 0-1.066 2.488 5.618 5.618 0 0 0-1.978-3.14l-4.529-3.62c1.007-.635 2.176-.936 3.35-.792 1.833.133 3.616-.585 4.817-2zM46.13 6.479c0 1.116-2.364 2.736-6.068 2.736-3.704 0-6.062-1.62-6.062-2.736 0-1.115 2.358-2.735 6.062-2.735s6.068 1.62 6.068 2.735zm-6.365 10.057l-2.66 1.941c-.734.523-1.51 1.03-2.303 1.47a2.17 2.17 0 0 1-1.88.115 2.277 2.277 0 0 1-1.335-1.42 1.302 1.302 0 0 1 .223-1.22l2.133-2.668a5.755 5.755 0 0 0 1.227-2.602c1.433.533 3.099.848 4.892.848 5.52 0 9.842-2.87 9.842-6.52 0-3.65-4.323-6.48-9.842-6.48-4.42 0-8.062 1.805-9.35 4.41A3.612 3.612 0 0 0 29 4.189a3.52 3.52 0 0 0-2.342 1.308 1.902 1.902 0 0 1-1.658.71c-3-.28-6 1.003-8 3.434-.053.022-1.366 1.658-1.366 1.658-2.547 3.185-2.028 7.848 1.157 10.396l.137.11L7 34.175A8.979 8.979 0 0 0 5.402 37a6.757 6.757 0 0 1-.542-1.298c-.284-.943-.625-2.702.29-4.28a1.887 1.887 0 0 0-3.237-1.94c-1.232 2.058-1.468 4.653-.665 7.31.752 2.416 2.211 4.504 3.97 5.656a9.342 9.342 0 0 0 2.94 4.673A8.926 8.926 0 0 0 11.706 49c.587.201.997.745.997 1.355v4.388C12.704 57.625 15 60 17.93 60c2.38 0 4.46-1.638 5.069-3.94l1-3.983A16.45 16.45 0 0 0 23.49 42l10.409-9.57A42.26 42.26 0 0 0 37 31.235C39.782 30 42.605 28.31 44.158 27l2.39-2.103c1.344-1.165 1.99-2.96 1.737-4.72C48 18.284 46.792 16.663 45 15.922c-1.726-.74-3.695-.51-5.235.614z"/></g></g></g></g></svg>