<?xml version="1.0" encoding="UTF-8"?>
<svg width="52px" height="79px" viewBox="0 0 52 79" version="1.1" xmlns="http://www.w3.org/2000/svg" xmlns:xlink="http://www.w3.org/1999/xlink">
    <title>Group 4</title>
    <g id="About-Us" stroke="none" stroke-width="1" fill="none" fill-rule="evenodd">
        <g id="About_Us" transform="translate(-655.000000, -3564.000000)" fill-rule="nonzero">
            <g id="Group-4" transform="translate(680.558702, 3603.728925) scale(-1, 1) translate(-680.558702, -3603.728925) translate(655.000000, 3564.457850)">
                <g id="dog-training" transform="translate(25.558702, 39.271075) scale(-1, 1) translate(-25.558702, -39.271075) ">
                    <path d="M39.7075739,50.163078 L33.3247756,31.6237671 L34.3380233,21.1563791 L33.6772836,20.3302653 C31.8941191,18.1009311 29.1247646,16.9094426 26.2776426,17.1173902 C24.8655291,17.2205125 23.492394,16.6216462 22.607245,15.5149262 C21.9622102,14.7084908 20.7856698,14.5775538 19.9792343,15.2225886 L18.4683505,16.4311065 C16.3550053,18.1213664 16.011958,21.2050074 17.7024071,23.3183526 L21.3298528,27.8538423 L19.1550127,34.5620908 C16.3118642,33.6913222 13.6225478,32.3503537 11.2026738,30.5840293 C10.2091045,29.8587672 9.17844902,29.1064473 8.19509733,28.3885646 C5.78354888,26.6279167 2.36537526,28.0691693 1.93945172,31.0326587 L1.9243145,31.1376731 C1.74266785,32.4018203 2.21627364,33.6714546 3.18164988,34.5075968 L5.88250846,36.8449729 C8.34438817,38.9755367 14.6392013,42.4158485 19.739877,43.409607 L19.6865183,43.4599383 L24.0379016,55.501408 C21.1951316,59.5086088 20.268166,64.5670894 21.5052554,69.3216904 L22.676687,73.8240675 C23.1098008,75.4884049 24.6123591,76.6501865 26.3321366,76.6501865 C28.4182348,76.6501865 30.1092515,74.9589806 30.1092515,72.8730716 L30.1092515,65.1273558 L32.2101085,64.5294356 C33.770756,64.0853474 35.2157929,63.3063482 36.4445568,62.2465535 C39.9011411,59.2650887 41.1934813,54.4792672 39.7075739,50.163078 L39.7075739,50.163078 Z" id="Path" fill="#FDB813"></path>
                    <g id="Group" transform="translate(24.965509, 20.274068)" fill="#FFFFFF">
                        <path d="M0.935216558,11.6473344 C-0.537256572,9.80626991 -0.238485681,7.12017012 1.60257877,5.64750778 L8.66674118,5.37782106e-15 L10.1076154,1.80151846 C12.2569115,4.48856433 11.8207703,8.40929367 9.13372443,10.5585898 L7.30741877,12.0193316 C5.46635432,13.4918047 2.40768969,13.4883988 0.935216558,11.6473344 Z" id="Path"></path>
                        <path d="M0.935216558,11.6473344 C-0.537256572,9.80626991 -0.238485681,7.12017012 1.60257877,5.64750778 L8.66674118,5.37782106e-15 L10.1076154,1.80151846 C12.2569115,4.48856433 11.8207703,8.40929367 9.13372443,10.5585898 L7.30741877,12.0193316 C5.46635432,13.4918047 2.40768969,13.4883988 0.935216558,11.6473344 Z" id="Path"></path>
                    </g>
                    <path d="M25.9007258,31.9214027 C24.4282527,30.0803383 24.7270236,27.3942385 26.568088,25.9215761 L33.6322504,20.2740684 L35.0731246,22.0755868 C37.2224207,24.7626327 36.7862795,28.683362 34.0992337,30.8326581 L32.272928,32.2933999 C30.4318636,33.765873 27.3731989,33.7624672 25.9007258,31.9214027 Z" id="Path" fill="#DB9B00"></path>
                    <g id="Group">
                        <path d="M49.5304947,51.0892867 C48.4990824,50.9191822 47.5263267,51.619657 47.3577359,52.6510694 C47.0173377,54.7316804 45.3442964,56.0949763 44.3774064,56.7226033 C43.4826075,57.3031157 42.4899842,57.7207138 41.5427727,57.9426633 C42.4356795,55.2809723 42.4591422,52.343027 41.4966041,49.5469931 L35.4990481,32.1267013 C38.7997191,29.2935812 39.2886513,24.3168415 36.5508958,20.8937483 C36.5508958,20.8937483 35.0593119,19.03433 35.0335786,19.0059477 C32.8647933,16.3915605 29.5556077,14.9800147 26.1398939,15.2301572 C25.3474604,15.2886248 24.5805709,14.9525785 24.084827,14.3328985 C22.7892701,12.7132159 20.4170784,12.4490714 18.7972066,13.7448175 L17.2863228,14.9531461 C15.8694789,16.0863563 14.9788427,17.7033899 14.7782746,19.5066113 C14.5777064,21.3098327 15.0914258,23.0831581 16.224636,24.5000019 L19.2155615,28.239463 L17.9504683,32.1416493 C15.9491386,31.361704 14.0607703,30.3274534 12.3180978,29.0553592 L9.31071049,26.8598946 C7.6378584,25.6385101 5.49991521,25.3893136 3.5911117,26.1934785 C1.67928074,26.9987786 0.354206296,28.7594266 0.0586520645,30.8156288 C-0.215899273,32.7263244 0.483629532,34.6735386 1.94304681,35.937875 L4.64390539,38.2754403 C6.3827936,39.7802692 9.55177073,41.6606904 12.717342,43.0659921 C14.2789355,43.7592768 16.229934,44.5131104 18.2356157,45.0132063 L21.9328819,55.2446429 C19.2030733,59.5691576 18.377338,64.8164751 19.6736517,69.7981344 L20.8450833,74.3005115 C21.4950377,76.7979637 23.7512405,78.5421499 26.3317582,78.5421499 C29.4577834,78.5421499 32.0012149,75.9989076 32.0012149,72.8726931 L32.0012149,66.5561202 L32.7278015,66.3493079 C34.5404836,65.8335072 36.2528817,64.9103259 37.6801324,63.6792915 C38.3208153,63.1265937 38.8975434,62.5231862 39.4082353,61.8789083 C39.6252652,61.8955592 39.8443765,61.9069121 40.0674613,61.9069121 C42.1312321,61.9069121 44.4292514,61.1998147 46.4372037,59.8968785 C49.0126126,58.2257293 50.6657863,55.8692425 51.0922775,53.2618563 C51.2610575,52.2306331 50.5617179,51.2578775 49.5304947,51.0892867 L49.5304947,51.0892867 Z M33.5953534,23.2576145 C35.0893971,25.1257368 34.7853282,27.8610325 32.917206,29.3550762 L31.0909003,30.815818 C30.5493662,31.2489317 29.7739621,31.4884782 29.0237236,31.4595283 C28.6110451,31.4430665 27.8485077,31.3276452 27.3783077,30.7397534 C26.9817126,30.2440095 26.8021473,29.6235726 26.8723461,28.992729 C26.942545,28.3618853 27.2541825,27.7959425 27.7495481,27.3997257 L33.3359393,22.9334888 L33.5953534,23.2576145 Z M19.1797999,22.1363249 C18.678001,21.5088871 18.4505643,20.7236438 18.5393062,19.9249662 C18.6280482,19.1262886 19.022562,18.4102981 19.6499998,17.9084992 L21.1434758,16.7139833 C22.4184082,18.2965797 24.3866253,19.1522111 26.4152021,19.004434 C27.9726329,18.8905264 29.4927882,19.3119088 30.7408521,20.162999 L25.3860603,24.4439942 C24.2725285,25.3346304 23.5181273,26.5548796 23.2180319,27.9289608 C23.2358181,27.4795746 23.0952312,27.0320805 22.8072456,26.6720038 L19.1797999,22.1363249 Z M35.2087919,60.8136264 C34.195355,61.6876117 32.9792686,62.3432425 31.6922264,62.7095633 L29.5913694,63.3074835 C28.7781222,63.5388937 28.217099,64.2817528 28.217099,65.1273558 L28.217099,72.8730716 C28.217099,73.9126202 27.371496,74.7582232 26.3319474,74.7582232 C25.4738562,74.7582232 24.7236177,74.1782784 24.5075339,73.3478127 L23.3361022,68.8454356 C22.2369508,64.621205 23.0551175,60.1564818 25.5807628,56.5963967 C25.9395149,56.0908136 26.0276892,55.4414268 25.8170927,54.8584546 L22.4632522,45.5774462 C22.614246,45.5755541 22.7652398,45.5736619 22.9137737,45.5657149 C23.9572959,45.5100856 24.7582441,44.619071 24.7026148,43.5755488 C24.6469855,42.5318375 23.7557816,41.7301324 22.7124487,41.7867078 C20.6691132,41.895885 17.6638072,41.1216162 14.253013,39.6075157 C11.0089174,38.1673983 8.33322447,36.4637042 7.12054389,35.4141271 L4.42025295,33.0771295 C3.93945699,32.6606667 3.71410162,31.984033 3.80454651,31.3541354 C3.9557295,30.302477 4.73529636,29.8182751 5.06017895,29.6812833 C5.38354783,29.5450483 6.22763709,29.2950949 7.07910575,29.9166671 L10.0868715,32.1123209 C12.6732548,34.0003107 15.5377846,35.4332379 18.600612,36.3711779 C19.5888833,36.6737331 20.6361897,36.1282255 20.954639,35.1454415 L23.1294791,28.437193 C23.1296684,28.4366253 23.1296684,28.4358685 23.1300468,28.4353008 C23.1238027,28.4816586 23.1164233,28.5276379 23.1111253,28.5741848 C22.9292894,30.2097615 23.3949481,31.8180912 24.4229546,33.1032412 C25.4520964,34.389905 27.2119875,35.1717424 29.0110462,35.2432658 C30.1145496,35.2432658 31.3486115,34.9827164 32.3132309,34.4985145 L37.9185436,50.7789737 C39.1597957,54.3842812 38.0960275,58.3231752 35.2087919,60.8136264 Z" id="Shape" fill="#1C1C20"></path>
                        <path d="M27.3737722,4.13250801 C27.3737722,3.04769589 26.4942532,2.16798044 25.4092446,2.16798044 L21.5925605,2.16798044 C20.5075519,2.16798044 19.6280329,3.04769589 19.6280329,4.13250801 C19.6280329,5.21732013 20.5075519,6.09703558 21.5925605,6.09703558 L25.4092446,6.09703558 C26.4942532,6.09703558 27.3737722,5.21732013 27.3737722,4.13250801 Z" id="Path" fill="#1C1C20" transform="translate(23.500903, 4.132508) rotate(99.000000) translate(-23.500903, -4.132508) "></path>
                        <path d="M32.0714388,5.97846462 C31.2895568,5.22644347 30.0458144,5.25080361 29.2937932,6.03268558 C28.5415756,6.81456755 28.5659358,8.05850641 29.3480142,8.81052756 L31.1463427,10.5400976 C31.5272646,10.906482 32.0180036,11.0885937 32.5077603,11.0885937 C33.0234488,11.0885937 33.5383515,10.8868367 33.9239883,10.4858767 C34.6762059,9.7039947 34.6518457,8.46005584 33.8697673,7.70803469 L32.0714388,5.97846462 Z" id="Path" fill="#1C1C20" transform="translate(31.608891, 8.259289) rotate(99.000000) translate(-31.608891, -8.259289) "></path>
                        <path d="M14.0518281,3.27107748 L12.2534996,5.000844 C11.4716176,5.75286515 11.4472575,6.9964111 12.1994751,7.77848952 C12.5851118,8.1794496 13.1000145,8.38120658 13.615703,8.38120658 C14.1056562,8.38120658 14.5961987,8.19909487 14.9773171,7.83251403 L16.7756456,6.10274751 C17.5575276,5.35072636 17.5818877,4.10718041 16.8296701,3.32510198 C16.0776489,2.54341646 14.8339065,2.51866342 14.0518281,3.27107748 L14.0518281,3.27107748 Z" id="Path" fill="#1C1C20" transform="translate(14.514573, 5.551815) rotate(99.000000) translate(-14.514573, -5.551815) "></path>
                        <path d="" id="Path" fill="#000000"></path>
                    </g>
                </g>
            </g>
        </g>
    </g>
</svg>