<svg xmlns="http://www.w3.org/2000/svg" width="60" height="54" viewBox="0 0 60 54"><g><g><g><g><path fill="#fdb813" d="M41.362 15.123L36.357 9c-3.668-4.425-9.14-7-14.916-7C10.776 2 2.13 10.636 2.13 21.301a5.16 5.16 0 0 0 5.16 5.16H49z"/></g><g><path fill="#fdb813" d="M8.25 26.793v16.439l-.003.005v2.247A6.117 6.117 0 0 1 2.13 51.6V21.78z"/></g><g><path fill="#fdb813" d="M57.798 17a3.32 3.32 0 0 1-1.443-2.824 12.827 12.827 0 0 0-.844-4.916A12.613 12.613 0 0 0 50.53 13a7.076 7.076 0 0 0-3.009 0 12.617 12.617 0 0 0-4.98-3.74c-.542 1.523-.887 3.184-.845 4.916v.004A3.308 3.308 0 0 1 40.256 17l-.065.05 1.004 3.509c1 3.495 4.197 5.905 7.806 5.905a8.155 8.155 0 0 0 7.855-5.892l1.014-3.521z"/></g></g><g><path fill="#1c1c20" d="M49.315 20.38h-.585c-.475 0-.913.278-1.115.71-.201.43-.135.91.17 1.309l.292.35c.234.251.579.444.923.444.389 0 .734-.193 1-.443l.26-.351c.305-.399.371-.88.17-1.31-.202-.43-.64-.71-1.115-.71z"/></g><g><path fill="#1c1c20" d="M52.202 16.857l-.843.496a1.085 1.085 0 0 0-.359 1.55c.168.36.546.56.934.56.195 0 .393-.051.573-.158l.844-.496a1.133 1.133 0 1 0-1.149-1.952z"/></g><g><path fill="#1c1c20" d="M46.69 17.353l-.843-.496a1.132 1.132 0 0 0-1.55.402c-.297.54-.138 1.233.402 1.55l.843.497a1.132 1.132 0 0 0 1.149-1.953z"/></g><g><path fill="#1c1c20" d="M55.763 20.251c-.86 2.987-3.632 5.073-6.763 5.073-3.09 0-5.863-2.09-6.72-5.084l-.798-2.79a4.444 4.444 0 0 0 1.345-3.31c-.027-1.14.103-2.233.389-3.306a11.835 11.835 0 0 1 3.43 2.84c.215.26.535.412.874.412l3.009-.001c.338 0 .658-.151.873-.412a11.832 11.832 0 0 1 3.43-2.839 11.64 11.64 0 0 1 .388 3.306 4.443 4.443 0 0 0 1.35 3.31zM7.117 45.484a4.993 4.993 0 0 1-3.851 4.855V26.127a6.29 6.29 0 0 0 3.853 1.458zm51.32-29.423a2.187 2.187 0 0 1-.952-1.865 13.92 13.92 0 0 0-.92-5.349A1.222 1.222 0 0 0 56 8.211c-.328-.12-.646-.122-.929-.004C53.144 9 51.403 10.255 50 11.82h-2a13.585 13.585 0 0 0-5-3.612 1.193 1.193 0 0 0-.906.004c-.282.12-.503.35-.612.636-.482 1.153-.73 2.362-.853 3.591l-3.394-4.127C34.523 5 30.913 2.68 26.793 1.564a1.133 1.133 0 0 0-1.39.797c-.164.639.193 1.226.797 1.39a18.084 18.084 0 0 1 9.285 5.999l4.709 5.726c-.194.227-.348.428-.581.588l-.065.044c-.403.276-.548.778-.45 1.247l1.004 3.509A9.07 9.07 0 0 0 43 25.324H29.327a5.685 5.685 0 0 0-3.6-4.185c-.042-5.464-4.5-9.898-9.974-9.898a10.02 10.02 0 0 0-8.032 4.061A1.107 1.107 0 0 0 8 16.886c.464.372 1.173.264 1.544-.239a7.754 7.754 0 0 1 6.209-3.14c4.109 0 7.477 3.231 7.698 7.285h-2.886a1.133 1.133 0 0 0 0 2.266h3.212A3.44 3.44 0 0 1 27 25.324H7.293a4.032 4.032 0 0 1-4.027-4.028c0-8.196 5.518-15.413 13.42-17.55.604-.163.961-.746.798-1.389a1.133 1.133 0 0 0-1.39-.797C7.208 4 1 12.079 1 21.296v30.305c0 .626.507 1.133 1.133 1.133 3.997 0 7.25-3.252 7.25-7.25l.002-17.895H49c4.136 0 7.802-2.76 8.94-6.71L59 17.356c.09-.469-.09-.971-.493-1.248z"/><path fill="none" stroke="#1c1c20" stroke-miterlimit="50" stroke-width=".8" d="M55.763 20.251c-.86 2.987-3.632 5.073-6.763 5.073-3.09 0-5.863-2.09-6.72-5.084l-.798-2.79a4.444 4.444 0 0 0 1.345-3.31c-.027-1.14.103-2.233.389-3.306a11.835 11.835 0 0 1 3.43 2.84c.215.26.535.412.874.412h0l3.009-.001c.338 0 .658-.151.873-.412a11.832 11.832 0 0 1 3.43-2.839 11.64 11.64 0 0 1 .388 3.306 4.443 4.443 0 0 0 1.35 3.31zM7.117 45.484a4.993 4.993 0 0 1-3.851 4.855V26.127a6.29 6.29 0 0 0 3.853 1.458zm51.32-29.423a2.187 2.187 0 0 1-.952-1.865 13.92 13.92 0 0 0-.92-5.349A1.222 1.222 0 0 0 56 8.211c-.328-.12-.646-.122-.929-.004C53.144 9 51.403 10.255 50 11.82h-2a13.585 13.585 0 0 0-5-3.612 1.193 1.193 0 0 0-.906.004c-.282.12-.503.35-.612.636-.482 1.153-.73 2.362-.853 3.591l-3.394-4.127C34.523 5 30.913 2.68 26.793 1.564a1.133 1.133 0 0 0-1.39.797c-.164.639.193 1.226.797 1.39a18.084 18.084 0 0 1 9.285 5.999l4.709 5.726c-.194.227-.348.428-.581.588l-.065.044c-.403.276-.548.778-.45 1.247l1.004 3.509A9.07 9.07 0 0 0 43 25.324H29.327a5.685 5.685 0 0 0-3.6-4.185c-.042-5.464-4.5-9.898-9.974-9.898a10.02 10.02 0 0 0-8.032 4.061A1.107 1.107 0 0 0 8 16.886c.464.372 1.173.264 1.544-.239a7.754 7.754 0 0 1 6.209-3.14c4.109 0 7.477 3.231 7.698 7.285h-2.886a1.133 1.133 0 0 0 0 2.266h3.212A3.44 3.44 0 0 1 27 25.324H7.293a4.032 4.032 0 0 1-4.027-4.028c0-8.196 5.518-15.413 13.42-17.55.604-.163.961-.746.798-1.389a1.133 1.133 0 0 0-1.39-.797C7.208 4 1 12.079 1 21.296v30.305c0 .626.507 1.133 1.133 1.133 3.997 0 7.25-3.252 7.25-7.25l.002-17.895H49c4.136 0 7.802-2.76 8.94-6.71L59 17.356c.09-.469-.09-.971-.493-1.248z"/></g><g><path fill="#1c1c20" d="M21.443 3.125c.298 0 .557-.125.8-.331a1.132 1.132 0 0 0 0-1.602C22 1 21.743.86 21.444.86c-.298 0-.59.14-.801.332-.21.21-.332.503-.332.808 0 .29.121.583.332.794.21.206.503.331.8.331z"/></g></g></g></svg>