<?xml version="1.0" encoding="UTF-8"?>
<svg width="65px" height="46px" viewBox="0 0 65 46" version="1.1" xmlns="http://www.w3.org/2000/svg" xmlns:xlink="http://www.w3.org/1999/xlink">
    <title>Group 6</title>
    <g id="About-Us" stroke="none" stroke-width="1" fill="none" fill-rule="evenodd">
        <g id="About_Us" transform="translate(-939.000000, -5851.000000)" fill-rule="nonzero">
            <g id="Group-6" transform="translate(939.491350, 5851.969705)">
                <g id="playing-(1)" transform="translate(7.892631, 14.485892)">
                    <path d="M45.602768,13.8267725 L44.7880563,12.4770984 L46.0637757,8.25390237 L44.8941503,4.0215484 C44.5195384,2.66634499 43.2864986,1.72791458 41.8804945,1.72791458 C39.7358069,1.72791458 38.2278558,3.83804387 38.9224775,5.86730675 L39.5002921,7.55496093 L37.8625747,9.20511935 C36.2214014,10.8587336 35.5673857,14.3778044 36.1391527,16.6363616 C33.7392521,14.9253806 30.7211037,13.7925598 27.6754815,13.4260691 C26.8054765,13.3213575 25.9410008,13.2829978 25.0862015,13.3061518 L23.055729,7.01550599 C22.4729035,5.20983525 20.4849377,4.27278718 18.7212553,4.97241979 C17.2103668,5.57183336 16.3655894,7.18656954 16.7348447,8.76951208 L18.1671131,14.9106933 C16.9288895,15.4681185 15.7444041,16.15963 14.6311087,16.9727866 L9.78759135,10.7592057 C8.22140957,8.9229509 5.46296673,8.70385133 3.62671191,10.2702059 L2.31384241,11.3898945 C1.61317305,11.9875802 1.52954198,13.040053 2.12722763,13.7408951 C2.9531708,14.7093913 3.24484279,16.024507 2.90548036,17.2513264 C2.48974411,18.7540937 2.54227272,19.9463548 2.90772665,21.2028942 L9.86396517,28.786193 L39.7691556,28.786193 C44.0885965,28.786193 47.5902154,25.2845741 47.5902154,20.9651332 C47.5902154,18.4491168 46.9030238,15.9807908 45.602768,13.8267725 L45.602768,13.8267725 Z" id="Path" fill="#FDB813"></path>
                    <path d="M13.3197943,25.3303638 C13.3197943,23.4217094 11.7726196,21.8745346 9.86396517,21.8745346 L2.92673371,21.8745346 L2.92673371,23.7422375 C2.92673371,26.5279814 5.18494528,28.786193 7.97068917,28.786193 L9.86396517,28.786193 C11.7726196,28.786193 13.3197943,27.2390183 13.3197943,25.3303638 Z" id="Path" fill="#DB9B00"></path>
                    <g id="Group" fill="#1C1C20">
                        <path d="M54.5846408,17.8751036 C53.6372253,17.7716015 52.7834627,18.4581019 52.6806518,19.406727 C52.5149447,20.936277 51.3337423,22.0074113 50.64465,22.509716 C50.1361247,22.8803537 49.5690232,23.1785918 49.0055502,23.3887062 C49.2089258,22.6144277 49.31813,21.8023078 49.31813,20.9651332 C49.31813,18.1346363 48.5448882,15.357532 47.0822085,12.9337862 L46.6643988,12.2417564 L47.7180811,8.75361527 C47.812598,8.44120831 47.8163994,8.10841197 47.7294853,7.79358593 L46.5596871,3.56123195 C45.9801446,1.46440761 44.0559389,0 41.8804945,0 C40.316559,0 38.840056,0.75959125 37.9310001,2.03202755 C37.0215987,3.30429105 36.7812457,4.94736503 37.2876975,6.42732387 L37.5180285,7.09965543 L36.6362737,7.98814911 C35.2739858,9.36063166 34.5097292,11.501345 34.2840636,13.5587729 C32.2964434,12.6163683 30.1037198,11.9780767 27.8817945,11.7105955 C27.373442,11.6496001 26.8604242,11.610722 26.3477519,11.5899871 L24.7000126,6.48503622 C24.2759823,5.17112997 23.3164714,4.0801247 22.0678803,3.49159699 C20.8189436,2.9028965 19.3668042,2.85710676 18.0840004,3.36649598 C15.7964143,4.27399672 14.4928755,6.76547675 15.0518559,9.16209428 L16.1724085,13.966388 C15.7772345,14.1778847 15.3872441,14.4026864 15.0034743,14.6402747 L11.1502248,9.69722942 C11.1346736,9.67718561 11.118604,9.65748739 11.1021888,9.63813474 C10.0452234,8.39870162 8.56889319,7.64533086 6.94499907,7.51642843 C5.3200682,7.38614367 3.74455568,7.89864314 2.50529534,8.95578128 L1.19242585,10.0752971 C0.502296762,10.6638248 0.0827591012,11.4859666 0.0108778546,12.3900115 C-0.0608306005,13.2940564 0.223756931,14.1721826 0.812457429,14.8621389 C1.26689896,15.394855 1.42673106,16.1159137 1.24011629,16.7906644 C0.771851436,18.4836751 0.766840484,19.9698544 1.2237011,21.5946125 C1.20884103,21.6860192 1.19899192,23.7422375 1.19899192,23.7422375 C1.19899192,27.4762609 4.23683855,30.5141076 7.97068917,30.5141076 L39.7691556,30.5141076 C42.6613391,30.5141076 45.2554572,29.2198995 47.008081,27.1819971 C47.1046714,27.1861441 47.2017802,27.1889087 47.299753,27.1889087 C49.0523767,27.1889087 51.0178796,26.5141581 52.6803062,25.3025444 C54.6670624,23.8543792 55.8874884,21.8928505 56.1164371,19.7789198 C56.219248,18.8301219 55.5332659,17.9779145 54.5846408,17.8751036 L54.5846408,17.8751036 Z M9.86396517,27.0582784 L7.97068917,27.0582784 C6.14220996,27.0582784 4.65482108,25.5707167 4.65482108,23.7422375 L4.65482108,23.6024492 L9.86396517,23.6024492 C10.8167373,23.6024492 11.5918798,24.3775917 11.5918798,25.3303638 C11.5918798,26.2831359 10.8165645,27.0582784 9.86396517,27.0582784 Z M12.2890933,20.7508718 C11.5649243,20.3657196 10.7396723,20.1466201 9.86379238,20.1466201 L4.43157452,20.1466201 C4.2802092,19.3457317 4.32409823,18.6032468 4.57067164,17.7118156 C5.05811635,15.94917 4.65067409,14.067471 3.48070313,12.6654411 L4.74778289,11.5848033 C5.28481874,11.1267332 5.96838175,10.9052145 6.67164298,10.9611989 C7.36401836,11.0159738 7.99453439,11.3332189 8.45087663,11.8552219 L12.8078132,17.4445072 L12.2890933,20.7508718 Z M39.7691556,27.0582784 L14.7503348,27.0582784 C14.9251998,26.5654772 15.0268012,26.038636 15.0435619,25.4907143 L16.2239004,17.9668558 C16.4763487,17.7966562 16.7320801,17.6333683 16.9910944,17.4768192 L17.0588287,17.7674545 C17.2447523,18.5647143 17.955098,19.1031324 18.7399168,19.1031324 C18.869856,19.1031324 19.0020414,19.0884452 19.1338813,19.0575155 C20.0631538,18.840835 20.6409684,17.9117353 20.4241151,16.9822901 L18.4171424,8.37658431 C18.2436597,7.63288987 18.6483373,6.85982089 19.3581646,6.57817081 C19.7621511,6.41782034 20.2012142,6.43147086 20.5941419,6.61704889 C20.9874153,6.80228133 21.2775322,7.13214023 21.4110999,7.54597577 L24.2996548,16.4948454 C24.5927091,17.4030373 25.5669073,17.9015406 26.4747536,17.6084863 C27.3829455,17.315432 27.8816217,16.3415794 27.5883946,15.4333875 L27.49526,15.1448257 C30.2765113,15.4840154 32.9889916,16.5124701 35.1360983,18.0428841 C35.7260083,18.4636313 36.5161836,18.4712341 37.1142149,18.0622367 C37.7125917,17.6532393 37.9919955,16.914383 37.8141931,16.211813 C37.3556045,14.4002673 37.9869845,11.5322747 39.0890484,10.421744 L40.7267659,8.77158558 C41.189847,8.30522144 41.348124,7.61630189 41.1350721,6.99459823 L40.5570847,5.30711685 C40.4090024,4.87444703 40.4763911,4.41292105 40.7423171,4.04072825 C41.0082432,3.66888103 41.4229427,3.45531079 41.8803217,3.45531079 C42.5072091,3.45531079 43.0615241,3.87726753 43.2286134,4.48134647 L44.2651894,8.23195786 L43.1339237,11.9768671 C42.9925803,12.4447864 43.0559947,12.9508926 43.3086159,13.3695663 L44.1233276,14.7190676 C45.2609865,16.6038768 45.862128,18.7635972 45.862128,20.9647876 C45.862128,24.3250631 43.1289127,27.0582784 39.7691556,27.0582784 L39.7691556,27.0582784 Z" id="Shape"></path>
                    </g>
                </g>
                <path d="M20.6188223,5.92262252 C18.8410111,5.92262252 17.2380111,6.73930872 16.1054495,8.04870674 C14.9728878,6.73930872 13.3698878,5.92262252 11.5920766,5.92262252 C8.1613192,5.92262252 5.37986124,8.96528514 5.37986124,12.7193424 C5.37986124,17.977857 16.1054495,25.2713381 16.1054495,25.2713381 C16.1054495,25.2713381 26.8310376,17.977857 26.8310376,12.7193424 C26.8310376,8.96596005 24.0495797,5.92262252 20.6188223,5.92262252 Z" id="Path" fill="#D50032" transform="translate(16.105449, 15.596980) rotate(-25.000000) translate(-16.105449, -15.596980) "></path>
                <path d="M16.1053069,26.9985598 C15.7664832,26.9985598 15.4269847,26.8993427 15.1340576,26.7002332 C15.0199915,26.6226142 12.3141275,24.7746084 9.56911662,22.2354564 C5.58760237,18.5522688 3.65185339,15.4394117 3.65185339,12.719374 C3.65185339,8.01904051 7.21422538,4.19478895 11.5919339,4.19478895 C13.2118076,4.19478895 14.7891595,4.73272194 16.1053069,5.70667099 C17.422129,4.73272194 18.9981311,4.19478895 20.6186796,4.19478895 C24.9963882,4.19478895 28.5587602,8.01904051 28.5587602,12.719374 C28.5587602,15.4394117 26.6230112,18.5522688 22.6414968,22.2354564 C19.8964861,24.7746084 17.1906222,26.6226142 17.076556,26.7002332 C16.7836289,26.8993427 16.4441303,26.9985598 16.1053069,26.9985598 L16.1053069,26.9985598 Z M11.5919339,7.64984444 C9.11892687,7.64984444 7.10690871,9.9244169 7.10690871,12.719374 C7.10690871,15.487333 12.0826207,20.2322127 16.1046318,23.1581095 C20.1266431,20.228838 25.1037047,15.4819334 25.1037047,12.719374 C25.1037047,9.9244169 23.0916867,7.64984444 20.6186796,7.64984444 C19.4030995,7.64984444 18.2644633,8.19317701 17.4120049,9.17927503 C17.0839804,9.55859553 16.6067926,9.77660356 16.1053069,9.77660356 C15.6038209,9.77660356 15.1266331,9.55859553 14.7986088,9.17927503 C13.9461503,8.19317701 12.8068392,7.64984444 11.5919339,7.64984444 L11.5919339,7.64984444 Z" id="Shape" fill="#1C1C20" transform="translate(16.105307, 15.596674) rotate(-25.000000) translate(-16.105307, -15.596674) "></path>
            </g>
        </g>
    </g>
</svg>