<svg xmlns="http://www.w3.org/2000/svg" width="46" height="51" viewBox="0 0 46 51"><g><g><g><path fill="#fdb813" d="M20.444 16.35l2.781 3.437a9.8 9.8 0 0 0 4.553 3.135 13.223 13.223 0 0 1 9.12 12.57c0 7.302-5.898 13.222-13.223 13.222h-5.188a4.05 4.05 0 0 1 0-8.1l-6.217 6.25A4.018 4.018 0 0 1 8.907 48.7c-3.014 0-4.907-3.208-3.532-5.87l4.126-7.779c.592-1.117.499-2.469-.166-3.526a14.36 14.36 0 0 1-.978-14.03l.922-1.948-3.371-.926a4.948 4.948 0 0 1-3.46-6.082L3 6.655c.242-1.006 1.281-1.597 2.286-1.32 1.39.382 2.878.049 3.973-.888a8.606 8.606 0 0 1 7.875-1.76L18.218 3z"/></g><g><path fill="#db9b00" d="M17.839 16.321c-2.295-.63-3.645-3.003-3.014-5.321l2.293-8.32 2.246.617c3.35.921 5.32 4.383 4.399 7.703l-.626 2.307c-.63 2.296-3.003 3.693-5.298 3.014z"/></g><g><g><path fill="#1c1c20" d="M23.668 46.884h-5.189a2.22 2.22 0 0 1-2.217-2.217 2.22 2.22 0 0 1 2.217-2.217h4.026a1.833 1.833 0 1 0 0-3.666h-2.404c.711-3.125 3.198-5.651 6.431-6.313.992-.202 1.632-1.171 1.468-2.163-.242-.992-1.21-1.632-2.203-1.428a11.97 11.97 0 0 0-7.617 5.204c-.045.056-7.46 11.792-7.46 11.792-.4.623-1.08.994-1.82.994-.778 0-1.454-.382-1.9-1.049a2.199 2.199 0 0 1 0-2.13l4.113-7.778c.887-1.71.809-3.776-.254-5.392-2.384-3.627-2.711-8.317-.859-12.24l.555-1.16 3.773-.934a6.106 6.106 0 0 0 3.018 1.908 6.18 6.18 0 0 0 1.654.22c.196 0 .417-.013.636-.037l2.157 2.665c1.41 1.742 3.28 3.057 5.409 3.724a11.363 11.363 0 0 1 7.855 10.827c0 6.28-5.11 11.39-11.39 11.39zM6.386 12.856C4.73 12.401 3.753 10.683 4.208 9l.518-1.856a.055.055 0 0 1 .067-.039 6.166 6.166 0 0 0 5.65-1.262 6.76 6.76 0 0 1 4.346-1.624l-1.739 6.325a6.027 6.027 0 0 0-.188 2.23l-3.567.882zm10.2-1.34l1.806-6.576.48.131C20 5.387 21 6.131 21.563 7.166A4.485 4.485 0 0 1 22 10.55l-.638 2.277a2.455 2.455 0 0 1-1.163 1.497 2.48 2.48 0 0 1-3.613-2.81zm24.979 25.31c-.209 1.925-1.68 3.263-2.565 3.888a6.87 6.87 0 0 1-1.591.92 14.962 14.962 0 0 0 1.314-6.14 15.058 15.058 0 0 0-10.384-14.312 7.894 7.894 0 0 1-3.696-2.545l-1.548-1.913C23.935 16 24.576 15 24.898 13.8l.625-2.277a8.071 8.071 0 0 0-.771-6.17 8.071 8.071 0 0 0-4.91-3.817L17.57.913a10.393 10.393 0 0 0-9.51 2.144 2.504 2.504 0 0 1-2.295.513C3.786 3 1.735 4.194 1.19 6.172L.673 8.056a6.789 6.789 0 0 0 4.742 8.335l1.265.348c-2.387 5.065-1.96 11.115 1.116 15.795.327.466.357 1.135.078 1.661L3.749 42c-.968 1.798-.91 3.942.154 5.711C5 49.481 6.835 50.536 8.9 50.536c1.91 0 3.672-.921 4.771-2.485a5.88 5.88 0 0 0 4.808 2.499h5.189c4.275 0 8.136-1.793 10.879-4.664.11.005.22.008.332.008 2.05 0 4.354-.794 6.307-2.217 2.328-1.677 3.757-3.99 4.024-6.456a1.834 1.834 0 0 0-3.645-.395z"/></g></g></g></g></svg>