<?xml version="1.0" encoding="UTF-8"?>
<svg width="83px" height="34px" viewBox="0 0 83 34" version="1.1" xmlns="http://www.w3.org/2000/svg" xmlns:xlink="http://www.w3.org/1999/xlink">
    <title>Group 10</title>
    <g id="About-Us" stroke="none" stroke-width="1" fill="none" fill-rule="evenodd">
        <g id="About_Us" transform="translate(-408.000000, -2481.000000)" fill-rule="nonzero">
            <g id="Group-10" transform="translate(408.289574, 2481.121227)">
                <g id="Group-3" transform="translate(0.000000, 0.000000)">
                    <g id="Group-2" transform="translate(31.415501, 16.439387) scale(-1, 1) translate(-31.415501, -16.439387) ">
                        <g id="Group" transform="translate(7.570200, 8.142506)">
                            <path d="M17.6563774,0 L16.6340966,0 C14.0370046,0 11.6092684,1.28869557 10.1541088,3.43989537 C9.41993188,4.52507464 8.19503849,5.17538693 6.88483454,5.17538693 C5.936839,5.17538693 5.16832097,5.94390496 5.16832097,6.8919005 L5.16832097,8.66805918 C5.16832097,11.1525485 7.18233705,13.1665646 9.66682643,13.1665646 L17.2605509,13.1665646 L17.6563774,0 Z" id="Path" fill="#FDB813"></path>
                            <path d="M20.5381393,11.7856903 C18.3737453,11.7856903 16.6192757,10.0312207 16.6192757,7.86682672 L16.6192757,0 L18.7372189,0 C21.8962401,0 24.4570029,2.56094354 24.4570029,5.71978399 L24.4570029,7.86682672 C24.4570029,10.0312207 22.7023526,11.7856903 20.5381393,11.7856903 L20.5381393,11.7856903 Z" id="Path" fill="#DB9B00"></path>
                            <path d="M50.7219921,4.08008607 C47.7984787,1.06674351 43.2656321,0.281958637 39.4993154,2.13728262 L32.0205433,5.8213614 C29.6555249,6.98642895 27.0868094,7.6810232 24.4570029,7.86682672 L18.468093,11.1941194 C14.9739748,13.5757661 10.925338,15.0164663 6.71222525,15.377771 C5.5869211,15.4742876 4.41986538,15.5742384 3.30594802,15.6696705 C0.574744839,15.9035516 -0.897766068,19.0025662 0.593180596,21.3117351 C1.22903347,22.2967829 2.3487346,22.9315514 3.52103185,22.9290285 L9.84720766,22.9055244 L13.9873003,22.9109467 C23.0555239,22.922695 31.9458966,20.3953696 39.6518623,15.6150862 L38.6341,14.1563117 L40.7238473,15.9673538 L39.3751452,16.1245999 C37.6550167,16.3252243 36.3578263,17.7825529 36.3578263,19.5144296 C36.3578263,21.3992146 37.8858252,22.9272135 39.7706102,22.9272135 L41.34506,22.9272135 C48.032179,22.9272135 53.4531954,17.5061972 53.4531954,10.8190782 C53.4531954,8.30277815 52.4737505,5.88588655 50.7219921,4.08008607 L50.7219921,4.08008607 Z" id="Path" fill="#FDB813"></path>
                        </g>
                        <g id="Group">
                            <path d="" id="Path" fill="#000000"></path>
                            <g transform="translate(5.801657, 0.000000)">
                                <path d="M54.8288034,12.1998186 C55.5918992,10.4444453 55.7576403,8.16943677 55.2414391,5.97124386 C54.633782,3.38264668 53.1934433,1.34296513 51.185934,0.227782575 C50.3136696,-0.25696939 49.2129465,0.0573421934 48.7281945,0.929968026 C48.2432618,1.80259386 48.5577542,2.90295551 49.43038,3.38770748 C50.9224111,4.21659357 51.5065716,5.87978805 51.7221976,6.79741882 C51.9239065,7.65703117 51.9667425,8.56381738 51.86878,9.37318326 C48.5161833,7.15366271 44.193902,6.82344577 40.4689754,8.65834582 L32.990384,12.3424246 C31.4112349,13.1203413 29.7502094,13.6632924 28.0327921,13.9669401 L28.0327921,13.8624708 C28.0327921,9.71189511 24.6559759,6.33525969 20.5055809,6.33525969 C20.5055809,6.33525969 18.3720939,6.33634415 18.3641412,6.33652489 C15.1772857,6.34917688 12.2118399,7.92904896 10.4255596,10.5698808 C10.027022,11.159102 9.36441916,11.5108274 8.65319657,11.5108274 C6.71003163,11.5108274 5.1290751,13.0917839 5.1290751,15.0349488 L5.1290751,16.8111075 C5.1290751,18.8305459 6.08448109,20.6300204 7.56566765,21.7849663 L4.920498,22.0116177 C3.0011911,22.1759128 1.34866045,23.3064585 0.500434882,25.0356241 C0.482541353,25.0719533 0.46772045,25.1091863 0.450730635,25.1456964 C0.0180325725,28.0095045 -0.103125295,29.1902364 0.0872570327,28.6878921 C0.229320808,29.2821742 0.497723741,29.8995913 0.843123071,30.4345897 C1.81533814,31.9401766 3.49028089,32.8787735 5.28433309,32.8787735 L5.29608137,32.8787735 C5.29608137,32.8787735 15.7968717,32.8606992 15.8192838,32.8606992 C22.9383779,32.8605185 29.9363744,31.3558354 36.3829248,28.4715431 C36.7756787,30.9641659 38.9380846,32.8767853 41.5393338,32.8767853 L43.1137836,32.8767853 C50.7868541,32.8767853 57.029346,26.6342934 57.029346,18.9612229 C57.029346,16.5027604 56.2563094,14.1536474 54.8288034,12.1998186 Z M20.5057617,9.94993327 C22.6631067,9.94993327 24.4181185,11.704945 24.4181185,13.8622901 L24.4181185,16.0091521 C24.4181185,17.1733159 23.4708459,18.1205885 22.3065013,18.1205885 C21.1421568,18.1205885 20.1950649,17.1733159 20.1950649,16.0091521 L20.1950649,9.94993327 L20.5057617,9.94993327 Z M13.4197435,12.5951029 C14.188623,11.4582312 15.3074204,10.6360326 16.5802106,10.2318919 L16.5802106,16.0091521 C16.5802106,17.0876439 16.8802435,18.0972727 17.4007825,18.9594154 C17.055564,19.1499183 16.7049231,19.3293958 16.3506674,19.5016436 L11.4351885,19.5016436 C9.95129076,19.5016436 8.74392942,18.2942822 8.74392942,16.8103845 L8.74392942,15.1245972 C10.6223885,15.0951362 12.3647482,14.1543703 13.4197435,12.5951029 Z M41.5393338,29.261931 C40.6542367,29.261931 39.933977,28.541852 39.933977,27.6565742 C39.933977,26.8419668 40.5441644,26.1564096 41.3535302,26.0620619 L42.7022324,25.904635 C43.4138165,25.8216741 44.0090022,25.3262584 44.219929,24.6417857 C44.4308557,23.9571323 44.2175793,23.212653 43.6762549,22.7436257 L41.5865076,20.9325837 C40.832449,20.2788373 39.6906973,20.3603522 39.0369509,21.1147723 C38.5221956,21.7088736 38.463635,22.5430013 38.8301812,23.1900602 C31.7969399,27.1671229 23.8560086,29.2570509 15.7583735,29.2458449 L5.28595977,29.2639192 C5.28469457,29.2639192 5.28342938,29.2639192 5.28216418,29.2639192 C4.72366918,29.2639192 4.18342921,28.9432816 3.88014293,28.473712 C3.37062921,27.6844086 3.60866737,26.9072149 3.74603183,26.6274252 C3.88267333,26.3489006 4.30055049,25.6924431 5.22902582,25.6129163 L8.63530304,25.3210168 C11.689132,25.0593014 14.7191029,24.2414406 17.4900694,22.9639511 C18.4666223,22.5092024 19.4607073,21.972758 20.3770728,21.4003458 C20.9802113,21.6168756 21.6298006,21.7358043 22.3066821,21.7358043 C24.8893148,21.7358043 27.0773861,20.0167603 27.7886087,17.6631287 C30.1525426,17.3421296 32.4338772,16.6466316 34.5879689,15.5854912 L42.0665603,11.9014124 C45.1395479,10.3875114 48.8077213,11.0222798 51.1931637,13.4812845 C52.6257305,14.9579524 53.4146724,16.90419 53.4146724,18.9614036 C53.4146724,24.6410627 48.7936234,29.261931 43.1137836,29.261931 L41.5393338,29.261931 Z" id="Shape" fill="#1C1C20"></path>
                                <path d="" id="Path" fill="#000000"></path>
                            </g>
                        </g>
                    </g>
                </g>
                <g id="Group-9" transform="translate(67.710426, 17.878773)">
                    <path d="M7.5,15 C11.6354733,15 15,11.6356844 15,7.50013602 C15,3.36458768 11.6354733,0 7.5,0 C3.36452666,0 0,3.36458768 0,7.50013602 C0,11.6356844 3.36452666,15 7.5,15 Z" id="Shape" fill="#1C1C20"></path>
                    <circle id="Oval" fill="#8E5AA9" transform="translate(7.656854, 7.656854) rotate(-45.000000) translate(-7.656854, -7.656854) " cx="7.65685425" cy="7.65685425" r="4"></circle>
                </g>
            </g>
        </g>
    </g>
</svg>