<svg xmlns="http://www.w3.org/2000/svg" width="81" height="85" viewBox="0 0 81 85"><g><g><g><path fill="#fdb813" d="M70 1.77L44.88 16.245l2.12 3.61c1 1.783.388 4.064-1.399 5.093l-6.274 3.617a3.723 3.723 0 0 1-5.101-1.365l-2.088-3.61-11.844 6.827C7 38.1 2.194 55.139 9.882 68.449c7.672 13.284 24.68 17.837 37.98 10.171C61.156 71 65.711 54 58 40.708a23.068 23.068 0 0 0-3-4.213L78.804 17z"/></g><g><path fill="#8e5aa9" d="M41.51 53.364c-.768.111-1.51-.15-2.094-.69a5.824 5.824 0 0 0-6.965-.848 5.87 5.87 0 0 0-2.75 6.477 2.522 2.522 0 0 1-.451 2.165c-1.432 1.828-1.696 4.417-.467 6.532 1.59 2.787 5.15 3.765 7.922 2.197a5.82 5.82 0 0 0 2.47-2.73A2.468 2.468 0 0 1 41.723 65a5.862 5.862 0 0 0 3.59-.792C48.052 62.584 49 59 47.397 56.235 46.17 54.1 43.802 53 41.51 53.365z"/></g><g transform="rotate(-35.93 -979 -1851)"><path fill="#8e5aa9" d="M25.82 56.581c2.331-.004 4.225-2.41 4.225-5.41s-1.875-5.385-4.207-5.381c-2.333.004-4.227 2.38-4.233 5.38-.005 3 1.882 5.415 4.214 5.411z"/></g><g transform="rotate(-52.763 -982 -1841)"><path fill="#8e5aa9" d="M23.487 65.73c2.193-.005 3.974-2.274 3.98-5.115.004-2.75-1.77-5-3.962-5-2.193 0-3.975 2.264-3.98 5.06-.004 2.795 1.73 5.058 3.962 5.054z"/></g><g transform="rotate(-24.079 -970 -1856.5)"><path fill="#8e5aa9" d="M35.064 51.055c2.33 0 4.222-2.408 4.227-5.388.003-2.981-1.882-5.395-4.212-5.392-2.33.003-4.222 2.422-4.226 5.403-.004 2.98 1.881 5.377 4.211 5.377z"/></g><g transform="rotate(-7.239 -960 -1853.5)"><path fill="#8e5aa9" d="M45.006 53.53c2.198-.002 4-2.274 4-5.077 0-2.802-1.798-5.073-4-5.072-2.174 0-3.949 2.273-4 5.076 0 2.802 1.821 5.073 4 5.072z"/></g><g><path fill="#3d113e" d="M7.303 73.8a2.657 2.657 0 0 1-3.65-.985 2.697 2.697 0 0 1-.267-2.045 2.628 2.628 0 0 1 1.245-1.636c.369-.24.869-.362 1.369-.362.195 0 .428.031.659.093.69.186 1.265.632 1.622 1.256.357.623.451 1.349.267 2.044A2.673 2.673 0 0 1 7.303 73.8zm73.05-57.523L71.507.83a1.648 1.648 0 0 0-1-.773 1.623 1.623 0 0 0-1.249.166L44.057 14.895a1.667 1.667 0 0 0-.602 2.267l2.095 3.66a2.132 2.132 0 0 1-.77 2.895l-6.296 3.666c-1.004.617-2.292.236-2.871-.776l-2.096-3.66a1.647 1.647 0 0 0-1-.773 1.633 1.633 0 0 0-1.248.166l-11.887 6.92a29.959 29.959 0 0 0-7.32 5.98c-.607.683-.55 1.76.126 2.345a1.637 1.637 0 0 0 2.325-.127A27.06 27.06 0 0 1 21 32.135L31.49 26l1.271 2.267A5.395 5.395 0 0 0 36 30.8c1.429.377 2.882.199 4.13-.543l6.297-3.666c2.573-1.5 3.462-4.833 1.974-7.43L47.13 16.94 69.48 3.928l7.324 12.79L54 35.576a1.792 1.792 0 0 0-.556 1.138c-.038.445.102.886.39 1.225A25.144 25.144 0 0 1 56.658 42C63.895 54.6 59.585 70.823 47 78.12c-6 3.537-13.103 4.476-19.878 2.644-6.775-1.833-12.437-6.217-15.941-12.344C8 62.854 7 56.305 8.25 50c.183-.92-.39-1.797-1.251-2a1.728 1.728 0 0 0-2 1.308A30.12 30.12 0 0 0 6.194 65.46 5.815 5.815 0 0 0 3 66.26a5.938 5.938 0 0 0-2.794 3.652 5.996 5.996 0 0 0 .596 4.564A5.968 5.968 0 0 0 6 77.481c1 0 2-.26 2.95-.805a5.953 5.953 0 0 0 2.284-2.387C15.104 79 20.302 82.356 26.27 84c2.548.66 5.133 1 7.731 1 5.09 0 10.143-1.354 14.695-4 14.108-8.218 18.96-26.474 10.814-40.7a30.102 30.102 0 0 0-2.118-3.204L80 18.39c.594-.516.755-1.39.352-2.113z"/></g><g><path fill="#3d113e" d="M20.343 59.257c.44-.584 1.18-.68 1.581-.687H22c.788 0 1.687.33 2.443.909 1.466 1.124 2.066 2.92 1.31 3.924-.753 1.003-2.635.901-4.1-.222-.77-.59-1.332-1.394-1.543-2.181-.11-.416-.206-1.16.233-1.743zm4.135-11.363c.311 0 .593.106.792.106.873.263 1.73.9 2.344 1.76.617.859.95 1.876.916 2.791-.017.449-.144 1.277-.806 1.761-1.124.82-3.073.122-4.256-1.525-1.183-1.647-1.233-3.732-.11-4.552a2.056 2.056 0 0 1 1.12-.341zm6.599 10.276c-.443-1.809.366-3.723 1.923-4.655.692-.377 1.412-.515 2.128-.515 1.057 0 2.105.354 2.872 1.124 1 .876 2.225 1.322 3.49 1.138 1.7-.262 3.355.564 4.214 2.064 1.14 1.99.471 4.561-1.49 5.73a4.108 4.108 0 0 1-2.568.563 4.117 4.117 0 0 0-4.224 2.459c-.365.833-.976 1.511-1.766 1.922-1.985 1.167-4.528.466-5.656-1.525a4.203 4.203 0 0 1 .323-4.711 4.185 4.185 0 0 0 .754-3.594zm3.005-15.907c1.146 0 2.452 1.004 3.127 2.525.791 1.857.448 3.907-.818 4.478-.747.337-1.521.035-1.916-.176-.803-.427-1.475-1.227-1.94-2.196-.822-1.894-.448-3.894.819-4.478a1.76 1.76 0 0 1 .728-.153zm8.866 4.068c.205-.331.658-.945 1.38-1.037.063-.009.126-.012.187-.012.635 0 1.145.408 1.406.668.591.59 1 1.482 1.079 2.449.165.967 0 1.934-.436 2.654-.206.348-.66.947-1.38 1.037-1.24.157-2.483-1.263-2.716-3.09-.122-1 .053-1.95.48-2.67zM16.925 61.817c.4 1.538 1.371 2.961 2.735 4.007 1.34 1.054 2.965 1.574 4.458 1.574.882 0 1.7-.177 2.442-.525.152.432.344.854.577 1.262a7.429 7.429 0 0 0 6.491 3.76c1.24 0 2.495-.31 3.645-.964a7.445 7.445 0 0 0 3.161-3.511.835.835 0 0 1 .859-.5 7.355 7.355 0 0 0 4.596-1.006c3.508-2.09 4.705-6.689 2.666-10.249a7.634 7.634 0 0 0-.792-1.131c.639-.447 1.237-1.05 1.627-1.779.809-1.365 1.135-3.06.919-4.755-.216-1.734-.952-3.293-2.073-4.41C47 42.381 45.45 41.802 43.912 42c-1.343.172-2.567.925-3.437 2.095a8.644 8.644 0 0 0-.26-.662C38.635 39.873 35 38.057 32 39.385c-2.417 1.094-3.598 3.986-3.056 6.961a7.402 7.402 0 0 0-2.766-1.526c-1.71-.495-3.441-.23-4.75.726-2.614 1.908-2.894 6.03-.626 9.188.14.196.289.38.442.56-1.442.173-2.702.866-3.522 1.954-.937 1.244-1.228 2.91-.797 4.57z"/></g><g><path fill="#3d113e" d="M9.106 44.18c.894 0 1.646-.743 1.646-1.66 0-.917-.752-1.66-1.646-1.66-.909 0-1.646.743-1.646 1.66 0 .917.737 1.66 1.646 1.66z"/></g></g></g></svg>