<svg xmlns="http://www.w3.org/2000/svg" width="30" height="30" viewBox="0 0 30 30"><g><g><g><path fill="#f1f1f1" d="M.86.58h21.738V29H.86z"/></g><g><g><path fill="#8e5aa9" d="M16.17 24.47L15.68 29l3.694-2.68z"/></g><g transform="rotate(30 -213.5 -1798.5)"><path fill="#fdb813" d="M20.458 8.64h3.7v18.079h-3.7z"/></g><g><path fill="#fc4848" d="M28.414 10.67L25.21 8.82l.62-1.075a1.85 1.85 0 0 1 2.527-.677A1.81 1.81 0 0 1 29 9.595z"/></g></g><g><g><path fill="#1c1c20" d="M17.576 9.37H5.898a.578.578 0 1 0 0 1.156h11.678a.578.578 0 0 0 0-1.156z"/></g><g><path fill="#1c1c20" d="M5.898 13.756h3.854a.578.578 0 1 0 0-1.156H5.898a.578.578 0 0 0 0 1.156z"/></g><g><path fill="#1c1c20" d="M17.57 12.6h-4.292c-.278 0-.578.259-.578.578 0 .32.3.578.578.578h4.293a.578.578 0 1 0 0-1.156z"/></g><g><path fill="#1c1c20" d="M17.576 6.13H5.898a.578.578 0 0 0-.578.578c0 .292.259.578.578.578h11.678c.32 0 .578-.286.578-.578a.578.578 0 0 0-.578-.578z"/></g><g><path fill="#1c1c20" d="M18.154 16.418a.578.578 0 0 0-.578-.578H5.898a.578.578 0 0 0-.578.578c0 .32.259.582.578.582h11.678c.32 0 .578-.263.578-.582z"/></g><g><path fill="#1c1c20" d="M5.898 20.236h2.977c.32 0 .579-.236.579-.578a.578.578 0 0 0-.579-.578H5.898a.578.578 0 0 0-.578.578c0 .342.259.578.578.578z"/></g><g><path fill="#1c1c20" d="M15.66 19.658a.578.578 0 0 0-.579-.578h-3.613a.578.578 0 0 0-.578.578c0 .342.259.578.578.578h3.613c.32 0 .579-.236.579-.578z"/></g><g><path fill="#1c1c20" d="M5.898 23.476H11a.575.575 0 0 0 .564-.578.575.575 0 0 0-.564-.578H5.898a.578.578 0 1 0 0 1.156z"/></g><g><path fill="#1c1c20" d="M22 28.444h-4.54l2.264-1.654a.579.579 0 0 0 .16-.178L22 22.9zm6.077-20.879c.607.351.816 1.13.465 1.738l-.33.573L26 8.604 26.34 8a1.292 1.292 0 0 1 1.737-.435zM16.659 25.418l1.666.962-1.921 1.404zm2.513.115L17 24.261l8.43-14.656 2.203 1.272zm6.166-18.08l-2.154 3.731v-3.09a.578.578 0 0 0-.578-.578c-.32 0-.606.258-.606.578v5.092l-6.322 10.998a.58.58 0 0 0-.074.227l-.434 4.033H1.446V1.156H22v1.735c0 .319.286.578.606.578.319 0 .578-.259.578-.578V.578A.578.578 0 0 0 22.606 0H.868A.578.578 0 0 0 .29.578V29c0 .341.259.6.578.6h21.738c.319 0 .578-.259.578-.6v-8.103l6.36-11.016a2.429 2.429 0 0 0-4.206-2.428z"/></g><g><path fill="#1c1c20" d="M22.598 4.91c-.153 0-.301.09-.409.17a.604.604 0 0 0-.189.408c0 .153.082.301.19.409.107.103.256.17.408.17a.573.573 0 0 0 .402-.17.562.562 0 0 0 0-.818c-.1-.079-.25-.169-.402-.169z"/></g></g></g></g></svg>