<svg xmlns="http://www.w3.org/2000/svg" width="85" height="85" viewBox="0 0 85 85"><g><g><g><g><path fill="#fdb813" d="M76 12v23.752c0 7.437-1.814 14.612-5.06 21.016a13.899 13.899 0 0 0-.878-.029c-7.344 0-13.3 5.955-13.3 13.261 0 1.105.125 2.141.363 3.135a46.558 46.558 0 0 1-5.291 3.392 337.82 337.82 0 0 1-13.024 6.77 337.834 337.834 0 0 1-13.025-6.77A46.535 46.535 0 0 1 1.66 35.752V12C18.18 12 38.81 1.66 38.81 1.66S59.44 12 76 12z"/></g><g><path fill="#ffdd69" d="M38.807 75.876A292.931 292.931 0 0 1 29 70.71 39.874 39.874 0 0 1 8.3 35.757V18.18C20.633 16.66 33.214 11.515 38.807 9 44.4 11.515 57 16.66 69.314 18.18v17.577A39.892 39.892 0 0 1 48.632 70.71a318.557 318.557 0 0 1-9.825 5.166z"/></g><g><g><g><path fill="#d50032" d="M32.547 41.083A6.034 6.034 0 0 1 34.372 38a6.205 6.205 0 0 1 8.478 0 6.035 6.035 0 0 1 1.825 3.083c.22.917.855 1.661 1.705 2.06 2.162 1.014 3.62 3.231 3.62 5.79-.101 3.303-2.78 6.002-6.083 6.067a6.051 6.051 0 0 1-3.64-1c-1.006-.683-2.277-.683-3.332 0a6.05 6.05 0 0 1-3.64 1c-3.305-.065-5.981-2.764-6.053-6.067a6.238 6.238 0 0 1 3.59-5.79 3.075 3.075 0 0 0 1.705-2.06z"/></g><g><path fill="#d50032" d="M43.247 37.428c2.495 0 4.518-2.428 4.518-5.428s-2.023-5.44-4.518-5.44c-2.495 0-4.517 2.44-4.517 5.44 0 3 2.022 5.428 4.517 5.428z"/></g><g transform="rotate(-25.155 -485.5 -1278)"><path fill="#d50032" d="M28.42 43.766c2.133 0 3.862-1.997 3.862-4.459 0-2.462-1.729-4.458-3.862-4.458s-3.862 1.996-3.862 4.458 1.73 4.459 3.862 4.459z"/></g><g><path fill="#d50032" d="M34 37.428c2.462 0 4.485-2.428 4.485-5.428S36.462 26.56 34 26.56c-2.528 0-4.55 2.44-4.55 5.44 0 3 2.022 5.428 4.55 5.428z"/></g><g transform="rotate(-64.845 -465.5 -1278)"><path fill="#d50032" d="M48.752 42.7c2.463 0 4.459-1.73 4.459-3.863s-1.996-3.862-4.459-3.862c-2.462 0-4.458 1.729-4.458 3.862s1.996 3.862 4.458 3.862z"/></g></g><g><g><path fill="#1c1c20" d="M47.487 41.876c-1.148-.54-1.487-2.155-.85-3.6.528-1.124 1.545-1.82 2.51-1.82.277 0 .549.057.853.176.468.244.85.724 1 1.368.228.697.147 1.495-.2 2.233-.679 1.445-2.166 2.182-3.313 1.643zM41.14 52.685a4.553 4.553 0 0 0-5.066 0 4.659 4.659 0 0 1-2.728.78 4.67 4.67 0 0 1-4.537-4.57 4.64 4.64 0 0 1 2.692-4.34 4.63 4.63 0 0 0 2.561-3.11 4.66 4.66 0 0 1 4.544-3.568 4.66 4.66 0 0 1 4.545 3.569 4.628 4.628 0 0 0 2.561 3.108 4.64 4.64 0 0 1 2.692 4.341 4.67 4.67 0 0 1-4.536 4.57 4.658 4.658 0 0 1-2.728-.78zM26.233 38c.177-.644.56-1.124 1.077-1.367.255-.12.527-.177.803-.177.966 0 1.982.696 2.51 1.82.68 1.445.299 3.06-.85 3.6-.516.243-1.13.23-1.773-.034-.63-.3-1.193-.842-1.54-1.61-.347-.737-.46-1.535-.227-2.232zM34 28.125c1.601 0 2.927 1.737 2.927 3.875 0 2.131-1.326 3.868-2.927 3.868-1.657 0-3-1.737-3-3.868 0-2.138 1.343-3.875 3-3.875zm9.244 0c1.629 0 2.954 1.737 2.954 3.875 0 2.131-1.325 3.868-2.954 3.868-1.63 0-2.955-1.737-2.955-3.868 0-2.138 1.325-3.875 2.955-3.875zm8.036 5.68a4.934 4.934 0 0 0-2.07-.468c.074-.434.114-.882.114-1.337 0-3.861-2.728-7-6.08-7-1.857 0-3.52 1-4.636 2.477C37.49 26 35.828 25 34 25c-3.38 0-6.108 3.139-6.108 7 0 .455.04.904.108 1.338a4.77 4.77 0 0 0-2 .466c-1.37.635-2.349 1.82-2.776 3.335-.403 1.434-.224 3.005.407 4.423.667 1.438 1.784 2.532 3.146 3.136l.055.023A7.904 7.904 0 0 0 25.685 49c.092 4.12 3.417 7.469 7.571 7.589a7.74 7.74 0 0 0 4.553-1.304 1.6 1.6 0 0 1 1.597 0c1.286.857 2.89 1.305 4.437 1.305C48 56.47 51.44 53.12 51.53 49c.033-1.56-.38-3-1.142-4.27 1.349-.571 2.537-1.67 3.24-3.168.667-1.418.812-2.99.372-4.423-.39-1.516-1.37-2.7-2.72-3.335zM43.843 56.59c-.077.003.077 0 0 0z"/></g></g></g><g><path fill="#8e5aa9" d="M70.06 83.34c7.345 0 13.3-5.955 13.3-13.34 0-7.305-5.955-13.26-13.3-13.26-7.345 0-13.3 5.955-13.3 13.26 0 7.385 5.955 13.34 13.3 13.34z"/></g></g><g><path fill="#1c1c20" d="M47.835 69.251A313.502 313.502 0 0 1 38.81 74a288.817 288.817 0 0 1-9.024-4.748C17.559 62.529 10 49.693 10 35.752V19.63C21.355 18 32.603 13.563 38.81 10.814 45 13.564 56.265 18 67.656 19.63v16.124c0 13.816-7.721 26.846-19.821 33.498zM70.063 81.68c-6.335 0-11.64-5.306-11.64-11.679 0-6.557 5.72-11.933 12.29-11.58 6.117.338 10.99 5.42 10.99 11.58 0 6.458-5.222 11.679-11.64 11.679zm-31.989 3.108c.46.213 1.012.213 1.472 0A369.42 369.42 0 0 0 52.635 78a55.394 55.394 0 0 0 3.614-2.218C58.505 81.19 63.847 85 70.063 85 78.313 85 85 78.289 85 70c0-7.062-4.95-13-11.596-14.545a48.395 48.395 0 0 0 4.216-19.702V12c0-1-.743-1.694-1.62-1.694-16 0-36.245-10.03-36.448-10.131a1.661 1.661 0 0 0-1.484 0C38 .196 33.696 2.349 27.514 4.65c-.86.35-1.297 1.276-.977 2.136a1.66 1.66 0 0 0 2.136.977c4.907-1.827 8.62-3.534 10.137-4.257 1.687.805 6.09 2.826 11.822 4.871 9.01 3.214 16.96 4.966 23.667 5.218v22.158a45.048 45.048 0 0 1-4.38 19.327c-1.361.013-2.724.21-4.032.592A41.51 41.51 0 0 0 71 35.752V18.177c0-.839-.647-1.546-1.48-1.648C57.2 15 44.417 9.695 39.492 7.48a1.66 1.66 0 0 0-1.362 0C33.205 9.696 20.421 15 8.1 16.528a1.66 1.66 0 0 0-1.457 1.648v17.577a41.553 41.553 0 0 0 21.544 36.409 320.32 320.32 0 0 0 9.875 5.192c.468.236 1.03.236 1.498 0a320.667 320.667 0 0 0 9.876-5.192c2.045-1.162 3.97-2.407 5.765-3.826-.2 1.354-.126 2.73.09 4.077a41.698 41.698 0 0 1-4.29 2.66c-3.686 2.046-7.795 4.187-12.19 6.372a334.859 334.859 0 0 1-12.224-6.372 44.874 44.874 0 0 1-23.265-39.32V13.594c3.416-.13 7.202-.659 11.28-1.594.895-.18 1.457-1.069 1.256-2-.2-.858-1.09-1.42-1.984-1.22-4.512 1.012-8.621 1.526-12.212 1.526C.743 10.306 0 11 0 12v23.753C0 53.328 9.574 69.51 25 78c4 2.166 8.36 4.455 13.074 6.787z"/></g><g><path fill="#1c1c20" d="M67.879 72.258l-2.584-2.584a1.617 1.617 0 0 0-2.349 0c-.648.648-.648 1.7 0 2.326l3.758 3.78c.64.64 1.709.64 2.35 0l8.135-8.135a1.66 1.66 0 0 0-2.349-2.349z"/></g><g><path fill="#1c1c20" d="M22.735 7.574c-.494-.757-1.554-.96-2.301-.46A1.648 1.648 0 0 0 20 9.417c.478.753 1.523.958 2.277.458.723-.5.959-1.55.458-2.301z"/></g></g></g></svg>