<svg xmlns="http://www.w3.org/2000/svg" width="85" height="75" viewBox="0 0 85 75"><g><g><g><g><path fill="#d50032" d="M81.237 12.45H3.305c-.914 0-1.655.74-1.655 1.655v15.681c0 .915.741 1.655 1.655 1.655h77.932c.913 0 1.654-.74 1.654-1.655V14.105c0-.915-.741-1.655-1.654-1.655z"/></g><g><path fill="#ffdd69" d="M54.284 6.852a6.134 6.134 0 0 1 12.195.93 6.117 6.117 0 0 1-2.149 4.66 6.132 6.132 0 0 1-3.984 10.792 6.114 6.114 0 0 1-6.062-5.234h-24.35a6.114 6.114 0 0 1-6.062 5.235 6.132 6.132 0 0 1-3.983-10.792 6.132 6.132 0 1 1 10.046-5.59z"/></g><g><path fill="#fdb813" d="M5.23 31.6v40.087c0 .914.77 1.655 1.655 1.655h70.782c.914 0 1.655-.74 1.655-1.655V31.6z"/></g><g><path fill="#8e5aa9" d="M13.85 53.55h27.258V73H13.85z"/></g><g><path fill="#511c6c" d="M39.146 45.18H15.812a1.962 1.962 0 0 0-1.962 1.962v6.41h27.258v-6.41a1.962 1.962 0 0 0-1.962-1.962z"/></g><g><path fill="#fc4848" d="M69.428 59.096H53c-.91 0-1.65-.74-1.65-1.651V41.78c0-.912.74-1.651 1.65-1.651h16.428c.912 0 1.651.74 1.651 1.651v15.664c0 .912-.74 1.651-1.651 1.651z"/></g></g><g><g><path fill="#1c1c20" d="M53 41.79h16.419l.002 15.656H53zm19.728 0c0-1.79-1.484-3.31-3.309-3.31H53c-1.826 0-3.31 1.52-3.31 3.31v15.656a3.313 3.313 0 0 0 3.31 3.31h16.42a3.313 3.313 0 0 0 3.308-3.31z"/></g><g><path fill="#1c1c20" d="M3.31 29.783V14.102h13.377c-.394.898-.604 1.96-.604 3.005 0 4.294 3.493 7.788 7.787 7.788 3.323 0 6.263-2.157 7.345-5.203H53c1.08 3.046 4 5.203 7.344 5.203 4.294 0 7.787-3.494 7.787-7.788 0-1.045-.21-2.107-.604-3.005h13.715v15.681zM28.295 7.105a1.655 1.655 0 0 0 1.636 1.406h24.35c.817 0 1.512-.597 1.635-1.406.33-2.164 2.233-3.796 4.426-3.796a4.475 4.475 0 1 1 2.908 7.88c-.367.315-.579.811-.579 1.258 0 .484.212.943.58 1.257a4.475 4.475 0 0 1-2.909 7.881c-2.194 0-4.096-1.585-4.426-3.796a1.672 1.672 0 0 0-1.636-1.406h-24.35c-.817 0-1.512.617-1.635 1.406C28 20 26.063 21.585 23.87 21.585a4.483 4.483 0 0 1-4.478-4.477c0-1.31.608-2.55 1.608-3.404a1.76 1.76 0 0 0 .54-1.257c0-.447-.211-.943-.54-1.257-1-.854-1.608-2.094-1.608-3.403a4.483 4.483 0 0 1 4.478-4.478c2.194 0 4.13 1.632 4.426 3.796zm-12.791 48.1h10.32V71.69h-10.32zm.307-8.372h23.334c.17 0 .307.167.307.307v4.755H15.505V47.14c0-.14.137-.307.307-.307zM29.134 71.69V55.204h10.32v16.487zM81.24 10.792H67.526c.395-.94.605-1.96.605-3.005C68.13 3.493 64.637 0 60.344 0 57 0 54.08 2.156 53 5.202H31.214C30.133 2.156 27.194 0 23.87 0c-4.294 0-7.787 3.493-7.787 7.787 0 1.045.21 2.065.604 3.005H3.309A3.313 3.313 0 0 0 0 14.102v15.681a3.313 3.313 0 0 0 3.31 3.31h.265V71.69A3.313 3.313 0 0 0 6.884 75h46.91a1.655 1.655 0 0 0 0-3.31H42.761V47.14a3.62 3.62 0 0 0-3.616-3.617H15.812a3.62 3.62 0 0 0-3.616 3.617v24.55H6.884V33.094h70.782V71.69h-9.039c-.914 0-1.627.74-1.627 1.654 0 .914.713 1.655 1.627 1.655h9.04C79.49 75 81 73.516 81 71.69V33.094h.241a3.313 3.313 0 0 0 3.31-3.31V14.102a3.313 3.313 0 0 0-3.31-3.31z"/></g><g><path fill="#1c1c20" d="M61.211 75c.912 0 1.652-.747 1.652-1.659a1.651 1.651 0 0 0-3.303 0c0 .912.74 1.659 1.651 1.659z"/></g></g></g></g></svg>