<svg xmlns="http://www.w3.org/2000/svg" width="85" height="55" viewBox="0 0 85 55"><g><g><g><path fill="#4dbaf6" d="M74.372 43.859h8.965V31.107a6.796 6.796 0 0 0-6.796-6.795h-2.886L69.603 9.876a7.517 7.517 0 0 0-7.238-5.486H52.79V43.86z"/></g><g><path fill="#d8d8e4" d="M52.79 37.2h30.547v6.66H52.79z"/></g><g><path fill="#c9f3ff" d="M73.655 24.311H62.127a2.417 2.417 0 0 1-2.417-2.416v-8.449c0-1.334 1.082-2.446 2.417-2.446h7.32z"/></g><g><path fill="#b3b6c3" d="M52.793 33.23H1.66v10.625h51.133z"/></g><g><path fill="#898998" d="M25.9 45.515a7.305 7.305 0 1 1-14.61 0 7.305 7.305 0 0 1 14.61 0z"/></g><g><path fill="#898998" d="M73.71 45.515a7.305 7.305 0 1 1-14.61 0 7.305 7.305 0 0 1 14.61 0z"/></g><g><path fill="#ff5d5d" d="M76.37 31.22h6.973v5.977H76.37z"/></g><g><path fill="#ff5d5d" d="M48 28.243h1.389a3.404 3.404 0 0 0 3.404-3.404c0-5.467-4.432-9.899-9.9-9.899H5.61a3.95 3.95 0 0 0-3.949 3.95v6.261a3.064 3.064 0 0 0 3.092 3.092H48z"/></g><g><path fill="#c9f3ff" d="M5.82 14.941l5.973-10.178a6.304 6.304 0 0 1 5.42-3.103h12.564c2.051 0 3.973 1 5.149 2.68l7.408 10.584z"/></g><g><path fill="#898998" d="M17.247 28.248a5 5 0 0 1-4.988 4.99 4.989 4.989 0 0 1 0-9.978 4.998 4.998 0 0 1 4.988 4.988z"/></g><g><path fill="#898998" d="M47.177 28.248a4.991 4.991 0 0 1-4.989 4.99 4.989 4.989 0 1 1 4.989-4.99z"/></g><g><path d="M32.92 42.2c-.436 0-.865.178-1.174.487a1.682 1.682 0 0 0-.486 1.173c0 .436.178.865.486 1.14.31.343.738.52 1.174.52.437 0 .865-.177 1.174-.52.309-.275.486-.704.486-1.14 0-.436-.177-.86-.486-1.173a1.674 1.674 0 0 0-1.174-.487z"/></g><g><path d="M81.68 35.537H78v-2.656h3.68zm0 6.66H74.73a9 9 0 0 0-2.332-3.34h9.28zm-15.274 8.966a5.65 5.65 0 0 1-5.644-5.645 5.651 5.651 0 0 1 5.644-5.644 5.651 5.651 0 0 1 5.645 5.644 5.65 5.65 0 0 1-5.645 5.645zm-8.325-8.965h-3.628v-3.34h5.96a9 9 0 0 0-2.332 3.34zM54.453 6h7.915c2.27 0 4.315 1.374 5.278 3.37H62.13a4.081 4.081 0 0 0-4.077 4.076v8.448c0 2.248 1.83 4.106 4.077 4.106h14.415a5.12 5.12 0 0 1 4.898 3.56h-5.075a1.66 1.66 0 0 0-1.66 1.66v4.317H54.453zm17.015 16.65h-9.339a.758.758 0 0 1-.756-.756v-8.448a.74.74 0 0 1 .756-.757h6.543zm-22.079 3.934h-.757c-.74-2.865-3.347-4.988-6.44-4.988-3.093 0-5.7 2.123-6.438 4.988H18.7c-.7-2.865-3.346-4.988-6.439-4.988s-5.7 2.123-6.439 4.988h-1.07c-.752 0-1.432-.642-1.432-1.431V18.89a2.292 2.292 0 0 1 2.29-2.29h37.284c4.543 0 8.239 3.696 8.239 8.24 0 .96-.782 1.743-1.744 1.743zm1.744 4.989h-3.189c.3-.517.535-1.076.687-1.668h.758c.611 0 1.2-.11 1.744-.31zm-8.941 0a3.332 3.332 0 0 1-3.328-3.328 3.332 3.332 0 0 1 3.328-3.329c1.808 0 3.329 1.493 3.329 3.329 0 1.834-1.521 3.328-3.329 3.328zm-24.192 0a6.182 6.182 0 0 0 .7-1.668h17.053c.153.592.387 1.151.687 1.668zm-5.739 0a3.332 3.332 0 0 1-3.329-3.328 3.332 3.332 0 0 1 3.33-3.329 3.332 3.332 0 0 1 3.327 3.329 3.333 3.333 0 0 1-3.328 3.328zm.961-25.969C14 4.195 15.577 3.32 17.211 3.32h5.203v9.961H8.716zM25.734 3.32h4.04c1.508 0 2.925.738 3.788 1.973l5.592 7.988h-13.42zm-7.14 36.554a5.651 5.651 0 0 1 5.644 5.644 5.65 5.65 0 0 1-5.644 5.645 5.65 5.65 0 0 1-5.645-5.645 5.651 5.651 0 0 1 5.645-5.644zm57.95-17.223h-1.628L71.205 9.427a9.21 9.21 0 0 0-8.837-6.698h-9.575a1.66 1.66 0 0 0-1.66 1.66v12.355a11.52 11.52 0 0 0-7.92-3.454l-6.93-9.9A7.95 7.95 0 0 0 29.775 0H17.21a7.976 7.976 0 0 0-6.853 3.923l-5.523 9.413A5.617 5.617 0 0 0 0 18.89v6.262a4.758 4.758 0 0 0 4.752 4.752h1.07c.178.592.387 1.151.687 1.668H1.66A1.66 1.66 0 0 0 0 33.233v10.625c0 .917.743 1.66 1.66 1.66H9.63c0 4.943 4.022 8.965 8.965 8.965s8.965-4.022 8.965-8.965-4.022-8.965-8.965-8.965c-3.77 0-7.002 2.342-8.324 5.645H3.32v-7.305h47.813v7.305H40c-.907 0-1.65.743-1.65 1.66 0 .917.743 1.66 1.65 1.66h17.441c0 4.943 4.022 8.965 8.965 8.965s8.965-4.022 8.965-8.965h7.969a1.66 1.66 0 0 0 1.66-1.66V31.106c0-4.662-3.794-8.455-8.456-8.455z"/></g><g><path d="M20.53 23.25h5.036a1.66 1.66 0 1 0 0-3.32H20.53a1.66 1.66 0 1 0 0 3.32z"/></g><g><path d="M32 23.25c.397 0 .825-.177 1.134-.486.309-.31.486-.764.486-1.174a1.67 1.67 0 0 0-.486-1.173A1.645 1.645 0 0 0 32 19.93a1.69 1.69 0 0 0-1.214.487 1.67 1.67 0 0 0-.486 1.173c0 .41.178.865.486 1.174.31.309.738.486 1.214.486z"/></g></g></g></svg>