<svg xmlns="http://www.w3.org/2000/svg" width="80" height="85" viewBox="0 0 80 85"><g><g><g><path fill="#d50032" d="M68.077 44.204L39.62 15 11.16 44.204c-.161.169-.36.324-.551.466v33.516c0 2.814 2.31 5.155 5.158 5.155H63.47c2.85 0 5.16-2.341 5.16-5.155V44.67a5.644 5.644 0 0 1-.552-.466z"/></g><g><path fill="#8e5aa9" d="M69.451 29.12V14.71A5.009 5.009 0 0 0 64.443 9.7h-.004a5.01 5.01 0 0 0-5.009 5.009v4.221"/></g><g><path fill="#511c6c" d="M24.933 14.193L35.727 3.236a5.61 5.61 0 0 1 7.777 0L75.85 36.127a5.597 5.597 0 0 1 .15 7.925 5.555 5.555 0 0 1-4 1.719 5.615 5.615 0 0 1-3.927-1.565L39.615 15.052 11.157 44.206a5.612 5.612 0 0 1-7.93-.154 5.602 5.602 0 0 1 .154-7.925l10.395-10.54"/></g><g><path fill="#627eff" d="M19.276 20h-.006"/></g><g><path d="M19.271 21.634c-.414 0-.829-.155-1.15-.466l-.006-.005a1.66 1.66 0 0 1 2.31-2.386 1.663 1.663 0 0 1-1.154 2.857z"/></g><g><g><path fill="#fdb813" d="M33.93 53.38c2.941 0 5.33-3.207 5.33-7.15 0-3.943-2.389-7.15-5.33-7.15-2.93 0-5.33 3.207-5.33 7.15 0 3.943 2.4 7.15 5.33 7.15z"/></g><g><path fill="#fdb813" d="M45.303 53.38c2.935 0 5.33-3.207 5.33-7.15 0-3.943-2.393-7.15-5.33-7.15-2.941 0-5.303 3.207-5.303 7.15 0 3.943 2.362 7.15 5.303 7.15z"/></g><g><path fill="#fdb813" d="M54.1 49.814c-2.312-.457-4.593 1.582-5.195 4.643-.604 3.058.734 5.809 3.095 6.263 2.261.455 4.545-1.583 5.148-4.642.603-3.078-.738-5.81-3.048-6.264z"/></g><g><path fill="#fdb813" d="M30.328 54.457c-.604-3.062-2.884-5.1-5.197-4.643-2.308.453-3.65 3.186-3.047 6.264.603 3.059 2.916 5.097 5.196 4.642 2.313-.454 3.65-3.205 3.048-6.263z"/></g><g><path fill="#fdb813" d="M47.66 59c-.66-3.85-3.997-6.82-8.047-6.82-4.051 0-7.42 2.97-8.048 6.82-2.883 1.28-4.905 4.155-4.905 7.494 0 4.506 3.658 8.147 8.154 8.147 1.793 0 3.451-.582 4.8-1.567 1.386.985 3.004 1.567 4.797 1.567 4.497 0 8.154-3.641 8.154-8.147-.001-3.339-2.023-6.213-4.906-7.494z"/></g></g><g><path d="M67 78.186c0 1.927-1.605 3.494-3.534 3.494H15.765a3.5 3.5 0 0 1-3.498-3.494V45.44l.041-.04.037-.036 27.27-27.937 27.27 27.937.038.036c.014.014.077.027.077.04zM61.092 14.71a3.354 3.354 0 0 1 3.353-3.35 3.353 3.353 0 0 1 3.35 3.35v10.854l-6.703-6.814zM77 34.945l-5.886-6.004V14.71C71.114 11 68.122 8 64.44 8c-3.677 0-6.668 3-6.668 6.71v.665L44.687 2.07c-.01-.01-.021-.069-.033-.069a7.322 7.322 0 0 0-10.077 0c-.011 0-.022.058-.032.069L23.75 13c-.643.679-.635 1.73.018 2.373a1.684 1.684 0 0 0 2.347-.017l10.778-10.94a4.021 4.021 0 0 1 5.445 0l32.329 32.873.034.032c.759.731 1.189 1.679 1.209 2.767a3.916 3.916 0 0 1-1.101 2.811A3.978 3.978 0 0 1 72 44.11c-1.056 0-2-.385-2.759-1.109L40.803 13.89a1.661 1.661 0 0 0-2.375 0L10 43a3.946 3.946 0 0 1-5.577-.101 3.914 3.914 0 0 1-1.102-2.812 3.856 3.856 0 0 1 1.241-2.797L15 26.75c.601-.653.594-1.75-.058-2.347a1.66 1.66 0 0 0-2.349.016L2.213 34.945C.823 36.288 0 38.09 0 40c0 2 .684 3.802 2 5.201a7.353 7.353 0 0 0 6.946 2.03v30.955A6.821 6.821 0 0 0 15.765 85h47.7c3.76 0 6.82-3.057 6.82-6.814v-30.95a7.418 7.418 0 0 0 1.715.193c2 0 3.817-.791 5.2-2.228C78.548 43.802 79.268 42 79.23 40A7.144 7.144 0 0 0 77 34.945z"/></g><g><path d="M55.513 55.758c-.417 2.109-1.874 3.607-3.248 3.334-.764-.15-1.208-.764-1.445-1.253-.412-.839-.516-1.933-.294-3.061.222-1.128.732-2.096 1.474-2.723.305-.309.822-.645 1.44-.645a1.734 1.734 0 0 1 .333.033c.762.15 1.227.764 1.443 1.253.413.848.518 1.935.297 3.062zm-14.92 15.976a1.566 1.566 0 0 0-.98-.32c-.344 0-.689.106-.98.32A6.455 6.455 0 0 1 34.813 73c-3.58 0-6.494-2.93-6.494-6.506a6.496 6.496 0 0 1 3.909-5.95c.517-.225.885-.699.975-1.256.503-3.105 3.258-5.448 6.41-5.448 3.15 0 5.903 2.343 6.387 5.448.11.557.478 1.03 1 1.256a6.504 6.504 0 0 1 3.905 5.95C50.905 70.07 48 73 44.41 73c-1.41 0-2.703-.45-3.818-1.266zM23.711 55.758c-.222-1.127-.118-2.215.288-3.062.246-.49.689-1.104 1.452-1.253.113-.022.224-.033.331-.033.618 0 1.135.336 1.48.645.737.628 1.213 1.595 1.435 2.723.223 1.127.118 2.222-.295 3.061-.237.489-.68 1.103-1.403 1.253-1.415.27-2.872-1.225-3.288-3.334zm13.886-9.528c0 2.976-1.681 5.49-3.67 5.49-1.99 0-3.67-2.514-3.67-5.49-.001-2.976 1.68-5.49 3.67-5.49 1.989 0 3.67 2.514 3.67 5.49zm11.402 0c0 2.976-1.713 5.49-3.702 5.49-1.99 0-3.673-2.514-3.673-5.49 0-2.976 1.682-5.49 3.673-5.49 1.989 0 3.702 2.514 3.702 5.49zm5.413 1.955c-.778-.185-1.56-.123-2.314.083.124-.654.19-1.337.19-2.038 0-4.858-3.137-8.81-6.991-8.81-2.298 0-4.416 1.457-5.686 3.687-1.27-2.23-3.345-3.687-5.685-3.687-3.855 0-6.99 3.953-6.99 8.81 0 .7.063 1.384.189 2.038-.754-.205-1.537-.268-2.316-.083-1.639.322-2.985 1.408-3.81 3.057-.704 1.494-.906 3.326-.545 5.158.643 3.265 2.88 5.6 5.446 5.99A9.62 9.62 0 0 0 25 66.495c0 5.408 4.402 9.807 9.814 9.807 1.7 0 3.338-.43 4.798-1.301a9.299 9.299 0 0 0 4.798 1.301c5.412 0 9.815-4.4 9.815-9.808-.001-1.493-.32-2.84-.904-4.102 2.568-.391 4.805-2.726 5.449-5.992.36-1.831.158-3.663-.568-5.156-.804-1.65-2.15-2.736-3.79-3.058z"/></g></g></g></svg>