<svg xmlns="http://www.w3.org/2000/svg" width="87" height="70" viewBox="0 0 87 70"><g><g><g><path fill="#d50032" d="M75.323 7.874c-8.245-8.245-21.614-8.245-29.86 0l-3.064 3.064-3.064-3.064C31.089-.37 17.72-.37 9.475 7.874c-8.246 8.246-8.246 21.615 0 29.86l28.92 28.921a5.663 5.663 0 0 0 8.008 0l28.92-28.92c8.246-8.246 8.246-21.615 0-29.86z"/></g><g><g><path fill="#fdb813" d="M74.45 48.729A8.255 8.255 0 0 0 72 44.572c-3.17-2.95-8.146-2.95-11.326 0a8.305 8.305 0 0 0-2.44 4.157C57.938 49.95 57.09 51 56 51.484c-2.937 1.356-4.923 4.32-4.848 7.742.097 4.416 3.679 8.025 8.095 8.152A8.507 8.507 0 0 0 64.114 66a3.969 3.969 0 0 1 4.455 0c1.431.91 3.065 1.43 4.868 1.378 4.415-.127 7.998-3.736 8.094-8.152a8.34 8.34 0 0 0-4.801-7.742c-1.137-.484-1.986-1.534-2.28-2.755z"/></g><g><path fill="#fdb813" d="M60.14 43.852c3.337 0 6.04-3.253 6.04-7.266s-2.703-7.266-6.04-7.266c-3.336 0-6.04 3.253-6.04 7.266s2.704 7.266 6.04 7.266z"/></g><g transform="rotate(-64.845 -271.5 -3853)"><path fill="#fdb813" d="M79.861 50.88c3.293 0 5.962-2.193 5.962-4.896s-2.67-4.895-5.962-4.895S73.9 43.28 73.9 45.984c0 2.703 2.669 4.895 5.961 4.895z"/></g><g><path fill="#fdb813" d="M72.54 43.852c3.337 0 6.04-3.253 6.04-7.266s-2.703-7.266-6.04-7.266c-3.336 0-6.04 3.253-6.04 7.266s2.704 7.266 6.04 7.266z"/></g><g transform="rotate(-25.155 -297.5 -3853)"><path fill="#fdb813" d="M53.247 52.169c2.704 0 4.895-2.67 4.895-5.962s-2.192-5.962-4.895-5.962c-2.704 0-4.895 2.67-4.895 5.962 0 3.293 2.191 5.962 4.895 5.962z"/></g></g><g><g><path fill="#1c1c20" d="M80.173 49.94c-.852.406-1.716.444-2.435.06-1.574-.695-2.071-3.092-1.085-5.19.985-2.098 3.148-3.245 4.723-2.505.718.338 1.241 1.027 1.473 1.941.262 1.035.151 2.205-.387 3.295a4.738 4.738 0 0 1-2.29 2.4zM69.505 64.585a5.693 5.693 0 0 0-3.164-.962c-1.1 0-2.202.32-3.163.962-1.178.766-2.491 1.152-3.883 1.11a6.648 6.648 0 0 1-6.457-6.504A6.697 6.697 0 0 1 56.67 53a5.742 5.742 0 0 0 3.203-3.875 6.63 6.63 0 0 1 1.947-3.315c2.535-2.351 6.507-2.351 9.042 0a6.63 6.63 0 0 1 1.948 3.315A5.758 5.758 0 0 0 76 53a6.687 6.687 0 0 1 3.845 6.19 6.647 6.647 0 0 1-6.457 6.504 6.605 6.605 0 0 1-3.883-1.11zm-24.296.878a3.95 3.95 0 0 1-2.811 1.165 3.95 3.95 0 0 1-2.812-1.165L13.454 39.331H25c.738 0 1.377-.455 1.613-1.133l3.471-9.982L35 48.643c.115.662.656 1.165 1.328 1.273.09.015.18.022.27.022.577 0 1.122-.297 1.402-.798l6.114-9.81h5.603c-1.567.794-2.717 2.238-3.153 4.088-.453 1.79-.239 3.763.604 5.582.832 1.769 2.226 3.194 3.893 4 .11 0 .22.087.33.133A9.992 9.992 0 0 0 49.659 61zM60.142 31c2.401 0 4.354 2.509 4.354 5.585 0 3.077-1.953 5.58-4.354 5.58-2.4 0-4.353-2.503-4.353-5.58 0-3.076 1.953-5.585 4.353-5.585zm12.398 0c2.401 0 4.354 2.509 4.354 5.585 0 3.077-1.953 5.58-4.354 5.58-2.4 0-4.353-2.503-4.353-5.58C68.187 33.51 70.14 31 72.54 31zM52.356 42.077c.448 0 .918.111 1.385.333.964.459 1.777 1.311 2.259 2.4.542 1.09.68 2.26.417 3.295-.231.895-.754 1.603-1.473 1.895-.718.383-1.582.346-2.434-.06-.964-.458-1.777-1.31-2.289-2.4-.512-1.088-.65-2.258-.387-3.293.231-.915.754-1.604 1.473-1.942a2.498 2.498 0 0 1 1.05-.228zm30.455-2.825c-.882-.414-1.811-.581-2.811-.534a8.16 8.16 0 0 0 .267-2.133 8.55 8.55 0 0 0-.267-2.19c3.807-6.395 4.247-14.163 1.184-20.962-.382-.849-1.381-1.227-2.184-.845-.896.412-1.274 1.412-.891 2.23a19.37 19.37 0 0 1 .117 15.713c-1.413-1.78-3.438-2.898-5.686-2.898-2.54 0-4.789 1.422-6.199 3.614-1.41-2.192-3.663-3.614-6.199-3.614-4.078 0-7.426 3.68-7.705 8.367h-9.262c-.583 0-1.175.26-1.433.756l-4.444 7.165L32 21.822a1.632 1.632 0 0 0-1.53-1.293c-.746-.04-1.47.471-1.677 1.13L23.821 36H10.107A19.446 19.446 0 0 1 5 22.804c0-5.189 2-10.068 5.666-13.737 7.574-7.575 19.9-7.576 27.475 0l3.064 3.064c.316.316.795.494 1.192.494.448 0 .877-.178 1.193-.494l3.064-3.064c5.68-5.68 14.414-7.278 21.734-3.975a1.686 1.686 0 0 0 2.23-.843A1.714 1.714 0 0 0 69.776 2 22.888 22.888 0 0 0 56.462.343c-4.637.807-8.854 2.999-12.193 6.338l-1.872 1.872-1.871-1.872c-8.89-8.89-23.355-8.89-32.246 0C4 11 1.602 16.714 1.602 22.804A22.86 22.86 0 0 0 5.772 36H1.688C.755 36 0 36.713 0 37.644c0 .932.755 1.687 1.687 1.687h6.997l28.517 28.516A7.3 7.3 0 0 0 42.397 70a7.3 7.3 0 0 0 5.197-2.153L51 64.417c1.752 2.72 4.752 4.583 8.198 4.649 2.097.059 4.118-.52 5.802-1.676.823-.516 1.86-.516 2.633 0 1.652 1.102 3.715 1.678 5.704 1.678 5.34-.154 9.763-4.462 9.88-9.804a9.992 9.992 0 0 0-1.925-6.13c.11-.047.22-.134.33-.134 1.667-.806 3.05-2.231 3.893-4 .843-1.819 1.057-3.792.604-5.582-.484-1.911-1.66-3.418-3.308-4.166zm-9.474 29.816c-.1.003.098 0 0 0z"/></g><g><path fill="#1c1c20" d="M75.327 9.563c.443 0 .878-.18 1.192-.494.314-.314.481-.749.481-1.193a1.69 1.69 0 0 0-.481-1.192 1.7 1.7 0 0 0-1.192-.494c-.444 0-.88.18-1.193.494a1.702 1.702 0 0 0-.494 1.192c0 .446.18.88.494 1.193a1.7 1.7 0 0 0 1.193.494z"/></g></g></g></g></svg>