<svg xmlns="http://www.w3.org/2000/svg" width="85" height="63" viewBox="0 0 85 63"><g><g><g><path fill="#b5c3d0" d="M70.058 1.66H14.941L1.66 48.145h81.68z"/></g><g><path fill="#f8f8f8" d="M64.745 8.3H20.253L11.62 41.503h61.758z"/></g><g><path fill="#7bb1e5" d="M1.66 48.14h81.68v13.281H1.66z"/></g><g><g><path d="M13.767 39.843L21.537 10h41.925l7.77 29.843zM75 41.085L66.352 7.882a1.66 1.66 0 0 0-1.607-1.242H20.253a1.66 1.66 0 0 0-1.607 1.242L10 41.085c-.116.498 0 1.027.307 1.434.314.406.8.645 1.313.645h61.758c.514 0 .999-.239 1.313-.645.309-.407.423-.936.309-1.434z"/></g><g><path d="M81.68 59.766H3.32v-9.961h78.36zM16.194 3.32h52.612L81.14 46.484H3.861zM85 48.103V48v-.085-.062c0-.045 0-.089-.057-.132l-.007-.033L71.655 1.204A1.66 1.66 0 0 0 70.059 0H14.94a1.66 1.66 0 0 0-1.596 1.204L.064 47.688l-.007.033C0 47.764 0 47.808 0 47.852V61.425c0 .918.743 1.661 1.66 1.661h81.68a1.66 1.66 0 0 0 1.66-1.66V48.103z"/></g><g><path d="M46.821 33.2h-9.96a1.66 1.66 0 1 0 0 3.32h9.96a1.66 1.66 0 0 0 0-3.32z"/></g><g><path d="M30.213 33.2H21.58a1.66 1.66 0 1 0 0 3.32h8.633a1.66 1.66 0 0 0 0-3.32z"/></g><g><path d="M53.46 33.2a1.66 1.66 0 1 0 0 3.32h9.961a1.66 1.66 0 0 0 0-3.32z"/></g><g><path d="M42.83 26.56c-.915 0-1.66.745-1.66 1.66 0 .915.745 1.66 1.66 1.66.915 0 1.66-.745 1.66-1.66 0-.915-.745-1.66-1.66-1.66z"/></g><g><path d="M23.57 29.88h12.617c.915 0 1.66-.745 1.66-1.66 0-.915-.745-1.66-1.66-1.66H23.57c-.915 0-1.66.745-1.66 1.66 0 .915.745 1.66 1.66 1.66z"/></g><g><path d="M62.087 26.56H49.47c-.915 0-1.66.745-1.66 1.66 0 .915.745 1.66 1.66 1.66h12.617c.913 0 1.66-.745 1.66-1.66 0-.915-.747-1.66-1.66-1.66z"/></g><g><path d="M44.16 21.58c0 .917.743 1.66 1.66 1.66h14.942a1.66 1.66 0 1 0 0-3.32H45.82a1.66 1.66 0 0 0-1.66 1.66z"/></g><g><path d="M24.24 23.24h14.942a1.66 1.66 0 1 0 0-3.32H24.24a1.66 1.66 0 1 0 0 3.32z"/></g><g><path d="M34.2 16.6h16.602c.914 0 1.66-.745 1.66-1.66 0-.94-.746-1.66-1.66-1.66H34.2c-.915 0-1.66.72-1.66 1.66 0 .915.745 1.66 1.66 1.66z"/></g></g></g></g></svg>