<svg xmlns="http://www.w3.org/2000/svg" width="85" height="55" viewBox="0 0 85 55"><g><g><g><g><path fill="#ffdd69" d="M17.254 16.234a7.61 7.61 0 0 0-1.024 3.688h52.535a7.612 7.612 0 0 0-1.024-3.688 7.645 7.645 0 0 0-6.848-3.821 7.566 7.566 0 0 0-3.821-6.848 7.645 7.645 0 0 0-7.841.114 7.646 7.646 0 0 0-6.734-4.019 7.646 7.646 0 0 0-6.733 4.02 7.645 7.645 0 0 0-7.84-.115 7.576 7.576 0 0 0-3.823 6.848 7.645 7.645 0 0 0-6.847 3.821z"/></g><g><path fill="#d50032" d="M42.5 28.528C44 27 46.482 27 48 28.528 49.52 30 49.52 32.511 48 34l-4.62 4.65a1.249 1.249 0 0 1-1.76 0L37 34c-1.521-1.49-1.521-4 0-5.472 1.518-1.528 4-1.528 5.5 0zM14.94 19.92c-3.651 0-6.04 3.08-6.64 6.64L5 46.484h75L76.699 26.56c-.6-3.561-2.989-6.64-6.64-6.64z"/></g><g><path fill="#fdb813" d="M48 28.53c-1.517-1.53-4-1.53-5.5 0C41 27 38.52 27 37 28.53 35.48 30 35.48 32.512 37 34l4.62 4.652a1.249 1.249 0 0 0 1.76 0L48 34c1.521-1.488 1.521-4 0-5.47z"/></g><g><path fill="#8e5aa9" d="M80 46.48H5c-1.846 0-3.34 1.52-3.34 3.32 0 1.826 1.494 3.32 3.34 3.32h75c1.846 0 3.34-1.494 3.34-3.32 0-1.8-1.494-3.32-3.34-3.32z"/></g></g><g><path d="M80 51.465H5c-.935 0-1.68-.745-1.68-1.66 0-.916.745-1.66 1.68-1.66h75c.936 0 1.68.745 1.68 1.66 0 .915-.745 1.66-1.68 1.66zM9.938 26.835c.404-2.423 1.957-5.253 5.003-5.253H70.06c3.046 0 4.599 2.83 5.003 5.254l2.998 17.988H6.94zm68.399-.546c-.788-4.726-4.024-7.923-8.083-8.023a9.3 9.3 0 0 0-7.792-7.42 9.302 9.302 0 0 0-4.558-6.718 9.301 9.301 0 0 0-8.097-.588A9.3 9.3 0 0 0 42.5 0a9.301 9.301 0 0 0-7.376 3.629c-.645-.03-1.28.371-1.576.944a1.66 1.66 0 0 0 .784 2.213c.194.093.383.214.564.307.389.24.859.308 1.3.19a1.686 1.686 0 0 0 1.031-.814 5.987 5.987 0 0 1 10.545 0c.228.401.59.696 1.032.814.44.118.911.05 1.3-.19A5.994 5.994 0 0 1 56.244 7a5.996 5.996 0 0 1 2.992 5.366 1.66 1.66 0 0 0 .486 1.22c.278.324.77.499 1.221.486a5.965 5.965 0 0 1 5.886 4.19H18.171a5.966 5.966 0 0 1 5.886-4.19c.459.013.943-.162 1.221-.485a1.66 1.66 0 0 0 .486-1.221c-.006-.211 0-.427.016-.642.072-.914-.61-1.724-1.524-1.785a1.659 1.659 0 0 0-1.606.892 9.305 9.305 0 0 0-7.903 7.436c-4.06.1-7.296 3.297-8.084 8.022L3.538 45C1.494 45.658 0 47.56 0 49.805c0 2.746 2.234 4.98 5 4.98h75c2.766 0 5-2.234 5-4.98 0-2.245-1.493-4.147-3.538-4.805z"/></g><g><path d="M38.17 29.7c.436-.434 1.006-.7 1.578-.7.57 0 1.142.266 1.576.7.676.65 1.676.65 2.348 0 .87-.868 2.328-.869 3.153 0 .87.87.87 2.3 0 3.155l-4.327 4.327-4.327-4.327c-.87-.855-.87-2.285 0-3.154zm2.274 10.123c.556.548 1.277.85 2.054.85.777 0 1.502-.302 2.054-.85l4.622-4.621c2.163-2.202 2.163-5.685 0-7.849a5.56 5.56 0 0 0-6.676-.897 5.56 5.56 0 0 0-6.675.897c-2.164 2.164-2.164 5.647 0 7.85z"/></g><g><path d="M33.13 13.82c.87 0 1.66-.743 1.66-1.66 0-.917-.79-1.66-1.66-1.66a1.66 1.66 0 0 0-1.66 1.66v.001c0 .917.743 1.66 1.66 1.66z"/></g><g><path d="M39.06 14.73v.001a1.66 1.66 0 1 0 3.32 0 1.66 1.66 0 1 0-3.32 0z"/></g><g><path d="M43.38 8.42a1.66 1.66 0 1 0-3.32 0v.002a1.66 1.66 0 1 0 3.32-.002z"/></g><g><path d="M27.922 7.23c.297 0 .598-.079.87-.23a1.682 1.682 0 0 0 .543-2.3 1.66 1.66 0 0 0-2.284-.543h-.001c-.78.48-1.05 1.503-.543 2.284.313.559.858.79 1.415.79z"/></g><g><path d="M61.76 41.5h9.96a1.66 1.66 0 1 0 0-3.32h-9.96a1.66 1.66 0 0 0 0 3.32z"/></g><g><path d="M55.12 41.5c.88 0 1.661-.743 1.661-1.66 0-.916-.781-1.66-1.66-1.66h-.002a1.66 1.66 0 1 0 .002 3.32z"/></g></g></g></svg>