<svg xmlns="http://www.w3.org/2000/svg" width="88" height="75" viewBox="0 0 88 75"><g><g><g><g><path fill="#d50032" d="M25.166 16.91c-4.282 0-7.766-3.483-7.766-7.764 0-4.282 3.484-7.766 7.766-7.766 4.28 0 7.764 3.484 7.764 7.766 0 4.28-3.483 7.764-7.764 7.764z"/></g><g><path fill="#d50032" d="M15.835 73.624V30.266L8.582 40.624a3.965 3.965 0 0 1-3.247 1.689c-.814 0-1.599-.248-2.268-.716a3.967 3.967 0 0 1-.973-5.515L14.69 18.09a4.394 4.394 0 0 1 3.593-1.87h13.775c1.428 0 2.771.7 3.593 1.87l12.596 17.992c.469.669.753 1.453.753 2.268 0 1.292-.668 2.506-1.726 3.247a3.962 3.962 0 0 1-5.515-.973l-7.255-10.361v43.36H15.835z"/></g></g><g><g><path fill="#fdb813" d="M69.81 39.173a6.348 6.348 0 0 1-6.34-6.343 6.347 6.347 0 0 1 6.34-6.34 6.347 6.347 0 0 1 6.34 6.34 6.348 6.348 0 0 1-6.34 6.343z"/></g><g><path fill="#fdb813" d="M62.114 73.621V52.294l-12.662-6.691a3.305 3.305 0 0 1-1.968-4.21c.516-1.307 1.717-2.185 3.105-2.185.411 0 .753.066 1.113.195l.022.008L60 43l1.169-2.935.023-.065a3.723 3.723 0 0 1 2.984-1.52h11.252c1.19 0 2.305.58 2.985 1.52l7.407 11.848a3.287 3.287 0 0 1-.82 4.585c-.551.391-1.204.567-1.883.567C82 57 81 56.505 80.414 55.624l-.01-.014-2.915-5.178v23.19H62.114z"/></g></g><g><path fill="#1c1c20" d="M60.737 49.229L50.4 43.766a1.68 1.68 0 0 0-.224-.099 1.26 1.26 0 0 1-.816-1.16 1.226 1.226 0 0 1 .708-1.114c.283-.133.599-.154.932-.06l8.468 3.737a1.722 1.722 0 0 0 2.29-.932L63 41.093c.285-.345.72-.546 1.18-.546h11.253c.503 0 .975.24 1.271.642L84.079 53h.05c.184.291.223.556.223.732a1.23 1.23 0 0 1-1.447 1.215 1.22 1.22 0 0 1-.755-.453l-3.501-6.219a1.72 1.72 0 0 0-1.937-.82c-.712.198-1.285.882-1.285 1.665v22.437h-3.899V59.898a1.722 1.722 0 0 0-3.443 0v11.659h-3.901v-22.44c0-.943-.757-1.71-1.699-1.722h-.023c-.931 0-1.696.742-1.72 1.676zm9.07-20.676a4.28 4.28 0 0 1 4.274 4.275 4.28 4.28 0 0 1-4.275 4.276 4.28 4.28 0 0 1-4.274-4.276 4.28 4.28 0 0 1 4.274-4.275zm-44.64-25.11a5.706 5.706 0 0 1 5.699 5.7 5.705 5.705 0 0 1-5.699 5.698 5.69 5.69 0 0 1-5.7-5.698 5.69 5.69 0 0 1 5.7-5.7zm35.574 69.835c0 .95.77 1.722 1.721 1.722H77.15c.95 0 1.721-.771 1.721-1.722V55.686l.33.586c.028.049.058.097.09.142a4.629 4.629 0 0 0 3.017 1.923 4.637 4.637 0 0 0 3.491-.773c1.202-.873 1.997-2.305 1.997-3.832 0-.948-.284-1.86-.795-2.641l-7.406-11.774a5.02 5.02 0 0 0-3.406-2.154c.812-1.237 1.336-2.73 1.336-4.336 0-4.256-3.462-7.718-7.717-7.718-4.256 0-7.718 3.463-7.718 7.718 0 1.606.494 3.099 1.336 4.336a5.028 5.028 0 0 0-3.357 2.08 2.154 2.154 0 0 0-.187.344l-.652 1.617-6.947-3.053a4.655 4.655 0 0 0-1.971-.312 5.302 5.302 0 0 0-.939-2.55L45.69 30a1.743 1.743 0 0 0-2.397-.394A1.718 1.718 0 0 0 42.869 32l3.683 5.265c.224.32.343.735.343 1.083 0 .652-.303 1.2-.808 1.554-.857.6-2.087.39-2.639-.465l-7.88-11.255a1.722 1.722 0 0 0-3.132.987v42.388h-5.547V49.434a1.722 1.722 0 0 0-3.443 0v22.123h-5.549V29.173c0-.751-.487-1.416-1.203-1.642a1.733 1.733 0 0 0-1.928.655l-7.88 11.252a1.834 1.834 0 0 1-1.554.808 1.898 1.898 0 0 1-1.55-2.98l12.596-17.991a2.326 2.326 0 0 1 1.901-.99h13.776c.755 0 1.466.37 1.945.988l3.336 4.829c.545.778 1.664.968 2.397.423.78-.525.968-1.619.423-2.398l-3.381-4.83a5.772 5.772 0 0 0-4.473-2.448 9.095 9.095 0 0 0 2.006-5.706c0-5.042-4.1-9.143-9.14-9.143C20.125 0 16 4.101 16 9.143c0 2.157.777 4.14 2 5.706a5.764 5.764 0 0 0-4.441 2.45L1 35.29C-.724 37.7-.136 41 2.274 42.724c.902.631 1.96.965 3.058.965a5.343 5.343 0 0 0 4.375-2.277l4.747-6.78v38.646c0 .951.771 1.722 1.722 1.722h17.981c.951 0 1.722-.771 1.722-1.722V34.63l4.75 6.782C41.877 43.198 44 44 46 43.584c.394 1.471 1.446 2.713 2.888 3.277l11.853 6.264v20.153z"/></g><g><path fill="#1c1c20" d="M41.143 28.893c2.215 0 2.22-3.443 0-3.443"/></g></g></g></svg>