<?xml version="1.0" encoding="UTF-8"?>
<svg width="30px" height="40px" viewBox="0 0 30 40" version="1.1" xmlns="http://www.w3.org/2000/svg" xmlns:xlink="http://www.w3.org/1999/xlink">
    <title>Path Copy</title>
    <g id="Locations" stroke="none" stroke-width="1" fill="none" fill-rule="evenodd">
        <g transform="translate(-103.000000, -480.000000)" fill="#D50032" id="Path-Copy">
            <path d="M117.663746,519.999571 C117.263632,519.81235 116.92796,519.510172 116.699746,519.131572 C112.983819,513.871502 109.239748,508.631575 105.544035,503.355862 C104.136393,501.331005 103.28425,498.972792 103.07225,496.515721 C102.448365,490.11558 105.908178,483.959296 111.776533,481.420011 C117.472389,478.952083 122.852244,479.704083 127.668672,483.652154 C129.120957,484.832653 130.325742,486.288581 131.213885,487.935938 C132.102027,489.583509 132.656384,491.389866 132.844741,493.252079 C133.323256,496.992864 132.343627,500.77422 130.108671,503.812076 C126.511315,508.878789 122.91153,513.95493 119.308674,519.039929 C119.074303,519.4565 118.718553,519.791571 118.288603,520 L117.663746,519.999571 Z"></path>
        </g>
    </g>
</svg>