<?xml version="1.0" encoding="UTF-8"?>
<svg width="30px" height="40px" viewBox="0 0 30 40" version="1.1" xmlns="http://www.w3.org/2000/svg" xmlns:xlink="http://www.w3.org/1999/xlink">
    <title>Group 2</title>
    <g id="Adopt" stroke="none" stroke-width="1" fill="none" fill-rule="evenodd">
        <g id="Adoption_Info" transform="translate(-705.000000, -3656.000000)">
            <g id="Group-6" transform="translate(0.000000, 3509.000000)">
                <g id="Group-2" transform="translate(705.000000, 147.000000)">
                    <path d="M14.6637459,39.9995714 C14.2636317,39.8123501 13.9279604,39.5101716 13.6997462,39.1315717 C9.9838187,33.8715018 6.23974837,28.6315748 2.54403517,23.355862 C1.13639272,21.3310055 0.284250115,18.9727919 0.0722501773,16.5157212 C-0.551635354,10.1155802 2.90817792,3.95929627 8.77653334,1.4200113 C14.4723888,-1.04791655 19.8522444,-0.29591677 24.6686715,3.6521535 C26.1209568,4.83265316 27.3257422,6.2885813 28.2138848,7.93593796 C29.1020274,9.58350891 29.6563844,11.3898655 29.8447415,13.2520793 C30.3232556,16.9928639 29.3436273,20.7742199 27.1086708,23.8120762 C23.5113147,28.878789 19.9115301,33.9549303 16.308674,39.0399289 C16.0743026,39.4565002 15.7185527,39.7915715 15.2886029,40 L14.6637459,39.9995714 Z" id="Path-Copy" fill="#D50032"></path>
                    <path d="M9.2499413,12.0306932 C7.5833529,13.7352708 7.5833529,16.5235763 9.2499413,18.2280656 L15.3125,24 L21.3750587,18.2280656 C23.0416471,16.523488 23.0416471,13.7351825 21.3750587,12.0306932 C19.9190423,10.5413953 17.511738,10.7416637 15.9872611,12.1458387 C15.2921856,12.7891172 15.3328144,12.7891172 14.6377389,12.1458387 C13.113262,10.7416637 10.7059577,10.5414836 9.2499413,12.0306932 L9.2499413,12.0306932 Z" id="Path" fill="#FFFFFF"></path>
                </g>
            </g>
        </g>
    </g>
</svg>