<?xml version="1.0" encoding="UTF-8"?>
<svg width="30px" height="40px" viewBox="0 0 30 40" version="1.1" xmlns="http://www.w3.org/2000/svg" xmlns:xlink="http://www.w3.org/1999/xlink">
    <title>Group 2</title>
    <g id="For-Your-Pet" stroke="none" stroke-width="1" fill="none" fill-rule="evenodd">
        <g id="Community_Cats" transform="translate(-492.000000, -2579.000000)">
            <g id="Group-3" transform="translate(251.000000, 2529.000000)">
                <g id="Group-2" transform="translate(241.000000, 50.000000)">
                    <path d="M14.6637459,39.9995714 C14.2636317,39.8123501 13.9279604,39.5101716 13.6997462,39.1315717 C9.9838187,33.8715018 6.23974837,28.6315748 2.54403517,23.355862 C1.13639272,21.3310055 0.284250115,18.9727919 0.0722501773,16.5157212 C-0.551635354,10.1155802 2.90817792,3.95929627 8.77653334,1.4200113 C14.4723888,-1.04791655 19.8522444,-0.29591677 24.6686715,3.6521535 C26.1209568,4.83265316 27.3257422,6.2885813 28.2138848,7.93593796 C29.1020274,9.58350891 29.6563844,11.3898655 29.8447415,13.2520793 C30.3232556,16.9928639 29.3436273,20.7742199 27.1086708,23.8120762 C23.5113147,28.878789 19.9115301,33.9549303 16.308674,39.0399289 C16.0743026,39.4565002 15.7185527,39.7915715 15.2886029,40 L14.6637459,39.9995714 Z" id="Path-Copy" fill="#D50032"></path>
                    <g id="noun-cat-1798135" transform="translate(8.000000, 9.333333)" fill="#FFFFFF" fill-rule="nonzero">
                        <path d="M13.1674575,8.69964731 C13.2725383,8.21853609 13.3333233,7.71257516 13.3333233,7.17962536 C13.3333233,6.28620843 13.1781036,5.46019045 12.8920361,4.72117571 C13.797028,3.01481033 14.2673847,1.68294864 14.3574649,0.553576811 C14.3687973,0.410834644 14.3199208,0.27015254 14.2230802,0.164948653 C14.1257825,0.0598678424 13.9891062,0 13.8461443,0 C12.5343265,0 11.2733509,0.538107288 10.0008882,1.62750861 C9.17270169,1.24163502 8.22354877,1.02563607 7.17948056,1.02563607 C6.13541234,1.02563607 5.18623012,1.24175224 4.35807295,1.62750861 C3.08599119,0.537990073 1.8250156,0 0.512816819,0 C0.369846082,0 0.233169819,0.0598678424 0.135998128,0.165062938 C0.0390432854,0.269915178 -0.00972131398,0.410940138 0.00161342975,0.553691096 C0.0916994411,1.68256476 0.56205028,3.01454367 1.46704224,4.72128999 C1.1808722,5.46030473 1.025755,6.28629341 1.025755,7.17950521 C1.025755,7.71248432 1.08665141,8.21841594 1.19162086,8.69952717 C0.867344042,8.86687874 0.553587318,9.07602352 0.208328914,9.33082082 C-0.0195762114,9.49897532 -0.0678836701,9.82016644 0.100156543,10.0479749 C0.200888657,10.1844196 0.356108419,10.2564222 0.513282751,10.2564222 C0.618937917,10.2564222 0.725621651,10.2239125 0.817193369,10.1563758 C1.06089622,9.97654663 1.27861238,9.82946163 1.49382013,9.7055941 C1.6223675,10.0257684 1.7780444,10.3269244 1.9548875,10.6113773 C1.5810285,10.7609883 1.18554324,10.9937051 0.697223253,11.4007654 C0.479618445,11.5825403 0.450200272,11.9055835 0.631632362,12.1235165 C0.733050186,12.2453093 0.878769628,12.3078116 1.02585756,12.3078116 C1.14158447,12.3078116 1.25788574,12.2687788 1.35391458,12.1892216 C1.86980952,11.759275 2.22031332,11.5780891 2.61307333,11.4701336 C3.7042915,12.6411462 5.29095049,13.3333333 7.17949814,13.3333333 C9.06804578,13.3333333 10.6546462,12.6411462 11.7459229,11.4698991 C12.1386536,11.5778429 12.4891574,11.7590464 13.0050817,12.1889872 C13.1008908,12.2685414 13.2174206,12.3075771 13.3331387,12.3075771 C13.4802296,12.3075771 13.625949,12.2450778 13.7273639,12.123282 C13.9086817,11.9053344 13.8793778,11.5824202 13.661773,11.400531 C13.1735703,10.9935879 12.7779678,10.7610029 12.4041088,10.6111428 C12.5808464,10.3265757 12.7367665,10.0252995 12.8651761,9.70535967 C13.0802608,9.82921548 13.2980825,9.97630634 13.5418029,10.1561414 C13.6333776,10.2237923 13.7400613,10.2561878 13.8457135,10.2561878 C14.0028791,10.2561878 14.1582102,10.1841881 14.2589569,10.0477404 C14.4269972,9.8198353 14.3785754,9.49887861 14.1507846,9.33058639 C13.8052038,9.07600886 13.4915643,8.86699888 13.1673754,8.69964438 L13.1674575,8.69964731 Z M4.6154109,7.17950814 C4.04969935,7.17950814 3.58977483,6.71923198 3.58977483,6.15387208 C3.58977483,5.58816053 4.04969935,5.12823601 4.6154109,5.12823601 C5.18112245,5.12823601 5.64104697,5.58816053 5.64104697,6.15387208 C5.64104697,6.71923198 5.18112245,7.17950814 4.6154109,7.17950814 Z M8.10257353,8.32271141 L7.2980939,9.17847284 C7.23250301,9.24841243 7.12593356,9.24841243 7.06034267,9.17847284 L6.25586304,8.32271141 C6.03722967,8.09022608 6.19198936,7.69244337 6.50116882,7.69244337 L7.85694248,7.69244337 C8.16645014,7.69232893 8.32135049,8.08997993 8.10259111,8.32271141 L8.10257353,8.32271141 Z M9.74347402,7.17950814 C9.17776247,7.17950814 8.71783795,6.71923198 8.71783795,6.15387208 C8.71783795,5.58816053 9.17776247,5.12823601 9.74347402,5.12823601 C10.3091856,5.12823601 10.7691101,5.58816053 10.7691101,6.15387208 C10.7691101,6.71923198 10.3091856,7.17950814 9.74347402,7.17950814 Z" id="Shape"></path>
                    </g>
                </g>
            </g>
        </g>
    </g>
</svg>